<svg width="16" height="16" viewBox="0 0 16 16" fill="none" xmlns="http://www.w3.org/2000/svg">
<g clip-path="url(#clip0_1_2)">
<rect width="16" height="16" fill="url(#paint0_linear_1_2)"/>
<path fill-rule="evenodd" clip-rule="evenodd" d="M14.25 0.25H15.75V1.75H14.25V0.25ZM14.25 2.25H15.75V3.75H15.0725C14.8304 3.34793 14.5549 2.9682 14.25 2.61462V2.25ZM13.1962 2.25C13.39 2.42518 13.5748 2.61002 13.75 2.80376V3.75H12.25V2.25H13.1962ZM13.3854 1.75H13.75V0.25H12.25V0.927488C12.6521 1.16962 13.0318 1.44506 13.3854 1.75ZM12.25 1.51821C12.3633 1.59262 12.4744 1.66992 12.5835 1.75H12.25V1.51821ZM11.75 0.649564V0.25H10.835C11.1494 0.365044 11.4548 0.498676 11.75 0.649564ZM10.25 0.581661C10.7758 0.740929 11.278 0.954571 11.75 1.21604V1.75H10.25V0.581661ZM8.25 0.253956C8.76421 0.270252 9.26579 0.336639 9.75 0.448399V1.75H8.25V0.253956ZM6.25 0.448399C6.73422 0.336639 7.23579 0.270252 7.75 0.253956V1.75H6.25V0.448399ZM5.16503 0.25C4.85062 0.365044 4.54517 0.498676 4.25 0.649564V0.25H5.16503ZM4.25 1.21604C4.72201 0.954571 5.22419 0.740929 5.75 0.581661V1.75H4.25V1.21604ZM3.75 0.927488V0.25H2.25V1.75H2.61462C2.9682 1.44506 3.34793 1.16962 3.75 0.927488ZM3.41655 1.75C3.52556 1.66992 3.63675 1.59262 3.75 1.51821V1.75H3.41655ZM2.25 2.80376C2.42518 2.61002 2.61002 2.42518 2.80376 2.25H3.75V3.75H2.25V2.80376ZM1.75 2.61462V2.25H0.25V3.75H0.927488C1.16962 3.34793 1.44506 2.9682 1.75 2.61462ZM1.51821 3.75C1.59262 3.63675 1.66992 3.52556 1.75 3.41655V3.75H1.51821ZM0.649564 4.25H0.25V5.16503C0.365044 4.85062 0.498676 4.54517 0.649564 4.25ZM0.581661 5.75C0.740929 5.22419 0.954571 4.72201 1.21604 4.25H1.75V5.75H0.581661ZM0.253956 7.75C0.270252 7.23579 0.336639 6.73422 0.448399 6.25H1.75V7.75H0.253956ZM0.448399 9.75C0.336639 9.26579 0.270252 8.76421 0.253956 8.25H1.75V9.75H0.448399ZM-0.25 8V0H0V-0.25H8H16V0H16.25V8V16H16V16.25H8H0V16H-0.25V8ZM7.75 15.746C7.23579 15.7297 6.73422 15.6634 6.25 15.5516V14.25H7.75V15.746ZM9.75 15.5516C9.26579 15.6634 8.76421 15.7297 8.25 15.746V14.25H9.75V15.5516ZM10.835 15.75H11.75V15.3504C11.4548 15.5013 11.1494 15.635 10.835 15.75ZM11.75 14.784C11.278 15.0454 10.7758 15.2591 10.25 15.4183V14.25H11.75V14.784ZM12.25 15.0725V15.75H13.75V14.25H13.3854C13.0318 14.5549 12.6521 14.8304 12.25 15.0725ZM12.5835 14.25C12.4744 14.3301 12.3633 14.4074 12.25 14.4818V14.25H12.5835ZM13.75 13.1962C13.5748 13.39 13.39 13.5748 13.1962 13.75H12.25V12.25H13.75V13.1962ZM14.25 13.3854V13.75H15.75V12.25H15.0725C14.8304 12.6521 14.5549 13.0318 14.25 13.3854ZM14.4818 12.25C14.4074 12.3633 14.3301 12.4744 14.25 12.5835V12.25H14.4818ZM15.3504 11.75H15.75V10.835C15.635 11.1494 15.5013 11.4548 15.3504 11.75ZM15.4183 10.25C15.2591 10.7758 15.0454 11.278 14.784 11.75H14.25V10.25H15.4183ZM15.746 8.25C15.7297 8.76421 15.6634 9.26579 15.5516 9.75H14.25V8.25H15.746ZM15.5516 6.25C15.6634 6.73422 15.7297 7.23579 15.746 7.75H14.25V6.25H15.5516ZM15.75 5.16503V4.25H15.3504C15.5013 4.54517 15.635 4.85062 15.75 5.16503ZM14.784 4.25C15.0454 4.72201 15.2591 5.22419 15.4183 5.75H14.25V4.25H14.784ZM14.4818 3.75H14.25V3.41655C14.3301 3.52556 14.4074 3.63675 14.4818 3.75ZM5.75 15.4183C5.22419 15.2591 4.72201 15.0454 4.25 14.784V14.25H5.75V15.4183ZM4.25 15.3504C4.54517 15.5013 4.85062 15.635 5.16503 15.75H4.25V15.3504ZM3.75 14.4818V14.25H3.41655C3.52556 14.3301 3.63675 14.4074 3.75 14.4818ZM2.61462 14.25C2.9682 14.5549 3.34793 14.8304 3.75 15.0725V15.75H2.25V14.25H2.61462ZM2.80376 13.75C2.61002 13.5748 2.42518 13.39 2.25 13.1962V12.25H3.75V13.75H2.80376ZM1.75 12.5835C1.66992 12.4744 1.59262 12.3633 1.51821 12.25H1.75V12.5835ZM0.927488 12.25C1.16962 12.6521 1.44506 13.0318 1.75 13.3854V13.75H0.25V12.25H0.927488ZM0.649564 11.75H0.25V10.835C0.365044 11.1494 0.498676 11.4548 0.649564 11.75ZM1.21604 11.75C0.954571 11.278 0.740929 10.7758 0.581661 10.25H1.75V11.75H1.21604ZM14.25 14.25H15.75V15.75H14.25V14.25ZM0.25 1.75V0.25H1.75V1.75H0.25ZM12.25 4.25H13.75V5.75H12.25V4.25ZM12.25 6.25H13.75V7.75H12.25V6.25ZM12.25 8.25H13.75V9.75H12.25V8.25ZM12.25 10.25H13.75V11.75H12.25V10.25ZM1.75 14.25V15.75H0.25V14.25H1.75ZM4.25 3.75V2.25H5.75V3.75H4.25ZM6.25 3.75V2.25H7.75V3.75H6.25ZM8.25 3.75V2.25H9.75V3.75H8.25ZM10.25 3.75V2.25H11.75V3.75H10.25ZM10.25 4.25H11.75V5.75H10.25V4.25ZM10.25 6.25H11.75V7.75H10.25V6.25ZM10.25 8.25H11.75V9.75H10.25V8.25ZM10.25 10.25H11.75V11.75H10.25V10.25ZM10.25 12.25H11.75V13.75H10.25V12.25ZM9.75 12.25V13.75H8.25V12.25H9.75ZM7.75 12.25V13.75H6.25V12.25H7.75ZM5.75 12.25V13.75H4.25V12.25H5.75ZM3.75 11.75H2.25V10.25H3.75V11.75ZM3.75 9.75H2.25V8.25H3.75V9.75ZM3.75 7.75H2.25V6.25H3.75V7.75ZM3.75 5.75H2.25V4.25H3.75V5.75ZM4.25 5.75V4.25H5.75V5.75H4.25ZM6.25 5.75V4.25H7.75V5.75H6.25ZM8.25 5.75V4.25H9.75V5.75H8.25ZM8.25 6.25H9.75V7.75H8.25V6.25ZM8.25 8.25H9.75V9.75H8.25V8.25ZM8.25 10.25H9.75V11.75H8.25V10.25ZM7.75 10.25V11.75H6.25V10.25H7.75ZM5.75 10.25V11.75H4.25V10.25H5.75ZM5.75 9.75H4.25V8.25H5.75V9.75ZM5.75 7.75H4.25V6.25H5.75V7.75ZM6.25 7.75V6.25H7.75V7.75H6.25ZM6.25 8.25H7.75V9.75H6.25V8.25Z" fill="white" fill-opacity="0.15"/>
<g filter="url(#filter0_d_1_2)">
<path d="M3.125 9.5C3.125 10.0967 3.36205 10.669 3.78401 11.091C4.20597 11.5129 4.77826 11.75 5.375 11.75H11C11.4389 11.7505 11.8641 11.597 12.2014 11.3162C12.5388 11.0354 12.767 10.6452 12.8462 10.2135C12.9255 9.7818 12.8507 9.33598 12.6351 8.9537C12.4194 8.57143 12.0765 8.27693 11.666 8.1215C11.7588 7.85762 11.7759 7.57305 11.7155 7.29993C11.6551 7.02682 11.5195 6.77604 11.3241 6.57592C11.1286 6.3758 10.8811 6.23432 10.6095 6.16745C10.3379 6.10058 10.053 6.11099 9.787 6.1975C9.61495 5.53751 9.19278 4.9704 8.60988 4.61626C8.02698 4.26212 7.32913 4.14875 6.66411 4.30018C5.99908 4.4516 5.4191 4.85592 5.04699 5.42751C4.67488 5.9991 4.53985 6.69308 4.6705 7.3625C4.22079 7.51092 3.82935 7.7974 3.55187 8.18116C3.27439 8.56493 3.12502 9.02643 3.125 9.5Z" fill="white"/>
<path d="M3.125 9.5C3.125 10.0967 3.36205 10.669 3.78401 11.091C4.20597 11.5129 4.77826 11.75 5.375 11.75H11C11.4389 11.7505 11.8641 11.597 12.2014 11.3162C12.5388 11.0354 12.767 10.6452 12.8462 10.2135C12.9255 9.7818 12.8507 9.33598 12.6351 8.9537C12.4194 8.57143 12.0765 8.27693 11.666 8.1215C11.7588 7.85762 11.7759 7.57305 11.7155 7.29993C11.6551 7.02682 11.5195 6.77604 11.3241 6.57592C11.1286 6.3758 10.8811 6.23432 10.6095 6.16745C10.3379 6.10058 10.053 6.11099 9.787 6.1975C9.61495 5.53751 9.19278 4.9704 8.60988 4.61626C8.02698 4.26212 7.32913 4.14875 6.66411 4.30018C5.99908 4.4516 5.4191 4.85592 5.04699 5.42751C4.67488 5.9991 4.53985 6.69308 4.6705 7.3625C4.22079 7.51092 3.82935 7.7974 3.55187 8.18116C3.27439 8.56493 3.12502 9.02643 3.125 9.5Z" stroke="url(#paint1_linear_1_2)" stroke-linecap="round" stroke-linejoin="round"/>
</g>
</g>
<defs>
<filter id="filter0_d_1_2" x="0.625" y="2.73466" width="14.752" height="12.5153" filterUnits="userSpaceOnUse" color-interpolation-filters="sRGB">
<feFlood flood-opacity="0" result="BackgroundImageFix"/>
<feColorMatrix in="SourceAlpha" type="matrix" values="0 0 0 0 0 0 0 0 0 0 0 0 0 0 0 0 0 0 127 0" result="hardAlpha"/>
<feOffset dy="1"/>
<feGaussianBlur stdDeviation="1"/>
<feComposite in2="hardAlpha" operator="out"/>
<feColorMatrix type="matrix" values="0 0 0 0 0 0 0 0 0 0 0 0 0 0 0 0 0 0 0.5 0"/>
<feBlend mode="normal" in2="BackgroundImageFix" result="effect1_dropShadow_1_2"/>
<feBlend mode="normal" in="SourceGraphic" in2="effect1_dropShadow_1_2" result="shape"/>
</filter>
<linearGradient id="paint0_linear_1_2" x1="8" y1="0" x2="8" y2="16" gradientUnits="userSpaceOnUse">
<stop stop-color="#7EE8FF"/>
<stop offset="1" stop-color="#4E94D3"/>
</linearGradient>
<linearGradient id="paint1_linear_1_2" x1="8.00102" y1="4.23466" x2="8.00102" y2="11.75" gradientUnits="userSpaceOnUse">
<stop stop-color="#2C2C2C"/>
<stop offset="1" stop-color="#1F1F1F"/>
</linearGradient>
<clipPath id="clip0_1_2">
<rect width="16" height="16" fill="white"/>
</clipPath>
</defs>
</svg>
