<svg width="60" height="30" viewBox="0 0 60 30" fill="none" xmlns="http://www.w3.org/2000/svg">
<g clip-path="url(#clip0_1_4)">
<rect width="60" height="30" fill="#FFC3C3"/>
<path d="M38.3041 0.132413L50.222 8.69553L36.8471 14.7352L38.3041 0.132413Z" fill="#FF5E5E"/>
<path d="M42.6618 17.985L44.2424 29.4215L33.5478 25.072L42.6618 17.985Z" fill="#FFA337"/>
<path d="M13.5961 6.26641L20.7492 15.3286L9.32455 16.9924L13.5961 6.26641Z" fill="#FFEE57"/>
<g filter="url(#filter0_d_1_4)">
<g filter="url(#filter1_d_1_4)">
<rect x="39.4" y="10.61" width="1" height="8" fill="url(#paint0_linear_1_4)"/>
</g>
<mask id="mask0_1_4" style="mask-type:alpha" maskUnits="userSpaceOnUse" x="35" y="5" width="19" height="18">
<rect x="35.8629" y="12.8538" width="13.2485" height="11.8001" transform="rotate(-32.3303 35.8629 12.8538)" fill="#D9D9D9"/>
</mask>
<g mask="url(#mask0_1_4)">
<rect x="38.8308" y="8.89682" width="3.05354" height="11.3592" rx="1.52677" transform="rotate(-32.3276 38.8308 8.89682)" fill="white" fill-opacity="0.3" stroke="black" stroke-width="1.125"/>
</g>
<mask id="mask1_1_4" style="mask-type:alpha" maskUnits="userSpaceOnUse" x="39" y="8" width="8" height="10">
<rect x="39.5293" y="8.94859" width="1.92854" height="10.3795" rx="0.964273" transform="rotate(-32.3276 39.5293 8.94859)" fill="white"/>
</mask>
<g mask="url(#mask1_1_4)">
<rect x="38.6469" y="10.0773" width="11.8225" height="8.59818" fill="url(#paint1_linear_1_4)"/>
</g>
<mask id="path-9-outside-1_1_4" maskUnits="userSpaceOnUse" x="11.346" y="12.704" width="37" height="9" fill="black">
<rect fill="white" x="11.346" y="12.704" width="37" height="9"/>
<path d="M12.346 20L14.842 14.4H16.122L18.626 20H17.266L15.218 15.056H15.73L13.674 20H12.346ZM13.594 18.8L13.938 17.816H16.818L17.17 18.8H13.594Z"/>
<path d="M20.9279 20.064C20.5226 20.064 20.1572 19.9733 19.8319 19.792C19.5066 19.6053 19.2479 19.3467 19.0559 19.016C18.8692 18.6853 18.7759 18.296 18.7759 17.848C18.7759 17.3947 18.8692 17.0027 19.0559 16.672C19.2479 16.3413 19.5066 16.0853 19.8319 15.904C20.1572 15.7227 20.5226 15.632 20.9279 15.632C21.2906 15.632 21.6079 15.712 21.8799 15.872C22.1519 16.032 22.3626 16.2747 22.5119 16.6C22.6612 16.9253 22.7359 17.3413 22.7359 17.848C22.7359 18.3493 22.6639 18.7653 22.5199 19.096C22.3759 19.4213 22.1679 19.664 21.8959 19.824C21.6292 19.984 21.3066 20.064 20.9279 20.064ZM21.1439 19.04C21.3466 19.04 21.5306 18.992 21.6959 18.896C21.8612 18.8 21.9919 18.664 22.0879 18.488C22.1892 18.3067 22.2399 18.0933 22.2399 17.848C22.2399 17.5973 22.1892 17.384 22.0879 17.208C21.9919 17.032 21.8612 16.896 21.6959 16.8C21.5306 16.704 21.3466 16.656 21.1439 16.656C20.9359 16.656 20.7492 16.704 20.5839 16.8C20.4186 16.896 20.2852 17.032 20.1839 17.208C20.0879 17.384 20.0399 17.5973 20.0399 17.848C20.0399 18.0933 20.0879 18.3067 20.1839 18.488C20.2852 18.664 20.4186 18.8 20.5839 18.896C20.7492 18.992 20.9359 19.04 21.1439 19.04ZM22.2719 20V19.12L22.2959 17.84L22.2159 16.568V14.064H23.4639V20H22.2719Z"/>
<path d="M26.467 20.064C26.0616 20.064 25.6963 19.9733 25.371 19.792C25.0456 19.6053 24.787 19.3467 24.595 19.016C24.4083 18.6853 24.315 18.296 24.315 17.848C24.315 17.3947 24.4083 17.0027 24.595 16.672C24.787 16.3413 25.0456 16.0853 25.371 15.904C25.6963 15.7227 26.0616 15.632 26.467 15.632C26.8296 15.632 27.147 15.712 27.419 15.872C27.691 16.032 27.9016 16.2747 28.051 16.6C28.2003 16.9253 28.275 17.3413 28.275 17.848C28.275 18.3493 28.203 18.7653 28.059 19.096C27.915 19.4213 27.707 19.664 27.435 19.824C27.1683 19.984 26.8456 20.064 26.467 20.064ZM26.683 19.04C26.8856 19.04 27.0696 18.992 27.235 18.896C27.4003 18.8 27.531 18.664 27.627 18.488C27.7283 18.3067 27.779 18.0933 27.779 17.848C27.779 17.5973 27.7283 17.384 27.627 17.208C27.531 17.032 27.4003 16.896 27.235 16.8C27.0696 16.704 26.8856 16.656 26.683 16.656C26.475 16.656 26.2883 16.704 26.123 16.8C25.9576 16.896 25.8243 17.032 25.723 17.208C25.627 17.384 25.579 17.5973 25.579 17.848C25.579 18.0933 25.627 18.3067 25.723 18.488C25.8243 18.664 25.9576 18.8 26.123 18.896C26.2883 18.992 26.475 19.04 26.683 19.04ZM27.811 20V19.12L27.835 17.84L27.755 16.568V14.064H29.003V20H27.811Z"/>
<path d="M30.158 20V15.696H31.406V20H30.158ZM30.782 15.096C30.5527 15.096 30.366 15.0293 30.222 14.896C30.078 14.7627 30.006 14.5973 30.006 14.4C30.006 14.2027 30.078 14.0373 30.222 13.904C30.366 13.7707 30.5527 13.704 30.782 13.704C31.0114 13.704 31.198 13.768 31.342 13.896C31.486 14.0187 31.558 14.1787 31.558 14.376C31.558 14.584 31.486 14.7573 31.342 14.896C31.2034 15.0293 31.0167 15.096 30.782 15.096Z"/>
<path d="M34.3243 20.064C33.8176 20.064 33.4229 19.936 33.1403 19.68C32.8576 19.4187 32.7163 19.032 32.7163 18.52V14.744H33.9643V18.504C33.9643 18.6853 34.0123 18.8267 34.1083 18.928C34.2043 19.024 34.3349 19.072 34.5003 19.072C34.6976 19.072 34.8656 19.0187 35.0043 18.912L35.3403 19.792C35.2123 19.8827 35.0576 19.952 34.8763 20C34.7003 20.0427 34.5163 20.064 34.3243 20.064ZM32.0523 16.752V15.792H35.0363V16.752H32.0523Z"/>
<path d="M36.0408 20V15.696H37.2888V20H36.0408ZM36.6648 15.096C36.4355 15.096 36.2488 15.0293 36.1048 14.896C35.9608 14.7627 35.8888 14.5973 35.8888 14.4C35.8888 14.2027 35.9608 14.0373 36.1048 13.904C36.2488 13.7707 36.4355 13.704 36.6648 13.704C36.8942 13.704 37.0808 13.768 37.2248 13.896C37.3688 14.0187 37.4408 14.1787 37.4408 14.376C37.4408 14.584 37.3688 14.7573 37.2248 14.896C37.0862 15.0293 36.8995 15.096 36.6648 15.096Z"/>
<path d="M39.6151 20L37.8071 15.696H39.0951L40.5991 19.4H39.9591L41.5191 15.696H42.7191L40.9031 20H39.6151Z"/>
<path d="M45.2472 20.064C44.7565 20.064 44.3245 19.968 43.9512 19.776C43.5832 19.584 43.2978 19.3227 43.0951 18.992C42.8925 18.656 42.7911 18.2747 42.7911 17.848C42.7911 17.416 42.8898 17.0347 43.0872 16.704C43.2898 16.368 43.5645 16.1067 43.9111 15.92C44.2578 15.728 44.6498 15.632 45.0872 15.632C45.5085 15.632 45.8871 15.7227 46.2231 15.904C46.5645 16.08 46.8338 16.336 47.0312 16.672C47.2285 17.0027 47.3271 17.4 47.3271 17.864C47.3271 17.912 47.3245 17.968 47.3191 18.032C47.3138 18.0907 47.3085 18.1467 47.3032 18.2H43.8071V17.472H46.6471L46.1671 17.688C46.1671 17.464 46.1218 17.2693 46.0312 17.104C45.9405 16.9387 45.8152 16.8107 45.6552 16.72C45.4952 16.624 45.3085 16.576 45.0951 16.576C44.8818 16.576 44.6925 16.624 44.5271 16.72C44.3671 16.8107 44.2418 16.9413 44.1511 17.112C44.0605 17.2773 44.0152 17.4747 44.0152 17.704V17.896C44.0152 18.1307 44.0658 18.3387 44.1672 18.52C44.2738 18.696 44.4205 18.832 44.6072 18.928C44.7992 19.0187 45.0232 19.064 45.2792 19.064C45.5085 19.064 45.7085 19.0293 45.8792 18.96C46.0551 18.8907 46.2151 18.7867 46.3591 18.648L47.0232 19.368C46.8258 19.592 46.5778 19.7653 46.2792 19.888C45.9805 20.0053 45.6365 20.064 45.2472 20.064Z"/>
</mask>
<path d="M12.346 20L14.842 14.4H16.122L18.626 20H17.266L15.218 15.056H15.73L13.674 20H12.346ZM13.594 18.8L13.938 17.816H16.818L17.17 18.8H13.594Z" fill="url(#paint2_linear_1_4)"/>
<path d="M20.9279 20.064C20.5226 20.064 20.1572 19.9733 19.8319 19.792C19.5066 19.6053 19.2479 19.3467 19.0559 19.016C18.8692 18.6853 18.7759 18.296 18.7759 17.848C18.7759 17.3947 18.8692 17.0027 19.0559 16.672C19.2479 16.3413 19.5066 16.0853 19.8319 15.904C20.1572 15.7227 20.5226 15.632 20.9279 15.632C21.2906 15.632 21.6079 15.712 21.8799 15.872C22.1519 16.032 22.3626 16.2747 22.5119 16.6C22.6612 16.9253 22.7359 17.3413 22.7359 17.848C22.7359 18.3493 22.6639 18.7653 22.5199 19.096C22.3759 19.4213 22.1679 19.664 21.8959 19.824C21.6292 19.984 21.3066 20.064 20.9279 20.064ZM21.1439 19.04C21.3466 19.04 21.5306 18.992 21.6959 18.896C21.8612 18.8 21.9919 18.664 22.0879 18.488C22.1892 18.3067 22.2399 18.0933 22.2399 17.848C22.2399 17.5973 22.1892 17.384 22.0879 17.208C21.9919 17.032 21.8612 16.896 21.6959 16.8C21.5306 16.704 21.3466 16.656 21.1439 16.656C20.9359 16.656 20.7492 16.704 20.5839 16.8C20.4186 16.896 20.2852 17.032 20.1839 17.208C20.0879 17.384 20.0399 17.5973 20.0399 17.848C20.0399 18.0933 20.0879 18.3067 20.1839 18.488C20.2852 18.664 20.4186 18.8 20.5839 18.896C20.7492 18.992 20.9359 19.04 21.1439 19.04ZM22.2719 20V19.12L22.2959 17.84L22.2159 16.568V14.064H23.4639V20H22.2719Z" fill="url(#paint3_linear_1_4)"/>
<path d="M26.467 20.064C26.0616 20.064 25.6963 19.9733 25.371 19.792C25.0456 19.6053 24.787 19.3467 24.595 19.016C24.4083 18.6853 24.315 18.296 24.315 17.848C24.315 17.3947 24.4083 17.0027 24.595 16.672C24.787 16.3413 25.0456 16.0853 25.371 15.904C25.6963 15.7227 26.0616 15.632 26.467 15.632C26.8296 15.632 27.147 15.712 27.419 15.872C27.691 16.032 27.9016 16.2747 28.051 16.6C28.2003 16.9253 28.275 17.3413 28.275 17.848C28.275 18.3493 28.203 18.7653 28.059 19.096C27.915 19.4213 27.707 19.664 27.435 19.824C27.1683 19.984 26.8456 20.064 26.467 20.064ZM26.683 19.04C26.8856 19.04 27.0696 18.992 27.235 18.896C27.4003 18.8 27.531 18.664 27.627 18.488C27.7283 18.3067 27.779 18.0933 27.779 17.848C27.779 17.5973 27.7283 17.384 27.627 17.208C27.531 17.032 27.4003 16.896 27.235 16.8C27.0696 16.704 26.8856 16.656 26.683 16.656C26.475 16.656 26.2883 16.704 26.123 16.8C25.9576 16.896 25.8243 17.032 25.723 17.208C25.627 17.384 25.579 17.5973 25.579 17.848C25.579 18.0933 25.627 18.3067 25.723 18.488C25.8243 18.664 25.9576 18.8 26.123 18.896C26.2883 18.992 26.475 19.04 26.683 19.04ZM27.811 20V19.12L27.835 17.84L27.755 16.568V14.064H29.003V20H27.811Z" fill="url(#paint4_linear_1_4)"/>
<path d="M30.158 20V15.696H31.406V20H30.158ZM30.782 15.096C30.5527 15.096 30.366 15.0293 30.222 14.896C30.078 14.7627 30.006 14.5973 30.006 14.4C30.006 14.2027 30.078 14.0373 30.222 13.904C30.366 13.7707 30.5527 13.704 30.782 13.704C31.0114 13.704 31.198 13.768 31.342 13.896C31.486 14.0187 31.558 14.1787 31.558 14.376C31.558 14.584 31.486 14.7573 31.342 14.896C31.2034 15.0293 31.0167 15.096 30.782 15.096Z" fill="url(#paint5_linear_1_4)"/>
<path d="M34.3243 20.064C33.8176 20.064 33.4229 19.936 33.1403 19.68C32.8576 19.4187 32.7163 19.032 32.7163 18.52V14.744H33.9643V18.504C33.9643 18.6853 34.0123 18.8267 34.1083 18.928C34.2043 19.024 34.3349 19.072 34.5003 19.072C34.6976 19.072 34.8656 19.0187 35.0043 18.912L35.3403 19.792C35.2123 19.8827 35.0576 19.952 34.8763 20C34.7003 20.0427 34.5163 20.064 34.3243 20.064ZM32.0523 16.752V15.792H35.0363V16.752H32.0523Z" fill="url(#paint6_linear_1_4)"/>
<path d="M36.0408 20V15.696H37.2888V20H36.0408ZM36.6648 15.096C36.4355 15.096 36.2488 15.0293 36.1048 14.896C35.9608 14.7627 35.8888 14.5973 35.8888 14.4C35.8888 14.2027 35.9608 14.0373 36.1048 13.904C36.2488 13.7707 36.4355 13.704 36.6648 13.704C36.8942 13.704 37.0808 13.768 37.2248 13.896C37.3688 14.0187 37.4408 14.1787 37.4408 14.376C37.4408 14.584 37.3688 14.7573 37.2248 14.896C37.0862 15.0293 36.8995 15.096 36.6648 15.096Z" fill="url(#paint7_linear_1_4)"/>
<path d="M39.6151 20L37.8071 15.696H39.0951L40.5991 19.4H39.9591L41.5191 15.696H42.7191L40.9031 20H39.6151Z" fill="url(#paint8_linear_1_4)"/>
<path d="M45.2472 20.064C44.7565 20.064 44.3245 19.968 43.9512 19.776C43.5832 19.584 43.2978 19.3227 43.0951 18.992C42.8925 18.656 42.7911 18.2747 42.7911 17.848C42.7911 17.416 42.8898 17.0347 43.0872 16.704C43.2898 16.368 43.5645 16.1067 43.9111 15.92C44.2578 15.728 44.6498 15.632 45.0872 15.632C45.5085 15.632 45.8871 15.7227 46.2231 15.904C46.5645 16.08 46.8338 16.336 47.0312 16.672C47.2285 17.0027 47.3271 17.4 47.3271 17.864C47.3271 17.912 47.3245 17.968 47.3191 18.032C47.3138 18.0907 47.3085 18.1467 47.3032 18.2H43.8071V17.472H46.6471L46.1671 17.688C46.1671 17.464 46.1218 17.2693 46.0312 17.104C45.9405 16.9387 45.8152 16.8107 45.6552 16.72C45.4952 16.624 45.3085 16.576 45.0951 16.576C44.8818 16.576 44.6925 16.624 44.5271 16.72C44.3671 16.8107 44.2418 16.9413 44.1511 17.112C44.0605 17.2773 44.0152 17.4747 44.0152 17.704V17.896C44.0152 18.1307 44.0658 18.3387 44.1672 18.52C44.2738 18.696 44.4205 18.832 44.6072 18.928C44.7992 19.0187 45.0232 19.064 45.2792 19.064C45.5085 19.064 45.7085 19.0293 45.8792 18.96C46.0551 18.8907 46.2151 18.7867 46.3591 18.648L47.0232 19.368C46.8258 19.592 46.5778 19.7653 46.2792 19.888C45.9805 20.0053 45.6365 20.064 45.2472 20.064Z" fill="url(#paint9_linear_1_4)"/>
<path d="M12.346 20L14.842 14.4H16.122L18.626 20H17.266L15.218 15.056H15.73L13.674 20H12.346ZM13.594 18.8L13.938 17.816H16.818L17.17 18.8H13.594Z" stroke="black" stroke-width="2" stroke-linejoin="round" mask="url(#path-9-outside-1_1_4)"/>
<path d="M20.9279 20.064C20.5226 20.064 20.1572 19.9733 19.8319 19.792C19.5066 19.6053 19.2479 19.3467 19.0559 19.016C18.8692 18.6853 18.7759 18.296 18.7759 17.848C18.7759 17.3947 18.8692 17.0027 19.0559 16.672C19.2479 16.3413 19.5066 16.0853 19.8319 15.904C20.1572 15.7227 20.5226 15.632 20.9279 15.632C21.2906 15.632 21.6079 15.712 21.8799 15.872C22.1519 16.032 22.3626 16.2747 22.5119 16.6C22.6612 16.9253 22.7359 17.3413 22.7359 17.848C22.7359 18.3493 22.6639 18.7653 22.5199 19.096C22.3759 19.4213 22.1679 19.664 21.8959 19.824C21.6292 19.984 21.3066 20.064 20.9279 20.064ZM21.1439 19.04C21.3466 19.04 21.5306 18.992 21.6959 18.896C21.8612 18.8 21.9919 18.664 22.0879 18.488C22.1892 18.3067 22.2399 18.0933 22.2399 17.848C22.2399 17.5973 22.1892 17.384 22.0879 17.208C21.9919 17.032 21.8612 16.896 21.6959 16.8C21.5306 16.704 21.3466 16.656 21.1439 16.656C20.9359 16.656 20.7492 16.704 20.5839 16.8C20.4186 16.896 20.2852 17.032 20.1839 17.208C20.0879 17.384 20.0399 17.5973 20.0399 17.848C20.0399 18.0933 20.0879 18.3067 20.1839 18.488C20.2852 18.664 20.4186 18.8 20.5839 18.896C20.7492 18.992 20.9359 19.04 21.1439 19.04ZM22.2719 20V19.12L22.2959 17.84L22.2159 16.568V14.064H23.4639V20H22.2719Z" stroke="black" stroke-width="2" stroke-linejoin="round" mask="url(#path-9-outside-1_1_4)"/>
<path d="M26.467 20.064C26.0616 20.064 25.6963 19.9733 25.371 19.792C25.0456 19.6053 24.787 19.3467 24.595 19.016C24.4083 18.6853 24.315 18.296 24.315 17.848C24.315 17.3947 24.4083 17.0027 24.595 16.672C24.787 16.3413 25.0456 16.0853 25.371 15.904C25.6963 15.7227 26.0616 15.632 26.467 15.632C26.8296 15.632 27.147 15.712 27.419 15.872C27.691 16.032 27.9016 16.2747 28.051 16.6C28.2003 16.9253 28.275 17.3413 28.275 17.848C28.275 18.3493 28.203 18.7653 28.059 19.096C27.915 19.4213 27.707 19.664 27.435 19.824C27.1683 19.984 26.8456 20.064 26.467 20.064ZM26.683 19.04C26.8856 19.04 27.0696 18.992 27.235 18.896C27.4003 18.8 27.531 18.664 27.627 18.488C27.7283 18.3067 27.779 18.0933 27.779 17.848C27.779 17.5973 27.7283 17.384 27.627 17.208C27.531 17.032 27.4003 16.896 27.235 16.8C27.0696 16.704 26.8856 16.656 26.683 16.656C26.475 16.656 26.2883 16.704 26.123 16.8C25.9576 16.896 25.8243 17.032 25.723 17.208C25.627 17.384 25.579 17.5973 25.579 17.848C25.579 18.0933 25.627 18.3067 25.723 18.488C25.8243 18.664 25.9576 18.8 26.123 18.896C26.2883 18.992 26.475 19.04 26.683 19.04ZM27.811 20V19.12L27.835 17.84L27.755 16.568V14.064H29.003V20H27.811Z" stroke="black" stroke-width="2" stroke-linejoin="round" mask="url(#path-9-outside-1_1_4)"/>
<path d="M30.158 20V15.696H31.406V20H30.158ZM30.782 15.096C30.5527 15.096 30.366 15.0293 30.222 14.896C30.078 14.7627 30.006 14.5973 30.006 14.4C30.006 14.2027 30.078 14.0373 30.222 13.904C30.366 13.7707 30.5527 13.704 30.782 13.704C31.0114 13.704 31.198 13.768 31.342 13.896C31.486 14.0187 31.558 14.1787 31.558 14.376C31.558 14.584 31.486 14.7573 31.342 14.896C31.2034 15.0293 31.0167 15.096 30.782 15.096Z" stroke="black" stroke-width="2" stroke-linejoin="round" mask="url(#path-9-outside-1_1_4)"/>
<path d="M34.3243 20.064C33.8176 20.064 33.4229 19.936 33.1403 19.68C32.8576 19.4187 32.7163 19.032 32.7163 18.52V14.744H33.9643V18.504C33.9643 18.6853 34.0123 18.8267 34.1083 18.928C34.2043 19.024 34.3349 19.072 34.5003 19.072C34.6976 19.072 34.8656 19.0187 35.0043 18.912L35.3403 19.792C35.2123 19.8827 35.0576 19.952 34.8763 20C34.7003 20.0427 34.5163 20.064 34.3243 20.064ZM32.0523 16.752V15.792H35.0363V16.752H32.0523Z" stroke="black" stroke-width="2" stroke-linejoin="round" mask="url(#path-9-outside-1_1_4)"/>
<path d="M36.0408 20V15.696H37.2888V20H36.0408ZM36.6648 15.096C36.4355 15.096 36.2488 15.0293 36.1048 14.896C35.9608 14.7627 35.8888 14.5973 35.8888 14.4C35.8888 14.2027 35.9608 14.0373 36.1048 13.904C36.2488 13.7707 36.4355 13.704 36.6648 13.704C36.8942 13.704 37.0808 13.768 37.2248 13.896C37.3688 14.0187 37.4408 14.1787 37.4408 14.376C37.4408 14.584 37.3688 14.7573 37.2248 14.896C37.0862 15.0293 36.8995 15.096 36.6648 15.096Z" stroke="black" stroke-width="2" stroke-linejoin="round" mask="url(#path-9-outside-1_1_4)"/>
<path d="M39.6151 20L37.8071 15.696H39.0951L40.5991 19.4H39.9591L41.5191 15.696H42.7191L40.9031 20H39.6151Z" stroke="black" stroke-width="2" stroke-linejoin="round" mask="url(#path-9-outside-1_1_4)"/>
<path d="M45.2472 20.064C44.7565 20.064 44.3245 19.968 43.9512 19.776C43.5832 19.584 43.2978 19.3227 43.0951 18.992C42.8925 18.656 42.7911 18.2747 42.7911 17.848C42.7911 17.416 42.8898 17.0347 43.0872 16.704C43.2898 16.368 43.5645 16.1067 43.9111 15.92C44.2578 15.728 44.6498 15.632 45.0872 15.632C45.5085 15.632 45.8871 15.7227 46.2231 15.904C46.5645 16.08 46.8338 16.336 47.0312 16.672C47.2285 17.0027 47.3271 17.4 47.3271 17.864C47.3271 17.912 47.3245 17.968 47.3191 18.032C47.3138 18.0907 47.3085 18.1467 47.3032 18.2H43.8071V17.472H46.6471L46.1671 17.688C46.1671 17.464 46.1218 17.2693 46.0312 17.104C45.9405 16.9387 45.8152 16.8107 45.6552 16.72C45.4952 16.624 45.3085 16.576 45.0951 16.576C44.8818 16.576 44.6925 16.624 44.5271 16.72C44.3671 16.8107 44.2418 16.9413 44.1511 17.112C44.0605 17.2773 44.0152 17.4747 44.0152 17.704V17.896C44.0152 18.1307 44.0658 18.3387 44.1672 18.52C44.2738 18.696 44.4205 18.832 44.6072 18.928C44.7992 19.0187 45.0232 19.064 45.2792 19.064C45.5085 19.064 45.7085 19.0293 45.8792 18.96C46.0551 18.8907 46.2151 18.7867 46.3591 18.648L47.0232 19.368C46.8258 19.592 46.5778 19.7653 46.2792 19.888C45.9805 20.0053 45.6365 20.064 45.2472 20.064Z" stroke="black" stroke-width="2" stroke-linejoin="round" mask="url(#path-9-outside-1_1_4)"/>
</g>
</g>
<defs>
<filter id="filter0_d_1_4" x="7" y="3.28095" width="46" height="22.719" filterUnits="userSpaceOnUse" color-interpolation-filters="sRGB">
<feFlood flood-opacity="0" result="BackgroundImageFix"/>
<feColorMatrix in="SourceAlpha" type="matrix" values="0 0 0 0 0 0 0 0 0 0 0 0 0 0 0 0 0 0 127 0" result="hardAlpha"/>
<feOffset/>
<feGaussianBlur stdDeviation="2"/>
<feComposite in2="hardAlpha" operator="out"/>
<feColorMatrix type="matrix" values="0 0 0 0 1 0 0 0 0 1 0 0 0 0 1 0 0 0 0.25 0"/>
<feBlend mode="normal" in2="BackgroundImageFix" result="effect1_dropShadow_1_4"/>
<feBlend mode="normal" in="SourceGraphic" in2="effect1_dropShadow_1_4" result="shape"/>
</filter>
<filter id="filter1_d_1_4" x="38.4" y="10.11" width="3" height="10" filterUnits="userSpaceOnUse" color-interpolation-filters="sRGB">
<feFlood flood-opacity="0" result="BackgroundImageFix"/>
<feColorMatrix in="SourceAlpha" type="matrix" values="0 0 0 0 0 0 0 0 0 0 0 0 0 0 0 0 0 0 127 0" result="hardAlpha"/>
<feOffset dy="0.5"/>
<feGaussianBlur stdDeviation="0.5"/>
<feComposite in2="hardAlpha" operator="out"/>
<feColorMatrix type="matrix" values="0 0 0 0 0 0 0 0 0 0 0 0 0 0 0 0 0 0 0.35 0"/>
<feBlend mode="normal" in2="BackgroundImageFix" result="effect1_dropShadow_1_4"/>
<feBlend mode="normal" in="SourceGraphic" in2="effect1_dropShadow_1_4" result="shape"/>
</filter>
<linearGradient id="paint0_linear_1_4" x1="39.9" y1="10.61" x2="39.9" y2="18.61" gradientUnits="userSpaceOnUse">
<stop stop-color="#FF4D00"/>
<stop offset="0.0885417" stop-color="#FF4D00"/>
<stop offset="1" stop-color="#FF0000"/>
</linearGradient>
<linearGradient id="paint1_linear_1_4" x1="44.5581" y1="10.0773" x2="44.5581" y2="18.6755" gradientUnits="userSpaceOnUse">
<stop stop-color="#FF4D00"/>
<stop offset="0.0885417" stop-color="#FF4D00"/>
<stop offset="1" stop-color="#FF0000"/>
</linearGradient>
<linearGradient id="paint2_linear_1_4" x1="30" y1="14.9" x2="30" y2="19.1" gradientUnits="userSpaceOnUse">
<stop stop-color="#FF4D00"/>
<stop offset="0.484375" stop-color="#FF2800"/>
<stop offset="1" stop-color="#FF0000"/>
</linearGradient>
<linearGradient id="paint3_linear_1_4" x1="30" y1="14.9" x2="30" y2="19.1" gradientUnits="userSpaceOnUse">
<stop stop-color="#FF4D00"/>
<stop offset="0.484375" stop-color="#FF2800"/>
<stop offset="1" stop-color="#FF0000"/>
</linearGradient>
<linearGradient id="paint4_linear_1_4" x1="30" y1="14.9" x2="30" y2="19.1" gradientUnits="userSpaceOnUse">
<stop stop-color="#FF4D00"/>
<stop offset="0.484375" stop-color="#FF2800"/>
<stop offset="1" stop-color="#FF0000"/>
</linearGradient>
<linearGradient id="paint5_linear_1_4" x1="30" y1="14.9" x2="30" y2="19.1" gradientUnits="userSpaceOnUse">
<stop stop-color="#FF4D00"/>
<stop offset="0.484375" stop-color="#FF2800"/>
<stop offset="1" stop-color="#FF0000"/>
</linearGradient>
<linearGradient id="paint6_linear_1_4" x1="30" y1="14.9" x2="30" y2="19.1" gradientUnits="userSpaceOnUse">
<stop stop-color="#FF4D00"/>
<stop offset="0.484375" stop-color="#FF2800"/>
<stop offset="1" stop-color="#FF0000"/>
</linearGradient>
<linearGradient id="paint7_linear_1_4" x1="30" y1="14.9" x2="30" y2="19.1" gradientUnits="userSpaceOnUse">
<stop stop-color="#FF4D00"/>
<stop offset="0.484375" stop-color="#FF2800"/>
<stop offset="1" stop-color="#FF0000"/>
</linearGradient>
<linearGradient id="paint8_linear_1_4" x1="30" y1="14.9" x2="30" y2="19.1" gradientUnits="userSpaceOnUse">
<stop stop-color="#FF4D00"/>
<stop offset="0.484375" stop-color="#FF2800"/>
<stop offset="1" stop-color="#FF0000"/>
</linearGradient>
<linearGradient id="paint9_linear_1_4" x1="30" y1="14.9" x2="30" y2="19.1" gradientUnits="userSpaceOnUse">
<stop stop-color="#FF4D00"/>
<stop offset="0.484375" stop-color="#FF2800"/>
<stop offset="1" stop-color="#FF0000"/>
</linearGradient>
<clipPath id="clip0_1_4">
<rect width="60" height="30" fill="white"/>
</clipPath>
</defs>
</svg>
