<svg width="38" height="14" viewBox="0 0 38 14" fill="none" xmlns="http://www.w3.org/2000/svg">
<g clip-path="url(#clip0_1_27)">
<g filter="url(#filter0_d_1_27)">
<rect x="28.4" y="2.61" width="1" height="8" fill="url(#paint0_linear_1_27)"/>
</g>
<mask id="mask0_1_27" style="mask-type:alpha" maskUnits="userSpaceOnUse" x="24" y="-3" width="19" height="18">
<rect x="24.8629" y="4.85382" width="13.2485" height="11.8001" transform="rotate(-32.3303 24.8629 4.85382)" fill="#D9D9D9"/>
</mask>
<g mask="url(#mask0_1_27)">
<rect x="27.8308" y="0.89682" width="3.05354" height="11.3592" rx="1.52677" transform="rotate(-32.3276 27.8308 0.89682)" fill="white" fill-opacity="0.3" stroke="black" stroke-width="1.125"/>
</g>
<mask id="mask1_1_27" style="mask-type:alpha" maskUnits="userSpaceOnUse" x="28" y="0" width="8" height="10">
<rect x="28.5293" y="0.948587" width="1.92854" height="10.3795" rx="0.964273" transform="rotate(-32.3276 28.5293 0.948587)" fill="white"/>
</mask>
<g mask="url(#mask1_1_27)">
<rect x="27.6469" y="2.07728" width="11.8225" height="8.59818" fill="url(#paint1_linear_1_27)"/>
</g>
<mask id="path-6-outside-1_1_27" maskUnits="userSpaceOnUse" x="0.34597" y="4.704" width="37" height="9" fill="black">
<rect fill="white" x="0.34597" y="4.704" width="37" height="9"/>
<path d="M1.34597 12L3.84197 6.4H5.12197L7.62597 12H6.26597L4.21797 7.056H4.72997L2.67397 12H1.34597ZM2.59397 10.8L2.93797 9.816H5.81797L6.16997 10.8H2.59397Z"/>
<path d="M9.92791 12.064C9.52257 12.064 9.15724 11.9733 8.83191 11.792C8.50657 11.6053 8.24791 11.3467 8.05591 11.016C7.86924 10.6853 7.77591 10.296 7.77591 9.848C7.77591 9.39467 7.86924 9.00267 8.05591 8.672C8.24791 8.34133 8.50657 8.08533 8.83191 7.904C9.15724 7.72267 9.52257 7.632 9.92791 7.632C10.2906 7.632 10.6079 7.712 10.8799 7.872C11.1519 8.032 11.3626 8.27467 11.5119 8.6C11.6612 8.92533 11.7359 9.34133 11.7359 9.848C11.7359 10.3493 11.6639 10.7653 11.5199 11.096C11.3759 11.4213 11.1679 11.664 10.8959 11.824C10.6292 11.984 10.3066 12.064 9.92791 12.064ZM10.1439 11.04C10.3466 11.04 10.5306 10.992 10.6959 10.896C10.8612 10.8 10.9919 10.664 11.0879 10.488C11.1892 10.3067 11.2399 10.0933 11.2399 9.848C11.2399 9.59733 11.1892 9.384 11.0879 9.208C10.9919 9.032 10.8612 8.896 10.6959 8.8C10.5306 8.704 10.3466 8.656 10.1439 8.656C9.93591 8.656 9.74924 8.704 9.58391 8.8C9.41857 8.896 9.28524 9.032 9.18391 9.208C9.08791 9.384 9.03991 9.59733 9.03991 9.848C9.03991 10.0933 9.08791 10.3067 9.18391 10.488C9.28524 10.664 9.41857 10.8 9.58391 10.896C9.74924 10.992 9.93591 11.04 10.1439 11.04ZM11.2719 12V11.12L11.2959 9.84L11.2159 8.568V6.064H12.4639V12H11.2719Z"/>
<path d="M15.467 12.064C15.0616 12.064 14.6963 11.9733 14.371 11.792C14.0456 11.6053 13.787 11.3467 13.595 11.016C13.4083 10.6853 13.315 10.296 13.315 9.848C13.315 9.39467 13.4083 9.00267 13.595 8.672C13.787 8.34133 14.0456 8.08533 14.371 7.904C14.6963 7.72267 15.0616 7.632 15.467 7.632C15.8296 7.632 16.147 7.712 16.419 7.872C16.691 8.032 16.9016 8.27467 17.051 8.6C17.2003 8.92533 17.275 9.34133 17.275 9.848C17.275 10.3493 17.203 10.7653 17.059 11.096C16.915 11.4213 16.707 11.664 16.435 11.824C16.1683 11.984 15.8456 12.064 15.467 12.064ZM15.683 11.04C15.8856 11.04 16.0696 10.992 16.235 10.896C16.4003 10.8 16.531 10.664 16.627 10.488C16.7283 10.3067 16.779 10.0933 16.779 9.848C16.779 9.59733 16.7283 9.384 16.627 9.208C16.531 9.032 16.4003 8.896 16.235 8.8C16.0696 8.704 15.8856 8.656 15.683 8.656C15.475 8.656 15.2883 8.704 15.123 8.8C14.9576 8.896 14.8243 9.032 14.723 9.208C14.627 9.384 14.579 9.59733 14.579 9.848C14.579 10.0933 14.627 10.3067 14.723 10.488C14.8243 10.664 14.9576 10.8 15.123 10.896C15.2883 10.992 15.475 11.04 15.683 11.04ZM16.811 12V11.12L16.835 9.84L16.755 8.568V6.064H18.003V12H16.811Z"/>
<path d="M19.158 12V7.696H20.406V12H19.158ZM19.782 7.096C19.5527 7.096 19.366 7.02933 19.222 6.896C19.078 6.76267 19.006 6.59733 19.006 6.4C19.006 6.20267 19.078 6.03733 19.222 5.904C19.366 5.77067 19.5527 5.704 19.782 5.704C20.0114 5.704 20.198 5.768 20.342 5.896C20.486 6.01867 20.558 6.17867 20.558 6.376C20.558 6.584 20.486 6.75733 20.342 6.896C20.2034 7.02933 20.0167 7.096 19.782 7.096Z"/>
<path d="M23.3243 12.064C22.8176 12.064 22.423 11.936 22.1403 11.68C21.8576 11.4187 21.7163 11.032 21.7163 10.52V6.744H22.9643V10.504C22.9643 10.6853 23.0123 10.8267 23.1083 10.928C23.2043 11.024 23.3349 11.072 23.5003 11.072C23.6976 11.072 23.8656 11.0187 24.0043 10.912L24.3403 11.792C24.2123 11.8827 24.0576 11.952 23.8763 12C23.7003 12.0427 23.5163 12.064 23.3243 12.064ZM21.0523 8.752V7.792H24.0363V8.752H21.0523Z"/>
<path d="M25.0408 12V7.696H26.2888V12H25.0408ZM25.6648 7.096C25.4355 7.096 25.2488 7.02933 25.1048 6.896C24.9608 6.76267 24.8888 6.59733 24.8888 6.4C24.8888 6.20267 24.9608 6.03733 25.1048 5.904C25.2488 5.77067 25.4355 5.704 25.6648 5.704C25.8942 5.704 26.0808 5.768 26.2248 5.896C26.3688 6.01867 26.4408 6.17867 26.4408 6.376C26.4408 6.584 26.3688 6.75733 26.2248 6.896C26.0862 7.02933 25.8995 7.096 25.6648 7.096Z"/>
<path d="M28.6151 12L26.8071 7.696H28.0951L29.5991 11.4H28.9591L30.5191 7.696H31.7191L29.9031 12H28.6151Z"/>
<path d="M34.2472 12.064C33.7565 12.064 33.3245 11.968 32.9512 11.776C32.5832 11.584 32.2978 11.3227 32.0952 10.992C31.8925 10.656 31.7912 10.2747 31.7912 9.848C31.7912 9.416 31.8898 9.03467 32.0872 8.704C32.2898 8.368 32.5645 8.10667 32.9112 7.92C33.2578 7.728 33.6498 7.632 34.0872 7.632C34.5085 7.632 34.8872 7.72267 35.2232 7.904C35.5645 8.08 35.8338 8.336 36.0312 8.672C36.2285 9.00267 36.3272 9.4 36.3272 9.864C36.3272 9.912 36.3245 9.968 36.3192 10.032C36.3138 10.0907 36.3085 10.1467 36.3032 10.2H32.8072V9.472H35.6472L35.1672 9.688C35.1672 9.464 35.1218 9.26933 35.0312 9.104C34.9405 8.93867 34.8152 8.81067 34.6552 8.72C34.4952 8.624 34.3085 8.576 34.0952 8.576C33.8818 8.576 33.6925 8.624 33.5272 8.72C33.3672 8.81067 33.2418 8.94133 33.1512 9.112C33.0605 9.27733 33.0152 9.47467 33.0152 9.704V9.896C33.0152 10.1307 33.0658 10.3387 33.1672 10.52C33.2738 10.696 33.4205 10.832 33.6072 10.928C33.7992 11.0187 34.0232 11.064 34.2792 11.064C34.5085 11.064 34.7085 11.0293 34.8792 10.96C35.0552 10.8907 35.2152 10.7867 35.3592 10.648L36.0232 11.368C35.8258 11.592 35.5778 11.7653 35.2792 11.888C34.9805 12.0053 34.6365 12.064 34.2472 12.064Z"/>
</mask>
<path d="M1.34597 12L3.84197 6.4H5.12197L7.62597 12H6.26597L4.21797 7.056H4.72997L2.67397 12H1.34597ZM2.59397 10.8L2.93797 9.816H5.81797L6.16997 10.8H2.59397Z" fill="url(#paint2_linear_1_27)"/>
<path d="M9.92791 12.064C9.52257 12.064 9.15724 11.9733 8.83191 11.792C8.50657 11.6053 8.24791 11.3467 8.05591 11.016C7.86924 10.6853 7.77591 10.296 7.77591 9.848C7.77591 9.39467 7.86924 9.00267 8.05591 8.672C8.24791 8.34133 8.50657 8.08533 8.83191 7.904C9.15724 7.72267 9.52257 7.632 9.92791 7.632C10.2906 7.632 10.6079 7.712 10.8799 7.872C11.1519 8.032 11.3626 8.27467 11.5119 8.6C11.6612 8.92533 11.7359 9.34133 11.7359 9.848C11.7359 10.3493 11.6639 10.7653 11.5199 11.096C11.3759 11.4213 11.1679 11.664 10.8959 11.824C10.6292 11.984 10.3066 12.064 9.92791 12.064ZM10.1439 11.04C10.3466 11.04 10.5306 10.992 10.6959 10.896C10.8612 10.8 10.9919 10.664 11.0879 10.488C11.1892 10.3067 11.2399 10.0933 11.2399 9.848C11.2399 9.59733 11.1892 9.384 11.0879 9.208C10.9919 9.032 10.8612 8.896 10.6959 8.8C10.5306 8.704 10.3466 8.656 10.1439 8.656C9.93591 8.656 9.74924 8.704 9.58391 8.8C9.41857 8.896 9.28524 9.032 9.18391 9.208C9.08791 9.384 9.03991 9.59733 9.03991 9.848C9.03991 10.0933 9.08791 10.3067 9.18391 10.488C9.28524 10.664 9.41857 10.8 9.58391 10.896C9.74924 10.992 9.93591 11.04 10.1439 11.04ZM11.2719 12V11.12L11.2959 9.84L11.2159 8.568V6.064H12.4639V12H11.2719Z" fill="url(#paint3_linear_1_27)"/>
<path d="M15.467 12.064C15.0616 12.064 14.6963 11.9733 14.371 11.792C14.0456 11.6053 13.787 11.3467 13.595 11.016C13.4083 10.6853 13.315 10.296 13.315 9.848C13.315 9.39467 13.4083 9.00267 13.595 8.672C13.787 8.34133 14.0456 8.08533 14.371 7.904C14.6963 7.72267 15.0616 7.632 15.467 7.632C15.8296 7.632 16.147 7.712 16.419 7.872C16.691 8.032 16.9016 8.27467 17.051 8.6C17.2003 8.92533 17.275 9.34133 17.275 9.848C17.275 10.3493 17.203 10.7653 17.059 11.096C16.915 11.4213 16.707 11.664 16.435 11.824C16.1683 11.984 15.8456 12.064 15.467 12.064ZM15.683 11.04C15.8856 11.04 16.0696 10.992 16.235 10.896C16.4003 10.8 16.531 10.664 16.627 10.488C16.7283 10.3067 16.779 10.0933 16.779 9.848C16.779 9.59733 16.7283 9.384 16.627 9.208C16.531 9.032 16.4003 8.896 16.235 8.8C16.0696 8.704 15.8856 8.656 15.683 8.656C15.475 8.656 15.2883 8.704 15.123 8.8C14.9576 8.896 14.8243 9.032 14.723 9.208C14.627 9.384 14.579 9.59733 14.579 9.848C14.579 10.0933 14.627 10.3067 14.723 10.488C14.8243 10.664 14.9576 10.8 15.123 10.896C15.2883 10.992 15.475 11.04 15.683 11.04ZM16.811 12V11.12L16.835 9.84L16.755 8.568V6.064H18.003V12H16.811Z" fill="url(#paint4_linear_1_27)"/>
<path d="M19.158 12V7.696H20.406V12H19.158ZM19.782 7.096C19.5527 7.096 19.366 7.02933 19.222 6.896C19.078 6.76267 19.006 6.59733 19.006 6.4C19.006 6.20267 19.078 6.03733 19.222 5.904C19.366 5.77067 19.5527 5.704 19.782 5.704C20.0114 5.704 20.198 5.768 20.342 5.896C20.486 6.01867 20.558 6.17867 20.558 6.376C20.558 6.584 20.486 6.75733 20.342 6.896C20.2034 7.02933 20.0167 7.096 19.782 7.096Z" fill="url(#paint5_linear_1_27)"/>
<path d="M23.3243 12.064C22.8176 12.064 22.423 11.936 22.1403 11.68C21.8576 11.4187 21.7163 11.032 21.7163 10.52V6.744H22.9643V10.504C22.9643 10.6853 23.0123 10.8267 23.1083 10.928C23.2043 11.024 23.3349 11.072 23.5003 11.072C23.6976 11.072 23.8656 11.0187 24.0043 10.912L24.3403 11.792C24.2123 11.8827 24.0576 11.952 23.8763 12C23.7003 12.0427 23.5163 12.064 23.3243 12.064ZM21.0523 8.752V7.792H24.0363V8.752H21.0523Z" fill="url(#paint6_linear_1_27)"/>
<path d="M25.0408 12V7.696H26.2888V12H25.0408ZM25.6648 7.096C25.4355 7.096 25.2488 7.02933 25.1048 6.896C24.9608 6.76267 24.8888 6.59733 24.8888 6.4C24.8888 6.20267 24.9608 6.03733 25.1048 5.904C25.2488 5.77067 25.4355 5.704 25.6648 5.704C25.8942 5.704 26.0808 5.768 26.2248 5.896C26.3688 6.01867 26.4408 6.17867 26.4408 6.376C26.4408 6.584 26.3688 6.75733 26.2248 6.896C26.0862 7.02933 25.8995 7.096 25.6648 7.096Z" fill="url(#paint7_linear_1_27)"/>
<path d="M28.6151 12L26.8071 7.696H28.0951L29.5991 11.4H28.9591L30.5191 7.696H31.7191L29.9031 12H28.6151Z" fill="url(#paint8_linear_1_27)"/>
<path d="M34.2472 12.064C33.7565 12.064 33.3245 11.968 32.9512 11.776C32.5832 11.584 32.2978 11.3227 32.0952 10.992C31.8925 10.656 31.7912 10.2747 31.7912 9.848C31.7912 9.416 31.8898 9.03467 32.0872 8.704C32.2898 8.368 32.5645 8.10667 32.9112 7.92C33.2578 7.728 33.6498 7.632 34.0872 7.632C34.5085 7.632 34.8872 7.72267 35.2232 7.904C35.5645 8.08 35.8338 8.336 36.0312 8.672C36.2285 9.00267 36.3272 9.4 36.3272 9.864C36.3272 9.912 36.3245 9.968 36.3192 10.032C36.3138 10.0907 36.3085 10.1467 36.3032 10.2H32.8072V9.472H35.6472L35.1672 9.688C35.1672 9.464 35.1218 9.26933 35.0312 9.104C34.9405 8.93867 34.8152 8.81067 34.6552 8.72C34.4952 8.624 34.3085 8.576 34.0952 8.576C33.8818 8.576 33.6925 8.624 33.5272 8.72C33.3672 8.81067 33.2418 8.94133 33.1512 9.112C33.0605 9.27733 33.0152 9.47467 33.0152 9.704V9.896C33.0152 10.1307 33.0658 10.3387 33.1672 10.52C33.2738 10.696 33.4205 10.832 33.6072 10.928C33.7992 11.0187 34.0232 11.064 34.2792 11.064C34.5085 11.064 34.7085 11.0293 34.8792 10.96C35.0552 10.8907 35.2152 10.7867 35.3592 10.648L36.0232 11.368C35.8258 11.592 35.5778 11.7653 35.2792 11.888C34.9805 12.0053 34.6365 12.064 34.2472 12.064Z" fill="url(#paint9_linear_1_27)"/>
<path d="M1.34597 12L3.84197 6.4H5.12197L7.62597 12H6.26597L4.21797 7.056H4.72997L2.67397 12H1.34597ZM2.59397 10.8L2.93797 9.816H5.81797L6.16997 10.8H2.59397Z" stroke="black" stroke-width="2" stroke-linejoin="round" mask="url(#path-6-outside-1_1_27)"/>
<path d="M9.92791 12.064C9.52257 12.064 9.15724 11.9733 8.83191 11.792C8.50657 11.6053 8.24791 11.3467 8.05591 11.016C7.86924 10.6853 7.77591 10.296 7.77591 9.848C7.77591 9.39467 7.86924 9.00267 8.05591 8.672C8.24791 8.34133 8.50657 8.08533 8.83191 7.904C9.15724 7.72267 9.52257 7.632 9.92791 7.632C10.2906 7.632 10.6079 7.712 10.8799 7.872C11.1519 8.032 11.3626 8.27467 11.5119 8.6C11.6612 8.92533 11.7359 9.34133 11.7359 9.848C11.7359 10.3493 11.6639 10.7653 11.5199 11.096C11.3759 11.4213 11.1679 11.664 10.8959 11.824C10.6292 11.984 10.3066 12.064 9.92791 12.064ZM10.1439 11.04C10.3466 11.04 10.5306 10.992 10.6959 10.896C10.8612 10.8 10.9919 10.664 11.0879 10.488C11.1892 10.3067 11.2399 10.0933 11.2399 9.848C11.2399 9.59733 11.1892 9.384 11.0879 9.208C10.9919 9.032 10.8612 8.896 10.6959 8.8C10.5306 8.704 10.3466 8.656 10.1439 8.656C9.93591 8.656 9.74924 8.704 9.58391 8.8C9.41857 8.896 9.28524 9.032 9.18391 9.208C9.08791 9.384 9.03991 9.59733 9.03991 9.848C9.03991 10.0933 9.08791 10.3067 9.18391 10.488C9.28524 10.664 9.41857 10.8 9.58391 10.896C9.74924 10.992 9.93591 11.04 10.1439 11.04ZM11.2719 12V11.12L11.2959 9.84L11.2159 8.568V6.064H12.4639V12H11.2719Z" stroke="black" stroke-width="2" stroke-linejoin="round" mask="url(#path-6-outside-1_1_27)"/>
<path d="M15.467 12.064C15.0616 12.064 14.6963 11.9733 14.371 11.792C14.0456 11.6053 13.787 11.3467 13.595 11.016C13.4083 10.6853 13.315 10.296 13.315 9.848C13.315 9.39467 13.4083 9.00267 13.595 8.672C13.787 8.34133 14.0456 8.08533 14.371 7.904C14.6963 7.72267 15.0616 7.632 15.467 7.632C15.8296 7.632 16.147 7.712 16.419 7.872C16.691 8.032 16.9016 8.27467 17.051 8.6C17.2003 8.92533 17.275 9.34133 17.275 9.848C17.275 10.3493 17.203 10.7653 17.059 11.096C16.915 11.4213 16.707 11.664 16.435 11.824C16.1683 11.984 15.8456 12.064 15.467 12.064ZM15.683 11.04C15.8856 11.04 16.0696 10.992 16.235 10.896C16.4003 10.8 16.531 10.664 16.627 10.488C16.7283 10.3067 16.779 10.0933 16.779 9.848C16.779 9.59733 16.7283 9.384 16.627 9.208C16.531 9.032 16.4003 8.896 16.235 8.8C16.0696 8.704 15.8856 8.656 15.683 8.656C15.475 8.656 15.2883 8.704 15.123 8.8C14.9576 8.896 14.8243 9.032 14.723 9.208C14.627 9.384 14.579 9.59733 14.579 9.848C14.579 10.0933 14.627 10.3067 14.723 10.488C14.8243 10.664 14.9576 10.8 15.123 10.896C15.2883 10.992 15.475 11.04 15.683 11.04ZM16.811 12V11.12L16.835 9.84L16.755 8.568V6.064H18.003V12H16.811Z" stroke="black" stroke-width="2" stroke-linejoin="round" mask="url(#path-6-outside-1_1_27)"/>
<path d="M19.158 12V7.696H20.406V12H19.158ZM19.782 7.096C19.5527 7.096 19.366 7.02933 19.222 6.896C19.078 6.76267 19.006 6.59733 19.006 6.4C19.006 6.20267 19.078 6.03733 19.222 5.904C19.366 5.77067 19.5527 5.704 19.782 5.704C20.0114 5.704 20.198 5.768 20.342 5.896C20.486 6.01867 20.558 6.17867 20.558 6.376C20.558 6.584 20.486 6.75733 20.342 6.896C20.2034 7.02933 20.0167 7.096 19.782 7.096Z" stroke="black" stroke-width="2" stroke-linejoin="round" mask="url(#path-6-outside-1_1_27)"/>
<path d="M23.3243 12.064C22.8176 12.064 22.423 11.936 22.1403 11.68C21.8576 11.4187 21.7163 11.032 21.7163 10.52V6.744H22.9643V10.504C22.9643 10.6853 23.0123 10.8267 23.1083 10.928C23.2043 11.024 23.3349 11.072 23.5003 11.072C23.6976 11.072 23.8656 11.0187 24.0043 10.912L24.3403 11.792C24.2123 11.8827 24.0576 11.952 23.8763 12C23.7003 12.0427 23.5163 12.064 23.3243 12.064ZM21.0523 8.752V7.792H24.0363V8.752H21.0523Z" stroke="black" stroke-width="2" stroke-linejoin="round" mask="url(#path-6-outside-1_1_27)"/>
<path d="M25.0408 12V7.696H26.2888V12H25.0408ZM25.6648 7.096C25.4355 7.096 25.2488 7.02933 25.1048 6.896C24.9608 6.76267 24.8888 6.59733 24.8888 6.4C24.8888 6.20267 24.9608 6.03733 25.1048 5.904C25.2488 5.77067 25.4355 5.704 25.6648 5.704C25.8942 5.704 26.0808 5.768 26.2248 5.896C26.3688 6.01867 26.4408 6.17867 26.4408 6.376C26.4408 6.584 26.3688 6.75733 26.2248 6.896C26.0862 7.02933 25.8995 7.096 25.6648 7.096Z" stroke="black" stroke-width="2" stroke-linejoin="round" mask="url(#path-6-outside-1_1_27)"/>
<path d="M28.6151 12L26.8071 7.696H28.0951L29.5991 11.4H28.9591L30.5191 7.696H31.7191L29.9031 12H28.6151Z" stroke="black" stroke-width="2" stroke-linejoin="round" mask="url(#path-6-outside-1_1_27)"/>
<path d="M34.2472 12.064C33.7565 12.064 33.3245 11.968 32.9512 11.776C32.5832 11.584 32.2978 11.3227 32.0952 10.992C31.8925 10.656 31.7912 10.2747 31.7912 9.848C31.7912 9.416 31.8898 9.03467 32.0872 8.704C32.2898 8.368 32.5645 8.10667 32.9112 7.92C33.2578 7.728 33.6498 7.632 34.0872 7.632C34.5085 7.632 34.8872 7.72267 35.2232 7.904C35.5645 8.08 35.8338 8.336 36.0312 8.672C36.2285 9.00267 36.3272 9.4 36.3272 9.864C36.3272 9.912 36.3245 9.968 36.3192 10.032C36.3138 10.0907 36.3085 10.1467 36.3032 10.2H32.8072V9.472H35.6472L35.1672 9.688C35.1672 9.464 35.1218 9.26933 35.0312 9.104C34.9405 8.93867 34.8152 8.81067 34.6552 8.72C34.4952 8.624 34.3085 8.576 34.0952 8.576C33.8818 8.576 33.6925 8.624 33.5272 8.72C33.3672 8.81067 33.2418 8.94133 33.1512 9.112C33.0605 9.27733 33.0152 9.47467 33.0152 9.704V9.896C33.0152 10.1307 33.0658 10.3387 33.1672 10.52C33.2738 10.696 33.4205 10.832 33.6072 10.928C33.7992 11.0187 34.0232 11.064 34.2792 11.064C34.5085 11.064 34.7085 11.0293 34.8792 10.96C35.0552 10.8907 35.2152 10.7867 35.3592 10.648L36.0232 11.368C35.8258 11.592 35.5778 11.7653 35.2792 11.888C34.9805 12.0053 34.6365 12.064 34.2472 12.064Z" stroke="black" stroke-width="2" stroke-linejoin="round" mask="url(#path-6-outside-1_1_27)"/>
</g>
<defs>
<filter id="filter0_d_1_27" x="27.4" y="2.11" width="3" height="10" filterUnits="userSpaceOnUse" color-interpolation-filters="sRGB">
<feFlood flood-opacity="0" result="BackgroundImageFix"/>
<feColorMatrix in="SourceAlpha" type="matrix" values="0 0 0 0 0 0 0 0 0 0 0 0 0 0 0 0 0 0 127 0" result="hardAlpha"/>
<feOffset dy="0.5"/>
<feGaussianBlur stdDeviation="0.5"/>
<feComposite in2="hardAlpha" operator="out"/>
<feColorMatrix type="matrix" values="0 0 0 0 0 0 0 0 0 0 0 0 0 0 0 0 0 0 0.35 0"/>
<feBlend mode="normal" in2="BackgroundImageFix" result="effect1_dropShadow_1_27"/>
<feBlend mode="normal" in="SourceGraphic" in2="effect1_dropShadow_1_27" result="shape"/>
</filter>
<linearGradient id="paint0_linear_1_27" x1="28.9" y1="2.61" x2="28.9" y2="10.61" gradientUnits="userSpaceOnUse">
<stop stop-color="#FF4D00"/>
<stop offset="0.0885417" stop-color="#FF4D00"/>
<stop offset="1" stop-color="#FF0000"/>
</linearGradient>
<linearGradient id="paint1_linear_1_27" x1="33.5581" y1="2.07728" x2="33.5581" y2="10.6755" gradientUnits="userSpaceOnUse">
<stop stop-color="#FF4D00"/>
<stop offset="0.0885417" stop-color="#FF4D00"/>
<stop offset="1" stop-color="#FF0000"/>
</linearGradient>
<linearGradient id="paint2_linear_1_27" x1="19" y1="6.9" x2="19" y2="11.1" gradientUnits="userSpaceOnUse">
<stop stop-color="#FF4D00"/>
<stop offset="1" stop-color="#FF0000"/>
</linearGradient>
<linearGradient id="paint3_linear_1_27" x1="19" y1="6.9" x2="19" y2="11.1" gradientUnits="userSpaceOnUse">
<stop stop-color="#FF4D00"/>
<stop offset="1" stop-color="#FF0000"/>
</linearGradient>
<linearGradient id="paint4_linear_1_27" x1="19" y1="6.9" x2="19" y2="11.1" gradientUnits="userSpaceOnUse">
<stop stop-color="#FF4D00"/>
<stop offset="1" stop-color="#FF0000"/>
</linearGradient>
<linearGradient id="paint5_linear_1_27" x1="19" y1="6.9" x2="19" y2="11.1" gradientUnits="userSpaceOnUse">
<stop stop-color="#FF4D00"/>
<stop offset="1" stop-color="#FF0000"/>
</linearGradient>
<linearGradient id="paint6_linear_1_27" x1="19" y1="6.9" x2="19" y2="11.1" gradientUnits="userSpaceOnUse">
<stop stop-color="#FF4D00"/>
<stop offset="1" stop-color="#FF0000"/>
</linearGradient>
<linearGradient id="paint7_linear_1_27" x1="19" y1="6.9" x2="19" y2="11.1" gradientUnits="userSpaceOnUse">
<stop stop-color="#FF4D00"/>
<stop offset="1" stop-color="#FF0000"/>
</linearGradient>
<linearGradient id="paint8_linear_1_27" x1="19" y1="6.9" x2="19" y2="11.1" gradientUnits="userSpaceOnUse">
<stop stop-color="#FF4D00"/>
<stop offset="1" stop-color="#FF0000"/>
</linearGradient>
<linearGradient id="paint9_linear_1_27" x1="19" y1="6.9" x2="19" y2="11.1" gradientUnits="userSpaceOnUse">
<stop stop-color="#FF4D00"/>
<stop offset="1" stop-color="#FF0000"/>
</linearGradient>
<clipPath id="clip0_1_27">
<rect width="38" height="14" fill="white"/>
</clipPath>
</defs>
</svg>
