<svg width="38" height="10" viewBox="0 0 38 10" fill="none" xmlns="http://www.w3.org/2000/svg">
<g clip-path="url(#clip0_1_2)">
<mask id="path-1-outside-1_1_2" maskUnits="userSpaceOnUse" x="0.34597" y="0.703999" width="37" height="9" fill="black">
<rect fill="white" x="0.34597" y="0.703999" width="37" height="9"/>
<path d="M1.34597 8L3.84197 2.4H5.12197L7.62597 8H6.26597L4.21797 3.056H4.72997L2.67397 8H1.34597ZM2.59397 6.8L2.93797 5.816H5.81797L6.16997 6.8H2.59397Z"/>
<path d="M9.92791 8.064C9.52257 8.064 9.15724 7.97333 8.83191 7.792C8.50657 7.60533 8.24791 7.34667 8.05591 7.016C7.86924 6.68533 7.77591 6.296 7.77591 5.848C7.77591 5.39467 7.86924 5.00267 8.05591 4.672C8.24791 4.34133 8.50657 4.08533 8.83191 3.904C9.15724 3.72267 9.52257 3.632 9.92791 3.632C10.2906 3.632 10.6079 3.712 10.8799 3.872C11.1519 4.032 11.3626 4.27467 11.5119 4.6C11.6612 4.92533 11.7359 5.34133 11.7359 5.848C11.7359 6.34933 11.6639 6.76533 11.5199 7.096C11.3759 7.42133 11.1679 7.664 10.8959 7.824C10.6292 7.984 10.3066 8.064 9.92791 8.064ZM10.1439 7.04C10.3466 7.04 10.5306 6.992 10.6959 6.896C10.8612 6.8 10.9919 6.664 11.0879 6.488C11.1892 6.30667 11.2399 6.09333 11.2399 5.848C11.2399 5.59733 11.1892 5.384 11.0879 5.208C10.9919 5.032 10.8612 4.896 10.6959 4.8C10.5306 4.704 10.3466 4.656 10.1439 4.656C9.93591 4.656 9.74924 4.704 9.58391 4.8C9.41857 4.896 9.28524 5.032 9.18391 5.208C9.08791 5.384 9.03991 5.59733 9.03991 5.848C9.03991 6.09333 9.08791 6.30667 9.18391 6.488C9.28524 6.664 9.41857 6.8 9.58391 6.896C9.74924 6.992 9.93591 7.04 10.1439 7.04ZM11.2719 8V7.12L11.2959 5.84L11.2159 4.568V2.064H12.4639V8H11.2719Z"/>
<path d="M15.467 8.064C15.0616 8.064 14.6963 7.97333 14.371 7.792C14.0456 7.60533 13.787 7.34667 13.595 7.016C13.4083 6.68533 13.315 6.296 13.315 5.848C13.315 5.39467 13.4083 5.00267 13.595 4.672C13.787 4.34133 14.0456 4.08533 14.371 3.904C14.6963 3.72267 15.0616 3.632 15.467 3.632C15.8296 3.632 16.147 3.712 16.419 3.872C16.691 4.032 16.9016 4.27467 17.051 4.6C17.2003 4.92533 17.275 5.34133 17.275 5.848C17.275 6.34933 17.203 6.76533 17.059 7.096C16.915 7.42133 16.707 7.664 16.435 7.824C16.1683 7.984 15.8456 8.064 15.467 8.064ZM15.683 7.04C15.8856 7.04 16.0696 6.992 16.235 6.896C16.4003 6.8 16.531 6.664 16.627 6.488C16.7283 6.30667 16.779 6.09333 16.779 5.848C16.779 5.59733 16.7283 5.384 16.627 5.208C16.531 5.032 16.4003 4.896 16.235 4.8C16.0696 4.704 15.8856 4.656 15.683 4.656C15.475 4.656 15.2883 4.704 15.123 4.8C14.9576 4.896 14.8243 5.032 14.723 5.208C14.627 5.384 14.579 5.59733 14.579 5.848C14.579 6.09333 14.627 6.30667 14.723 6.488C14.8243 6.664 14.9576 6.8 15.123 6.896C15.2883 6.992 15.475 7.04 15.683 7.04ZM16.811 8V7.12L16.835 5.84L16.755 4.568V2.064H18.003V8H16.811Z"/>
<path d="M19.158 8V3.696H20.406V8H19.158ZM19.782 3.096C19.5527 3.096 19.366 3.02933 19.222 2.896C19.078 2.76267 19.006 2.59733 19.006 2.4C19.006 2.20267 19.078 2.03733 19.222 1.904C19.366 1.77067 19.5527 1.704 19.782 1.704C20.0114 1.704 20.198 1.768 20.342 1.896C20.486 2.01867 20.558 2.17867 20.558 2.376C20.558 2.584 20.486 2.75733 20.342 2.896C20.2034 3.02933 20.0167 3.096 19.782 3.096Z"/>
<path d="M23.3243 8.064C22.8176 8.064 22.423 7.936 22.1403 7.68C21.8576 7.41867 21.7163 7.032 21.7163 6.52V2.744H22.9643V6.504C22.9643 6.68533 23.0123 6.82667 23.1083 6.928C23.2043 7.024 23.3349 7.072 23.5003 7.072C23.6976 7.072 23.8656 7.01867 24.0043 6.912L24.3403 7.792C24.2123 7.88267 24.0576 7.952 23.8763 8C23.7003 8.04267 23.5163 8.064 23.3243 8.064ZM21.0523 4.752V3.792H24.0363V4.752H21.0523Z"/>
<path d="M25.0408 8V3.696H26.2888V8H25.0408ZM25.6648 3.096C25.4355 3.096 25.2488 3.02933 25.1048 2.896C24.9608 2.76267 24.8888 2.59733 24.8888 2.4C24.8888 2.20267 24.9608 2.03733 25.1048 1.904C25.2488 1.77067 25.4355 1.704 25.6648 1.704C25.8942 1.704 26.0808 1.768 26.2248 1.896C26.3688 2.01867 26.4408 2.17867 26.4408 2.376C26.4408 2.584 26.3688 2.75733 26.2248 2.896C26.0862 3.02933 25.8995 3.096 25.6648 3.096Z"/>
<path d="M28.6151 8L26.8071 3.696H28.0951L29.5991 7.4H28.9591L30.5191 3.696H31.7191L29.9031 8H28.6151Z"/>
<path d="M34.2472 8.064C33.7565 8.064 33.3245 7.968 32.9512 7.776C32.5832 7.584 32.2978 7.32267 32.0952 6.992C31.8925 6.656 31.7912 6.27467 31.7912 5.848C31.7912 5.416 31.8898 5.03467 32.0872 4.704C32.2898 4.368 32.5645 4.10667 32.9112 3.92C33.2578 3.728 33.6498 3.632 34.0872 3.632C34.5085 3.632 34.8872 3.72267 35.2232 3.904C35.5645 4.08 35.8338 4.336 36.0312 4.672C36.2285 5.00267 36.3272 5.4 36.3272 5.864C36.3272 5.912 36.3245 5.968 36.3192 6.032C36.3138 6.09067 36.3085 6.14667 36.3032 6.2H32.8072V5.472H35.6472L35.1672 5.688C35.1672 5.464 35.1218 5.26933 35.0312 5.104C34.9405 4.93867 34.8152 4.81067 34.6552 4.72C34.4952 4.624 34.3085 4.576 34.0952 4.576C33.8818 4.576 33.6925 4.624 33.5272 4.72C33.3672 4.81067 33.2418 4.94133 33.1512 5.112C33.0605 5.27733 33.0152 5.47467 33.0152 5.704V5.896C33.0152 6.13067 33.0658 6.33867 33.1672 6.52C33.2738 6.696 33.4205 6.832 33.6072 6.928C33.7992 7.01867 34.0232 7.064 34.2792 7.064C34.5085 7.064 34.7085 7.02933 34.8792 6.96C35.0552 6.89067 35.2152 6.78667 35.3592 6.648L36.0232 7.368C35.8258 7.592 35.5778 7.76533 35.2792 7.888C34.9805 8.00533 34.6365 8.064 34.2472 8.064Z"/>
</mask>
<path d="M1.34597 8L3.84197 2.4H5.12197L7.62597 8H6.26597L4.21797 3.056H4.72997L2.67397 8H1.34597ZM2.59397 6.8L2.93797 5.816H5.81797L6.16997 6.8H2.59397Z" fill="url(#paint0_linear_1_2)"/>
<path d="M9.92791 8.064C9.52257 8.064 9.15724 7.97333 8.83191 7.792C8.50657 7.60533 8.24791 7.34667 8.05591 7.016C7.86924 6.68533 7.77591 6.296 7.77591 5.848C7.77591 5.39467 7.86924 5.00267 8.05591 4.672C8.24791 4.34133 8.50657 4.08533 8.83191 3.904C9.15724 3.72267 9.52257 3.632 9.92791 3.632C10.2906 3.632 10.6079 3.712 10.8799 3.872C11.1519 4.032 11.3626 4.27467 11.5119 4.6C11.6612 4.92533 11.7359 5.34133 11.7359 5.848C11.7359 6.34933 11.6639 6.76533 11.5199 7.096C11.3759 7.42133 11.1679 7.664 10.8959 7.824C10.6292 7.984 10.3066 8.064 9.92791 8.064ZM10.1439 7.04C10.3466 7.04 10.5306 6.992 10.6959 6.896C10.8612 6.8 10.9919 6.664 11.0879 6.488C11.1892 6.30667 11.2399 6.09333 11.2399 5.848C11.2399 5.59733 11.1892 5.384 11.0879 5.208C10.9919 5.032 10.8612 4.896 10.6959 4.8C10.5306 4.704 10.3466 4.656 10.1439 4.656C9.93591 4.656 9.74924 4.704 9.58391 4.8C9.41857 4.896 9.28524 5.032 9.18391 5.208C9.08791 5.384 9.03991 5.59733 9.03991 5.848C9.03991 6.09333 9.08791 6.30667 9.18391 6.488C9.28524 6.664 9.41857 6.8 9.58391 6.896C9.74924 6.992 9.93591 7.04 10.1439 7.04ZM11.2719 8V7.12L11.2959 5.84L11.2159 4.568V2.064H12.4639V8H11.2719Z" fill="url(#paint1_linear_1_2)"/>
<path d="M15.467 8.064C15.0616 8.064 14.6963 7.97333 14.371 7.792C14.0456 7.60533 13.787 7.34667 13.595 7.016C13.4083 6.68533 13.315 6.296 13.315 5.848C13.315 5.39467 13.4083 5.00267 13.595 4.672C13.787 4.34133 14.0456 4.08533 14.371 3.904C14.6963 3.72267 15.0616 3.632 15.467 3.632C15.8296 3.632 16.147 3.712 16.419 3.872C16.691 4.032 16.9016 4.27467 17.051 4.6C17.2003 4.92533 17.275 5.34133 17.275 5.848C17.275 6.34933 17.203 6.76533 17.059 7.096C16.915 7.42133 16.707 7.664 16.435 7.824C16.1683 7.984 15.8456 8.064 15.467 8.064ZM15.683 7.04C15.8856 7.04 16.0696 6.992 16.235 6.896C16.4003 6.8 16.531 6.664 16.627 6.488C16.7283 6.30667 16.779 6.09333 16.779 5.848C16.779 5.59733 16.7283 5.384 16.627 5.208C16.531 5.032 16.4003 4.896 16.235 4.8C16.0696 4.704 15.8856 4.656 15.683 4.656C15.475 4.656 15.2883 4.704 15.123 4.8C14.9576 4.896 14.8243 5.032 14.723 5.208C14.627 5.384 14.579 5.59733 14.579 5.848C14.579 6.09333 14.627 6.30667 14.723 6.488C14.8243 6.664 14.9576 6.8 15.123 6.896C15.2883 6.992 15.475 7.04 15.683 7.04ZM16.811 8V7.12L16.835 5.84L16.755 4.568V2.064H18.003V8H16.811Z" fill="url(#paint2_linear_1_2)"/>
<path d="M19.158 8V3.696H20.406V8H19.158ZM19.782 3.096C19.5527 3.096 19.366 3.02933 19.222 2.896C19.078 2.76267 19.006 2.59733 19.006 2.4C19.006 2.20267 19.078 2.03733 19.222 1.904C19.366 1.77067 19.5527 1.704 19.782 1.704C20.0114 1.704 20.198 1.768 20.342 1.896C20.486 2.01867 20.558 2.17867 20.558 2.376C20.558 2.584 20.486 2.75733 20.342 2.896C20.2034 3.02933 20.0167 3.096 19.782 3.096Z" fill="url(#paint3_linear_1_2)"/>
<path d="M23.3243 8.064C22.8176 8.064 22.423 7.936 22.1403 7.68C21.8576 7.41867 21.7163 7.032 21.7163 6.52V2.744H22.9643V6.504C22.9643 6.68533 23.0123 6.82667 23.1083 6.928C23.2043 7.024 23.3349 7.072 23.5003 7.072C23.6976 7.072 23.8656 7.01867 24.0043 6.912L24.3403 7.792C24.2123 7.88267 24.0576 7.952 23.8763 8C23.7003 8.04267 23.5163 8.064 23.3243 8.064ZM21.0523 4.752V3.792H24.0363V4.752H21.0523Z" fill="url(#paint4_linear_1_2)"/>
<path d="M25.0408 8V3.696H26.2888V8H25.0408ZM25.6648 3.096C25.4355 3.096 25.2488 3.02933 25.1048 2.896C24.9608 2.76267 24.8888 2.59733 24.8888 2.4C24.8888 2.20267 24.9608 2.03733 25.1048 1.904C25.2488 1.77067 25.4355 1.704 25.6648 1.704C25.8942 1.704 26.0808 1.768 26.2248 1.896C26.3688 2.01867 26.4408 2.17867 26.4408 2.376C26.4408 2.584 26.3688 2.75733 26.2248 2.896C26.0862 3.02933 25.8995 3.096 25.6648 3.096Z" fill="url(#paint5_linear_1_2)"/>
<path d="M28.6151 8L26.8071 3.696H28.0951L29.5991 7.4H28.9591L30.5191 3.696H31.7191L29.9031 8H28.6151Z" fill="url(#paint6_linear_1_2)"/>
<path d="M34.2472 8.064C33.7565 8.064 33.3245 7.968 32.9512 7.776C32.5832 7.584 32.2978 7.32267 32.0952 6.992C31.8925 6.656 31.7912 6.27467 31.7912 5.848C31.7912 5.416 31.8898 5.03467 32.0872 4.704C32.2898 4.368 32.5645 4.10667 32.9112 3.92C33.2578 3.728 33.6498 3.632 34.0872 3.632C34.5085 3.632 34.8872 3.72267 35.2232 3.904C35.5645 4.08 35.8338 4.336 36.0312 4.672C36.2285 5.00267 36.3272 5.4 36.3272 5.864C36.3272 5.912 36.3245 5.968 36.3192 6.032C36.3138 6.09067 36.3085 6.14667 36.3032 6.2H32.8072V5.472H35.6472L35.1672 5.688C35.1672 5.464 35.1218 5.26933 35.0312 5.104C34.9405 4.93867 34.8152 4.81067 34.6552 4.72C34.4952 4.624 34.3085 4.576 34.0952 4.576C33.8818 4.576 33.6925 4.624 33.5272 4.72C33.3672 4.81067 33.2418 4.94133 33.1512 5.112C33.0605 5.27733 33.0152 5.47467 33.0152 5.704V5.896C33.0152 6.13067 33.0658 6.33867 33.1672 6.52C33.2738 6.696 33.4205 6.832 33.6072 6.928C33.7992 7.01867 34.0232 7.064 34.2792 7.064C34.5085 7.064 34.7085 7.02933 34.8792 6.96C35.0552 6.89067 35.2152 6.78667 35.3592 6.648L36.0232 7.368C35.8258 7.592 35.5778 7.76533 35.2792 7.888C34.9805 8.00533 34.6365 8.064 34.2472 8.064Z" fill="url(#paint7_linear_1_2)"/>
<path d="M1.34597 8L3.84197 2.4H5.12197L7.62597 8H6.26597L4.21797 3.056H4.72997L2.67397 8H1.34597ZM2.59397 6.8L2.93797 5.816H5.81797L6.16997 6.8H2.59397Z" stroke="black" stroke-width="2" stroke-linejoin="round" mask="url(#path-1-outside-1_1_2)"/>
<path d="M9.92791 8.064C9.52257 8.064 9.15724 7.97333 8.83191 7.792C8.50657 7.60533 8.24791 7.34667 8.05591 7.016C7.86924 6.68533 7.77591 6.296 7.77591 5.848C7.77591 5.39467 7.86924 5.00267 8.05591 4.672C8.24791 4.34133 8.50657 4.08533 8.83191 3.904C9.15724 3.72267 9.52257 3.632 9.92791 3.632C10.2906 3.632 10.6079 3.712 10.8799 3.872C11.1519 4.032 11.3626 4.27467 11.5119 4.6C11.6612 4.92533 11.7359 5.34133 11.7359 5.848C11.7359 6.34933 11.6639 6.76533 11.5199 7.096C11.3759 7.42133 11.1679 7.664 10.8959 7.824C10.6292 7.984 10.3066 8.064 9.92791 8.064ZM10.1439 7.04C10.3466 7.04 10.5306 6.992 10.6959 6.896C10.8612 6.8 10.9919 6.664 11.0879 6.488C11.1892 6.30667 11.2399 6.09333 11.2399 5.848C11.2399 5.59733 11.1892 5.384 11.0879 5.208C10.9919 5.032 10.8612 4.896 10.6959 4.8C10.5306 4.704 10.3466 4.656 10.1439 4.656C9.93591 4.656 9.74924 4.704 9.58391 4.8C9.41857 4.896 9.28524 5.032 9.18391 5.208C9.08791 5.384 9.03991 5.59733 9.03991 5.848C9.03991 6.09333 9.08791 6.30667 9.18391 6.488C9.28524 6.664 9.41857 6.8 9.58391 6.896C9.74924 6.992 9.93591 7.04 10.1439 7.04ZM11.2719 8V7.12L11.2959 5.84L11.2159 4.568V2.064H12.4639V8H11.2719Z" stroke="black" stroke-width="2" stroke-linejoin="round" mask="url(#path-1-outside-1_1_2)"/>
<path d="M15.467 8.064C15.0616 8.064 14.6963 7.97333 14.371 7.792C14.0456 7.60533 13.787 7.34667 13.595 7.016C13.4083 6.68533 13.315 6.296 13.315 5.848C13.315 5.39467 13.4083 5.00267 13.595 4.672C13.787 4.34133 14.0456 4.08533 14.371 3.904C14.6963 3.72267 15.0616 3.632 15.467 3.632C15.8296 3.632 16.147 3.712 16.419 3.872C16.691 4.032 16.9016 4.27467 17.051 4.6C17.2003 4.92533 17.275 5.34133 17.275 5.848C17.275 6.34933 17.203 6.76533 17.059 7.096C16.915 7.42133 16.707 7.664 16.435 7.824C16.1683 7.984 15.8456 8.064 15.467 8.064ZM15.683 7.04C15.8856 7.04 16.0696 6.992 16.235 6.896C16.4003 6.8 16.531 6.664 16.627 6.488C16.7283 6.30667 16.779 6.09333 16.779 5.848C16.779 5.59733 16.7283 5.384 16.627 5.208C16.531 5.032 16.4003 4.896 16.235 4.8C16.0696 4.704 15.8856 4.656 15.683 4.656C15.475 4.656 15.2883 4.704 15.123 4.8C14.9576 4.896 14.8243 5.032 14.723 5.208C14.627 5.384 14.579 5.59733 14.579 5.848C14.579 6.09333 14.627 6.30667 14.723 6.488C14.8243 6.664 14.9576 6.8 15.123 6.896C15.2883 6.992 15.475 7.04 15.683 7.04ZM16.811 8V7.12L16.835 5.84L16.755 4.568V2.064H18.003V8H16.811Z" stroke="black" stroke-width="2" stroke-linejoin="round" mask="url(#path-1-outside-1_1_2)"/>
<path d="M19.158 8V3.696H20.406V8H19.158ZM19.782 3.096C19.5527 3.096 19.366 3.02933 19.222 2.896C19.078 2.76267 19.006 2.59733 19.006 2.4C19.006 2.20267 19.078 2.03733 19.222 1.904C19.366 1.77067 19.5527 1.704 19.782 1.704C20.0114 1.704 20.198 1.768 20.342 1.896C20.486 2.01867 20.558 2.17867 20.558 2.376C20.558 2.584 20.486 2.75733 20.342 2.896C20.2034 3.02933 20.0167 3.096 19.782 3.096Z" stroke="black" stroke-width="2" stroke-linejoin="round" mask="url(#path-1-outside-1_1_2)"/>
<path d="M23.3243 8.064C22.8176 8.064 22.423 7.936 22.1403 7.68C21.8576 7.41867 21.7163 7.032 21.7163 6.52V2.744H22.9643V6.504C22.9643 6.68533 23.0123 6.82667 23.1083 6.928C23.2043 7.024 23.3349 7.072 23.5003 7.072C23.6976 7.072 23.8656 7.01867 24.0043 6.912L24.3403 7.792C24.2123 7.88267 24.0576 7.952 23.8763 8C23.7003 8.04267 23.5163 8.064 23.3243 8.064ZM21.0523 4.752V3.792H24.0363V4.752H21.0523Z" stroke="black" stroke-width="2" stroke-linejoin="round" mask="url(#path-1-outside-1_1_2)"/>
<path d="M25.0408 8V3.696H26.2888V8H25.0408ZM25.6648 3.096C25.4355 3.096 25.2488 3.02933 25.1048 2.896C24.9608 2.76267 24.8888 2.59733 24.8888 2.4C24.8888 2.20267 24.9608 2.03733 25.1048 1.904C25.2488 1.77067 25.4355 1.704 25.6648 1.704C25.8942 1.704 26.0808 1.768 26.2248 1.896C26.3688 2.01867 26.4408 2.17867 26.4408 2.376C26.4408 2.584 26.3688 2.75733 26.2248 2.896C26.0862 3.02933 25.8995 3.096 25.6648 3.096Z" stroke="black" stroke-width="2" stroke-linejoin="round" mask="url(#path-1-outside-1_1_2)"/>
<path d="M28.6151 8L26.8071 3.696H28.0951L29.5991 7.4H28.9591L30.5191 3.696H31.7191L29.9031 8H28.6151Z" stroke="black" stroke-width="2" stroke-linejoin="round" mask="url(#path-1-outside-1_1_2)"/>
<path d="M34.2472 8.064C33.7565 8.064 33.3245 7.968 32.9512 7.776C32.5832 7.584 32.2978 7.32267 32.0952 6.992C31.8925 6.656 31.7912 6.27467 31.7912 5.848C31.7912 5.416 31.8898 5.03467 32.0872 4.704C32.2898 4.368 32.5645 4.10667 32.9112 3.92C33.2578 3.728 33.6498 3.632 34.0872 3.632C34.5085 3.632 34.8872 3.72267 35.2232 3.904C35.5645 4.08 35.8338 4.336 36.0312 4.672C36.2285 5.00267 36.3272 5.4 36.3272 5.864C36.3272 5.912 36.3245 5.968 36.3192 6.032C36.3138 6.09067 36.3085 6.14667 36.3032 6.2H32.8072V5.472H35.6472L35.1672 5.688C35.1672 5.464 35.1218 5.26933 35.0312 5.104C34.9405 4.93867 34.8152 4.81067 34.6552 4.72C34.4952 4.624 34.3085 4.576 34.0952 4.576C33.8818 4.576 33.6925 4.624 33.5272 4.72C33.3672 4.81067 33.2418 4.94133 33.1512 5.112C33.0605 5.27733 33.0152 5.47467 33.0152 5.704V5.896C33.0152 6.13067 33.0658 6.33867 33.1672 6.52C33.2738 6.696 33.4205 6.832 33.6072 6.928C33.7992 7.01867 34.0232 7.064 34.2792 7.064C34.5085 7.064 34.7085 7.02933 34.8792 6.96C35.0552 6.89067 35.2152 6.78667 35.3592 6.648L36.0232 7.368C35.8258 7.592 35.5778 7.76533 35.2792 7.888C34.9805 8.00533 34.6365 8.064 34.2472 8.064Z" stroke="black" stroke-width="2" stroke-linejoin="round" mask="url(#path-1-outside-1_1_2)"/>
</g>
<defs>
<linearGradient id="paint0_linear_1_2" x1="19" y1="2" x2="19" y2="8" gradientUnits="userSpaceOnUse">
<stop stop-color="#FF4D00"/>
<stop offset="1" stop-color="#FF0000"/>
</linearGradient>
<linearGradient id="paint1_linear_1_2" x1="19" y1="2" x2="19" y2="8" gradientUnits="userSpaceOnUse">
<stop stop-color="#FF4D00"/>
<stop offset="1" stop-color="#FF0000"/>
</linearGradient>
<linearGradient id="paint2_linear_1_2" x1="19" y1="2" x2="19" y2="8" gradientUnits="userSpaceOnUse">
<stop stop-color="#FF4D00"/>
<stop offset="1" stop-color="#FF0000"/>
</linearGradient>
<linearGradient id="paint3_linear_1_2" x1="19" y1="2" x2="19" y2="8" gradientUnits="userSpaceOnUse">
<stop stop-color="#FF4D00"/>
<stop offset="1" stop-color="#FF0000"/>
</linearGradient>
<linearGradient id="paint4_linear_1_2" x1="19" y1="2" x2="19" y2="8" gradientUnits="userSpaceOnUse">
<stop stop-color="#FF4D00"/>
<stop offset="1" stop-color="#FF0000"/>
</linearGradient>
<linearGradient id="paint5_linear_1_2" x1="19" y1="2" x2="19" y2="8" gradientUnits="userSpaceOnUse">
<stop stop-color="#FF4D00"/>
<stop offset="1" stop-color="#FF0000"/>
</linearGradient>
<linearGradient id="paint6_linear_1_2" x1="19" y1="2" x2="19" y2="8" gradientUnits="userSpaceOnUse">
<stop stop-color="#FF4D00"/>
<stop offset="1" stop-color="#FF0000"/>
</linearGradient>
<linearGradient id="paint7_linear_1_2" x1="19" y1="2" x2="19" y2="8" gradientUnits="userSpaceOnUse">
<stop stop-color="#FF4D00"/>
<stop offset="1" stop-color="#FF0000"/>
</linearGradient>
<clipPath id="clip0_1_2">
<rect width="38" height="10" fill="white"/>
</clipPath>
</defs>
</svg>
