<svg width="16" height="16" viewBox="0 0 16 16" fill="none" xmlns="http://www.w3.org/2000/svg">
<g clip-path="url(#clip0_103_73)">
<rect width="16" height="16" rx="2" fill="#16181A"/>
<g filter="url(#filter0_i_103_73)">
<g filter="url(#filter1_d_103_73)">
<mask id="path-2-outside-1_103_73" maskUnits="userSpaceOnUse" x="8" y="2" width="6" height="12" fill="black">
<rect fill="white" x="8" y="2" width="6" height="12"/>
<path d="M8 4H11.75C11.8881 4 12 4.11193 12 4.25V11.75C12 11.8881 11.8881 12 11.75 12H8V4Z"/>
</mask>
<path d="M8 2H11.75C12.9926 2 14 3.00736 14 4.25L10 6H8V2ZM14 11.75C14 12.9926 12.9926 14 11.75 14H8V10H10L14 11.75ZM8 12V4V12ZM11.75 2C12.9926 2 14 3.00736 14 4.25V11.75C14 12.9926 12.9926 14 11.75 14L10 10V6L11.75 2Z" fill="white" mask="url(#path-2-outside-1_103_73)"/>
</g>
<g filter="url(#filter2_dd_103_73)">
<path d="M5 5.25C5 5.11193 5.11193 5 5.25 5H10.75C10.8881 5 11 5.11193 11 5.25V10.75C11 10.8881 10.8881 11 10.75 11H5.25C5.11193 11 5 10.8881 5 10.75V5.25Z" fill="url(#paint0_linear_103_73)"/>
</g>
</g>
</g>
<defs>
<filter id="filter0_i_103_73" x="5" y="1.9" width="9" height="12.1" filterUnits="userSpaceOnUse" color-interpolation-filters="sRGB">
<feFlood flood-opacity="0" result="BackgroundImageFix"/>
<feBlend mode="normal" in="SourceGraphic" in2="BackgroundImageFix" result="shape"/>
<feColorMatrix in="SourceAlpha" type="matrix" values="0 0 0 0 0 0 0 0 0 0 0 0 0 0 0 0 0 0 127 0" result="hardAlpha"/>
<feOffset dy="-0.1"/>
<feGaussianBlur stdDeviation="0.1"/>
<feComposite in2="hardAlpha" operator="arithmetic" k2="-1" k3="1"/>
<feColorMatrix type="matrix" values="0 0 0 0 0 0 0 0 0 0 0 0 0 0 0 0 0 0 0.2 0"/>
<feBlend mode="normal" in2="shape" result="effect1_innerShadow_103_73"/>
</filter>
<filter id="filter1_d_103_73" x="6" y="1" width="10" height="16" filterUnits="userSpaceOnUse" color-interpolation-filters="sRGB">
<feFlood flood-opacity="0" result="BackgroundImageFix"/>
<feColorMatrix in="SourceAlpha" type="matrix" values="0 0 0 0 0 0 0 0 0 0 0 0 0 0 0 0 0 0 127 0" result="hardAlpha"/>
<feOffset dy="1"/>
<feGaussianBlur stdDeviation="1"/>
<feComposite in2="hardAlpha" operator="out"/>
<feColorMatrix type="matrix" values="0 0 0 0 0 0 0 0 0 0 0 0 0 0 0 0 0 0 0.25 0"/>
<feBlend mode="normal" in2="BackgroundImageFix" result="effect1_dropShadow_103_73"/>
<feBlend mode="normal" in="SourceGraphic" in2="effect1_dropShadow_103_73" result="shape"/>
</filter>
<filter id="filter2_dd_103_73" x="1" y="1" width="14" height="14" filterUnits="userSpaceOnUse" color-interpolation-filters="sRGB">
<feFlood flood-opacity="0" result="BackgroundImageFix"/>
<feColorMatrix in="SourceAlpha" type="matrix" values="0 0 0 0 0 0 0 0 0 0 0 0 0 0 0 0 0 0 127 0" result="hardAlpha"/>
<feOffset/>
<feGaussianBlur stdDeviation="2"/>
<feComposite in2="hardAlpha" operator="out"/>
<feColorMatrix type="matrix" values="0 0 0 0 0.568627 0 0 0 0 0.380392 0 0 0 0 1 0 0 0 0.25 0"/>
<feBlend mode="normal" in2="BackgroundImageFix" result="effect1_dropShadow_103_73"/>
<feColorMatrix in="SourceAlpha" type="matrix" values="0 0 0 0 0 0 0 0 0 0 0 0 0 0 0 0 0 0 127 0" result="hardAlpha"/>
<feOffset dy="1"/>
<feGaussianBlur stdDeviation="1"/>
<feComposite in2="hardAlpha" operator="out"/>
<feColorMatrix type="matrix" values="0 0 0 0 0 0 0 0 0 0 0 0 0 0 0 0 0 0 0.25 0"/>
<feBlend mode="normal" in2="effect1_dropShadow_103_73" result="effect2_dropShadow_103_73"/>
<feBlend mode="normal" in="SourceGraphic" in2="effect2_dropShadow_103_73" result="shape"/>
</filter>
<linearGradient id="paint0_linear_103_73" x1="5" y1="5" x2="11" y2="11" gradientUnits="userSpaceOnUse">
<stop stop-color="#A055FF"/>
<stop offset="1" stop-color="#5599FF"/>
</linearGradient>
<clipPath id="clip0_103_73">
<rect width="16" height="16" rx="2" fill="white"/>
</clipPath>
</defs>
</svg>
