<svg width="9" height="12" viewBox="0 0 9 12" fill="none" xmlns="http://www.w3.org/2000/svg">
<g filter="url(#filter0_i_103_83)">
<mask id="path-1-outside-1_103_83" maskUnits="userSpaceOnUse" x="3" y="0" width="6" height="12" fill="black">
<rect fill="white" x="3" width="6" height="12"/>
<path d="M3 2H6.75C6.88807 2 7 2.11193 7 2.25V9.75C7 9.88807 6.88807 10 6.75 10H3V2Z"/>
</mask>
<path d="M3 0H6.75C7.99264 0 9 1.00736 9 2.25L5 4H3V0ZM9 9.75C9 10.9926 7.99264 12 6.75 12H3V8H5L9 9.75ZM3 10V2V10ZM6.75 0C7.99264 0 9 1.00736 9 2.25V9.75C9 10.9926 7.99264 12 6.75 12L5 8V4L6.75 0Z" fill="white" mask="url(#path-1-outside-1_103_83)"/>
<path d="M0 3.25C0 3.11193 0.111929 3 0.25 3H5.75C5.88807 3 6 3.11193 6 3.25V8.75C6 8.88807 5.88807 9 5.75 9H0.25C0.111929 9 0 8.88807 0 8.75V3.25Z" fill="url(#paint0_linear_103_83)"/>
</g>
<defs>
<filter id="filter0_i_103_83" x="0" y="-0.1" width="9" height="12.1" filterUnits="userSpaceOnUse" color-interpolation-filters="sRGB">
<feFlood flood-opacity="0" result="BackgroundImageFix"/>
<feBlend mode="normal" in="SourceGraphic" in2="BackgroundImageFix" result="shape"/>
<feColorMatrix in="SourceAlpha" type="matrix" values="0 0 0 0 0 0 0 0 0 0 0 0 0 0 0 0 0 0 127 0" result="hardAlpha"/>
<feOffset dy="-0.1"/>
<feGaussianBlur stdDeviation="0.1"/>
<feComposite in2="hardAlpha" operator="arithmetic" k2="-1" k3="1"/>
<feColorMatrix type="matrix" values="0 0 0 0 0 0 0 0 0 0 0 0 0 0 0 0 0 0 0.2 0"/>
<feBlend mode="normal" in2="shape" result="effect1_innerShadow_103_83"/>
</filter>
<linearGradient id="paint0_linear_103_83" x1="0" y1="3" x2="6" y2="9" gradientUnits="userSpaceOnUse">
<stop stop-color="#A055FF"/>
<stop offset="1" stop-color="#5599FF"/>
</linearGradient>
</defs>
</svg>
