<svg width="64" height="15" viewBox="0 0 64 15" fill="none" xmlns="http://www.w3.org/2000/svg">
<g filter="url(#filter0_i_103_70)">
<mask id="path-1-outside-1_103_70" maskUnits="userSpaceOnUse" x="3.69984" y="1.5" width="6" height="12" fill="black">
<rect fill="white" x="3.69984" y="1.5" width="6" height="12"/>
<path d="M3.69984 3.5H7.44984C7.58792 3.5 7.69984 3.61193 7.69984 3.75V11.25C7.69984 11.3881 7.58792 11.5 7.44984 11.5H3.69984V3.5Z"/>
</mask>
<path d="M3.69984 1.5H7.44984C8.69249 1.5 9.69984 2.50736 9.69984 3.75L5.69984 5.5H3.69984V1.5ZM9.69984 11.25C9.69984 12.4926 8.69249 13.5 7.44984 13.5H3.69984V9.5H5.69984L9.69984 11.25ZM3.69984 11.5V3.5V11.5ZM7.44984 1.5C8.69249 1.5 9.69984 2.50736 9.69984 3.75V11.25C9.69984 12.4926 8.69249 13.5 7.44984 13.5L5.69984 9.5V5.5L7.44984 1.5Z" fill="white" mask="url(#path-1-outside-1_103_70)"/>
<path d="M0.699844 4.75C0.699844 4.61193 0.811773 4.5 0.949844 4.5H6.44984C6.58792 4.5 6.69984 4.61193 6.69984 4.75V10.25C6.69984 10.3881 6.58792 10.5 6.44984 10.5H0.949844C0.811773 10.5 0.699844 10.3881 0.699844 10.25V4.75Z" fill="url(#paint0_linear_103_70)"/>
</g>
<mask id="path-4-outside-2_103_70" maskUnits="userSpaceOnUse" x="10.6998" y="2.69" width="54" height="10" fill="black">
<rect fill="white" x="10.6998" y="2.69" width="54" height="10"/>
<path d="M11.6998 11.19V4.19H14.8798C15.6398 4.19 16.3098 4.33667 16.8898 4.63C17.4698 4.91667 17.9232 5.32 18.2498 5.84C18.5765 6.36 18.7398 6.97667 18.7398 7.69C18.7398 8.39667 18.5765 9.01333 18.2498 9.54C17.9232 10.06 17.4698 10.4667 16.8898 10.76C16.3098 11.0467 15.6398 11.19 14.8798 11.19H11.6998ZM13.3198 9.86H14.7998C15.2665 9.86 15.6698 9.77333 16.0098 9.6C16.3565 9.42 16.6232 9.16667 16.8098 8.84C17.0032 8.51333 17.0998 8.13 17.0998 7.69C17.0998 7.24333 17.0032 6.86 16.8098 6.54C16.6232 6.21333 16.3565 5.96333 16.0098 5.79C15.6698 5.61 15.2665 5.52 14.7998 5.52H13.3198V9.86Z"/>
<path d="M22.5216 11.27C21.9082 11.27 21.3682 11.15 20.9016 10.91C20.4416 10.67 20.0849 10.3433 19.8316 9.93C19.5782 9.51 19.4516 9.03333 19.4516 8.5C19.4516 7.96 19.5749 7.48333 19.8216 7.07C20.0749 6.65 20.4182 6.32333 20.8516 6.09C21.2849 5.85 21.7749 5.73 22.3216 5.73C22.8482 5.73 23.3216 5.84333 23.7416 6.07C24.1682 6.29 24.5049 6.61 24.7516 7.03C24.9982 7.44333 25.1216 7.94 25.1216 8.52C25.1216 8.58 25.1182 8.65 25.1116 8.73C25.1049 8.80333 25.0982 8.87333 25.0916 8.94H20.7216V8.03H24.2716L23.6716 8.3C23.6716 8.02 23.6149 7.77667 23.5016 7.57C23.3882 7.36333 23.2316 7.20333 23.0316 7.09C22.8316 6.97 22.5982 6.91 22.3316 6.91C22.0649 6.91 21.8282 6.97 21.6216 7.09C21.4216 7.20333 21.2649 7.36667 21.1516 7.58C21.0382 7.78667 20.9816 8.03333 20.9816 8.32V8.56C20.9816 8.85333 21.0449 9.11333 21.1716 9.34C21.3049 9.56 21.4882 9.73 21.7216 9.85C21.9616 9.96333 22.2416 10.02 22.5616 10.02C22.8482 10.02 23.0982 9.97667 23.3116 9.89C23.5316 9.80333 23.7316 9.67333 23.9116 9.5L24.7416 10.4C24.4949 10.68 24.1849 10.8967 23.8116 11.05C23.4382 11.1967 23.0082 11.27 22.5216 11.27Z"/>
<path d="M28.7602 11.27C28.1802 11.27 27.6635 11.1533 27.2102 10.92C26.7568 10.68 26.4002 10.35 26.1402 9.93C25.8868 9.51 25.7602 9.03333 25.7602 8.5C25.7602 7.96 25.8868 7.48333 26.1402 7.07C26.4002 6.65 26.7568 6.32333 27.2102 6.09C27.6635 5.85 28.1802 5.73 28.7602 5.73C29.3268 5.73 29.8202 5.85 30.2402 6.09C30.6602 6.32333 30.9702 6.66 31.1702 7.1L29.9602 7.75C29.8202 7.49667 29.6435 7.31 29.4302 7.19C29.2235 7.07 28.9968 7.01 28.7502 7.01C28.4835 7.01 28.2435 7.07 28.0302 7.19C27.8168 7.31 27.6468 7.48 27.5202 7.7C27.4002 7.92 27.3402 8.18667 27.3402 8.5C27.3402 8.81333 27.4002 9.08 27.5202 9.3C27.6468 9.52 27.8168 9.69 28.0302 9.81C28.2435 9.93 28.4835 9.99 28.7502 9.99C28.9968 9.99 29.2235 9.93333 29.4302 9.82C29.6435 9.7 29.8202 9.51 29.9602 9.25L31.1702 9.91C30.9702 10.3433 30.6602 10.68 30.2402 10.92C29.8202 11.1533 29.3268 11.27 28.7602 11.27Z"/>
<path d="M33.3291 10.09L33.3691 8.19L35.8791 5.81H37.7391L35.3291 8.26L34.5191 8.92L33.3291 10.09ZM32.0391 11.19V3.77H33.5991V11.19H32.0391ZM36.0491 11.19L34.2291 8.93L35.2091 7.72L37.9391 11.19H36.0491Z"/>
<path d="M42.1006 11.31C41.5606 11.31 41.0573 11.2233 40.5906 11.05C40.1306 10.87 39.7306 10.6167 39.3906 10.29C39.0506 9.96333 38.784 9.58 38.5906 9.14C38.404 8.7 38.3106 8.21667 38.3106 7.69C38.3106 7.16333 38.404 6.68 38.5906 6.24C38.784 5.8 39.0506 5.41667 39.3906 5.09C39.7373 4.76333 40.1406 4.51333 40.6006 4.34C41.0606 4.16 41.564 4.07 42.1106 4.07C42.7173 4.07 43.264 4.17667 43.7506 4.39C44.244 4.59667 44.6573 4.90333 44.9906 5.31L43.9506 6.27C43.7106 5.99667 43.444 5.79333 43.1506 5.66C42.8573 5.52 42.5373 5.45 42.1906 5.45C41.864 5.45 41.564 5.50333 41.2906 5.61C41.0173 5.71667 40.7806 5.87 40.5806 6.07C40.3806 6.27 40.224 6.50667 40.1106 6.78C40.004 7.05333 39.9506 7.35667 39.9506 7.69C39.9506 8.02333 40.004 8.32667 40.1106 8.6C40.224 8.87333 40.3806 9.11 40.5806 9.31C40.7806 9.51 41.0173 9.66333 41.2906 9.77C41.564 9.87667 41.864 9.93 42.1906 9.93C42.5373 9.93 42.8573 9.86333 43.1506 9.73C43.444 9.59 43.7106 9.38 43.9506 9.1L44.9906 10.06C44.6573 10.4667 44.244 10.7767 43.7506 10.99C43.264 11.2033 42.714 11.31 42.1006 11.31Z"/>
<path d="M45.9746 11.19V5.81H47.4646V7.33L47.2546 6.89C47.4146 6.51 47.6713 6.22333 48.0246 6.03C48.3779 5.83 48.8079 5.73 49.3146 5.73V7.17C49.2479 7.16333 49.1879 7.16 49.1346 7.16C49.0813 7.15333 49.0246 7.15 48.9646 7.15C48.5379 7.15 48.1913 7.27333 47.9246 7.52C47.6646 7.76 47.5346 8.13667 47.5346 8.65V11.19H45.9746Z"/>
<path d="M53.1906 11.19V10.14L53.0906 9.91V8.03C53.0906 7.69667 52.9873 7.43667 52.7806 7.25C52.5806 7.06333 52.2706 6.97 51.8506 6.97C51.564 6.97 51.2806 7.01667 51.0006 7.11C50.7273 7.19667 50.494 7.31667 50.3006 7.47L49.7406 6.38C50.034 6.17333 50.3873 6.01333 50.8006 5.9C51.214 5.78667 51.634 5.73 52.0606 5.73C52.8806 5.73 53.5173 5.92333 53.9706 6.31C54.424 6.69667 54.6506 7.3 54.6506 8.12V11.19H53.1906ZM51.5506 11.27C51.1306 11.27 50.7706 11.2 50.4706 11.06C50.1706 10.9133 49.9406 10.7167 49.7806 10.47C49.6206 10.2233 49.5406 9.94667 49.5406 9.64C49.5406 9.32 49.6173 9.04 49.7706 8.8C49.9306 8.56 50.1806 8.37333 50.5206 8.24C50.8606 8.1 51.304 8.03 51.8506 8.03H53.2806V8.94H52.0206C51.654 8.94 51.4006 9 51.2606 9.12C51.1273 9.24 51.0606 9.39 51.0606 9.57C51.0606 9.77 51.1373 9.93 51.2906 10.05C51.4506 10.1633 51.6673 10.22 51.9406 10.22C52.2006 10.22 52.434 10.16 52.6406 10.04C52.8473 9.91333 52.9973 9.73 53.0906 9.49L53.3306 10.21C53.2173 10.5567 53.0106 10.82 52.7106 11C52.4106 11.18 52.024 11.27 51.5506 11.27Z"/>
<path d="M56.2525 11.19V5.69C56.2525 5.08333 56.4325 4.6 56.7925 4.24C57.1525 3.87333 57.6658 3.69 58.3325 3.69C58.5592 3.69 58.7758 3.71333 58.9825 3.76C59.1958 3.80667 59.3758 3.88 59.5225 3.98L59.1125 5.11C59.0258 5.05 58.9292 5.00333 58.8225 4.97C58.7158 4.93667 58.6025 4.92 58.4825 4.92C58.2558 4.92 58.0792 4.98667 57.9525 5.12C57.8325 5.24667 57.7725 5.44 57.7725 5.7V6.2L57.8125 6.87V11.19H56.2525ZM55.4225 7.13V5.93H59.1525V7.13H55.4225Z"/>
<path d="M62.1297 11.27C61.4964 11.27 61.003 11.11 60.6497 10.79C60.2964 10.4633 60.1197 9.98 60.1197 9.34V4.62H61.6797V9.32C61.6797 9.54667 61.7397 9.72333 61.8597 9.85C61.9797 9.97 62.143 10.03 62.3497 10.03C62.5964 10.03 62.8064 9.96333 62.9797 9.83L63.3997 10.93C63.2397 11.0433 63.0464 11.13 62.8197 11.19C62.5997 11.2433 62.3697 11.27 62.1297 11.27ZM59.2897 7.13V5.93H63.0197V7.13H59.2897Z"/>
</mask>
<path d="M11.6998 11.19V4.19H14.8798C15.6398 4.19 16.3098 4.33667 16.8898 4.63C17.4698 4.91667 17.9232 5.32 18.2498 5.84C18.5765 6.36 18.7398 6.97667 18.7398 7.69C18.7398 8.39667 18.5765 9.01333 18.2498 9.54C17.9232 10.06 17.4698 10.4667 16.8898 10.76C16.3098 11.0467 15.6398 11.19 14.8798 11.19H11.6998ZM13.3198 9.86H14.7998C15.2665 9.86 15.6698 9.77333 16.0098 9.6C16.3565 9.42 16.6232 9.16667 16.8098 8.84C17.0032 8.51333 17.0998 8.13 17.0998 7.69C17.0998 7.24333 17.0032 6.86 16.8098 6.54C16.6232 6.21333 16.3565 5.96333 16.0098 5.79C15.6698 5.61 15.2665 5.52 14.7998 5.52H13.3198V9.86Z" fill="white"/>
<path d="M22.5216 11.27C21.9082 11.27 21.3682 11.15 20.9016 10.91C20.4416 10.67 20.0849 10.3433 19.8316 9.93C19.5782 9.51 19.4516 9.03333 19.4516 8.5C19.4516 7.96 19.5749 7.48333 19.8216 7.07C20.0749 6.65 20.4182 6.32333 20.8516 6.09C21.2849 5.85 21.7749 5.73 22.3216 5.73C22.8482 5.73 23.3216 5.84333 23.7416 6.07C24.1682 6.29 24.5049 6.61 24.7516 7.03C24.9982 7.44333 25.1216 7.94 25.1216 8.52C25.1216 8.58 25.1182 8.65 25.1116 8.73C25.1049 8.80333 25.0982 8.87333 25.0916 8.94H20.7216V8.03H24.2716L23.6716 8.3C23.6716 8.02 23.6149 7.77667 23.5016 7.57C23.3882 7.36333 23.2316 7.20333 23.0316 7.09C22.8316 6.97 22.5982 6.91 22.3316 6.91C22.0649 6.91 21.8282 6.97 21.6216 7.09C21.4216 7.20333 21.2649 7.36667 21.1516 7.58C21.0382 7.78667 20.9816 8.03333 20.9816 8.32V8.56C20.9816 8.85333 21.0449 9.11333 21.1716 9.34C21.3049 9.56 21.4882 9.73 21.7216 9.85C21.9616 9.96333 22.2416 10.02 22.5616 10.02C22.8482 10.02 23.0982 9.97667 23.3116 9.89C23.5316 9.80333 23.7316 9.67333 23.9116 9.5L24.7416 10.4C24.4949 10.68 24.1849 10.8967 23.8116 11.05C23.4382 11.1967 23.0082 11.27 22.5216 11.27Z" fill="white"/>
<path d="M28.7602 11.27C28.1802 11.27 27.6635 11.1533 27.2102 10.92C26.7568 10.68 26.4002 10.35 26.1402 9.93C25.8868 9.51 25.7602 9.03333 25.7602 8.5C25.7602 7.96 25.8868 7.48333 26.1402 7.07C26.4002 6.65 26.7568 6.32333 27.2102 6.09C27.6635 5.85 28.1802 5.73 28.7602 5.73C29.3268 5.73 29.8202 5.85 30.2402 6.09C30.6602 6.32333 30.9702 6.66 31.1702 7.1L29.9602 7.75C29.8202 7.49667 29.6435 7.31 29.4302 7.19C29.2235 7.07 28.9968 7.01 28.7502 7.01C28.4835 7.01 28.2435 7.07 28.0302 7.19C27.8168 7.31 27.6468 7.48 27.5202 7.7C27.4002 7.92 27.3402 8.18667 27.3402 8.5C27.3402 8.81333 27.4002 9.08 27.5202 9.3C27.6468 9.52 27.8168 9.69 28.0302 9.81C28.2435 9.93 28.4835 9.99 28.7502 9.99C28.9968 9.99 29.2235 9.93333 29.4302 9.82C29.6435 9.7 29.8202 9.51 29.9602 9.25L31.1702 9.91C30.9702 10.3433 30.6602 10.68 30.2402 10.92C29.8202 11.1533 29.3268 11.27 28.7602 11.27Z" fill="white"/>
<path d="M33.3291 10.09L33.3691 8.19L35.8791 5.81H37.7391L35.3291 8.26L34.5191 8.92L33.3291 10.09ZM32.0391 11.19V3.77H33.5991V11.19H32.0391ZM36.0491 11.19L34.2291 8.93L35.2091 7.72L37.9391 11.19H36.0491Z" fill="white"/>
<path d="M42.1006 11.31C41.5606 11.31 41.0573 11.2233 40.5906 11.05C40.1306 10.87 39.7306 10.6167 39.3906 10.29C39.0506 9.96333 38.784 9.58 38.5906 9.14C38.404 8.7 38.3106 8.21667 38.3106 7.69C38.3106 7.16333 38.404 6.68 38.5906 6.24C38.784 5.8 39.0506 5.41667 39.3906 5.09C39.7373 4.76333 40.1406 4.51333 40.6006 4.34C41.0606 4.16 41.564 4.07 42.1106 4.07C42.7173 4.07 43.264 4.17667 43.7506 4.39C44.244 4.59667 44.6573 4.90333 44.9906 5.31L43.9506 6.27C43.7106 5.99667 43.444 5.79333 43.1506 5.66C42.8573 5.52 42.5373 5.45 42.1906 5.45C41.864 5.45 41.564 5.50333 41.2906 5.61C41.0173 5.71667 40.7806 5.87 40.5806 6.07C40.3806 6.27 40.224 6.50667 40.1106 6.78C40.004 7.05333 39.9506 7.35667 39.9506 7.69C39.9506 8.02333 40.004 8.32667 40.1106 8.6C40.224 8.87333 40.3806 9.11 40.5806 9.31C40.7806 9.51 41.0173 9.66333 41.2906 9.77C41.564 9.87667 41.864 9.93 42.1906 9.93C42.5373 9.93 42.8573 9.86333 43.1506 9.73C43.444 9.59 43.7106 9.38 43.9506 9.1L44.9906 10.06C44.6573 10.4667 44.244 10.7767 43.7506 10.99C43.264 11.2033 42.714 11.31 42.1006 11.31Z" fill="white"/>
<path d="M45.9746 11.19V5.81H47.4646V7.33L47.2546 6.89C47.4146 6.51 47.6713 6.22333 48.0246 6.03C48.3779 5.83 48.8079 5.73 49.3146 5.73V7.17C49.2479 7.16333 49.1879 7.16 49.1346 7.16C49.0813 7.15333 49.0246 7.15 48.9646 7.15C48.5379 7.15 48.1913 7.27333 47.9246 7.52C47.6646 7.76 47.5346 8.13667 47.5346 8.65V11.19H45.9746Z" fill="white"/>
<path d="M53.1906 11.19V10.14L53.0906 9.91V8.03C53.0906 7.69667 52.9873 7.43667 52.7806 7.25C52.5806 7.06333 52.2706 6.97 51.8506 6.97C51.564 6.97 51.2806 7.01667 51.0006 7.11C50.7273 7.19667 50.494 7.31667 50.3006 7.47L49.7406 6.38C50.034 6.17333 50.3873 6.01333 50.8006 5.9C51.214 5.78667 51.634 5.73 52.0606 5.73C52.8806 5.73 53.5173 5.92333 53.9706 6.31C54.424 6.69667 54.6506 7.3 54.6506 8.12V11.19H53.1906ZM51.5506 11.27C51.1306 11.27 50.7706 11.2 50.4706 11.06C50.1706 10.9133 49.9406 10.7167 49.7806 10.47C49.6206 10.2233 49.5406 9.94667 49.5406 9.64C49.5406 9.32 49.6173 9.04 49.7706 8.8C49.9306 8.56 50.1806 8.37333 50.5206 8.24C50.8606 8.1 51.304 8.03 51.8506 8.03H53.2806V8.94H52.0206C51.654 8.94 51.4006 9 51.2606 9.12C51.1273 9.24 51.0606 9.39 51.0606 9.57C51.0606 9.77 51.1373 9.93 51.2906 10.05C51.4506 10.1633 51.6673 10.22 51.9406 10.22C52.2006 10.22 52.434 10.16 52.6406 10.04C52.8473 9.91333 52.9973 9.73 53.0906 9.49L53.3306 10.21C53.2173 10.5567 53.0106 10.82 52.7106 11C52.4106 11.18 52.024 11.27 51.5506 11.27Z" fill="white"/>
<path d="M56.2525 11.19V5.69C56.2525 5.08333 56.4325 4.6 56.7925 4.24C57.1525 3.87333 57.6658 3.69 58.3325 3.69C58.5592 3.69 58.7758 3.71333 58.9825 3.76C59.1958 3.80667 59.3758 3.88 59.5225 3.98L59.1125 5.11C59.0258 5.05 58.9292 5.00333 58.8225 4.97C58.7158 4.93667 58.6025 4.92 58.4825 4.92C58.2558 4.92 58.0792 4.98667 57.9525 5.12C57.8325 5.24667 57.7725 5.44 57.7725 5.7V6.2L57.8125 6.87V11.19H56.2525ZM55.4225 7.13V5.93H59.1525V7.13H55.4225Z" fill="white"/>
<path d="M62.1297 11.27C61.4964 11.27 61.003 11.11 60.6497 10.79C60.2964 10.4633 60.1197 9.98 60.1197 9.34V4.62H61.6797V9.32C61.6797 9.54667 61.7397 9.72333 61.8597 9.85C61.9797 9.97 62.143 10.03 62.3497 10.03C62.5964 10.03 62.8064 9.96333 62.9797 9.83L63.3997 10.93C63.2397 11.0433 63.0464 11.13 62.8197 11.19C62.5997 11.2433 62.3697 11.27 62.1297 11.27ZM59.2897 7.13V5.93H63.0197V7.13H59.2897Z" fill="white"/>
<path d="M11.6998 11.19V4.19H14.8798C15.6398 4.19 16.3098 4.33667 16.8898 4.63C17.4698 4.91667 17.9232 5.32 18.2498 5.84C18.5765 6.36 18.7398 6.97667 18.7398 7.69C18.7398 8.39667 18.5765 9.01333 18.2498 9.54C17.9232 10.06 17.4698 10.4667 16.8898 10.76C16.3098 11.0467 15.6398 11.19 14.8798 11.19H11.6998ZM13.3198 9.86H14.7998C15.2665 9.86 15.6698 9.77333 16.0098 9.6C16.3565 9.42 16.6232 9.16667 16.8098 8.84C17.0032 8.51333 17.0998 8.13 17.0998 7.69C17.0998 7.24333 17.0032 6.86 16.8098 6.54C16.6232 6.21333 16.3565 5.96333 16.0098 5.79C15.6698 5.61 15.2665 5.52 14.7998 5.52H13.3198V9.86Z" stroke="#242424" stroke-linejoin="round" mask="url(#path-4-outside-2_103_70)"/>
<path d="M22.5216 11.27C21.9082 11.27 21.3682 11.15 20.9016 10.91C20.4416 10.67 20.0849 10.3433 19.8316 9.93C19.5782 9.51 19.4516 9.03333 19.4516 8.5C19.4516 7.96 19.5749 7.48333 19.8216 7.07C20.0749 6.65 20.4182 6.32333 20.8516 6.09C21.2849 5.85 21.7749 5.73 22.3216 5.73C22.8482 5.73 23.3216 5.84333 23.7416 6.07C24.1682 6.29 24.5049 6.61 24.7516 7.03C24.9982 7.44333 25.1216 7.94 25.1216 8.52C25.1216 8.58 25.1182 8.65 25.1116 8.73C25.1049 8.80333 25.0982 8.87333 25.0916 8.94H20.7216V8.03H24.2716L23.6716 8.3C23.6716 8.02 23.6149 7.77667 23.5016 7.57C23.3882 7.36333 23.2316 7.20333 23.0316 7.09C22.8316 6.97 22.5982 6.91 22.3316 6.91C22.0649 6.91 21.8282 6.97 21.6216 7.09C21.4216 7.20333 21.2649 7.36667 21.1516 7.58C21.0382 7.78667 20.9816 8.03333 20.9816 8.32V8.56C20.9816 8.85333 21.0449 9.11333 21.1716 9.34C21.3049 9.56 21.4882 9.73 21.7216 9.85C21.9616 9.96333 22.2416 10.02 22.5616 10.02C22.8482 10.02 23.0982 9.97667 23.3116 9.89C23.5316 9.80333 23.7316 9.67333 23.9116 9.5L24.7416 10.4C24.4949 10.68 24.1849 10.8967 23.8116 11.05C23.4382 11.1967 23.0082 11.27 22.5216 11.27Z" stroke="#242424" stroke-linejoin="round" mask="url(#path-4-outside-2_103_70)"/>
<path d="M28.7602 11.27C28.1802 11.27 27.6635 11.1533 27.2102 10.92C26.7568 10.68 26.4002 10.35 26.1402 9.93C25.8868 9.51 25.7602 9.03333 25.7602 8.5C25.7602 7.96 25.8868 7.48333 26.1402 7.07C26.4002 6.65 26.7568 6.32333 27.2102 6.09C27.6635 5.85 28.1802 5.73 28.7602 5.73C29.3268 5.73 29.8202 5.85 30.2402 6.09C30.6602 6.32333 30.9702 6.66 31.1702 7.1L29.9602 7.75C29.8202 7.49667 29.6435 7.31 29.4302 7.19C29.2235 7.07 28.9968 7.01 28.7502 7.01C28.4835 7.01 28.2435 7.07 28.0302 7.19C27.8168 7.31 27.6468 7.48 27.5202 7.7C27.4002 7.92 27.3402 8.18667 27.3402 8.5C27.3402 8.81333 27.4002 9.08 27.5202 9.3C27.6468 9.52 27.8168 9.69 28.0302 9.81C28.2435 9.93 28.4835 9.99 28.7502 9.99C28.9968 9.99 29.2235 9.93333 29.4302 9.82C29.6435 9.7 29.8202 9.51 29.9602 9.25L31.1702 9.91C30.9702 10.3433 30.6602 10.68 30.2402 10.92C29.8202 11.1533 29.3268 11.27 28.7602 11.27Z" stroke="#242424" stroke-linejoin="round" mask="url(#path-4-outside-2_103_70)"/>
<path d="M33.3291 10.09L33.3691 8.19L35.8791 5.81H37.7391L35.3291 8.26L34.5191 8.92L33.3291 10.09ZM32.0391 11.19V3.77H33.5991V11.19H32.0391ZM36.0491 11.19L34.2291 8.93L35.2091 7.72L37.9391 11.19H36.0491Z" stroke="#242424" stroke-linejoin="round" mask="url(#path-4-outside-2_103_70)"/>
<path d="M42.1006 11.31C41.5606 11.31 41.0573 11.2233 40.5906 11.05C40.1306 10.87 39.7306 10.6167 39.3906 10.29C39.0506 9.96333 38.784 9.58 38.5906 9.14C38.404 8.7 38.3106 8.21667 38.3106 7.69C38.3106 7.16333 38.404 6.68 38.5906 6.24C38.784 5.8 39.0506 5.41667 39.3906 5.09C39.7373 4.76333 40.1406 4.51333 40.6006 4.34C41.0606 4.16 41.564 4.07 42.1106 4.07C42.7173 4.07 43.264 4.17667 43.7506 4.39C44.244 4.59667 44.6573 4.90333 44.9906 5.31L43.9506 6.27C43.7106 5.99667 43.444 5.79333 43.1506 5.66C42.8573 5.52 42.5373 5.45 42.1906 5.45C41.864 5.45 41.564 5.50333 41.2906 5.61C41.0173 5.71667 40.7806 5.87 40.5806 6.07C40.3806 6.27 40.224 6.50667 40.1106 6.78C40.004 7.05333 39.9506 7.35667 39.9506 7.69C39.9506 8.02333 40.004 8.32667 40.1106 8.6C40.224 8.87333 40.3806 9.11 40.5806 9.31C40.7806 9.51 41.0173 9.66333 41.2906 9.77C41.564 9.87667 41.864 9.93 42.1906 9.93C42.5373 9.93 42.8573 9.86333 43.1506 9.73C43.444 9.59 43.7106 9.38 43.9506 9.1L44.9906 10.06C44.6573 10.4667 44.244 10.7767 43.7506 10.99C43.264 11.2033 42.714 11.31 42.1006 11.31Z" stroke="#242424" stroke-linejoin="round" mask="url(#path-4-outside-2_103_70)"/>
<path d="M45.9746 11.19V5.81H47.4646V7.33L47.2546 6.89C47.4146 6.51 47.6713 6.22333 48.0246 6.03C48.3779 5.83 48.8079 5.73 49.3146 5.73V7.17C49.2479 7.16333 49.1879 7.16 49.1346 7.16C49.0813 7.15333 49.0246 7.15 48.9646 7.15C48.5379 7.15 48.1913 7.27333 47.9246 7.52C47.6646 7.76 47.5346 8.13667 47.5346 8.65V11.19H45.9746Z" stroke="#242424" stroke-linejoin="round" mask="url(#path-4-outside-2_103_70)"/>
<path d="M53.1906 11.19V10.14L53.0906 9.91V8.03C53.0906 7.69667 52.9873 7.43667 52.7806 7.25C52.5806 7.06333 52.2706 6.97 51.8506 6.97C51.564 6.97 51.2806 7.01667 51.0006 7.11C50.7273 7.19667 50.494 7.31667 50.3006 7.47L49.7406 6.38C50.034 6.17333 50.3873 6.01333 50.8006 5.9C51.214 5.78667 51.634 5.73 52.0606 5.73C52.8806 5.73 53.5173 5.92333 53.9706 6.31C54.424 6.69667 54.6506 7.3 54.6506 8.12V11.19H53.1906ZM51.5506 11.27C51.1306 11.27 50.7706 11.2 50.4706 11.06C50.1706 10.9133 49.9406 10.7167 49.7806 10.47C49.6206 10.2233 49.5406 9.94667 49.5406 9.64C49.5406 9.32 49.6173 9.04 49.7706 8.8C49.9306 8.56 50.1806 8.37333 50.5206 8.24C50.8606 8.1 51.304 8.03 51.8506 8.03H53.2806V8.94H52.0206C51.654 8.94 51.4006 9 51.2606 9.12C51.1273 9.24 51.0606 9.39 51.0606 9.57C51.0606 9.77 51.1373 9.93 51.2906 10.05C51.4506 10.1633 51.6673 10.22 51.9406 10.22C52.2006 10.22 52.434 10.16 52.6406 10.04C52.8473 9.91333 52.9973 9.73 53.0906 9.49L53.3306 10.21C53.2173 10.5567 53.0106 10.82 52.7106 11C52.4106 11.18 52.024 11.27 51.5506 11.27Z" stroke="#242424" stroke-linejoin="round" mask="url(#path-4-outside-2_103_70)"/>
<path d="M56.2525 11.19V5.69C56.2525 5.08333 56.4325 4.6 56.7925 4.24C57.1525 3.87333 57.6658 3.69 58.3325 3.69C58.5592 3.69 58.7758 3.71333 58.9825 3.76C59.1958 3.80667 59.3758 3.88 59.5225 3.98L59.1125 5.11C59.0258 5.05 58.9292 5.00333 58.8225 4.97C58.7158 4.93667 58.6025 4.92 58.4825 4.92C58.2558 4.92 58.0792 4.98667 57.9525 5.12C57.8325 5.24667 57.7725 5.44 57.7725 5.7V6.2L57.8125 6.87V11.19H56.2525ZM55.4225 7.13V5.93H59.1525V7.13H55.4225Z" stroke="#242424" stroke-linejoin="round" mask="url(#path-4-outside-2_103_70)"/>
<path d="M62.1297 11.27C61.4964 11.27 61.003 11.11 60.6497 10.79C60.2964 10.4633 60.1197 9.98 60.1197 9.34V4.62H61.6797V9.32C61.6797 9.54667 61.7397 9.72333 61.8597 9.85C61.9797 9.97 62.143 10.03 62.3497 10.03C62.5964 10.03 62.8064 9.96333 62.9797 9.83L63.3997 10.93C63.2397 11.0433 63.0464 11.13 62.8197 11.19C62.5997 11.2433 62.3697 11.27 62.1297 11.27ZM59.2897 7.13V5.93H63.0197V7.13H59.2897Z" stroke="#242424" stroke-linejoin="round" mask="url(#path-4-outside-2_103_70)"/>
<defs>
<filter id="filter0_i_103_70" x="0.699844" y="1.4" width="9" height="12.1" filterUnits="userSpaceOnUse" color-interpolation-filters="sRGB">
<feFlood flood-opacity="0" result="BackgroundImageFix"/>
<feBlend mode="normal" in="SourceGraphic" in2="BackgroundImageFix" result="shape"/>
<feColorMatrix in="SourceAlpha" type="matrix" values="0 0 0 0 0 0 0 0 0 0 0 0 0 0 0 0 0 0 127 0" result="hardAlpha"/>
<feOffset dy="-0.1"/>
<feGaussianBlur stdDeviation="0.1"/>
<feComposite in2="hardAlpha" operator="arithmetic" k2="-1" k3="1"/>
<feColorMatrix type="matrix" values="0 0 0 0 0 0 0 0 0 0 0 0 0 0 0 0 0 0 0.2 0"/>
<feBlend mode="normal" in2="shape" result="effect1_innerShadow_103_70"/>
</filter>
<linearGradient id="paint0_linear_103_70" x1="0.699844" y1="4.5" x2="6.69984" y2="10.5" gradientUnits="userSpaceOnUse">
<stop stop-color="#A055FF"/>
<stop offset="1" stop-color="#5599FF"/>
</linearGradient>
</defs>
</svg>
