<svg width="54" height="10" viewBox="0 0 54 10" fill="none" xmlns="http://www.w3.org/2000/svg">
<mask id="path-1-outside-1_103_68" maskUnits="userSpaceOnUse" x="0" y="0.190001" width="54" height="10" fill="black">
<rect fill="white" y="0.190001" width="54" height="10"/>
<path d="M1 8.69V1.69H4.18C4.94 1.69 5.61 1.83667 6.19 2.13C6.77 2.41667 7.22333 2.82 7.55 3.34C7.87667 3.86 8.04 4.47667 8.04 5.19C8.04 5.89667 7.87667 6.51333 7.55 7.04C7.22333 7.56 6.77 7.96667 6.19 8.26C5.61 8.54667 4.94 8.69 4.18 8.69H1ZM2.62 7.36H4.1C4.56667 7.36 4.97 7.27333 5.31 7.1C5.65667 6.92 5.92333 6.66667 6.11 6.34C6.30333 6.01333 6.4 5.63 6.4 5.19C6.4 4.74333 6.30333 4.36 6.11 4.04C5.92333 3.71333 5.65667 3.46333 5.31 3.29C4.97 3.11 4.56667 3.02 4.1 3.02H2.62V7.36Z"/>
<path d="M11.8217 8.77C11.2084 8.77 10.6684 8.65 10.2017 8.41C9.74172 8.17 9.38505 7.84333 9.13172 7.43C8.87839 7.01 8.75172 6.53333 8.75172 6C8.75172 5.46 8.87505 4.98333 9.12172 4.57C9.37505 4.15 9.71839 3.82333 10.1517 3.59C10.5851 3.35 11.0751 3.23 11.6217 3.23C12.1484 3.23 12.6217 3.34333 13.0417 3.57C13.4684 3.79 13.8051 4.11 14.0517 4.53C14.2984 4.94333 14.4217 5.44 14.4217 6.02C14.4217 6.08 14.4184 6.15 14.4117 6.23C14.4051 6.30333 14.3984 6.37333 14.3917 6.44H10.0217V5.53H13.5717L12.9717 5.8C12.9717 5.52 12.9151 5.27667 12.8017 5.07C12.6884 4.86333 12.5317 4.70333 12.3317 4.59C12.1317 4.47 11.8984 4.41 11.6317 4.41C11.3651 4.41 11.1284 4.47 10.9217 4.59C10.7217 4.70333 10.5651 4.86667 10.4517 5.08C10.3384 5.28667 10.2817 5.53333 10.2817 5.82V6.06C10.2817 6.35333 10.3451 6.61333 10.4717 6.84C10.6051 7.06 10.7884 7.23 11.0217 7.35C11.2617 7.46333 11.5417 7.52 11.8617 7.52C12.1484 7.52 12.3984 7.47667 12.6117 7.39C12.8317 7.30333 13.0317 7.17333 13.2117 7L14.0417 7.9C13.7951 8.18 13.4851 8.39667 13.1117 8.55C12.7384 8.69667 12.3084 8.77 11.8217 8.77Z"/>
<path d="M18.0603 8.77C17.4803 8.77 16.9636 8.65333 16.5103 8.42C16.057 8.18 15.7003 7.85 15.4403 7.43C15.187 7.01 15.0603 6.53333 15.0603 6C15.0603 5.46 15.187 4.98333 15.4403 4.57C15.7003 4.15 16.057 3.82333 16.5103 3.59C16.9636 3.35 17.4803 3.23 18.0603 3.23C18.627 3.23 19.1203 3.35 19.5403 3.59C19.9603 3.82333 20.2703 4.16 20.4703 4.6L19.2603 5.25C19.1203 4.99667 18.9436 4.81 18.7303 4.69C18.5236 4.57 18.297 4.51 18.0503 4.51C17.7836 4.51 17.5436 4.57 17.3303 4.69C17.117 4.81 16.947 4.98 16.8203 5.2C16.7003 5.42 16.6403 5.68667 16.6403 6C16.6403 6.31333 16.7003 6.58 16.8203 6.8C16.947 7.02 17.117 7.19 17.3303 7.31C17.5436 7.43 17.7836 7.49 18.0503 7.49C18.297 7.49 18.5236 7.43333 18.7303 7.32C18.9436 7.2 19.1203 7.01 19.2603 6.75L20.4703 7.41C20.2703 7.84333 19.9603 8.18 19.5403 8.42C19.1203 8.65333 18.627 8.77 18.0603 8.77Z"/>
<path d="M22.6292 7.59L22.6692 5.69L25.1792 3.31H27.0392L24.6292 5.76L23.8192 6.42L22.6292 7.59ZM21.3392 8.69V1.27H22.8992V8.69H21.3392ZM25.3492 8.69L23.5292 6.43L24.5092 5.22L27.2392 8.69H25.3492Z"/>
<path d="M31.4008 8.81C30.8608 8.81 30.3574 8.72333 29.8908 8.55C29.4308 8.37 29.0308 8.11667 28.6908 7.79C28.3508 7.46333 28.0841 7.08 27.8908 6.64C27.7041 6.2 27.6108 5.71667 27.6108 5.19C27.6108 4.66333 27.7041 4.18 27.8908 3.74C28.0841 3.3 28.3508 2.91667 28.6908 2.59C29.0374 2.26333 29.4408 2.01333 29.9008 1.84C30.3608 1.66 30.8641 1.57 31.4108 1.57C32.0174 1.57 32.5641 1.67667 33.0508 1.89C33.5441 2.09667 33.9574 2.40333 34.2908 2.81L33.2508 3.77C33.0108 3.49667 32.7441 3.29333 32.4508 3.16C32.1574 3.02 31.8374 2.95 31.4908 2.95C31.1641 2.95 30.8641 3.00333 30.5908 3.11C30.3174 3.21667 30.0808 3.37 29.8808 3.57C29.6808 3.77 29.5241 4.00667 29.4108 4.28C29.3041 4.55333 29.2508 4.85667 29.2508 5.19C29.2508 5.52333 29.3041 5.82667 29.4108 6.1C29.5241 6.37333 29.6808 6.61 29.8808 6.81C30.0808 7.01 30.3174 7.16333 30.5908 7.27C30.8641 7.37667 31.1641 7.43 31.4908 7.43C31.8374 7.43 32.1574 7.36333 32.4508 7.23C32.7441 7.09 33.0108 6.88 33.2508 6.6L34.2908 7.56C33.9574 7.96667 33.5441 8.27667 33.0508 8.49C32.5641 8.70333 32.0141 8.81 31.4008 8.81Z"/>
<path d="M35.2748 8.69V3.31H36.7648V4.83L36.5548 4.39C36.7148 4.01 36.9714 3.72333 37.3248 3.53C37.6781 3.33 38.1081 3.23 38.6148 3.23V4.67C38.5481 4.66333 38.4881 4.66 38.4348 4.66C38.3814 4.65333 38.3248 4.65 38.2648 4.65C37.8381 4.65 37.4914 4.77333 37.2248 5.02C36.9648 5.26 36.8348 5.63667 36.8348 6.15V8.69H35.2748Z"/>
<path d="M42.4908 8.69V7.64L42.3908 7.41V5.53C42.3908 5.19667 42.2874 4.93667 42.0808 4.75C41.8808 4.56333 41.5708 4.47 41.1508 4.47C40.8641 4.47 40.5808 4.51667 40.3008 4.61C40.0274 4.69667 39.7941 4.81667 39.6008 4.97L39.0408 3.88C39.3341 3.67333 39.6874 3.51333 40.1008 3.4C40.5141 3.28667 40.9341 3.23 41.3608 3.23C42.1808 3.23 42.8174 3.42333 43.2708 3.81C43.7241 4.19667 43.9508 4.8 43.9508 5.62V8.69H42.4908ZM40.8508 8.77C40.4308 8.77 40.0708 8.7 39.7708 8.56C39.4708 8.41333 39.2408 8.21667 39.0808 7.97C38.9208 7.72333 38.8408 7.44667 38.8408 7.14C38.8408 6.82 38.9174 6.54 39.0708 6.3C39.2308 6.06 39.4808 5.87333 39.8208 5.74C40.1608 5.6 40.6041 5.53 41.1508 5.53H42.5808V6.44H41.3208C40.9541 6.44 40.7008 6.5 40.5608 6.62C40.4274 6.74 40.3608 6.89 40.3608 7.07C40.3608 7.27 40.4374 7.43 40.5908 7.55C40.7508 7.66333 40.9674 7.72 41.2408 7.72C41.5008 7.72 41.7341 7.66 41.9408 7.54C42.1474 7.41333 42.2974 7.23 42.3908 6.99L42.6308 7.71C42.5174 8.05667 42.3108 8.32 42.0108 8.5C41.7108 8.68 41.3241 8.77 40.8508 8.77Z"/>
<path d="M45.5527 8.69V3.19C45.5527 2.58333 45.7327 2.1 46.0927 1.74C46.4527 1.37333 46.966 1.19 47.6327 1.19C47.8593 1.19 48.076 1.21333 48.2827 1.26C48.496 1.30667 48.676 1.38 48.8227 1.48L48.4127 2.61C48.326 2.55 48.2293 2.50333 48.1227 2.47C48.016 2.43667 47.9027 2.42 47.7827 2.42C47.556 2.42 47.3793 2.48667 47.2527 2.62C47.1327 2.74667 47.0727 2.94 47.0727 3.2V3.7L47.1127 4.37V8.69H45.5527ZM44.7227 4.63V3.43H48.4527V4.63H44.7227Z"/>
<path d="M51.4298 8.77C50.7965 8.77 50.3032 8.61 49.9498 8.29C49.5965 7.96333 49.4198 7.48 49.4198 6.84V2.12H50.9798V6.82C50.9798 7.04667 51.0398 7.22333 51.1598 7.35C51.2798 7.47 51.4432 7.53 51.6498 7.53C51.8965 7.53 52.1065 7.46333 52.2798 7.33L52.6998 8.43C52.5398 8.54333 52.3465 8.63 52.1198 8.69C51.8998 8.74333 51.6698 8.77 51.4298 8.77ZM48.5898 4.63V3.43H52.3198V4.63H48.5898Z"/>
</mask>
<path d="M1 8.69V1.69H4.18C4.94 1.69 5.61 1.83667 6.19 2.13C6.77 2.41667 7.22333 2.82 7.55 3.34C7.87667 3.86 8.04 4.47667 8.04 5.19C8.04 5.89667 7.87667 6.51333 7.55 7.04C7.22333 7.56 6.77 7.96667 6.19 8.26C5.61 8.54667 4.94 8.69 4.18 8.69H1ZM2.62 7.36H4.1C4.56667 7.36 4.97 7.27333 5.31 7.1C5.65667 6.92 5.92333 6.66667 6.11 6.34C6.30333 6.01333 6.4 5.63 6.4 5.19C6.4 4.74333 6.30333 4.36 6.11 4.04C5.92333 3.71333 5.65667 3.46333 5.31 3.29C4.97 3.11 4.56667 3.02 4.1 3.02H2.62V7.36Z" fill="white"/>
<path d="M11.8217 8.77C11.2084 8.77 10.6684 8.65 10.2017 8.41C9.74172 8.17 9.38505 7.84333 9.13172 7.43C8.87839 7.01 8.75172 6.53333 8.75172 6C8.75172 5.46 8.87505 4.98333 9.12172 4.57C9.37505 4.15 9.71839 3.82333 10.1517 3.59C10.5851 3.35 11.0751 3.23 11.6217 3.23C12.1484 3.23 12.6217 3.34333 13.0417 3.57C13.4684 3.79 13.8051 4.11 14.0517 4.53C14.2984 4.94333 14.4217 5.44 14.4217 6.02C14.4217 6.08 14.4184 6.15 14.4117 6.23C14.4051 6.30333 14.3984 6.37333 14.3917 6.44H10.0217V5.53H13.5717L12.9717 5.8C12.9717 5.52 12.9151 5.27667 12.8017 5.07C12.6884 4.86333 12.5317 4.70333 12.3317 4.59C12.1317 4.47 11.8984 4.41 11.6317 4.41C11.3651 4.41 11.1284 4.47 10.9217 4.59C10.7217 4.70333 10.5651 4.86667 10.4517 5.08C10.3384 5.28667 10.2817 5.53333 10.2817 5.82V6.06C10.2817 6.35333 10.3451 6.61333 10.4717 6.84C10.6051 7.06 10.7884 7.23 11.0217 7.35C11.2617 7.46333 11.5417 7.52 11.8617 7.52C12.1484 7.52 12.3984 7.47667 12.6117 7.39C12.8317 7.30333 13.0317 7.17333 13.2117 7L14.0417 7.9C13.7951 8.18 13.4851 8.39667 13.1117 8.55C12.7384 8.69667 12.3084 8.77 11.8217 8.77Z" fill="white"/>
<path d="M18.0603 8.77C17.4803 8.77 16.9636 8.65333 16.5103 8.42C16.057 8.18 15.7003 7.85 15.4403 7.43C15.187 7.01 15.0603 6.53333 15.0603 6C15.0603 5.46 15.187 4.98333 15.4403 4.57C15.7003 4.15 16.057 3.82333 16.5103 3.59C16.9636 3.35 17.4803 3.23 18.0603 3.23C18.627 3.23 19.1203 3.35 19.5403 3.59C19.9603 3.82333 20.2703 4.16 20.4703 4.6L19.2603 5.25C19.1203 4.99667 18.9436 4.81 18.7303 4.69C18.5236 4.57 18.297 4.51 18.0503 4.51C17.7836 4.51 17.5436 4.57 17.3303 4.69C17.117 4.81 16.947 4.98 16.8203 5.2C16.7003 5.42 16.6403 5.68667 16.6403 6C16.6403 6.31333 16.7003 6.58 16.8203 6.8C16.947 7.02 17.117 7.19 17.3303 7.31C17.5436 7.43 17.7836 7.49 18.0503 7.49C18.297 7.49 18.5236 7.43333 18.7303 7.32C18.9436 7.2 19.1203 7.01 19.2603 6.75L20.4703 7.41C20.2703 7.84333 19.9603 8.18 19.5403 8.42C19.1203 8.65333 18.627 8.77 18.0603 8.77Z" fill="white"/>
<path d="M22.6292 7.59L22.6692 5.69L25.1792 3.31H27.0392L24.6292 5.76L23.8192 6.42L22.6292 7.59ZM21.3392 8.69V1.27H22.8992V8.69H21.3392ZM25.3492 8.69L23.5292 6.43L24.5092 5.22L27.2392 8.69H25.3492Z" fill="white"/>
<path d="M31.4008 8.81C30.8608 8.81 30.3574 8.72333 29.8908 8.55C29.4308 8.37 29.0308 8.11667 28.6908 7.79C28.3508 7.46333 28.0841 7.08 27.8908 6.64C27.7041 6.2 27.6108 5.71667 27.6108 5.19C27.6108 4.66333 27.7041 4.18 27.8908 3.74C28.0841 3.3 28.3508 2.91667 28.6908 2.59C29.0374 2.26333 29.4408 2.01333 29.9008 1.84C30.3608 1.66 30.8641 1.57 31.4108 1.57C32.0174 1.57 32.5641 1.67667 33.0508 1.89C33.5441 2.09667 33.9574 2.40333 34.2908 2.81L33.2508 3.77C33.0108 3.49667 32.7441 3.29333 32.4508 3.16C32.1574 3.02 31.8374 2.95 31.4908 2.95C31.1641 2.95 30.8641 3.00333 30.5908 3.11C30.3174 3.21667 30.0808 3.37 29.8808 3.57C29.6808 3.77 29.5241 4.00667 29.4108 4.28C29.3041 4.55333 29.2508 4.85667 29.2508 5.19C29.2508 5.52333 29.3041 5.82667 29.4108 6.1C29.5241 6.37333 29.6808 6.61 29.8808 6.81C30.0808 7.01 30.3174 7.16333 30.5908 7.27C30.8641 7.37667 31.1641 7.43 31.4908 7.43C31.8374 7.43 32.1574 7.36333 32.4508 7.23C32.7441 7.09 33.0108 6.88 33.2508 6.6L34.2908 7.56C33.9574 7.96667 33.5441 8.27667 33.0508 8.49C32.5641 8.70333 32.0141 8.81 31.4008 8.81Z" fill="white"/>
<path d="M35.2748 8.69V3.31H36.7648V4.83L36.5548 4.39C36.7148 4.01 36.9714 3.72333 37.3248 3.53C37.6781 3.33 38.1081 3.23 38.6148 3.23V4.67C38.5481 4.66333 38.4881 4.66 38.4348 4.66C38.3814 4.65333 38.3248 4.65 38.2648 4.65C37.8381 4.65 37.4914 4.77333 37.2248 5.02C36.9648 5.26 36.8348 5.63667 36.8348 6.15V8.69H35.2748Z" fill="white"/>
<path d="M42.4908 8.69V7.64L42.3908 7.41V5.53C42.3908 5.19667 42.2874 4.93667 42.0808 4.75C41.8808 4.56333 41.5708 4.47 41.1508 4.47C40.8641 4.47 40.5808 4.51667 40.3008 4.61C40.0274 4.69667 39.7941 4.81667 39.6008 4.97L39.0408 3.88C39.3341 3.67333 39.6874 3.51333 40.1008 3.4C40.5141 3.28667 40.9341 3.23 41.3608 3.23C42.1808 3.23 42.8174 3.42333 43.2708 3.81C43.7241 4.19667 43.9508 4.8 43.9508 5.62V8.69H42.4908ZM40.8508 8.77C40.4308 8.77 40.0708 8.7 39.7708 8.56C39.4708 8.41333 39.2408 8.21667 39.0808 7.97C38.9208 7.72333 38.8408 7.44667 38.8408 7.14C38.8408 6.82 38.9174 6.54 39.0708 6.3C39.2308 6.06 39.4808 5.87333 39.8208 5.74C40.1608 5.6 40.6041 5.53 41.1508 5.53H42.5808V6.44H41.3208C40.9541 6.44 40.7008 6.5 40.5608 6.62C40.4274 6.74 40.3608 6.89 40.3608 7.07C40.3608 7.27 40.4374 7.43 40.5908 7.55C40.7508 7.66333 40.9674 7.72 41.2408 7.72C41.5008 7.72 41.7341 7.66 41.9408 7.54C42.1474 7.41333 42.2974 7.23 42.3908 6.99L42.6308 7.71C42.5174 8.05667 42.3108 8.32 42.0108 8.5C41.7108 8.68 41.3241 8.77 40.8508 8.77Z" fill="white"/>
<path d="M45.5527 8.69V3.19C45.5527 2.58333 45.7327 2.1 46.0927 1.74C46.4527 1.37333 46.966 1.19 47.6327 1.19C47.8593 1.19 48.076 1.21333 48.2827 1.26C48.496 1.30667 48.676 1.38 48.8227 1.48L48.4127 2.61C48.326 2.55 48.2293 2.50333 48.1227 2.47C48.016 2.43667 47.9027 2.42 47.7827 2.42C47.556 2.42 47.3793 2.48667 47.2527 2.62C47.1327 2.74667 47.0727 2.94 47.0727 3.2V3.7L47.1127 4.37V8.69H45.5527ZM44.7227 4.63V3.43H48.4527V4.63H44.7227Z" fill="white"/>
<path d="M51.4298 8.77C50.7965 8.77 50.3032 8.61 49.9498 8.29C49.5965 7.96333 49.4198 7.48 49.4198 6.84V2.12H50.9798V6.82C50.9798 7.04667 51.0398 7.22333 51.1598 7.35C51.2798 7.47 51.4432 7.53 51.6498 7.53C51.8965 7.53 52.1065 7.46333 52.2798 7.33L52.6998 8.43C52.5398 8.54333 52.3465 8.63 52.1198 8.69C51.8998 8.74333 51.6698 8.77 51.4298 8.77ZM48.5898 4.63V3.43H52.3198V4.63H48.5898Z" fill="white"/>
<path d="M1 8.69V1.69H4.18C4.94 1.69 5.61 1.83667 6.19 2.13C6.77 2.41667 7.22333 2.82 7.55 3.34C7.87667 3.86 8.04 4.47667 8.04 5.19C8.04 5.89667 7.87667 6.51333 7.55 7.04C7.22333 7.56 6.77 7.96667 6.19 8.26C5.61 8.54667 4.94 8.69 4.18 8.69H1ZM2.62 7.36H4.1C4.56667 7.36 4.97 7.27333 5.31 7.1C5.65667 6.92 5.92333 6.66667 6.11 6.34C6.30333 6.01333 6.4 5.63 6.4 5.19C6.4 4.74333 6.30333 4.36 6.11 4.04C5.92333 3.71333 5.65667 3.46333 5.31 3.29C4.97 3.11 4.56667 3.02 4.1 3.02H2.62V7.36Z" stroke="#242424" stroke-linejoin="round" mask="url(#path-1-outside-1_103_68)"/>
<path d="M11.8217 8.77C11.2084 8.77 10.6684 8.65 10.2017 8.41C9.74172 8.17 9.38505 7.84333 9.13172 7.43C8.87839 7.01 8.75172 6.53333 8.75172 6C8.75172 5.46 8.87505 4.98333 9.12172 4.57C9.37505 4.15 9.71839 3.82333 10.1517 3.59C10.5851 3.35 11.0751 3.23 11.6217 3.23C12.1484 3.23 12.6217 3.34333 13.0417 3.57C13.4684 3.79 13.8051 4.11 14.0517 4.53C14.2984 4.94333 14.4217 5.44 14.4217 6.02C14.4217 6.08 14.4184 6.15 14.4117 6.23C14.4051 6.30333 14.3984 6.37333 14.3917 6.44H10.0217V5.53H13.5717L12.9717 5.8C12.9717 5.52 12.9151 5.27667 12.8017 5.07C12.6884 4.86333 12.5317 4.70333 12.3317 4.59C12.1317 4.47 11.8984 4.41 11.6317 4.41C11.3651 4.41 11.1284 4.47 10.9217 4.59C10.7217 4.70333 10.5651 4.86667 10.4517 5.08C10.3384 5.28667 10.2817 5.53333 10.2817 5.82V6.06C10.2817 6.35333 10.3451 6.61333 10.4717 6.84C10.6051 7.06 10.7884 7.23 11.0217 7.35C11.2617 7.46333 11.5417 7.52 11.8617 7.52C12.1484 7.52 12.3984 7.47667 12.6117 7.39C12.8317 7.30333 13.0317 7.17333 13.2117 7L14.0417 7.9C13.7951 8.18 13.4851 8.39667 13.1117 8.55C12.7384 8.69667 12.3084 8.77 11.8217 8.77Z" stroke="#242424" stroke-linejoin="round" mask="url(#path-1-outside-1_103_68)"/>
<path d="M18.0603 8.77C17.4803 8.77 16.9636 8.65333 16.5103 8.42C16.057 8.18 15.7003 7.85 15.4403 7.43C15.187 7.01 15.0603 6.53333 15.0603 6C15.0603 5.46 15.187 4.98333 15.4403 4.57C15.7003 4.15 16.057 3.82333 16.5103 3.59C16.9636 3.35 17.4803 3.23 18.0603 3.23C18.627 3.23 19.1203 3.35 19.5403 3.59C19.9603 3.82333 20.2703 4.16 20.4703 4.6L19.2603 5.25C19.1203 4.99667 18.9436 4.81 18.7303 4.69C18.5236 4.57 18.297 4.51 18.0503 4.51C17.7836 4.51 17.5436 4.57 17.3303 4.69C17.117 4.81 16.947 4.98 16.8203 5.2C16.7003 5.42 16.6403 5.68667 16.6403 6C16.6403 6.31333 16.7003 6.58 16.8203 6.8C16.947 7.02 17.117 7.19 17.3303 7.31C17.5436 7.43 17.7836 7.49 18.0503 7.49C18.297 7.49 18.5236 7.43333 18.7303 7.32C18.9436 7.2 19.1203 7.01 19.2603 6.75L20.4703 7.41C20.2703 7.84333 19.9603 8.18 19.5403 8.42C19.1203 8.65333 18.627 8.77 18.0603 8.77Z" stroke="#242424" stroke-linejoin="round" mask="url(#path-1-outside-1_103_68)"/>
<path d="M22.6292 7.59L22.6692 5.69L25.1792 3.31H27.0392L24.6292 5.76L23.8192 6.42L22.6292 7.59ZM21.3392 8.69V1.27H22.8992V8.69H21.3392ZM25.3492 8.69L23.5292 6.43L24.5092 5.22L27.2392 8.69H25.3492Z" stroke="#242424" stroke-linejoin="round" mask="url(#path-1-outside-1_103_68)"/>
<path d="M31.4008 8.81C30.8608 8.81 30.3574 8.72333 29.8908 8.55C29.4308 8.37 29.0308 8.11667 28.6908 7.79C28.3508 7.46333 28.0841 7.08 27.8908 6.64C27.7041 6.2 27.6108 5.71667 27.6108 5.19C27.6108 4.66333 27.7041 4.18 27.8908 3.74C28.0841 3.3 28.3508 2.91667 28.6908 2.59C29.0374 2.26333 29.4408 2.01333 29.9008 1.84C30.3608 1.66 30.8641 1.57 31.4108 1.57C32.0174 1.57 32.5641 1.67667 33.0508 1.89C33.5441 2.09667 33.9574 2.40333 34.2908 2.81L33.2508 3.77C33.0108 3.49667 32.7441 3.29333 32.4508 3.16C32.1574 3.02 31.8374 2.95 31.4908 2.95C31.1641 2.95 30.8641 3.00333 30.5908 3.11C30.3174 3.21667 30.0808 3.37 29.8808 3.57C29.6808 3.77 29.5241 4.00667 29.4108 4.28C29.3041 4.55333 29.2508 4.85667 29.2508 5.19C29.2508 5.52333 29.3041 5.82667 29.4108 6.1C29.5241 6.37333 29.6808 6.61 29.8808 6.81C30.0808 7.01 30.3174 7.16333 30.5908 7.27C30.8641 7.37667 31.1641 7.43 31.4908 7.43C31.8374 7.43 32.1574 7.36333 32.4508 7.23C32.7441 7.09 33.0108 6.88 33.2508 6.6L34.2908 7.56C33.9574 7.96667 33.5441 8.27667 33.0508 8.49C32.5641 8.70333 32.0141 8.81 31.4008 8.81Z" stroke="#242424" stroke-linejoin="round" mask="url(#path-1-outside-1_103_68)"/>
<path d="M35.2748 8.69V3.31H36.7648V4.83L36.5548 4.39C36.7148 4.01 36.9714 3.72333 37.3248 3.53C37.6781 3.33 38.1081 3.23 38.6148 3.23V4.67C38.5481 4.66333 38.4881 4.66 38.4348 4.66C38.3814 4.65333 38.3248 4.65 38.2648 4.65C37.8381 4.65 37.4914 4.77333 37.2248 5.02C36.9648 5.26 36.8348 5.63667 36.8348 6.15V8.69H35.2748Z" stroke="#242424" stroke-linejoin="round" mask="url(#path-1-outside-1_103_68)"/>
<path d="M42.4908 8.69V7.64L42.3908 7.41V5.53C42.3908 5.19667 42.2874 4.93667 42.0808 4.75C41.8808 4.56333 41.5708 4.47 41.1508 4.47C40.8641 4.47 40.5808 4.51667 40.3008 4.61C40.0274 4.69667 39.7941 4.81667 39.6008 4.97L39.0408 3.88C39.3341 3.67333 39.6874 3.51333 40.1008 3.4C40.5141 3.28667 40.9341 3.23 41.3608 3.23C42.1808 3.23 42.8174 3.42333 43.2708 3.81C43.7241 4.19667 43.9508 4.8 43.9508 5.62V8.69H42.4908ZM40.8508 8.77C40.4308 8.77 40.0708 8.7 39.7708 8.56C39.4708 8.41333 39.2408 8.21667 39.0808 7.97C38.9208 7.72333 38.8408 7.44667 38.8408 7.14C38.8408 6.82 38.9174 6.54 39.0708 6.3C39.2308 6.06 39.4808 5.87333 39.8208 5.74C40.1608 5.6 40.6041 5.53 41.1508 5.53H42.5808V6.44H41.3208C40.9541 6.44 40.7008 6.5 40.5608 6.62C40.4274 6.74 40.3608 6.89 40.3608 7.07C40.3608 7.27 40.4374 7.43 40.5908 7.55C40.7508 7.66333 40.9674 7.72 41.2408 7.72C41.5008 7.72 41.7341 7.66 41.9408 7.54C42.1474 7.41333 42.2974 7.23 42.3908 6.99L42.6308 7.71C42.5174 8.05667 42.3108 8.32 42.0108 8.5C41.7108 8.68 41.3241 8.77 40.8508 8.77Z" stroke="#242424" stroke-linejoin="round" mask="url(#path-1-outside-1_103_68)"/>
<path d="M45.5527 8.69V3.19C45.5527 2.58333 45.7327 2.1 46.0927 1.74C46.4527 1.37333 46.966 1.19 47.6327 1.19C47.8593 1.19 48.076 1.21333 48.2827 1.26C48.496 1.30667 48.676 1.38 48.8227 1.48L48.4127 2.61C48.326 2.55 48.2293 2.50333 48.1227 2.47C48.016 2.43667 47.9027 2.42 47.7827 2.42C47.556 2.42 47.3793 2.48667 47.2527 2.62C47.1327 2.74667 47.0727 2.94 47.0727 3.2V3.7L47.1127 4.37V8.69H45.5527ZM44.7227 4.63V3.43H48.4527V4.63H44.7227Z" stroke="#242424" stroke-linejoin="round" mask="url(#path-1-outside-1_103_68)"/>
<path d="M51.4298 8.77C50.7965 8.77 50.3032 8.61 49.9498 8.29C49.5965 7.96333 49.4198 7.48 49.4198 6.84V2.12H50.9798V6.82C50.9798 7.04667 51.0398 7.22333 51.1598 7.35C51.2798 7.47 51.4432 7.53 51.6498 7.53C51.8965 7.53 52.1065 7.46333 52.2798 7.33L52.6998 8.43C52.5398 8.54333 52.3465 8.63 52.1198 8.69C51.8998 8.74333 51.6698 8.77 51.4298 8.77ZM48.5898 4.63V3.43H52.3198V4.63H48.5898Z" stroke="#242424" stroke-linejoin="round" mask="url(#path-1-outside-1_103_68)"/>
</svg>
