<svg width="70" height="36" viewBox="0 0 70 36" fill="none" xmlns="http://www.w3.org/2000/svg">
<rect width="70" height="36" fill="#CBD0FF"/>
<circle cx="50" cy="30" r="6" fill="#C345FF"/>
<circle cx="52.5" cy="8.5" r="8.5" fill="#4584FF"/>
<circle cx="18.5" cy="16.5" r="7.5" fill="#45FFBC"/>
<g filter="url(#filter0_d_3_2)">
<mask id="path-4-outside-1_3_2" maskUnits="userSpaceOnUse" x="5.15847" y="14.064" width="59" height="8" fill="black">
<rect fill="white" x="5.15847" y="14.064" width="59" height="8"/>
<path d="M6.15847 21L8.65447 15.4H9.93447L12.4385 21H11.0785L9.03047 16.056H9.54247L7.48647 21H6.15847ZM7.40647 19.8L7.75047 18.816H10.6305L10.9825 19.8H7.40647Z"/>
<path d="M14.7404 21.064C14.3351 21.064 13.9697 20.9733 13.6444 20.792C13.3191 20.6053 13.0604 20.3467 12.8684 20.016C12.6817 19.6853 12.5884 19.296 12.5884 18.848C12.5884 18.3947 12.6817 18.0027 12.8684 17.672C13.0604 17.3413 13.3191 17.0853 13.6444 16.904C13.9697 16.7227 14.3351 16.632 14.7404 16.632C15.1031 16.632 15.4204 16.712 15.6924 16.872C15.9644 17.032 16.1751 17.2747 16.3244 17.6C16.4737 17.9253 16.5484 18.3413 16.5484 18.848C16.5484 19.3493 16.4764 19.7653 16.3324 20.096C16.1884 20.4213 15.9804 20.664 15.7084 20.824C15.4417 20.984 15.1191 21.064 14.7404 21.064ZM14.9564 20.04C15.1591 20.04 15.3431 19.992 15.5084 19.896C15.6737 19.8 15.8044 19.664 15.9004 19.488C16.0017 19.3067 16.0524 19.0933 16.0524 18.848C16.0524 18.5973 16.0017 18.384 15.9004 18.208C15.8044 18.032 15.6737 17.896 15.5084 17.8C15.3431 17.704 15.1591 17.656 14.9564 17.656C14.7484 17.656 14.5617 17.704 14.3964 17.8C14.2311 17.896 14.0977 18.032 13.9964 18.208C13.9004 18.384 13.8524 18.5973 13.8524 18.848C13.8524 19.0933 13.9004 19.3067 13.9964 19.488C14.0977 19.664 14.2311 19.8 14.3964 19.896C14.5617 19.992 14.7484 20.04 14.9564 20.04ZM16.0844 21V20.12L16.1084 18.84L16.0284 17.568V15.064H17.2764V21H16.0844Z"/>
<path d="M18.4315 21V16.696H19.6235V17.912L19.4555 17.56C19.5835 17.256 19.7888 17.0267 20.0715 16.872C20.3541 16.712 20.6981 16.632 21.1035 16.632V17.784C21.0501 17.7787 21.0021 17.776 20.9595 17.776C20.9168 17.7707 20.8715 17.768 20.8235 17.768C20.4821 17.768 20.2048 17.8667 19.9915 18.064C19.7835 18.256 19.6795 18.5573 19.6795 18.968V21H18.4315Z"/>
<path d="M23.9503 21.064C23.4596 21.064 23.0276 20.968 22.6543 20.776C22.2863 20.584 22.0009 20.3227 21.7983 19.992C21.5956 19.656 21.4943 19.2747 21.4943 18.848C21.4943 18.416 21.5929 18.0347 21.7903 17.704C21.9929 17.368 22.2676 17.1067 22.6143 16.92C22.9609 16.728 23.3529 16.632 23.7903 16.632C24.2116 16.632 24.5903 16.7227 24.9263 16.904C25.2676 17.08 25.5369 17.336 25.7343 17.672C25.9316 18.0027 26.0303 18.4 26.0303 18.864C26.0303 18.912 26.0276 18.968 26.0223 19.032C26.0169 19.0907 26.0116 19.1467 26.0063 19.2H22.5103V18.472H25.3503L24.8703 18.688C24.8703 18.464 24.8249 18.2693 24.7343 18.104C24.6436 17.9387 24.5183 17.8107 24.3583 17.72C24.1983 17.624 24.0116 17.576 23.7983 17.576C23.5849 17.576 23.3956 17.624 23.2303 17.72C23.0703 17.8107 22.9449 17.9413 22.8543 18.112C22.7636 18.2773 22.7183 18.4747 22.7183 18.704V18.896C22.7183 19.1307 22.7689 19.3387 22.8703 19.52C22.9769 19.696 23.1236 19.832 23.3103 19.928C23.5023 20.0187 23.7263 20.064 23.9823 20.064C24.2116 20.064 24.4116 20.0293 24.5823 19.96C24.7583 19.8907 24.9183 19.7867 25.0623 19.648L25.7263 20.368C25.5289 20.592 25.2809 20.7653 24.9823 20.888C24.6836 21.0053 24.3396 21.064 23.9503 21.064Z"/>
<path d="M29.4772 16.632C29.8185 16.632 30.1225 16.7013 30.3892 16.84C30.6612 16.9733 30.8745 17.1813 31.0292 17.464C31.1838 17.7413 31.2612 18.0987 31.2612 18.536V21H30.0132V18.728C30.0132 18.3813 29.9358 18.1253 29.7812 17.96C29.6318 17.7947 29.4185 17.712 29.1412 17.712C28.9438 17.712 28.7652 17.7547 28.6052 17.84C28.4505 17.92 28.3278 18.0453 28.2372 18.216C28.1518 18.3867 28.1092 18.6053 28.1092 18.872V21H26.8612V16.696H28.0532V17.888L27.8292 17.528C27.9838 17.24 28.2052 17.0187 28.4932 16.864C28.7812 16.7093 29.1092 16.632 29.4772 16.632Z"/>
<path d="M35.0324 21V20.16L34.9524 19.976V18.472C34.9524 18.2053 34.8697 17.9973 34.7044 17.848C34.5444 17.6987 34.2964 17.624 33.9604 17.624C33.7311 17.624 33.5044 17.6613 33.2804 17.736C33.0617 17.8053 32.8751 17.9013 32.7204 18.024L32.2724 17.152C32.5071 16.9867 32.7897 16.8587 33.1204 16.768C33.4511 16.6773 33.7871 16.632 34.1284 16.632C34.7844 16.632 35.2937 16.7867 35.6564 17.096C36.0191 17.4053 36.2004 17.888 36.2004 18.544V21H35.0324ZM33.7204 21.064C33.3844 21.064 33.0964 21.008 32.8564 20.896C32.6164 20.7787 32.4324 20.6213 32.3044 20.424C32.1764 20.2267 32.1124 20.0053 32.1124 19.76C32.1124 19.504 32.1737 19.28 32.2964 19.088C32.4244 18.896 32.6244 18.7467 32.8964 18.64C33.1684 18.528 33.5231 18.472 33.9604 18.472H35.1044V19.2H34.0964C33.8031 19.2 33.6004 19.248 33.4884 19.344C33.3817 19.44 33.3284 19.56 33.3284 19.704C33.3284 19.864 33.3897 19.992 33.5124 20.088C33.6404 20.1787 33.8137 20.224 34.0324 20.224C34.2404 20.224 34.4271 20.176 34.5924 20.08C34.7577 19.9787 34.8777 19.832 34.9524 19.64L35.1444 20.216C35.0537 20.4933 34.8884 20.704 34.6484 20.848C34.4084 20.992 34.0991 21.064 33.7204 21.064Z"/>
<path d="M38.7779 21.064C38.4099 21.064 38.0552 21.0213 37.7139 20.936C37.3779 20.8453 37.1112 20.7333 36.9139 20.6L37.3299 19.704C37.5272 19.8267 37.7592 19.928 38.0259 20.008C38.2979 20.0827 38.5646 20.12 38.8259 20.12C39.1139 20.12 39.3166 20.0853 39.4339 20.016C39.5566 19.9467 39.6179 19.8507 39.6179 19.728C39.6179 19.6267 39.5699 19.552 39.4739 19.504C39.3832 19.4507 39.2606 19.4107 39.1059 19.384C38.9512 19.3573 38.7806 19.3307 38.5939 19.304C38.4126 19.2773 38.2286 19.2427 38.0419 19.2C37.8552 19.152 37.6846 19.0827 37.5299 18.992C37.3752 18.9013 37.2499 18.7787 37.1539 18.624C37.0632 18.4693 37.0179 18.2693 37.0179 18.024C37.0179 17.752 37.0952 17.512 37.2499 17.304C37.4099 17.096 37.6392 16.9333 37.9379 16.816C38.2366 16.6933 38.5939 16.632 39.0099 16.632C39.3032 16.632 39.6019 16.664 39.9059 16.728C40.2099 16.792 40.4632 16.8853 40.6659 17.008L40.2499 17.896C40.0419 17.7733 39.8312 17.6907 39.6179 17.648C39.4099 17.6 39.2072 17.576 39.0099 17.576C38.7326 17.576 38.5299 17.6133 38.4019 17.688C38.2739 17.7627 38.2099 17.8587 38.2099 17.976C38.2099 18.0827 38.2552 18.1627 38.3459 18.216C38.4419 18.2693 38.5672 18.312 38.7219 18.344C38.8766 18.376 39.0446 18.4053 39.2259 18.432C39.4126 18.4533 39.5992 18.488 39.7859 18.536C39.9726 18.584 40.1406 18.6533 40.2899 18.744C40.4446 18.8293 40.5699 18.9493 40.6659 19.104C40.7619 19.2533 40.8099 19.4507 40.8099 19.696C40.8099 19.9627 40.7299 20.2 40.5699 20.408C40.4099 20.6107 40.1779 20.7707 39.8739 20.888C39.5752 21.0053 39.2099 21.064 38.7779 21.064Z"/>
<path d="M43.7159 21.064C43.2252 21.064 42.7932 20.968 42.4199 20.776C42.0519 20.584 41.7666 20.3227 41.5639 19.992C41.3612 19.656 41.2599 19.2747 41.2599 18.848C41.2599 18.416 41.3586 18.0347 41.5559 17.704C41.7586 17.368 42.0332 17.1067 42.3799 16.92C42.7266 16.728 43.1186 16.632 43.5559 16.632C43.9772 16.632 44.3559 16.7227 44.6919 16.904C45.0332 17.08 45.3026 17.336 45.4999 17.672C45.6972 18.0027 45.7959 18.4 45.7959 18.864C45.7959 18.912 45.7932 18.968 45.7879 19.032C45.7826 19.0907 45.7772 19.1467 45.7719 19.2H42.2759V18.472H45.1159L44.6359 18.688C44.6359 18.464 44.5906 18.2693 44.4999 18.104C44.4092 17.9387 44.2839 17.8107 44.1239 17.72C43.9639 17.624 43.7772 17.576 43.5639 17.576C43.3506 17.576 43.1612 17.624 42.9959 17.72C42.8359 17.8107 42.7106 17.9413 42.6199 18.112C42.5292 18.2773 42.4839 18.4747 42.4839 18.704V18.896C42.4839 19.1307 42.5346 19.3387 42.6359 19.52C42.7426 19.696 42.8892 19.832 43.0759 19.928C43.2679 20.0187 43.4919 20.064 43.7479 20.064C43.9772 20.064 44.1772 20.0293 44.3479 19.96C44.5239 19.8907 44.6839 19.7867 44.8279 19.648L45.4919 20.368C45.2946 20.592 45.0466 20.7653 44.7479 20.888C44.4492 21.0053 44.1052 21.064 43.7159 21.064Z"/>
<path d="M46.6268 21V16.696H47.8188V17.912L47.6508 17.56C47.7788 17.256 47.9841 17.0267 48.2668 16.872C48.5494 16.712 48.8934 16.632 49.2988 16.632V17.784C49.2454 17.7787 49.1974 17.776 49.1548 17.776C49.1121 17.7707 49.0668 17.768 49.0188 17.768C48.6775 17.768 48.4001 17.8667 48.1868 18.064C47.9788 18.256 47.8748 18.5573 47.8748 18.968V21H46.6268Z"/>
<path d="M51.3573 21L49.5493 16.696H50.8373L52.3413 20.4H51.7013L53.2613 16.696H54.4613L52.6453 21H51.3573Z"/>
<path d="M56.9893 21.064C56.4987 21.064 56.0667 20.968 55.6933 20.776C55.3253 20.584 55.04 20.3227 54.8373 19.992C54.6347 19.656 54.5333 19.2747 54.5333 18.848C54.5333 18.416 54.632 18.0347 54.8293 17.704C55.032 17.368 55.3067 17.1067 55.6533 16.92C56 16.728 56.392 16.632 56.8293 16.632C57.2507 16.632 57.6293 16.7227 57.9653 16.904C58.3067 17.08 58.576 17.336 58.7733 17.672C58.9707 18.0027 59.0693 18.4 59.0693 18.864C59.0693 18.912 59.0667 18.968 59.0613 19.032C59.056 19.0907 59.0507 19.1467 59.0453 19.2H55.5493V18.472H58.3893L57.9093 18.688C57.9093 18.464 57.864 18.2693 57.7733 18.104C57.6827 17.9387 57.5573 17.8107 57.3973 17.72C57.2373 17.624 57.0507 17.576 56.8373 17.576C56.624 17.576 56.4347 17.624 56.2693 17.72C56.1093 17.8107 55.984 17.9413 55.8933 18.112C55.8027 18.2773 55.7573 18.4747 55.7573 18.704V18.896C55.7573 19.1307 55.808 19.3387 55.9093 19.52C56.016 19.696 56.1627 19.832 56.3493 19.928C56.5413 20.0187 56.7653 20.064 57.0213 20.064C57.2507 20.064 57.4507 20.0293 57.6213 19.96C57.7973 19.8907 57.9573 19.7867 58.1013 19.648L58.7653 20.368C58.568 20.592 58.32 20.7653 58.0213 20.888C57.7227 21.0053 57.3787 21.064 56.9893 21.064Z"/>
<path d="M59.9002 21V16.696H61.0922V17.912L60.9242 17.56C61.0522 17.256 61.2576 17.0267 61.5402 16.872C61.8229 16.712 62.1669 16.632 62.5722 16.632V17.784C62.5189 17.7787 62.4709 17.776 62.4282 17.776C62.3855 17.7707 62.3402 17.768 62.2922 17.768C61.9509 17.768 61.6736 17.8667 61.4602 18.064C61.2522 18.256 61.1482 18.5573 61.1482 18.968V21H59.9002Z"/>
</mask>
<path d="M6.15847 21L8.65447 15.4H9.93447L12.4385 21H11.0785L9.03047 16.056H9.54247L7.48647 21H6.15847ZM7.40647 19.8L7.75047 18.816H10.6305L10.9825 19.8H7.40647Z" fill="url(#paint0_linear_3_2)"/>
<path d="M14.7404 21.064C14.3351 21.064 13.9697 20.9733 13.6444 20.792C13.3191 20.6053 13.0604 20.3467 12.8684 20.016C12.6817 19.6853 12.5884 19.296 12.5884 18.848C12.5884 18.3947 12.6817 18.0027 12.8684 17.672C13.0604 17.3413 13.3191 17.0853 13.6444 16.904C13.9697 16.7227 14.3351 16.632 14.7404 16.632C15.1031 16.632 15.4204 16.712 15.6924 16.872C15.9644 17.032 16.1751 17.2747 16.3244 17.6C16.4737 17.9253 16.5484 18.3413 16.5484 18.848C16.5484 19.3493 16.4764 19.7653 16.3324 20.096C16.1884 20.4213 15.9804 20.664 15.7084 20.824C15.4417 20.984 15.1191 21.064 14.7404 21.064ZM14.9564 20.04C15.1591 20.04 15.3431 19.992 15.5084 19.896C15.6737 19.8 15.8044 19.664 15.9004 19.488C16.0017 19.3067 16.0524 19.0933 16.0524 18.848C16.0524 18.5973 16.0017 18.384 15.9004 18.208C15.8044 18.032 15.6737 17.896 15.5084 17.8C15.3431 17.704 15.1591 17.656 14.9564 17.656C14.7484 17.656 14.5617 17.704 14.3964 17.8C14.2311 17.896 14.0977 18.032 13.9964 18.208C13.9004 18.384 13.8524 18.5973 13.8524 18.848C13.8524 19.0933 13.9004 19.3067 13.9964 19.488C14.0977 19.664 14.2311 19.8 14.3964 19.896C14.5617 19.992 14.7484 20.04 14.9564 20.04ZM16.0844 21V20.12L16.1084 18.84L16.0284 17.568V15.064H17.2764V21H16.0844Z" fill="url(#paint1_linear_3_2)"/>
<path d="M18.4315 21V16.696H19.6235V17.912L19.4555 17.56C19.5835 17.256 19.7888 17.0267 20.0715 16.872C20.3541 16.712 20.6981 16.632 21.1035 16.632V17.784C21.0501 17.7787 21.0021 17.776 20.9595 17.776C20.9168 17.7707 20.8715 17.768 20.8235 17.768C20.4821 17.768 20.2048 17.8667 19.9915 18.064C19.7835 18.256 19.6795 18.5573 19.6795 18.968V21H18.4315Z" fill="url(#paint2_linear_3_2)"/>
<path d="M23.9503 21.064C23.4596 21.064 23.0276 20.968 22.6543 20.776C22.2863 20.584 22.0009 20.3227 21.7983 19.992C21.5956 19.656 21.4943 19.2747 21.4943 18.848C21.4943 18.416 21.5929 18.0347 21.7903 17.704C21.9929 17.368 22.2676 17.1067 22.6143 16.92C22.9609 16.728 23.3529 16.632 23.7903 16.632C24.2116 16.632 24.5903 16.7227 24.9263 16.904C25.2676 17.08 25.5369 17.336 25.7343 17.672C25.9316 18.0027 26.0303 18.4 26.0303 18.864C26.0303 18.912 26.0276 18.968 26.0223 19.032C26.0169 19.0907 26.0116 19.1467 26.0063 19.2H22.5103V18.472H25.3503L24.8703 18.688C24.8703 18.464 24.8249 18.2693 24.7343 18.104C24.6436 17.9387 24.5183 17.8107 24.3583 17.72C24.1983 17.624 24.0116 17.576 23.7983 17.576C23.5849 17.576 23.3956 17.624 23.2303 17.72C23.0703 17.8107 22.9449 17.9413 22.8543 18.112C22.7636 18.2773 22.7183 18.4747 22.7183 18.704V18.896C22.7183 19.1307 22.7689 19.3387 22.8703 19.52C22.9769 19.696 23.1236 19.832 23.3103 19.928C23.5023 20.0187 23.7263 20.064 23.9823 20.064C24.2116 20.064 24.4116 20.0293 24.5823 19.96C24.7583 19.8907 24.9183 19.7867 25.0623 19.648L25.7263 20.368C25.5289 20.592 25.2809 20.7653 24.9823 20.888C24.6836 21.0053 24.3396 21.064 23.9503 21.064Z" fill="url(#paint3_linear_3_2)"/>
<path d="M29.4772 16.632C29.8185 16.632 30.1225 16.7013 30.3892 16.84C30.6612 16.9733 30.8745 17.1813 31.0292 17.464C31.1838 17.7413 31.2612 18.0987 31.2612 18.536V21H30.0132V18.728C30.0132 18.3813 29.9358 18.1253 29.7812 17.96C29.6318 17.7947 29.4185 17.712 29.1412 17.712C28.9438 17.712 28.7652 17.7547 28.6052 17.84C28.4505 17.92 28.3278 18.0453 28.2372 18.216C28.1518 18.3867 28.1092 18.6053 28.1092 18.872V21H26.8612V16.696H28.0532V17.888L27.8292 17.528C27.9838 17.24 28.2052 17.0187 28.4932 16.864C28.7812 16.7093 29.1092 16.632 29.4772 16.632Z" fill="url(#paint4_linear_3_2)"/>
<path d="M35.0324 21V20.16L34.9524 19.976V18.472C34.9524 18.2053 34.8697 17.9973 34.7044 17.848C34.5444 17.6987 34.2964 17.624 33.9604 17.624C33.7311 17.624 33.5044 17.6613 33.2804 17.736C33.0617 17.8053 32.8751 17.9013 32.7204 18.024L32.2724 17.152C32.5071 16.9867 32.7897 16.8587 33.1204 16.768C33.4511 16.6773 33.7871 16.632 34.1284 16.632C34.7844 16.632 35.2937 16.7867 35.6564 17.096C36.0191 17.4053 36.2004 17.888 36.2004 18.544V21H35.0324ZM33.7204 21.064C33.3844 21.064 33.0964 21.008 32.8564 20.896C32.6164 20.7787 32.4324 20.6213 32.3044 20.424C32.1764 20.2267 32.1124 20.0053 32.1124 19.76C32.1124 19.504 32.1737 19.28 32.2964 19.088C32.4244 18.896 32.6244 18.7467 32.8964 18.64C33.1684 18.528 33.5231 18.472 33.9604 18.472H35.1044V19.2H34.0964C33.8031 19.2 33.6004 19.248 33.4884 19.344C33.3817 19.44 33.3284 19.56 33.3284 19.704C33.3284 19.864 33.3897 19.992 33.5124 20.088C33.6404 20.1787 33.8137 20.224 34.0324 20.224C34.2404 20.224 34.4271 20.176 34.5924 20.08C34.7577 19.9787 34.8777 19.832 34.9524 19.64L35.1444 20.216C35.0537 20.4933 34.8884 20.704 34.6484 20.848C34.4084 20.992 34.0991 21.064 33.7204 21.064Z" fill="url(#paint5_linear_3_2)"/>
<path d="M38.7779 21.064C38.4099 21.064 38.0552 21.0213 37.7139 20.936C37.3779 20.8453 37.1112 20.7333 36.9139 20.6L37.3299 19.704C37.5272 19.8267 37.7592 19.928 38.0259 20.008C38.2979 20.0827 38.5646 20.12 38.8259 20.12C39.1139 20.12 39.3166 20.0853 39.4339 20.016C39.5566 19.9467 39.6179 19.8507 39.6179 19.728C39.6179 19.6267 39.5699 19.552 39.4739 19.504C39.3832 19.4507 39.2606 19.4107 39.1059 19.384C38.9512 19.3573 38.7806 19.3307 38.5939 19.304C38.4126 19.2773 38.2286 19.2427 38.0419 19.2C37.8552 19.152 37.6846 19.0827 37.5299 18.992C37.3752 18.9013 37.2499 18.7787 37.1539 18.624C37.0632 18.4693 37.0179 18.2693 37.0179 18.024C37.0179 17.752 37.0952 17.512 37.2499 17.304C37.4099 17.096 37.6392 16.9333 37.9379 16.816C38.2366 16.6933 38.5939 16.632 39.0099 16.632C39.3032 16.632 39.6019 16.664 39.9059 16.728C40.2099 16.792 40.4632 16.8853 40.6659 17.008L40.2499 17.896C40.0419 17.7733 39.8312 17.6907 39.6179 17.648C39.4099 17.6 39.2072 17.576 39.0099 17.576C38.7326 17.576 38.5299 17.6133 38.4019 17.688C38.2739 17.7627 38.2099 17.8587 38.2099 17.976C38.2099 18.0827 38.2552 18.1627 38.3459 18.216C38.4419 18.2693 38.5672 18.312 38.7219 18.344C38.8766 18.376 39.0446 18.4053 39.2259 18.432C39.4126 18.4533 39.5992 18.488 39.7859 18.536C39.9726 18.584 40.1406 18.6533 40.2899 18.744C40.4446 18.8293 40.5699 18.9493 40.6659 19.104C40.7619 19.2533 40.8099 19.4507 40.8099 19.696C40.8099 19.9627 40.7299 20.2 40.5699 20.408C40.4099 20.6107 40.1779 20.7707 39.8739 20.888C39.5752 21.0053 39.2099 21.064 38.7779 21.064Z" fill="url(#paint6_linear_3_2)"/>
<path d="M43.7159 21.064C43.2252 21.064 42.7932 20.968 42.4199 20.776C42.0519 20.584 41.7666 20.3227 41.5639 19.992C41.3612 19.656 41.2599 19.2747 41.2599 18.848C41.2599 18.416 41.3586 18.0347 41.5559 17.704C41.7586 17.368 42.0332 17.1067 42.3799 16.92C42.7266 16.728 43.1186 16.632 43.5559 16.632C43.9772 16.632 44.3559 16.7227 44.6919 16.904C45.0332 17.08 45.3026 17.336 45.4999 17.672C45.6972 18.0027 45.7959 18.4 45.7959 18.864C45.7959 18.912 45.7932 18.968 45.7879 19.032C45.7826 19.0907 45.7772 19.1467 45.7719 19.2H42.2759V18.472H45.1159L44.6359 18.688C44.6359 18.464 44.5906 18.2693 44.4999 18.104C44.4092 17.9387 44.2839 17.8107 44.1239 17.72C43.9639 17.624 43.7772 17.576 43.5639 17.576C43.3506 17.576 43.1612 17.624 42.9959 17.72C42.8359 17.8107 42.7106 17.9413 42.6199 18.112C42.5292 18.2773 42.4839 18.4747 42.4839 18.704V18.896C42.4839 19.1307 42.5346 19.3387 42.6359 19.52C42.7426 19.696 42.8892 19.832 43.0759 19.928C43.2679 20.0187 43.4919 20.064 43.7479 20.064C43.9772 20.064 44.1772 20.0293 44.3479 19.96C44.5239 19.8907 44.6839 19.7867 44.8279 19.648L45.4919 20.368C45.2946 20.592 45.0466 20.7653 44.7479 20.888C44.4492 21.0053 44.1052 21.064 43.7159 21.064Z" fill="url(#paint7_linear_3_2)"/>
<path d="M46.6268 21V16.696H47.8188V17.912L47.6508 17.56C47.7788 17.256 47.9841 17.0267 48.2668 16.872C48.5494 16.712 48.8934 16.632 49.2988 16.632V17.784C49.2454 17.7787 49.1974 17.776 49.1548 17.776C49.1121 17.7707 49.0668 17.768 49.0188 17.768C48.6775 17.768 48.4001 17.8667 48.1868 18.064C47.9788 18.256 47.8748 18.5573 47.8748 18.968V21H46.6268Z" fill="url(#paint8_linear_3_2)"/>
<path d="M51.3573 21L49.5493 16.696H50.8373L52.3413 20.4H51.7013L53.2613 16.696H54.4613L52.6453 21H51.3573Z" fill="url(#paint9_linear_3_2)"/>
<path d="M56.9893 21.064C56.4987 21.064 56.0667 20.968 55.6933 20.776C55.3253 20.584 55.04 20.3227 54.8373 19.992C54.6347 19.656 54.5333 19.2747 54.5333 18.848C54.5333 18.416 54.632 18.0347 54.8293 17.704C55.032 17.368 55.3067 17.1067 55.6533 16.92C56 16.728 56.392 16.632 56.8293 16.632C57.2507 16.632 57.6293 16.7227 57.9653 16.904C58.3067 17.08 58.576 17.336 58.7733 17.672C58.9707 18.0027 59.0693 18.4 59.0693 18.864C59.0693 18.912 59.0667 18.968 59.0613 19.032C59.056 19.0907 59.0507 19.1467 59.0453 19.2H55.5493V18.472H58.3893L57.9093 18.688C57.9093 18.464 57.864 18.2693 57.7733 18.104C57.6827 17.9387 57.5573 17.8107 57.3973 17.72C57.2373 17.624 57.0507 17.576 56.8373 17.576C56.624 17.576 56.4347 17.624 56.2693 17.72C56.1093 17.8107 55.984 17.9413 55.8933 18.112C55.8027 18.2773 55.7573 18.4747 55.7573 18.704V18.896C55.7573 19.1307 55.808 19.3387 55.9093 19.52C56.016 19.696 56.1627 19.832 56.3493 19.928C56.5413 20.0187 56.7653 20.064 57.0213 20.064C57.2507 20.064 57.4507 20.0293 57.6213 19.96C57.7973 19.8907 57.9573 19.7867 58.1013 19.648L58.7653 20.368C58.568 20.592 58.32 20.7653 58.0213 20.888C57.7227 21.0053 57.3787 21.064 56.9893 21.064Z" fill="url(#paint10_linear_3_2)"/>
<path d="M59.9002 21V16.696H61.0922V17.912L60.9242 17.56C61.0522 17.256 61.2576 17.0267 61.5402 16.872C61.8229 16.712 62.1669 16.632 62.5722 16.632V17.784C62.5189 17.7787 62.4709 17.776 62.4282 17.776C62.3855 17.7707 62.3402 17.768 62.2922 17.768C61.9509 17.768 61.6736 17.8667 61.4602 18.064C61.2522 18.256 61.1482 18.5573 61.1482 18.968V21H59.9002Z" fill="url(#paint11_linear_3_2)"/>
<path d="M6.15847 21L8.65447 15.4H9.93447L12.4385 21H11.0785L9.03047 16.056H9.54247L7.48647 21H6.15847ZM7.40647 19.8L7.75047 18.816H10.6305L10.9825 19.8H7.40647Z" stroke="black" stroke-width="2" stroke-linejoin="round" mask="url(#path-4-outside-1_3_2)"/>
<path d="M14.7404 21.064C14.3351 21.064 13.9697 20.9733 13.6444 20.792C13.3191 20.6053 13.0604 20.3467 12.8684 20.016C12.6817 19.6853 12.5884 19.296 12.5884 18.848C12.5884 18.3947 12.6817 18.0027 12.8684 17.672C13.0604 17.3413 13.3191 17.0853 13.6444 16.904C13.9697 16.7227 14.3351 16.632 14.7404 16.632C15.1031 16.632 15.4204 16.712 15.6924 16.872C15.9644 17.032 16.1751 17.2747 16.3244 17.6C16.4737 17.9253 16.5484 18.3413 16.5484 18.848C16.5484 19.3493 16.4764 19.7653 16.3324 20.096C16.1884 20.4213 15.9804 20.664 15.7084 20.824C15.4417 20.984 15.1191 21.064 14.7404 21.064ZM14.9564 20.04C15.1591 20.04 15.3431 19.992 15.5084 19.896C15.6737 19.8 15.8044 19.664 15.9004 19.488C16.0017 19.3067 16.0524 19.0933 16.0524 18.848C16.0524 18.5973 16.0017 18.384 15.9004 18.208C15.8044 18.032 15.6737 17.896 15.5084 17.8C15.3431 17.704 15.1591 17.656 14.9564 17.656C14.7484 17.656 14.5617 17.704 14.3964 17.8C14.2311 17.896 14.0977 18.032 13.9964 18.208C13.9004 18.384 13.8524 18.5973 13.8524 18.848C13.8524 19.0933 13.9004 19.3067 13.9964 19.488C14.0977 19.664 14.2311 19.8 14.3964 19.896C14.5617 19.992 14.7484 20.04 14.9564 20.04ZM16.0844 21V20.12L16.1084 18.84L16.0284 17.568V15.064H17.2764V21H16.0844Z" stroke="black" stroke-width="2" stroke-linejoin="round" mask="url(#path-4-outside-1_3_2)"/>
<path d="M18.4315 21V16.696H19.6235V17.912L19.4555 17.56C19.5835 17.256 19.7888 17.0267 20.0715 16.872C20.3541 16.712 20.6981 16.632 21.1035 16.632V17.784C21.0501 17.7787 21.0021 17.776 20.9595 17.776C20.9168 17.7707 20.8715 17.768 20.8235 17.768C20.4821 17.768 20.2048 17.8667 19.9915 18.064C19.7835 18.256 19.6795 18.5573 19.6795 18.968V21H18.4315Z" stroke="black" stroke-width="2" stroke-linejoin="round" mask="url(#path-4-outside-1_3_2)"/>
<path d="M23.9503 21.064C23.4596 21.064 23.0276 20.968 22.6543 20.776C22.2863 20.584 22.0009 20.3227 21.7983 19.992C21.5956 19.656 21.4943 19.2747 21.4943 18.848C21.4943 18.416 21.5929 18.0347 21.7903 17.704C21.9929 17.368 22.2676 17.1067 22.6143 16.92C22.9609 16.728 23.3529 16.632 23.7903 16.632C24.2116 16.632 24.5903 16.7227 24.9263 16.904C25.2676 17.08 25.5369 17.336 25.7343 17.672C25.9316 18.0027 26.0303 18.4 26.0303 18.864C26.0303 18.912 26.0276 18.968 26.0223 19.032C26.0169 19.0907 26.0116 19.1467 26.0063 19.2H22.5103V18.472H25.3503L24.8703 18.688C24.8703 18.464 24.8249 18.2693 24.7343 18.104C24.6436 17.9387 24.5183 17.8107 24.3583 17.72C24.1983 17.624 24.0116 17.576 23.7983 17.576C23.5849 17.576 23.3956 17.624 23.2303 17.72C23.0703 17.8107 22.9449 17.9413 22.8543 18.112C22.7636 18.2773 22.7183 18.4747 22.7183 18.704V18.896C22.7183 19.1307 22.7689 19.3387 22.8703 19.52C22.9769 19.696 23.1236 19.832 23.3103 19.928C23.5023 20.0187 23.7263 20.064 23.9823 20.064C24.2116 20.064 24.4116 20.0293 24.5823 19.96C24.7583 19.8907 24.9183 19.7867 25.0623 19.648L25.7263 20.368C25.5289 20.592 25.2809 20.7653 24.9823 20.888C24.6836 21.0053 24.3396 21.064 23.9503 21.064Z" stroke="black" stroke-width="2" stroke-linejoin="round" mask="url(#path-4-outside-1_3_2)"/>
<path d="M29.4772 16.632C29.8185 16.632 30.1225 16.7013 30.3892 16.84C30.6612 16.9733 30.8745 17.1813 31.0292 17.464C31.1838 17.7413 31.2612 18.0987 31.2612 18.536V21H30.0132V18.728C30.0132 18.3813 29.9358 18.1253 29.7812 17.96C29.6318 17.7947 29.4185 17.712 29.1412 17.712C28.9438 17.712 28.7652 17.7547 28.6052 17.84C28.4505 17.92 28.3278 18.0453 28.2372 18.216C28.1518 18.3867 28.1092 18.6053 28.1092 18.872V21H26.8612V16.696H28.0532V17.888L27.8292 17.528C27.9838 17.24 28.2052 17.0187 28.4932 16.864C28.7812 16.7093 29.1092 16.632 29.4772 16.632Z" stroke="black" stroke-width="2" stroke-linejoin="round" mask="url(#path-4-outside-1_3_2)"/>
<path d="M35.0324 21V20.16L34.9524 19.976V18.472C34.9524 18.2053 34.8697 17.9973 34.7044 17.848C34.5444 17.6987 34.2964 17.624 33.9604 17.624C33.7311 17.624 33.5044 17.6613 33.2804 17.736C33.0617 17.8053 32.8751 17.9013 32.7204 18.024L32.2724 17.152C32.5071 16.9867 32.7897 16.8587 33.1204 16.768C33.4511 16.6773 33.7871 16.632 34.1284 16.632C34.7844 16.632 35.2937 16.7867 35.6564 17.096C36.0191 17.4053 36.2004 17.888 36.2004 18.544V21H35.0324ZM33.7204 21.064C33.3844 21.064 33.0964 21.008 32.8564 20.896C32.6164 20.7787 32.4324 20.6213 32.3044 20.424C32.1764 20.2267 32.1124 20.0053 32.1124 19.76C32.1124 19.504 32.1737 19.28 32.2964 19.088C32.4244 18.896 32.6244 18.7467 32.8964 18.64C33.1684 18.528 33.5231 18.472 33.9604 18.472H35.1044V19.2H34.0964C33.8031 19.2 33.6004 19.248 33.4884 19.344C33.3817 19.44 33.3284 19.56 33.3284 19.704C33.3284 19.864 33.3897 19.992 33.5124 20.088C33.6404 20.1787 33.8137 20.224 34.0324 20.224C34.2404 20.224 34.4271 20.176 34.5924 20.08C34.7577 19.9787 34.8777 19.832 34.9524 19.64L35.1444 20.216C35.0537 20.4933 34.8884 20.704 34.6484 20.848C34.4084 20.992 34.0991 21.064 33.7204 21.064Z" stroke="black" stroke-width="2" stroke-linejoin="round" mask="url(#path-4-outside-1_3_2)"/>
<path d="M38.7779 21.064C38.4099 21.064 38.0552 21.0213 37.7139 20.936C37.3779 20.8453 37.1112 20.7333 36.9139 20.6L37.3299 19.704C37.5272 19.8267 37.7592 19.928 38.0259 20.008C38.2979 20.0827 38.5646 20.12 38.8259 20.12C39.1139 20.12 39.3166 20.0853 39.4339 20.016C39.5566 19.9467 39.6179 19.8507 39.6179 19.728C39.6179 19.6267 39.5699 19.552 39.4739 19.504C39.3832 19.4507 39.2606 19.4107 39.1059 19.384C38.9512 19.3573 38.7806 19.3307 38.5939 19.304C38.4126 19.2773 38.2286 19.2427 38.0419 19.2C37.8552 19.152 37.6846 19.0827 37.5299 18.992C37.3752 18.9013 37.2499 18.7787 37.1539 18.624C37.0632 18.4693 37.0179 18.2693 37.0179 18.024C37.0179 17.752 37.0952 17.512 37.2499 17.304C37.4099 17.096 37.6392 16.9333 37.9379 16.816C38.2366 16.6933 38.5939 16.632 39.0099 16.632C39.3032 16.632 39.6019 16.664 39.9059 16.728C40.2099 16.792 40.4632 16.8853 40.6659 17.008L40.2499 17.896C40.0419 17.7733 39.8312 17.6907 39.6179 17.648C39.4099 17.6 39.2072 17.576 39.0099 17.576C38.7326 17.576 38.5299 17.6133 38.4019 17.688C38.2739 17.7627 38.2099 17.8587 38.2099 17.976C38.2099 18.0827 38.2552 18.1627 38.3459 18.216C38.4419 18.2693 38.5672 18.312 38.7219 18.344C38.8766 18.376 39.0446 18.4053 39.2259 18.432C39.4126 18.4533 39.5992 18.488 39.7859 18.536C39.9726 18.584 40.1406 18.6533 40.2899 18.744C40.4446 18.8293 40.5699 18.9493 40.6659 19.104C40.7619 19.2533 40.8099 19.4507 40.8099 19.696C40.8099 19.9627 40.7299 20.2 40.5699 20.408C40.4099 20.6107 40.1779 20.7707 39.8739 20.888C39.5752 21.0053 39.2099 21.064 38.7779 21.064Z" stroke="black" stroke-width="2" stroke-linejoin="round" mask="url(#path-4-outside-1_3_2)"/>
<path d="M43.7159 21.064C43.2252 21.064 42.7932 20.968 42.4199 20.776C42.0519 20.584 41.7666 20.3227 41.5639 19.992C41.3612 19.656 41.2599 19.2747 41.2599 18.848C41.2599 18.416 41.3586 18.0347 41.5559 17.704C41.7586 17.368 42.0332 17.1067 42.3799 16.92C42.7266 16.728 43.1186 16.632 43.5559 16.632C43.9772 16.632 44.3559 16.7227 44.6919 16.904C45.0332 17.08 45.3026 17.336 45.4999 17.672C45.6972 18.0027 45.7959 18.4 45.7959 18.864C45.7959 18.912 45.7932 18.968 45.7879 19.032C45.7826 19.0907 45.7772 19.1467 45.7719 19.2H42.2759V18.472H45.1159L44.6359 18.688C44.6359 18.464 44.5906 18.2693 44.4999 18.104C44.4092 17.9387 44.2839 17.8107 44.1239 17.72C43.9639 17.624 43.7772 17.576 43.5639 17.576C43.3506 17.576 43.1612 17.624 42.9959 17.72C42.8359 17.8107 42.7106 17.9413 42.6199 18.112C42.5292 18.2773 42.4839 18.4747 42.4839 18.704V18.896C42.4839 19.1307 42.5346 19.3387 42.6359 19.52C42.7426 19.696 42.8892 19.832 43.0759 19.928C43.2679 20.0187 43.4919 20.064 43.7479 20.064C43.9772 20.064 44.1772 20.0293 44.3479 19.96C44.5239 19.8907 44.6839 19.7867 44.8279 19.648L45.4919 20.368C45.2946 20.592 45.0466 20.7653 44.7479 20.888C44.4492 21.0053 44.1052 21.064 43.7159 21.064Z" stroke="black" stroke-width="2" stroke-linejoin="round" mask="url(#path-4-outside-1_3_2)"/>
<path d="M46.6268 21V16.696H47.8188V17.912L47.6508 17.56C47.7788 17.256 47.9841 17.0267 48.2668 16.872C48.5494 16.712 48.8934 16.632 49.2988 16.632V17.784C49.2454 17.7787 49.1974 17.776 49.1548 17.776C49.1121 17.7707 49.0668 17.768 49.0188 17.768C48.6775 17.768 48.4001 17.8667 48.1868 18.064C47.9788 18.256 47.8748 18.5573 47.8748 18.968V21H46.6268Z" stroke="black" stroke-width="2" stroke-linejoin="round" mask="url(#path-4-outside-1_3_2)"/>
<path d="M51.3573 21L49.5493 16.696H50.8373L52.3413 20.4H51.7013L53.2613 16.696H54.4613L52.6453 21H51.3573Z" stroke="black" stroke-width="2" stroke-linejoin="round" mask="url(#path-4-outside-1_3_2)"/>
<path d="M56.9893 21.064C56.4987 21.064 56.0667 20.968 55.6933 20.776C55.3253 20.584 55.04 20.3227 54.8373 19.992C54.6347 19.656 54.5333 19.2747 54.5333 18.848C54.5333 18.416 54.632 18.0347 54.8293 17.704C55.032 17.368 55.3067 17.1067 55.6533 16.92C56 16.728 56.392 16.632 56.8293 16.632C57.2507 16.632 57.6293 16.7227 57.9653 16.904C58.3067 17.08 58.576 17.336 58.7733 17.672C58.9707 18.0027 59.0693 18.4 59.0693 18.864C59.0693 18.912 59.0667 18.968 59.0613 19.032C59.056 19.0907 59.0507 19.1467 59.0453 19.2H55.5493V18.472H58.3893L57.9093 18.688C57.9093 18.464 57.864 18.2693 57.7733 18.104C57.6827 17.9387 57.5573 17.8107 57.3973 17.72C57.2373 17.624 57.0507 17.576 56.8373 17.576C56.624 17.576 56.4347 17.624 56.2693 17.72C56.1093 17.8107 55.984 17.9413 55.8933 18.112C55.8027 18.2773 55.7573 18.4747 55.7573 18.704V18.896C55.7573 19.1307 55.808 19.3387 55.9093 19.52C56.016 19.696 56.1627 19.832 56.3493 19.928C56.5413 20.0187 56.7653 20.064 57.0213 20.064C57.2507 20.064 57.4507 20.0293 57.6213 19.96C57.7973 19.8907 57.9573 19.7867 58.1013 19.648L58.7653 20.368C58.568 20.592 58.32 20.7653 58.0213 20.888C57.7227 21.0053 57.3787 21.064 56.9893 21.064Z" stroke="black" stroke-width="2" stroke-linejoin="round" mask="url(#path-4-outside-1_3_2)"/>
<path d="M59.9002 21V16.696H61.0922V17.912L60.9242 17.56C61.0522 17.256 61.2576 17.0267 61.5402 16.872C61.8229 16.712 62.1669 16.632 62.5722 16.632V17.784C62.5189 17.7787 62.4709 17.776 62.4282 17.776C62.3855 17.7707 62.3402 17.768 62.2922 17.768C61.9509 17.768 61.6736 17.8667 61.4602 18.064C61.2522 18.256 61.1482 18.5573 61.1482 18.968V21H59.9002Z" stroke="black" stroke-width="2" stroke-linejoin="round" mask="url(#path-4-outside-1_3_2)"/>
</g>
<defs>
<filter id="filter0_d_3_2" x="1" y="10" width="67" height="17" filterUnits="userSpaceOnUse" color-interpolation-filters="sRGB">
<feFlood flood-opacity="0" result="BackgroundImageFix"/>
<feColorMatrix in="SourceAlpha" type="matrix" values="0 0 0 0 0 0 0 0 0 0 0 0 0 0 0 0 0 0 127 0" result="hardAlpha"/>
<feOffset/>
<feGaussianBlur stdDeviation="2"/>
<feComposite in2="hardAlpha" operator="out"/>
<feColorMatrix type="matrix" values="0 0 0 0 1 0 0 0 0 1 0 0 0 0 1 0 0 0 0.25 0"/>
<feBlend mode="normal" in2="BackgroundImageFix" result="effect1_dropShadow_3_2"/>
<feBlend mode="normal" in="SourceGraphic" in2="effect1_dropShadow_3_2" result="shape"/>
</filter>
<linearGradient id="paint0_linear_3_2" x1="34.5" y1="15" x2="34.5" y2="21" gradientUnits="userSpaceOnUse">
<stop stop-color="#C345FF"/>
<stop offset="1" stop-color="#4584FF"/>
</linearGradient>
<linearGradient id="paint1_linear_3_2" x1="34.5" y1="15" x2="34.5" y2="21" gradientUnits="userSpaceOnUse">
<stop stop-color="#C345FF"/>
<stop offset="1" stop-color="#4584FF"/>
</linearGradient>
<linearGradient id="paint2_linear_3_2" x1="34.5" y1="15" x2="34.5" y2="21" gradientUnits="userSpaceOnUse">
<stop stop-color="#C345FF"/>
<stop offset="1" stop-color="#4584FF"/>
</linearGradient>
<linearGradient id="paint3_linear_3_2" x1="34.5" y1="15" x2="34.5" y2="21" gradientUnits="userSpaceOnUse">
<stop stop-color="#C345FF"/>
<stop offset="1" stop-color="#4584FF"/>
</linearGradient>
<linearGradient id="paint4_linear_3_2" x1="34.5" y1="15" x2="34.5" y2="21" gradientUnits="userSpaceOnUse">
<stop stop-color="#C345FF"/>
<stop offset="1" stop-color="#4584FF"/>
</linearGradient>
<linearGradient id="paint5_linear_3_2" x1="34.5" y1="15" x2="34.5" y2="21" gradientUnits="userSpaceOnUse">
<stop stop-color="#C345FF"/>
<stop offset="1" stop-color="#4584FF"/>
</linearGradient>
<linearGradient id="paint6_linear_3_2" x1="34.5" y1="15" x2="34.5" y2="21" gradientUnits="userSpaceOnUse">
<stop stop-color="#C345FF"/>
<stop offset="1" stop-color="#4584FF"/>
</linearGradient>
<linearGradient id="paint7_linear_3_2" x1="34.5" y1="15" x2="34.5" y2="21" gradientUnits="userSpaceOnUse">
<stop stop-color="#C345FF"/>
<stop offset="1" stop-color="#4584FF"/>
</linearGradient>
<linearGradient id="paint8_linear_3_2" x1="34.5" y1="15" x2="34.5" y2="21" gradientUnits="userSpaceOnUse">
<stop stop-color="#C345FF"/>
<stop offset="1" stop-color="#4584FF"/>
</linearGradient>
<linearGradient id="paint9_linear_3_2" x1="34.5" y1="15" x2="34.5" y2="21" gradientUnits="userSpaceOnUse">
<stop stop-color="#C345FF"/>
<stop offset="1" stop-color="#4584FF"/>
</linearGradient>
<linearGradient id="paint10_linear_3_2" x1="34.5" y1="15" x2="34.5" y2="21" gradientUnits="userSpaceOnUse">
<stop stop-color="#C345FF"/>
<stop offset="1" stop-color="#4584FF"/>
</linearGradient>
<linearGradient id="paint11_linear_3_2" x1="34.5" y1="15" x2="34.5" y2="21" gradientUnits="userSpaceOnUse">
<stop stop-color="#C345FF"/>
<stop offset="1" stop-color="#4584FF"/>
</linearGradient>
</defs>
</svg>
