<svg width="16" height="16" viewBox="0 0 16 16" fill="none" xmlns="http://www.w3.org/2000/svg">
<g clip-path="url(#clip0_1_13)">
<rect width="16" height="16" fill="#CBD0FF"/>
<circle cx="13.5" cy="12.5" r="2.5" fill="#C345FF"/>
<circle cx="14.5" cy="4.5" r="3.5" fill="#4584FF"/>
<circle cx="2" cy="7" r="3" fill="#45FFBC"/>
<mask id="path-6-inside-1_1_13" fill="white">
<path d="M2 3C2 2.44772 2.44772 2 3 2H13C13.5523 2 14 2.44772 14 3V14H2V3Z"/>
</mask>
<path d="M0.875 3C0.875 1.82639 1.82639 0.875 3 0.875H13C14.1736 0.875 15.125 1.82639 15.125 3L12.875 3.125H3.125L0.875 3ZM14 14H2H14ZM0.875 14V3C0.875 1.82639 1.82639 0.875 3 0.875L3.125 3.125V14H0.875ZM13 0.875C14.1736 0.875 15.125 1.82639 15.125 3V14H12.875V3.125L13 0.875Z" fill="black" mask="url(#path-6-inside-1_1_13)"/>
<mask id="path-8-outside-2_1_13" maskUnits="userSpaceOnUse" x="2" y="2" width="12" height="4" fill="black">
<rect fill="white" x="2" y="2" width="12" height="4"/>
<path d="M2 3C2 2.44772 2.44772 2 3 2H13C13.5523 2 14 2.44772 14 3V4C14 4.55228 13.5523 5 13 5H3C2.44772 5 2 4.55228 2 4V3Z"/>
</mask>
<path d="M2 3C2 2.44772 2.44772 2 3 2H13C13.5523 2 14 2.44772 14 3V4C14 4.55228 13.5523 5 13 5H3C2.44772 5 2 4.55228 2 4V3Z" fill="#2E2E2E"/>
<path d="M2 2H14H2ZM14 4C14 4.89746 13.2725 5.625 12.375 5.625H3.625C2.72754 5.625 2 4.89746 2 4C2 4.20711 2.44772 4.375 3 4.375H13C13.5523 4.375 14 4.20711 14 4ZM2 5V2V5ZM14 2V5V2Z" fill="black" mask="url(#path-8-outside-2_1_13)"/>
<mask id="path-10-outside-3_1_13" maskUnits="userSpaceOnUse" x="2" y="6" width="12" height="4" fill="black">
<rect fill="white" x="2" y="6" width="12" height="4"/>
<path d="M2 7C2 6.44772 2.44772 6 3 6H13C13.5523 6 14 6.44772 14 7V8C14 8.55228 13.5523 9 13 9H3C2.44772 9 2 8.55228 2 8V7Z"/>
</mask>
<path d="M2 7C2 6.44772 2.44772 6 3 6H13C13.5523 6 14 6.44772 14 7V8C14 8.55228 13.5523 9 13 9H3C2.44772 9 2 8.55228 2 8V7Z" fill="#2E2E2E"/>
<path d="M2 6H14H2ZM14 8C14 8.89746 13.2725 9.625 12.375 9.625H3.625C2.72754 9.625 2 8.89746 2 8C2 8.20711 2.44772 8.375 3 8.375H13C13.5523 8.375 14 8.20711 14 8ZM2 9V6V9ZM14 6V9V6Z" fill="black" mask="url(#path-10-outside-3_1_13)"/>
<mask id="path-12-outside-4_1_13" maskUnits="userSpaceOnUse" x="2" y="10" width="12" height="4" fill="black">
<rect fill="white" x="2" y="10" width="12" height="4"/>
<path d="M2 11C2 10.4477 2.44772 10 3 10H13C13.5523 10 14 10.4477 14 11V12C14 12.5523 13.5523 13 13 13H3C2.44772 13 2 12.5523 2 12V11Z"/>
</mask>
<path d="M2 11C2 10.4477 2.44772 10 3 10H13C13.5523 10 14 10.4477 14 11V12C14 12.5523 13.5523 13 13 13H3C2.44772 13 2 12.5523 2 12V11Z" fill="#2E2E2E"/>
<path d="M2 10H14H2ZM14 12C14 12.8975 13.2725 13.625 12.375 13.625H3.625C2.72754 13.625 2 12.8975 2 12C2 12.2071 2.44772 12.375 3 12.375H13C13.5523 12.375 14 12.2071 14 12ZM2 13V10V13ZM14 10V13V10Z" fill="black" mask="url(#path-12-outside-4_1_13)"/>
<circle cx="12.5" cy="3.5" r="0.5" fill="#4584FF"/>
<circle cx="10.5" cy="3.5" r="0.5" fill="#45FFBC"/>
<circle cx="12.5" cy="7.5" r="0.5" fill="#4584FF"/>
<circle cx="10.5" cy="7.5" r="0.5" fill="#45FFBC"/>
<circle cx="12.5" cy="11.5" r="0.5" fill="#4584FF"/>
<circle cx="10.5" cy="11.5" r="0.5" fill="#45FFBC"/>
<rect x="3" y="3" width="2" height="1" rx="0.25" fill="url(#paint0_linear_1_13)"/>
<rect x="3" y="7" width="2" height="1" rx="0.25" fill="url(#paint1_linear_1_13)"/>
<rect x="3" y="11" width="2" height="1" rx="0.25" fill="url(#paint2_linear_1_13)"/>
</g>
<defs>
<linearGradient id="paint0_linear_1_13" x1="4" y1="3" x2="4" y2="4" gradientUnits="userSpaceOnUse">
<stop stop-color="#D869FF"/>
<stop offset="1" stop-color="#A954FF"/>
</linearGradient>
<linearGradient id="paint1_linear_1_13" x1="4" y1="7" x2="4" y2="8" gradientUnits="userSpaceOnUse">
<stop stop-color="#D869FF"/>
<stop offset="1" stop-color="#A954FF"/>
</linearGradient>
<linearGradient id="paint2_linear_1_13" x1="4" y1="11" x2="4" y2="12" gradientUnits="userSpaceOnUse">
<stop stop-color="#D869FF"/>
<stop offset="1" stop-color="#A954FF"/>
</linearGradient>
<clipPath id="clip0_1_13">
<rect width="16" height="16" rx="2" fill="white"/>
</clipPath>
</defs>
</svg>
