<svg width="59" height="9" viewBox="0 0 59 9" fill="none" xmlns="http://www.w3.org/2000/svg">
<g clip-path="url(#clip0_1_2)">
<mask id="path-1-outside-1_1_2" maskUnits="userSpaceOnUse" x="0.15847" y="0.0639992" width="59" height="8" fill="black">
<rect fill="white" x="0.15847" y="0.0639992" width="59" height="8"/>
<path d="M1.15847 7L3.65447 1.4H4.93447L7.43847 7H6.07847L4.03047 2.056H4.54247L2.48647 7H1.15847ZM2.40647 5.8L2.75047 4.816H5.63047L5.98247 5.8H2.40647Z"/>
<path d="M9.74041 7.064C9.33507 7.064 8.96974 6.97333 8.64441 6.792C8.31907 6.60533 8.06041 6.34667 7.86841 6.016C7.68174 5.68533 7.58841 5.296 7.58841 4.848C7.58841 4.39467 7.68174 4.00267 7.86841 3.672C8.06041 3.34133 8.31907 3.08533 8.64441 2.904C8.96974 2.72267 9.33507 2.632 9.74041 2.632C10.1031 2.632 10.4204 2.712 10.6924 2.872C10.9644 3.032 11.1751 3.27467 11.3244 3.6C11.4737 3.92533 11.5484 4.34133 11.5484 4.848C11.5484 5.34933 11.4764 5.76533 11.3324 6.096C11.1884 6.42133 10.9804 6.664 10.7084 6.824C10.4417 6.984 10.1191 7.064 9.74041 7.064ZM9.95641 6.04C10.1591 6.04 10.3431 5.992 10.5084 5.896C10.6737 5.8 10.8044 5.664 10.9004 5.488C11.0017 5.30667 11.0524 5.09333 11.0524 4.848C11.0524 4.59733 11.0017 4.384 10.9004 4.208C10.8044 4.032 10.6737 3.896 10.5084 3.8C10.3431 3.704 10.1591 3.656 9.95641 3.656C9.74841 3.656 9.56174 3.704 9.39641 3.8C9.23107 3.896 9.09774 4.032 8.99641 4.208C8.90041 4.384 8.85241 4.59733 8.85241 4.848C8.85241 5.09333 8.90041 5.30667 8.99641 5.488C9.09774 5.664 9.23107 5.8 9.39641 5.896C9.56174 5.992 9.74841 6.04 9.95641 6.04ZM11.0844 7V6.12L11.1084 4.84L11.0284 3.568V1.064H12.2764V7H11.0844Z"/>
<path d="M13.4315 7V2.696H14.6235V3.912L14.4555 3.56C14.5835 3.256 14.7888 3.02667 15.0715 2.872C15.3541 2.712 15.6981 2.632 16.1035 2.632V3.784C16.0501 3.77867 16.0021 3.776 15.9595 3.776C15.9168 3.77067 15.8715 3.768 15.8235 3.768C15.4821 3.768 15.2048 3.86667 14.9915 4.064C14.7835 4.256 14.6795 4.55733 14.6795 4.968V7H13.4315Z"/>
<path d="M18.9503 7.064C18.4596 7.064 18.0276 6.968 17.6543 6.776C17.2863 6.584 17.0009 6.32267 16.7983 5.992C16.5956 5.656 16.4943 5.27467 16.4943 4.848C16.4943 4.416 16.5929 4.03467 16.7903 3.704C16.9929 3.368 17.2676 3.10667 17.6143 2.92C17.9609 2.728 18.3529 2.632 18.7903 2.632C19.2116 2.632 19.5903 2.72267 19.9263 2.904C20.2676 3.08 20.5369 3.336 20.7343 3.672C20.9316 4.00267 21.0303 4.4 21.0303 4.864C21.0303 4.912 21.0276 4.968 21.0223 5.032C21.017 5.09067 21.0116 5.14667 21.0063 5.2H17.5103V4.472H20.3503L19.8703 4.688C19.8703 4.464 19.825 4.26933 19.7343 4.104C19.6436 3.93867 19.5183 3.81067 19.3583 3.72C19.1983 3.624 19.0116 3.576 18.7983 3.576C18.5849 3.576 18.3956 3.624 18.2303 3.72C18.0703 3.81067 17.9449 3.94133 17.8543 4.112C17.7636 4.27733 17.7183 4.47467 17.7183 4.704V4.896C17.7183 5.13067 17.7689 5.33867 17.8703 5.52C17.9769 5.696 18.1236 5.832 18.3103 5.928C18.5023 6.01867 18.7263 6.064 18.9823 6.064C19.2116 6.064 19.4116 6.02933 19.5823 5.96C19.7583 5.89067 19.9183 5.78667 20.0623 5.648L20.7263 6.368C20.5289 6.592 20.2809 6.76533 19.9823 6.888C19.6836 7.00533 19.3396 7.064 18.9503 7.064Z"/>
<path d="M24.4772 2.632C24.8185 2.632 25.1225 2.70133 25.3892 2.84C25.6612 2.97333 25.8745 3.18133 26.0292 3.464C26.1838 3.74133 26.2612 4.09867 26.2612 4.536V7H25.0132V4.728C25.0132 4.38133 24.9358 4.12533 24.7812 3.96C24.6318 3.79467 24.4185 3.712 24.1412 3.712C23.9438 3.712 23.7652 3.75467 23.6052 3.84C23.4505 3.92 23.3278 4.04533 23.2372 4.216C23.1518 4.38667 23.1092 4.60533 23.1092 4.872V7H21.8612V2.696H23.0532V3.888L22.8292 3.528C22.9838 3.24 23.2052 3.01867 23.4932 2.864C23.7812 2.70933 24.1092 2.632 24.4772 2.632Z"/>
<path d="M30.0324 7V6.16L29.9524 5.976V4.472C29.9524 4.20533 29.8697 3.99733 29.7044 3.848C29.5444 3.69867 29.2964 3.624 28.9604 3.624C28.7311 3.624 28.5044 3.66133 28.2804 3.736C28.0617 3.80533 27.8751 3.90133 27.7204 4.024L27.2724 3.152C27.5071 2.98667 27.7897 2.85867 28.1204 2.768C28.4511 2.67733 28.7871 2.632 29.1284 2.632C29.7844 2.632 30.2937 2.78667 30.6564 3.096C31.0191 3.40533 31.2004 3.888 31.2004 4.544V7H30.0324ZM28.7204 7.064C28.3844 7.064 28.0964 7.008 27.8564 6.896C27.6164 6.77867 27.4324 6.62133 27.3044 6.424C27.1764 6.22667 27.1124 6.00533 27.1124 5.76C27.1124 5.504 27.1737 5.28 27.2964 5.088C27.4244 4.896 27.6244 4.74667 27.8964 4.64C28.1684 4.528 28.5231 4.472 28.9604 4.472H30.1044V5.2H29.0964C28.8031 5.2 28.6004 5.248 28.4884 5.344C28.3817 5.44 28.3284 5.56 28.3284 5.704C28.3284 5.864 28.3897 5.992 28.5124 6.088C28.6404 6.17867 28.8137 6.224 29.0324 6.224C29.2404 6.224 29.4271 6.176 29.5924 6.08C29.7577 5.97867 29.8777 5.832 29.9524 5.64L30.1444 6.216C30.0537 6.49333 29.8884 6.704 29.6484 6.848C29.4084 6.992 29.0991 7.064 28.7204 7.064Z"/>
<path d="M33.7779 7.064C33.4099 7.064 33.0552 7.02133 32.7139 6.936C32.3779 6.84533 32.1112 6.73333 31.9139 6.6L32.3299 5.704C32.5272 5.82667 32.7592 5.928 33.0259 6.008C33.2979 6.08267 33.5646 6.12 33.8259 6.12C34.1139 6.12 34.3166 6.08533 34.4339 6.016C34.5566 5.94667 34.6179 5.85067 34.6179 5.728C34.6179 5.62667 34.5699 5.552 34.4739 5.504C34.3832 5.45067 34.2606 5.41067 34.1059 5.384C33.9512 5.35733 33.7806 5.33067 33.5939 5.304C33.4126 5.27733 33.2286 5.24267 33.0419 5.2C32.8552 5.152 32.6846 5.08267 32.5299 4.992C32.3752 4.90133 32.2499 4.77867 32.1539 4.624C32.0632 4.46933 32.0179 4.26933 32.0179 4.024C32.0179 3.752 32.0952 3.512 32.2499 3.304C32.4099 3.096 32.6392 2.93333 32.9379 2.816C33.2366 2.69333 33.5939 2.632 34.0099 2.632C34.3032 2.632 34.6019 2.664 34.9059 2.728C35.2099 2.792 35.4632 2.88533 35.6659 3.008L35.2499 3.896C35.0419 3.77333 34.8312 3.69067 34.6179 3.648C34.4099 3.6 34.2072 3.576 34.0099 3.576C33.7326 3.576 33.5299 3.61333 33.4019 3.688C33.2739 3.76267 33.2099 3.85867 33.2099 3.976C33.2099 4.08267 33.2552 4.16267 33.3459 4.216C33.4419 4.26933 33.5672 4.312 33.7219 4.344C33.8766 4.376 34.0446 4.40533 34.2259 4.432C34.4126 4.45333 34.5992 4.488 34.7859 4.536C34.9726 4.584 35.1406 4.65333 35.2899 4.744C35.4446 4.82933 35.5699 4.94933 35.6659 5.104C35.7619 5.25333 35.8099 5.45067 35.8099 5.696C35.8099 5.96267 35.7299 6.2 35.5699 6.408C35.4099 6.61067 35.1779 6.77067 34.8739 6.888C34.5752 7.00533 34.2099 7.064 33.7779 7.064Z"/>
<path d="M38.7159 7.064C38.2252 7.064 37.7932 6.968 37.4199 6.776C37.0519 6.584 36.7666 6.32267 36.5639 5.992C36.3612 5.656 36.2599 5.27467 36.2599 4.848C36.2599 4.416 36.3586 4.03467 36.5559 3.704C36.7586 3.368 37.0332 3.10667 37.3799 2.92C37.7266 2.728 38.1186 2.632 38.5559 2.632C38.9772 2.632 39.3559 2.72267 39.6919 2.904C40.0332 3.08 40.3026 3.336 40.4999 3.672C40.6972 4.00267 40.7959 4.4 40.7959 4.864C40.7959 4.912 40.7932 4.968 40.7879 5.032C40.7826 5.09067 40.7772 5.14667 40.7719 5.2H37.2759V4.472H40.1159L39.6359 4.688C39.6359 4.464 39.5906 4.26933 39.4999 4.104C39.4092 3.93867 39.2839 3.81067 39.1239 3.72C38.9639 3.624 38.7772 3.576 38.5639 3.576C38.3506 3.576 38.1612 3.624 37.9959 3.72C37.8359 3.81067 37.7106 3.94133 37.6199 4.112C37.5292 4.27733 37.4839 4.47467 37.4839 4.704V4.896C37.4839 5.13067 37.5346 5.33867 37.6359 5.52C37.7426 5.696 37.8892 5.832 38.0759 5.928C38.2679 6.01867 38.4919 6.064 38.7479 6.064C38.9772 6.064 39.1772 6.02933 39.3479 5.96C39.5239 5.89067 39.6839 5.78667 39.8279 5.648L40.4919 6.368C40.2946 6.592 40.0466 6.76533 39.7479 6.888C39.4492 7.00533 39.1052 7.064 38.7159 7.064Z"/>
<path d="M41.6268 7V2.696H42.8188V3.912L42.6508 3.56C42.7788 3.256 42.9841 3.02667 43.2668 2.872C43.5494 2.712 43.8934 2.632 44.2988 2.632V3.784C44.2454 3.77867 44.1974 3.776 44.1548 3.776C44.1121 3.77067 44.0668 3.768 44.0188 3.768C43.6775 3.768 43.4001 3.86667 43.1868 4.064C42.9788 4.256 42.8748 4.55733 42.8748 4.968V7H41.6268Z"/>
<path d="M46.3573 7L44.5493 2.696H45.8373L47.3413 6.4H46.7013L48.2613 2.696H49.4613L47.6453 7H46.3573Z"/>
<path d="M51.9893 7.064C51.4987 7.064 51.0667 6.968 50.6933 6.776C50.3253 6.584 50.04 6.32267 49.8373 5.992C49.6347 5.656 49.5333 5.27467 49.5333 4.848C49.5333 4.416 49.632 4.03467 49.8293 3.704C50.032 3.368 50.3067 3.10667 50.6533 2.92C51 2.728 51.392 2.632 51.8293 2.632C52.2507 2.632 52.6293 2.72267 52.9653 2.904C53.3067 3.08 53.576 3.336 53.7733 3.672C53.9707 4.00267 54.0693 4.4 54.0693 4.864C54.0693 4.912 54.0667 4.968 54.0613 5.032C54.056 5.09067 54.0507 5.14667 54.0453 5.2H50.5493V4.472H53.3893L52.9093 4.688C52.9093 4.464 52.864 4.26933 52.7733 4.104C52.6827 3.93867 52.5573 3.81067 52.3973 3.72C52.2373 3.624 52.0507 3.576 51.8373 3.576C51.624 3.576 51.4347 3.624 51.2693 3.72C51.1093 3.81067 50.984 3.94133 50.8933 4.112C50.8027 4.27733 50.7573 4.47467 50.7573 4.704V4.896C50.7573 5.13067 50.808 5.33867 50.9093 5.52C51.016 5.696 51.1627 5.832 51.3493 5.928C51.5413 6.01867 51.7653 6.064 52.0213 6.064C52.2507 6.064 52.4507 6.02933 52.6213 5.96C52.7973 5.89067 52.9573 5.78667 53.1013 5.648L53.7653 6.368C53.568 6.592 53.32 6.76533 53.0213 6.888C52.7227 7.00533 52.3787 7.064 51.9893 7.064Z"/>
<path d="M54.9002 7V2.696H56.0922V3.912L55.9242 3.56C56.0522 3.256 56.2576 3.02667 56.5402 2.872C56.8229 2.712 57.1669 2.632 57.5722 2.632V3.784C57.5189 3.77867 57.4709 3.776 57.4282 3.776C57.3856 3.77067 57.3402 3.768 57.2922 3.768C56.9509 3.768 56.6736 3.86667 56.4602 4.064C56.2522 4.256 56.1482 4.55733 56.1482 4.968V7H54.9002Z"/>
</mask>
<path d="M1.15847 7L3.65447 1.4H4.93447L7.43847 7H6.07847L4.03047 2.056H4.54247L2.48647 7H1.15847ZM2.40647 5.8L2.75047 4.816H5.63047L5.98247 5.8H2.40647Z" fill="url(#paint0_linear_1_2)"/>
<path d="M9.74041 7.064C9.33507 7.064 8.96974 6.97333 8.64441 6.792C8.31907 6.60533 8.06041 6.34667 7.86841 6.016C7.68174 5.68533 7.58841 5.296 7.58841 4.848C7.58841 4.39467 7.68174 4.00267 7.86841 3.672C8.06041 3.34133 8.31907 3.08533 8.64441 2.904C8.96974 2.72267 9.33507 2.632 9.74041 2.632C10.1031 2.632 10.4204 2.712 10.6924 2.872C10.9644 3.032 11.1751 3.27467 11.3244 3.6C11.4737 3.92533 11.5484 4.34133 11.5484 4.848C11.5484 5.34933 11.4764 5.76533 11.3324 6.096C11.1884 6.42133 10.9804 6.664 10.7084 6.824C10.4417 6.984 10.1191 7.064 9.74041 7.064ZM9.95641 6.04C10.1591 6.04 10.3431 5.992 10.5084 5.896C10.6737 5.8 10.8044 5.664 10.9004 5.488C11.0017 5.30667 11.0524 5.09333 11.0524 4.848C11.0524 4.59733 11.0017 4.384 10.9004 4.208C10.8044 4.032 10.6737 3.896 10.5084 3.8C10.3431 3.704 10.1591 3.656 9.95641 3.656C9.74841 3.656 9.56174 3.704 9.39641 3.8C9.23107 3.896 9.09774 4.032 8.99641 4.208C8.90041 4.384 8.85241 4.59733 8.85241 4.848C8.85241 5.09333 8.90041 5.30667 8.99641 5.488C9.09774 5.664 9.23107 5.8 9.39641 5.896C9.56174 5.992 9.74841 6.04 9.95641 6.04ZM11.0844 7V6.12L11.1084 4.84L11.0284 3.568V1.064H12.2764V7H11.0844Z" fill="url(#paint1_linear_1_2)"/>
<path d="M13.4315 7V2.696H14.6235V3.912L14.4555 3.56C14.5835 3.256 14.7888 3.02667 15.0715 2.872C15.3541 2.712 15.6981 2.632 16.1035 2.632V3.784C16.0501 3.77867 16.0021 3.776 15.9595 3.776C15.9168 3.77067 15.8715 3.768 15.8235 3.768C15.4821 3.768 15.2048 3.86667 14.9915 4.064C14.7835 4.256 14.6795 4.55733 14.6795 4.968V7H13.4315Z" fill="url(#paint2_linear_1_2)"/>
<path d="M18.9503 7.064C18.4596 7.064 18.0276 6.968 17.6543 6.776C17.2863 6.584 17.0009 6.32267 16.7983 5.992C16.5956 5.656 16.4943 5.27467 16.4943 4.848C16.4943 4.416 16.5929 4.03467 16.7903 3.704C16.9929 3.368 17.2676 3.10667 17.6143 2.92C17.9609 2.728 18.3529 2.632 18.7903 2.632C19.2116 2.632 19.5903 2.72267 19.9263 2.904C20.2676 3.08 20.5369 3.336 20.7343 3.672C20.9316 4.00267 21.0303 4.4 21.0303 4.864C21.0303 4.912 21.0276 4.968 21.0223 5.032C21.017 5.09067 21.0116 5.14667 21.0063 5.2H17.5103V4.472H20.3503L19.8703 4.688C19.8703 4.464 19.825 4.26933 19.7343 4.104C19.6436 3.93867 19.5183 3.81067 19.3583 3.72C19.1983 3.624 19.0116 3.576 18.7983 3.576C18.5849 3.576 18.3956 3.624 18.2303 3.72C18.0703 3.81067 17.9449 3.94133 17.8543 4.112C17.7636 4.27733 17.7183 4.47467 17.7183 4.704V4.896C17.7183 5.13067 17.7689 5.33867 17.8703 5.52C17.9769 5.696 18.1236 5.832 18.3103 5.928C18.5023 6.01867 18.7263 6.064 18.9823 6.064C19.2116 6.064 19.4116 6.02933 19.5823 5.96C19.7583 5.89067 19.9183 5.78667 20.0623 5.648L20.7263 6.368C20.5289 6.592 20.2809 6.76533 19.9823 6.888C19.6836 7.00533 19.3396 7.064 18.9503 7.064Z" fill="url(#paint3_linear_1_2)"/>
<path d="M24.4772 2.632C24.8185 2.632 25.1225 2.70133 25.3892 2.84C25.6612 2.97333 25.8745 3.18133 26.0292 3.464C26.1838 3.74133 26.2612 4.09867 26.2612 4.536V7H25.0132V4.728C25.0132 4.38133 24.9358 4.12533 24.7812 3.96C24.6318 3.79467 24.4185 3.712 24.1412 3.712C23.9438 3.712 23.7652 3.75467 23.6052 3.84C23.4505 3.92 23.3278 4.04533 23.2372 4.216C23.1518 4.38667 23.1092 4.60533 23.1092 4.872V7H21.8612V2.696H23.0532V3.888L22.8292 3.528C22.9838 3.24 23.2052 3.01867 23.4932 2.864C23.7812 2.70933 24.1092 2.632 24.4772 2.632Z" fill="url(#paint4_linear_1_2)"/>
<path d="M30.0324 7V6.16L29.9524 5.976V4.472C29.9524 4.20533 29.8697 3.99733 29.7044 3.848C29.5444 3.69867 29.2964 3.624 28.9604 3.624C28.7311 3.624 28.5044 3.66133 28.2804 3.736C28.0617 3.80533 27.8751 3.90133 27.7204 4.024L27.2724 3.152C27.5071 2.98667 27.7897 2.85867 28.1204 2.768C28.4511 2.67733 28.7871 2.632 29.1284 2.632C29.7844 2.632 30.2937 2.78667 30.6564 3.096C31.0191 3.40533 31.2004 3.888 31.2004 4.544V7H30.0324ZM28.7204 7.064C28.3844 7.064 28.0964 7.008 27.8564 6.896C27.6164 6.77867 27.4324 6.62133 27.3044 6.424C27.1764 6.22667 27.1124 6.00533 27.1124 5.76C27.1124 5.504 27.1737 5.28 27.2964 5.088C27.4244 4.896 27.6244 4.74667 27.8964 4.64C28.1684 4.528 28.5231 4.472 28.9604 4.472H30.1044V5.2H29.0964C28.8031 5.2 28.6004 5.248 28.4884 5.344C28.3817 5.44 28.3284 5.56 28.3284 5.704C28.3284 5.864 28.3897 5.992 28.5124 6.088C28.6404 6.17867 28.8137 6.224 29.0324 6.224C29.2404 6.224 29.4271 6.176 29.5924 6.08C29.7577 5.97867 29.8777 5.832 29.9524 5.64L30.1444 6.216C30.0537 6.49333 29.8884 6.704 29.6484 6.848C29.4084 6.992 29.0991 7.064 28.7204 7.064Z" fill="url(#paint5_linear_1_2)"/>
<path d="M33.7779 7.064C33.4099 7.064 33.0552 7.02133 32.7139 6.936C32.3779 6.84533 32.1112 6.73333 31.9139 6.6L32.3299 5.704C32.5272 5.82667 32.7592 5.928 33.0259 6.008C33.2979 6.08267 33.5646 6.12 33.8259 6.12C34.1139 6.12 34.3166 6.08533 34.4339 6.016C34.5566 5.94667 34.6179 5.85067 34.6179 5.728C34.6179 5.62667 34.5699 5.552 34.4739 5.504C34.3832 5.45067 34.2606 5.41067 34.1059 5.384C33.9512 5.35733 33.7806 5.33067 33.5939 5.304C33.4126 5.27733 33.2286 5.24267 33.0419 5.2C32.8552 5.152 32.6846 5.08267 32.5299 4.992C32.3752 4.90133 32.2499 4.77867 32.1539 4.624C32.0632 4.46933 32.0179 4.26933 32.0179 4.024C32.0179 3.752 32.0952 3.512 32.2499 3.304C32.4099 3.096 32.6392 2.93333 32.9379 2.816C33.2366 2.69333 33.5939 2.632 34.0099 2.632C34.3032 2.632 34.6019 2.664 34.9059 2.728C35.2099 2.792 35.4632 2.88533 35.6659 3.008L35.2499 3.896C35.0419 3.77333 34.8312 3.69067 34.6179 3.648C34.4099 3.6 34.2072 3.576 34.0099 3.576C33.7326 3.576 33.5299 3.61333 33.4019 3.688C33.2739 3.76267 33.2099 3.85867 33.2099 3.976C33.2099 4.08267 33.2552 4.16267 33.3459 4.216C33.4419 4.26933 33.5672 4.312 33.7219 4.344C33.8766 4.376 34.0446 4.40533 34.2259 4.432C34.4126 4.45333 34.5992 4.488 34.7859 4.536C34.9726 4.584 35.1406 4.65333 35.2899 4.744C35.4446 4.82933 35.5699 4.94933 35.6659 5.104C35.7619 5.25333 35.8099 5.45067 35.8099 5.696C35.8099 5.96267 35.7299 6.2 35.5699 6.408C35.4099 6.61067 35.1779 6.77067 34.8739 6.888C34.5752 7.00533 34.2099 7.064 33.7779 7.064Z" fill="url(#paint6_linear_1_2)"/>
<path d="M38.7159 7.064C38.2252 7.064 37.7932 6.968 37.4199 6.776C37.0519 6.584 36.7666 6.32267 36.5639 5.992C36.3612 5.656 36.2599 5.27467 36.2599 4.848C36.2599 4.416 36.3586 4.03467 36.5559 3.704C36.7586 3.368 37.0332 3.10667 37.3799 2.92C37.7266 2.728 38.1186 2.632 38.5559 2.632C38.9772 2.632 39.3559 2.72267 39.6919 2.904C40.0332 3.08 40.3026 3.336 40.4999 3.672C40.6972 4.00267 40.7959 4.4 40.7959 4.864C40.7959 4.912 40.7932 4.968 40.7879 5.032C40.7826 5.09067 40.7772 5.14667 40.7719 5.2H37.2759V4.472H40.1159L39.6359 4.688C39.6359 4.464 39.5906 4.26933 39.4999 4.104C39.4092 3.93867 39.2839 3.81067 39.1239 3.72C38.9639 3.624 38.7772 3.576 38.5639 3.576C38.3506 3.576 38.1612 3.624 37.9959 3.72C37.8359 3.81067 37.7106 3.94133 37.6199 4.112C37.5292 4.27733 37.4839 4.47467 37.4839 4.704V4.896C37.4839 5.13067 37.5346 5.33867 37.6359 5.52C37.7426 5.696 37.8892 5.832 38.0759 5.928C38.2679 6.01867 38.4919 6.064 38.7479 6.064C38.9772 6.064 39.1772 6.02933 39.3479 5.96C39.5239 5.89067 39.6839 5.78667 39.8279 5.648L40.4919 6.368C40.2946 6.592 40.0466 6.76533 39.7479 6.888C39.4492 7.00533 39.1052 7.064 38.7159 7.064Z" fill="url(#paint7_linear_1_2)"/>
<path d="M41.6268 7V2.696H42.8188V3.912L42.6508 3.56C42.7788 3.256 42.9841 3.02667 43.2668 2.872C43.5494 2.712 43.8934 2.632 44.2988 2.632V3.784C44.2454 3.77867 44.1974 3.776 44.1548 3.776C44.1121 3.77067 44.0668 3.768 44.0188 3.768C43.6775 3.768 43.4001 3.86667 43.1868 4.064C42.9788 4.256 42.8748 4.55733 42.8748 4.968V7H41.6268Z" fill="url(#paint8_linear_1_2)"/>
<path d="M46.3573 7L44.5493 2.696H45.8373L47.3413 6.4H46.7013L48.2613 2.696H49.4613L47.6453 7H46.3573Z" fill="url(#paint9_linear_1_2)"/>
<path d="M51.9893 7.064C51.4987 7.064 51.0667 6.968 50.6933 6.776C50.3253 6.584 50.04 6.32267 49.8373 5.992C49.6347 5.656 49.5333 5.27467 49.5333 4.848C49.5333 4.416 49.632 4.03467 49.8293 3.704C50.032 3.368 50.3067 3.10667 50.6533 2.92C51 2.728 51.392 2.632 51.8293 2.632C52.2507 2.632 52.6293 2.72267 52.9653 2.904C53.3067 3.08 53.576 3.336 53.7733 3.672C53.9707 4.00267 54.0693 4.4 54.0693 4.864C54.0693 4.912 54.0667 4.968 54.0613 5.032C54.056 5.09067 54.0507 5.14667 54.0453 5.2H50.5493V4.472H53.3893L52.9093 4.688C52.9093 4.464 52.864 4.26933 52.7733 4.104C52.6827 3.93867 52.5573 3.81067 52.3973 3.72C52.2373 3.624 52.0507 3.576 51.8373 3.576C51.624 3.576 51.4347 3.624 51.2693 3.72C51.1093 3.81067 50.984 3.94133 50.8933 4.112C50.8027 4.27733 50.7573 4.47467 50.7573 4.704V4.896C50.7573 5.13067 50.808 5.33867 50.9093 5.52C51.016 5.696 51.1627 5.832 51.3493 5.928C51.5413 6.01867 51.7653 6.064 52.0213 6.064C52.2507 6.064 52.4507 6.02933 52.6213 5.96C52.7973 5.89067 52.9573 5.78667 53.1013 5.648L53.7653 6.368C53.568 6.592 53.32 6.76533 53.0213 6.888C52.7227 7.00533 52.3787 7.064 51.9893 7.064Z" fill="url(#paint10_linear_1_2)"/>
<path d="M54.9002 7V2.696H56.0922V3.912L55.9242 3.56C56.0522 3.256 56.2576 3.02667 56.5402 2.872C56.8229 2.712 57.1669 2.632 57.5722 2.632V3.784C57.5189 3.77867 57.4709 3.776 57.4282 3.776C57.3856 3.77067 57.3402 3.768 57.2922 3.768C56.9509 3.768 56.6736 3.86667 56.4602 4.064C56.2522 4.256 56.1482 4.55733 56.1482 4.968V7H54.9002Z" fill="url(#paint11_linear_1_2)"/>
<path d="M1.15847 7L3.65447 1.4H4.93447L7.43847 7H6.07847L4.03047 2.056H4.54247L2.48647 7H1.15847ZM2.40647 5.8L2.75047 4.816H5.63047L5.98247 5.8H2.40647Z" stroke="black" stroke-width="2" stroke-linejoin="round" mask="url(#path-1-outside-1_1_2)"/>
<path d="M9.74041 7.064C9.33507 7.064 8.96974 6.97333 8.64441 6.792C8.31907 6.60533 8.06041 6.34667 7.86841 6.016C7.68174 5.68533 7.58841 5.296 7.58841 4.848C7.58841 4.39467 7.68174 4.00267 7.86841 3.672C8.06041 3.34133 8.31907 3.08533 8.64441 2.904C8.96974 2.72267 9.33507 2.632 9.74041 2.632C10.1031 2.632 10.4204 2.712 10.6924 2.872C10.9644 3.032 11.1751 3.27467 11.3244 3.6C11.4737 3.92533 11.5484 4.34133 11.5484 4.848C11.5484 5.34933 11.4764 5.76533 11.3324 6.096C11.1884 6.42133 10.9804 6.664 10.7084 6.824C10.4417 6.984 10.1191 7.064 9.74041 7.064ZM9.95641 6.04C10.1591 6.04 10.3431 5.992 10.5084 5.896C10.6737 5.8 10.8044 5.664 10.9004 5.488C11.0017 5.30667 11.0524 5.09333 11.0524 4.848C11.0524 4.59733 11.0017 4.384 10.9004 4.208C10.8044 4.032 10.6737 3.896 10.5084 3.8C10.3431 3.704 10.1591 3.656 9.95641 3.656C9.74841 3.656 9.56174 3.704 9.39641 3.8C9.23107 3.896 9.09774 4.032 8.99641 4.208C8.90041 4.384 8.85241 4.59733 8.85241 4.848C8.85241 5.09333 8.90041 5.30667 8.99641 5.488C9.09774 5.664 9.23107 5.8 9.39641 5.896C9.56174 5.992 9.74841 6.04 9.95641 6.04ZM11.0844 7V6.12L11.1084 4.84L11.0284 3.568V1.064H12.2764V7H11.0844Z" stroke="black" stroke-width="2" stroke-linejoin="round" mask="url(#path-1-outside-1_1_2)"/>
<path d="M13.4315 7V2.696H14.6235V3.912L14.4555 3.56C14.5835 3.256 14.7888 3.02667 15.0715 2.872C15.3541 2.712 15.6981 2.632 16.1035 2.632V3.784C16.0501 3.77867 16.0021 3.776 15.9595 3.776C15.9168 3.77067 15.8715 3.768 15.8235 3.768C15.4821 3.768 15.2048 3.86667 14.9915 4.064C14.7835 4.256 14.6795 4.55733 14.6795 4.968V7H13.4315Z" stroke="black" stroke-width="2" stroke-linejoin="round" mask="url(#path-1-outside-1_1_2)"/>
<path d="M18.9503 7.064C18.4596 7.064 18.0276 6.968 17.6543 6.776C17.2863 6.584 17.0009 6.32267 16.7983 5.992C16.5956 5.656 16.4943 5.27467 16.4943 4.848C16.4943 4.416 16.5929 4.03467 16.7903 3.704C16.9929 3.368 17.2676 3.10667 17.6143 2.92C17.9609 2.728 18.3529 2.632 18.7903 2.632C19.2116 2.632 19.5903 2.72267 19.9263 2.904C20.2676 3.08 20.5369 3.336 20.7343 3.672C20.9316 4.00267 21.0303 4.4 21.0303 4.864C21.0303 4.912 21.0276 4.968 21.0223 5.032C21.017 5.09067 21.0116 5.14667 21.0063 5.2H17.5103V4.472H20.3503L19.8703 4.688C19.8703 4.464 19.825 4.26933 19.7343 4.104C19.6436 3.93867 19.5183 3.81067 19.3583 3.72C19.1983 3.624 19.0116 3.576 18.7983 3.576C18.5849 3.576 18.3956 3.624 18.2303 3.72C18.0703 3.81067 17.9449 3.94133 17.8543 4.112C17.7636 4.27733 17.7183 4.47467 17.7183 4.704V4.896C17.7183 5.13067 17.7689 5.33867 17.8703 5.52C17.9769 5.696 18.1236 5.832 18.3103 5.928C18.5023 6.01867 18.7263 6.064 18.9823 6.064C19.2116 6.064 19.4116 6.02933 19.5823 5.96C19.7583 5.89067 19.9183 5.78667 20.0623 5.648L20.7263 6.368C20.5289 6.592 20.2809 6.76533 19.9823 6.888C19.6836 7.00533 19.3396 7.064 18.9503 7.064Z" stroke="black" stroke-width="2" stroke-linejoin="round" mask="url(#path-1-outside-1_1_2)"/>
<path d="M24.4772 2.632C24.8185 2.632 25.1225 2.70133 25.3892 2.84C25.6612 2.97333 25.8745 3.18133 26.0292 3.464C26.1838 3.74133 26.2612 4.09867 26.2612 4.536V7H25.0132V4.728C25.0132 4.38133 24.9358 4.12533 24.7812 3.96C24.6318 3.79467 24.4185 3.712 24.1412 3.712C23.9438 3.712 23.7652 3.75467 23.6052 3.84C23.4505 3.92 23.3278 4.04533 23.2372 4.216C23.1518 4.38667 23.1092 4.60533 23.1092 4.872V7H21.8612V2.696H23.0532V3.888L22.8292 3.528C22.9838 3.24 23.2052 3.01867 23.4932 2.864C23.7812 2.70933 24.1092 2.632 24.4772 2.632Z" stroke="black" stroke-width="2" stroke-linejoin="round" mask="url(#path-1-outside-1_1_2)"/>
<path d="M30.0324 7V6.16L29.9524 5.976V4.472C29.9524 4.20533 29.8697 3.99733 29.7044 3.848C29.5444 3.69867 29.2964 3.624 28.9604 3.624C28.7311 3.624 28.5044 3.66133 28.2804 3.736C28.0617 3.80533 27.8751 3.90133 27.7204 4.024L27.2724 3.152C27.5071 2.98667 27.7897 2.85867 28.1204 2.768C28.4511 2.67733 28.7871 2.632 29.1284 2.632C29.7844 2.632 30.2937 2.78667 30.6564 3.096C31.0191 3.40533 31.2004 3.888 31.2004 4.544V7H30.0324ZM28.7204 7.064C28.3844 7.064 28.0964 7.008 27.8564 6.896C27.6164 6.77867 27.4324 6.62133 27.3044 6.424C27.1764 6.22667 27.1124 6.00533 27.1124 5.76C27.1124 5.504 27.1737 5.28 27.2964 5.088C27.4244 4.896 27.6244 4.74667 27.8964 4.64C28.1684 4.528 28.5231 4.472 28.9604 4.472H30.1044V5.2H29.0964C28.8031 5.2 28.6004 5.248 28.4884 5.344C28.3817 5.44 28.3284 5.56 28.3284 5.704C28.3284 5.864 28.3897 5.992 28.5124 6.088C28.6404 6.17867 28.8137 6.224 29.0324 6.224C29.2404 6.224 29.4271 6.176 29.5924 6.08C29.7577 5.97867 29.8777 5.832 29.9524 5.64L30.1444 6.216C30.0537 6.49333 29.8884 6.704 29.6484 6.848C29.4084 6.992 29.0991 7.064 28.7204 7.064Z" stroke="black" stroke-width="2" stroke-linejoin="round" mask="url(#path-1-outside-1_1_2)"/>
<path d="M33.7779 7.064C33.4099 7.064 33.0552 7.02133 32.7139 6.936C32.3779 6.84533 32.1112 6.73333 31.9139 6.6L32.3299 5.704C32.5272 5.82667 32.7592 5.928 33.0259 6.008C33.2979 6.08267 33.5646 6.12 33.8259 6.12C34.1139 6.12 34.3166 6.08533 34.4339 6.016C34.5566 5.94667 34.6179 5.85067 34.6179 5.728C34.6179 5.62667 34.5699 5.552 34.4739 5.504C34.3832 5.45067 34.2606 5.41067 34.1059 5.384C33.9512 5.35733 33.7806 5.33067 33.5939 5.304C33.4126 5.27733 33.2286 5.24267 33.0419 5.2C32.8552 5.152 32.6846 5.08267 32.5299 4.992C32.3752 4.90133 32.2499 4.77867 32.1539 4.624C32.0632 4.46933 32.0179 4.26933 32.0179 4.024C32.0179 3.752 32.0952 3.512 32.2499 3.304C32.4099 3.096 32.6392 2.93333 32.9379 2.816C33.2366 2.69333 33.5939 2.632 34.0099 2.632C34.3032 2.632 34.6019 2.664 34.9059 2.728C35.2099 2.792 35.4632 2.88533 35.6659 3.008L35.2499 3.896C35.0419 3.77333 34.8312 3.69067 34.6179 3.648C34.4099 3.6 34.2072 3.576 34.0099 3.576C33.7326 3.576 33.5299 3.61333 33.4019 3.688C33.2739 3.76267 33.2099 3.85867 33.2099 3.976C33.2099 4.08267 33.2552 4.16267 33.3459 4.216C33.4419 4.26933 33.5672 4.312 33.7219 4.344C33.8766 4.376 34.0446 4.40533 34.2259 4.432C34.4126 4.45333 34.5992 4.488 34.7859 4.536C34.9726 4.584 35.1406 4.65333 35.2899 4.744C35.4446 4.82933 35.5699 4.94933 35.6659 5.104C35.7619 5.25333 35.8099 5.45067 35.8099 5.696C35.8099 5.96267 35.7299 6.2 35.5699 6.408C35.4099 6.61067 35.1779 6.77067 34.8739 6.888C34.5752 7.00533 34.2099 7.064 33.7779 7.064Z" stroke="black" stroke-width="2" stroke-linejoin="round" mask="url(#path-1-outside-1_1_2)"/>
<path d="M38.7159 7.064C38.2252 7.064 37.7932 6.968 37.4199 6.776C37.0519 6.584 36.7666 6.32267 36.5639 5.992C36.3612 5.656 36.2599 5.27467 36.2599 4.848C36.2599 4.416 36.3586 4.03467 36.5559 3.704C36.7586 3.368 37.0332 3.10667 37.3799 2.92C37.7266 2.728 38.1186 2.632 38.5559 2.632C38.9772 2.632 39.3559 2.72267 39.6919 2.904C40.0332 3.08 40.3026 3.336 40.4999 3.672C40.6972 4.00267 40.7959 4.4 40.7959 4.864C40.7959 4.912 40.7932 4.968 40.7879 5.032C40.7826 5.09067 40.7772 5.14667 40.7719 5.2H37.2759V4.472H40.1159L39.6359 4.688C39.6359 4.464 39.5906 4.26933 39.4999 4.104C39.4092 3.93867 39.2839 3.81067 39.1239 3.72C38.9639 3.624 38.7772 3.576 38.5639 3.576C38.3506 3.576 38.1612 3.624 37.9959 3.72C37.8359 3.81067 37.7106 3.94133 37.6199 4.112C37.5292 4.27733 37.4839 4.47467 37.4839 4.704V4.896C37.4839 5.13067 37.5346 5.33867 37.6359 5.52C37.7426 5.696 37.8892 5.832 38.0759 5.928C38.2679 6.01867 38.4919 6.064 38.7479 6.064C38.9772 6.064 39.1772 6.02933 39.3479 5.96C39.5239 5.89067 39.6839 5.78667 39.8279 5.648L40.4919 6.368C40.2946 6.592 40.0466 6.76533 39.7479 6.888C39.4492 7.00533 39.1052 7.064 38.7159 7.064Z" stroke="black" stroke-width="2" stroke-linejoin="round" mask="url(#path-1-outside-1_1_2)"/>
<path d="M41.6268 7V2.696H42.8188V3.912L42.6508 3.56C42.7788 3.256 42.9841 3.02667 43.2668 2.872C43.5494 2.712 43.8934 2.632 44.2988 2.632V3.784C44.2454 3.77867 44.1974 3.776 44.1548 3.776C44.1121 3.77067 44.0668 3.768 44.0188 3.768C43.6775 3.768 43.4001 3.86667 43.1868 4.064C42.9788 4.256 42.8748 4.55733 42.8748 4.968V7H41.6268Z" stroke="black" stroke-width="2" stroke-linejoin="round" mask="url(#path-1-outside-1_1_2)"/>
<path d="M46.3573 7L44.5493 2.696H45.8373L47.3413 6.4H46.7013L48.2613 2.696H49.4613L47.6453 7H46.3573Z" stroke="black" stroke-width="2" stroke-linejoin="round" mask="url(#path-1-outside-1_1_2)"/>
<path d="M51.9893 7.064C51.4987 7.064 51.0667 6.968 50.6933 6.776C50.3253 6.584 50.04 6.32267 49.8373 5.992C49.6347 5.656 49.5333 5.27467 49.5333 4.848C49.5333 4.416 49.632 4.03467 49.8293 3.704C50.032 3.368 50.3067 3.10667 50.6533 2.92C51 2.728 51.392 2.632 51.8293 2.632C52.2507 2.632 52.6293 2.72267 52.9653 2.904C53.3067 3.08 53.576 3.336 53.7733 3.672C53.9707 4.00267 54.0693 4.4 54.0693 4.864C54.0693 4.912 54.0667 4.968 54.0613 5.032C54.056 5.09067 54.0507 5.14667 54.0453 5.2H50.5493V4.472H53.3893L52.9093 4.688C52.9093 4.464 52.864 4.26933 52.7733 4.104C52.6827 3.93867 52.5573 3.81067 52.3973 3.72C52.2373 3.624 52.0507 3.576 51.8373 3.576C51.624 3.576 51.4347 3.624 51.2693 3.72C51.1093 3.81067 50.984 3.94133 50.8933 4.112C50.8027 4.27733 50.7573 4.47467 50.7573 4.704V4.896C50.7573 5.13067 50.808 5.33867 50.9093 5.52C51.016 5.696 51.1627 5.832 51.3493 5.928C51.5413 6.01867 51.7653 6.064 52.0213 6.064C52.2507 6.064 52.4507 6.02933 52.6213 5.96C52.7973 5.89067 52.9573 5.78667 53.1013 5.648L53.7653 6.368C53.568 6.592 53.32 6.76533 53.0213 6.888C52.7227 7.00533 52.3787 7.064 51.9893 7.064Z" stroke="black" stroke-width="2" stroke-linejoin="round" mask="url(#path-1-outside-1_1_2)"/>
<path d="M54.9002 7V2.696H56.0922V3.912L55.9242 3.56C56.0522 3.256 56.2576 3.02667 56.5402 2.872C56.8229 2.712 57.1669 2.632 57.5722 2.632V3.784C57.5189 3.77867 57.4709 3.776 57.4282 3.776C57.3856 3.77067 57.3402 3.768 57.2922 3.768C56.9509 3.768 56.6736 3.86667 56.4602 4.064C56.2522 4.256 56.1482 4.55733 56.1482 4.968V7H54.9002Z" stroke="black" stroke-width="2" stroke-linejoin="round" mask="url(#path-1-outside-1_1_2)"/>
</g>
<defs>
<linearGradient id="paint0_linear_1_2" x1="29.5" y1="1" x2="29.5" y2="7" gradientUnits="userSpaceOnUse">
<stop stop-color="#C345FF"/>
<stop offset="1" stop-color="#4584FF"/>
</linearGradient>
<linearGradient id="paint1_linear_1_2" x1="29.5" y1="1" x2="29.5" y2="7" gradientUnits="userSpaceOnUse">
<stop stop-color="#C345FF"/>
<stop offset="1" stop-color="#4584FF"/>
</linearGradient>
<linearGradient id="paint2_linear_1_2" x1="29.5" y1="1" x2="29.5" y2="7" gradientUnits="userSpaceOnUse">
<stop stop-color="#C345FF"/>
<stop offset="1" stop-color="#4584FF"/>
</linearGradient>
<linearGradient id="paint3_linear_1_2" x1="29.5" y1="1" x2="29.5" y2="7" gradientUnits="userSpaceOnUse">
<stop stop-color="#C345FF"/>
<stop offset="1" stop-color="#4584FF"/>
</linearGradient>
<linearGradient id="paint4_linear_1_2" x1="29.5" y1="1" x2="29.5" y2="7" gradientUnits="userSpaceOnUse">
<stop stop-color="#C345FF"/>
<stop offset="1" stop-color="#4584FF"/>
</linearGradient>
<linearGradient id="paint5_linear_1_2" x1="29.5" y1="1" x2="29.5" y2="7" gradientUnits="userSpaceOnUse">
<stop stop-color="#C345FF"/>
<stop offset="1" stop-color="#4584FF"/>
</linearGradient>
<linearGradient id="paint6_linear_1_2" x1="29.5" y1="1" x2="29.5" y2="7" gradientUnits="userSpaceOnUse">
<stop stop-color="#C345FF"/>
<stop offset="1" stop-color="#4584FF"/>
</linearGradient>
<linearGradient id="paint7_linear_1_2" x1="29.5" y1="1" x2="29.5" y2="7" gradientUnits="userSpaceOnUse">
<stop stop-color="#C345FF"/>
<stop offset="1" stop-color="#4584FF"/>
</linearGradient>
<linearGradient id="paint8_linear_1_2" x1="29.5" y1="1" x2="29.5" y2="7" gradientUnits="userSpaceOnUse">
<stop stop-color="#C345FF"/>
<stop offset="1" stop-color="#4584FF"/>
</linearGradient>
<linearGradient id="paint9_linear_1_2" x1="29.5" y1="1" x2="29.5" y2="7" gradientUnits="userSpaceOnUse">
<stop stop-color="#C345FF"/>
<stop offset="1" stop-color="#4584FF"/>
</linearGradient>
<linearGradient id="paint10_linear_1_2" x1="29.5" y1="1" x2="29.5" y2="7" gradientUnits="userSpaceOnUse">
<stop stop-color="#C345FF"/>
<stop offset="1" stop-color="#4584FF"/>
</linearGradient>
<linearGradient id="paint11_linear_1_2" x1="29.5" y1="1" x2="29.5" y2="7" gradientUnits="userSpaceOnUse">
<stop stop-color="#C345FF"/>
<stop offset="1" stop-color="#4584FF"/>
</linearGradient>
<clipPath id="clip0_1_2">
<rect width="59" height="9" fill="white"/>
</clipPath>
</defs>
</svg>
