<svg width="61" height="31" viewBox="0 0 61 31" fill="none" xmlns="http://www.w3.org/2000/svg">
<g clip-path="url(#clip0_1_2)">
<rect width="61" height="31" fill="white"/>
<rect width="61" height="31" fill="#D8CBFF"/>
<rect x="11.0486" y="6.81876" width="11.5596" height="11.5596" transform="rotate(10.2079 11.0486 6.81876)" fill="#85CCFF"/>
<rect x="35.6441" y="2.79802" width="13.6719" height="13.6704" transform="rotate(-13.9589 35.6441 2.79802)" fill="#6D55FF"/>
<rect x="37.5742" y="20.6045" width="9.43249" height="9.42372" transform="rotate(9.82854 37.5742 20.6045)" fill="#A772FF"/>
<g clip-path="url(#clip1_1_2)">
<mask id="path-5-outside-1_1_2" maskUnits="userSpaceOnUse" x="11.8124" y="14.4" width="38" height="8" fill="black">
<rect fill="white" x="11.8124" y="14.4" width="38" height="8"/>
<path d="M16.6524 15.4H17.9484V21H16.6524V15.4ZM14.1084 21H12.8124V15.4H14.1084V21ZM16.7484 18.704H14.0124V17.608H16.7484V18.704Z"/>
<path d="M21.8254 21V20.16L21.7454 19.976V18.472C21.7454 18.2053 21.6627 17.9973 21.4974 17.848C21.3374 17.6987 21.0894 17.624 20.7534 17.624C20.524 17.624 20.2974 17.6613 20.0734 17.736C19.8547 17.8053 19.668 17.9013 19.5134 18.024L19.0654 17.152C19.3 16.9867 19.5827 16.8587 19.9134 16.768C20.244 16.6773 20.58 16.632 20.9214 16.632C21.5774 16.632 22.0867 16.7867 22.4494 17.096C22.812 17.4053 22.9934 17.888 22.9934 18.544V21H21.8254ZM20.5134 21.064C20.1774 21.064 19.8894 21.008 19.6494 20.896C19.4094 20.7787 19.2254 20.6213 19.0974 20.424C18.9694 20.2267 18.9054 20.0053 18.9054 19.76C18.9054 19.504 18.9667 19.28 19.0894 19.088C19.2174 18.896 19.4174 18.7467 19.6894 18.64C19.9614 18.528 20.316 18.472 20.7534 18.472H21.8974V19.2H20.8894C20.596 19.2 20.3934 19.248 20.2814 19.344C20.1747 19.44 20.1214 19.56 20.1214 19.704C20.1214 19.864 20.1827 19.992 20.3054 20.088C20.4334 20.1787 20.6067 20.224 20.8254 20.224C21.0334 20.224 21.22 20.176 21.3854 20.08C21.5507 19.9787 21.6707 19.832 21.7454 19.64L21.9374 20.216C21.8467 20.4933 21.6814 20.704 21.4414 20.848C21.2014 20.992 20.892 21.064 20.5134 21.064Z"/>
<path d="M29.6349 16.632C29.9762 16.632 30.2775 16.7013 30.5389 16.84C30.8055 16.9733 31.0135 17.1813 31.1629 17.464C31.3175 17.7413 31.3949 18.0987 31.3949 18.536V21H30.1469V18.728C30.1469 18.3813 30.0749 18.1253 29.9309 17.96C29.7869 17.7947 29.5842 17.712 29.3229 17.712C29.1415 17.712 28.9789 17.7547 28.8349 17.84C28.6909 17.92 28.5789 18.0427 28.4989 18.208C28.4189 18.3733 28.3789 18.584 28.3789 18.84V21H27.1309V18.728C27.1309 18.3813 27.0589 18.1253 26.9149 17.96C26.7762 17.7947 26.5762 17.712 26.3149 17.712C26.1335 17.712 25.9709 17.7547 25.8269 17.84C25.6829 17.92 25.5709 18.0427 25.4909 18.208C25.4109 18.3733 25.3709 18.584 25.3709 18.84V21H24.1229V16.696H25.3149V17.872L25.0909 17.528C25.2402 17.2347 25.4509 17.0133 25.7229 16.864C26.0002 16.7093 26.3149 16.632 26.6669 16.632C27.0615 16.632 27.4055 16.7333 27.6989 16.936C27.9975 17.1333 28.1949 17.4373 28.2909 17.848L27.8509 17.728C27.9949 17.392 28.2242 17.1253 28.5389 16.928C28.8589 16.7307 29.2242 16.632 29.6349 16.632Z"/>
<path d="M38.0255 16.632C38.3668 16.632 38.6682 16.7013 38.9295 16.84C39.1962 16.9733 39.4042 17.1813 39.5535 17.464C39.7082 17.7413 39.7855 18.0987 39.7855 18.536V21H38.5375V18.728C38.5375 18.3813 38.4655 18.1253 38.3215 17.96C38.1775 17.7947 37.9748 17.712 37.7135 17.712C37.5322 17.712 37.3695 17.7547 37.2255 17.84C37.0815 17.92 36.9695 18.0427 36.8895 18.208C36.8095 18.3733 36.7695 18.584 36.7695 18.84V21H35.5215V18.728C35.5215 18.3813 35.4495 18.1253 35.3055 17.96C35.1668 17.7947 34.9668 17.712 34.7055 17.712C34.5242 17.712 34.3615 17.7547 34.2175 17.84C34.0735 17.92 33.9615 18.0427 33.8815 18.208C33.8015 18.3733 33.7615 18.584 33.7615 18.84V21H32.5135V16.696H33.7055V17.872L33.4815 17.528C33.6308 17.2347 33.8415 17.0133 34.1135 16.864C34.3908 16.7093 34.7055 16.632 35.0575 16.632C35.4522 16.632 35.7962 16.7333 36.0895 16.936C36.3882 17.1333 36.5855 17.4373 36.6815 17.848L36.2415 17.728C36.3855 17.392 36.6148 17.1253 36.9295 16.928C37.2495 16.7307 37.6148 16.632 38.0255 16.632Z"/>
<path d="M43.0714 21.064C42.5807 21.064 42.1487 20.968 41.7754 20.776C41.4074 20.584 41.122 20.3227 40.9194 19.992C40.7167 19.656 40.6154 19.2747 40.6154 18.848C40.6154 18.416 40.714 18.0347 40.9114 17.704C41.114 17.368 41.3887 17.1067 41.7354 16.92C42.082 16.728 42.474 16.632 42.9114 16.632C43.3327 16.632 43.7114 16.7227 44.0474 16.904C44.3887 17.08 44.658 17.336 44.8554 17.672C45.0527 18.0027 45.1514 18.4 45.1514 18.864C45.1514 18.912 45.1487 18.968 45.1434 19.032C45.138 19.0907 45.1327 19.1467 45.1274 19.2H41.6314V18.472H44.4714L43.9914 18.688C43.9914 18.464 43.946 18.2693 43.8554 18.104C43.7647 17.9387 43.6394 17.8107 43.4794 17.72C43.3194 17.624 43.1327 17.576 42.9194 17.576C42.706 17.576 42.5167 17.624 42.3514 17.72C42.1914 17.8107 42.066 17.9413 41.9754 18.112C41.8847 18.2773 41.8394 18.4747 41.8394 18.704V18.896C41.8394 19.1307 41.89 19.3387 41.9914 19.52C42.098 19.696 42.2447 19.832 42.4314 19.928C42.6234 20.0187 42.8474 20.064 43.1034 20.064C43.3327 20.064 43.5327 20.0293 43.7034 19.96C43.8794 19.8907 44.0394 19.7867 44.1834 19.648L44.8474 20.368C44.65 20.592 44.402 20.7653 44.1034 20.888C43.8047 21.0053 43.4607 21.064 43.0714 21.064Z"/>
<path d="M45.9823 21V16.696H47.1743V17.912L47.0063 17.56C47.1343 17.256 47.3396 17.0267 47.6223 16.872C47.9049 16.712 48.2489 16.632 48.6543 16.632V17.784C48.6009 17.7787 48.5529 17.776 48.5103 17.776C48.4676 17.7707 48.4223 17.768 48.3743 17.768C48.0329 17.768 47.7556 17.8667 47.5423 18.064C47.3343 18.256 47.2303 18.5573 47.2303 18.968V21H45.9823Z"/>
</mask>
<path d="M16.6524 15.4H17.9484V21H16.6524V15.4ZM14.1084 21H12.8124V15.4H14.1084V21ZM16.7484 18.704H14.0124V17.608H16.7484V18.704Z" fill="url(#paint0_linear_1_2)"/>
<path d="M21.8254 21V20.16L21.7454 19.976V18.472C21.7454 18.2053 21.6627 17.9973 21.4974 17.848C21.3374 17.6987 21.0894 17.624 20.7534 17.624C20.524 17.624 20.2974 17.6613 20.0734 17.736C19.8547 17.8053 19.668 17.9013 19.5134 18.024L19.0654 17.152C19.3 16.9867 19.5827 16.8587 19.9134 16.768C20.244 16.6773 20.58 16.632 20.9214 16.632C21.5774 16.632 22.0867 16.7867 22.4494 17.096C22.812 17.4053 22.9934 17.888 22.9934 18.544V21H21.8254ZM20.5134 21.064C20.1774 21.064 19.8894 21.008 19.6494 20.896C19.4094 20.7787 19.2254 20.6213 19.0974 20.424C18.9694 20.2267 18.9054 20.0053 18.9054 19.76C18.9054 19.504 18.9667 19.28 19.0894 19.088C19.2174 18.896 19.4174 18.7467 19.6894 18.64C19.9614 18.528 20.316 18.472 20.7534 18.472H21.8974V19.2H20.8894C20.596 19.2 20.3934 19.248 20.2814 19.344C20.1747 19.44 20.1214 19.56 20.1214 19.704C20.1214 19.864 20.1827 19.992 20.3054 20.088C20.4334 20.1787 20.6067 20.224 20.8254 20.224C21.0334 20.224 21.22 20.176 21.3854 20.08C21.5507 19.9787 21.6707 19.832 21.7454 19.64L21.9374 20.216C21.8467 20.4933 21.6814 20.704 21.4414 20.848C21.2014 20.992 20.892 21.064 20.5134 21.064Z" fill="url(#paint1_linear_1_2)"/>
<path d="M29.6349 16.632C29.9762 16.632 30.2775 16.7013 30.5389 16.84C30.8055 16.9733 31.0135 17.1813 31.1629 17.464C31.3175 17.7413 31.3949 18.0987 31.3949 18.536V21H30.1469V18.728C30.1469 18.3813 30.0749 18.1253 29.9309 17.96C29.7869 17.7947 29.5842 17.712 29.3229 17.712C29.1415 17.712 28.9789 17.7547 28.8349 17.84C28.6909 17.92 28.5789 18.0427 28.4989 18.208C28.4189 18.3733 28.3789 18.584 28.3789 18.84V21H27.1309V18.728C27.1309 18.3813 27.0589 18.1253 26.9149 17.96C26.7762 17.7947 26.5762 17.712 26.3149 17.712C26.1335 17.712 25.9709 17.7547 25.8269 17.84C25.6829 17.92 25.5709 18.0427 25.4909 18.208C25.4109 18.3733 25.3709 18.584 25.3709 18.84V21H24.1229V16.696H25.3149V17.872L25.0909 17.528C25.2402 17.2347 25.4509 17.0133 25.7229 16.864C26.0002 16.7093 26.3149 16.632 26.6669 16.632C27.0615 16.632 27.4055 16.7333 27.6989 16.936C27.9975 17.1333 28.1949 17.4373 28.2909 17.848L27.8509 17.728C27.9949 17.392 28.2242 17.1253 28.5389 16.928C28.8589 16.7307 29.2242 16.632 29.6349 16.632Z" fill="url(#paint2_linear_1_2)"/>
<path d="M38.0255 16.632C38.3668 16.632 38.6682 16.7013 38.9295 16.84C39.1962 16.9733 39.4042 17.1813 39.5535 17.464C39.7082 17.7413 39.7855 18.0987 39.7855 18.536V21H38.5375V18.728C38.5375 18.3813 38.4655 18.1253 38.3215 17.96C38.1775 17.7947 37.9748 17.712 37.7135 17.712C37.5322 17.712 37.3695 17.7547 37.2255 17.84C37.0815 17.92 36.9695 18.0427 36.8895 18.208C36.8095 18.3733 36.7695 18.584 36.7695 18.84V21H35.5215V18.728C35.5215 18.3813 35.4495 18.1253 35.3055 17.96C35.1668 17.7947 34.9668 17.712 34.7055 17.712C34.5242 17.712 34.3615 17.7547 34.2175 17.84C34.0735 17.92 33.9615 18.0427 33.8815 18.208C33.8015 18.3733 33.7615 18.584 33.7615 18.84V21H32.5135V16.696H33.7055V17.872L33.4815 17.528C33.6308 17.2347 33.8415 17.0133 34.1135 16.864C34.3908 16.7093 34.7055 16.632 35.0575 16.632C35.4522 16.632 35.7962 16.7333 36.0895 16.936C36.3882 17.1333 36.5855 17.4373 36.6815 17.848L36.2415 17.728C36.3855 17.392 36.6148 17.1253 36.9295 16.928C37.2495 16.7307 37.6148 16.632 38.0255 16.632Z" fill="url(#paint3_linear_1_2)"/>
<path d="M43.0714 21.064C42.5807 21.064 42.1487 20.968 41.7754 20.776C41.4074 20.584 41.122 20.3227 40.9194 19.992C40.7167 19.656 40.6154 19.2747 40.6154 18.848C40.6154 18.416 40.714 18.0347 40.9114 17.704C41.114 17.368 41.3887 17.1067 41.7354 16.92C42.082 16.728 42.474 16.632 42.9114 16.632C43.3327 16.632 43.7114 16.7227 44.0474 16.904C44.3887 17.08 44.658 17.336 44.8554 17.672C45.0527 18.0027 45.1514 18.4 45.1514 18.864C45.1514 18.912 45.1487 18.968 45.1434 19.032C45.138 19.0907 45.1327 19.1467 45.1274 19.2H41.6314V18.472H44.4714L43.9914 18.688C43.9914 18.464 43.946 18.2693 43.8554 18.104C43.7647 17.9387 43.6394 17.8107 43.4794 17.72C43.3194 17.624 43.1327 17.576 42.9194 17.576C42.706 17.576 42.5167 17.624 42.3514 17.72C42.1914 17.8107 42.066 17.9413 41.9754 18.112C41.8847 18.2773 41.8394 18.4747 41.8394 18.704V18.896C41.8394 19.1307 41.89 19.3387 41.9914 19.52C42.098 19.696 42.2447 19.832 42.4314 19.928C42.6234 20.0187 42.8474 20.064 43.1034 20.064C43.3327 20.064 43.5327 20.0293 43.7034 19.96C43.8794 19.8907 44.0394 19.7867 44.1834 19.648L44.8474 20.368C44.65 20.592 44.402 20.7653 44.1034 20.888C43.8047 21.0053 43.4607 21.064 43.0714 21.064Z" fill="url(#paint4_linear_1_2)"/>
<path d="M45.9823 21V16.696H47.1743V17.912L47.0063 17.56C47.1343 17.256 47.3396 17.0267 47.6223 16.872C47.9049 16.712 48.2489 16.632 48.6543 16.632V17.784C48.6009 17.7787 48.5529 17.776 48.5103 17.776C48.4676 17.7707 48.4223 17.768 48.3743 17.768C48.0329 17.768 47.7556 17.8667 47.5423 18.064C47.3343 18.256 47.2303 18.5573 47.2303 18.968V21H45.9823Z" fill="url(#paint5_linear_1_2)"/>
<path d="M16.6524 15.4H17.9484V21H16.6524V15.4ZM14.1084 21H12.8124V15.4H14.1084V21ZM16.7484 18.704H14.0124V17.608H16.7484V18.704Z" stroke="black" stroke-width="2" stroke-linejoin="round" mask="url(#path-5-outside-1_1_2)"/>
<path d="M21.8254 21V20.16L21.7454 19.976V18.472C21.7454 18.2053 21.6627 17.9973 21.4974 17.848C21.3374 17.6987 21.0894 17.624 20.7534 17.624C20.524 17.624 20.2974 17.6613 20.0734 17.736C19.8547 17.8053 19.668 17.9013 19.5134 18.024L19.0654 17.152C19.3 16.9867 19.5827 16.8587 19.9134 16.768C20.244 16.6773 20.58 16.632 20.9214 16.632C21.5774 16.632 22.0867 16.7867 22.4494 17.096C22.812 17.4053 22.9934 17.888 22.9934 18.544V21H21.8254ZM20.5134 21.064C20.1774 21.064 19.8894 21.008 19.6494 20.896C19.4094 20.7787 19.2254 20.6213 19.0974 20.424C18.9694 20.2267 18.9054 20.0053 18.9054 19.76C18.9054 19.504 18.9667 19.28 19.0894 19.088C19.2174 18.896 19.4174 18.7467 19.6894 18.64C19.9614 18.528 20.316 18.472 20.7534 18.472H21.8974V19.2H20.8894C20.596 19.2 20.3934 19.248 20.2814 19.344C20.1747 19.44 20.1214 19.56 20.1214 19.704C20.1214 19.864 20.1827 19.992 20.3054 20.088C20.4334 20.1787 20.6067 20.224 20.8254 20.224C21.0334 20.224 21.22 20.176 21.3854 20.08C21.5507 19.9787 21.6707 19.832 21.7454 19.64L21.9374 20.216C21.8467 20.4933 21.6814 20.704 21.4414 20.848C21.2014 20.992 20.892 21.064 20.5134 21.064Z" stroke="black" stroke-width="2" stroke-linejoin="round" mask="url(#path-5-outside-1_1_2)"/>
<path d="M29.6349 16.632C29.9762 16.632 30.2775 16.7013 30.5389 16.84C30.8055 16.9733 31.0135 17.1813 31.1629 17.464C31.3175 17.7413 31.3949 18.0987 31.3949 18.536V21H30.1469V18.728C30.1469 18.3813 30.0749 18.1253 29.9309 17.96C29.7869 17.7947 29.5842 17.712 29.3229 17.712C29.1415 17.712 28.9789 17.7547 28.8349 17.84C28.6909 17.92 28.5789 18.0427 28.4989 18.208C28.4189 18.3733 28.3789 18.584 28.3789 18.84V21H27.1309V18.728C27.1309 18.3813 27.0589 18.1253 26.9149 17.96C26.7762 17.7947 26.5762 17.712 26.3149 17.712C26.1335 17.712 25.9709 17.7547 25.8269 17.84C25.6829 17.92 25.5709 18.0427 25.4909 18.208C25.4109 18.3733 25.3709 18.584 25.3709 18.84V21H24.1229V16.696H25.3149V17.872L25.0909 17.528C25.2402 17.2347 25.4509 17.0133 25.7229 16.864C26.0002 16.7093 26.3149 16.632 26.6669 16.632C27.0615 16.632 27.4055 16.7333 27.6989 16.936C27.9975 17.1333 28.1949 17.4373 28.2909 17.848L27.8509 17.728C27.9949 17.392 28.2242 17.1253 28.5389 16.928C28.8589 16.7307 29.2242 16.632 29.6349 16.632Z" stroke="black" stroke-width="2" stroke-linejoin="round" mask="url(#path-5-outside-1_1_2)"/>
<path d="M38.0255 16.632C38.3668 16.632 38.6682 16.7013 38.9295 16.84C39.1962 16.9733 39.4042 17.1813 39.5535 17.464C39.7082 17.7413 39.7855 18.0987 39.7855 18.536V21H38.5375V18.728C38.5375 18.3813 38.4655 18.1253 38.3215 17.96C38.1775 17.7947 37.9748 17.712 37.7135 17.712C37.5322 17.712 37.3695 17.7547 37.2255 17.84C37.0815 17.92 36.9695 18.0427 36.8895 18.208C36.8095 18.3733 36.7695 18.584 36.7695 18.84V21H35.5215V18.728C35.5215 18.3813 35.4495 18.1253 35.3055 17.96C35.1668 17.7947 34.9668 17.712 34.7055 17.712C34.5242 17.712 34.3615 17.7547 34.2175 17.84C34.0735 17.92 33.9615 18.0427 33.8815 18.208C33.8015 18.3733 33.7615 18.584 33.7615 18.84V21H32.5135V16.696H33.7055V17.872L33.4815 17.528C33.6308 17.2347 33.8415 17.0133 34.1135 16.864C34.3908 16.7093 34.7055 16.632 35.0575 16.632C35.4522 16.632 35.7962 16.7333 36.0895 16.936C36.3882 17.1333 36.5855 17.4373 36.6815 17.848L36.2415 17.728C36.3855 17.392 36.6148 17.1253 36.9295 16.928C37.2495 16.7307 37.6148 16.632 38.0255 16.632Z" stroke="black" stroke-width="2" stroke-linejoin="round" mask="url(#path-5-outside-1_1_2)"/>
<path d="M43.0714 21.064C42.5807 21.064 42.1487 20.968 41.7754 20.776C41.4074 20.584 41.122 20.3227 40.9194 19.992C40.7167 19.656 40.6154 19.2747 40.6154 18.848C40.6154 18.416 40.714 18.0347 40.9114 17.704C41.114 17.368 41.3887 17.1067 41.7354 16.92C42.082 16.728 42.474 16.632 42.9114 16.632C43.3327 16.632 43.7114 16.7227 44.0474 16.904C44.3887 17.08 44.658 17.336 44.8554 17.672C45.0527 18.0027 45.1514 18.4 45.1514 18.864C45.1514 18.912 45.1487 18.968 45.1434 19.032C45.138 19.0907 45.1327 19.1467 45.1274 19.2H41.6314V18.472H44.4714L43.9914 18.688C43.9914 18.464 43.946 18.2693 43.8554 18.104C43.7647 17.9387 43.6394 17.8107 43.4794 17.72C43.3194 17.624 43.1327 17.576 42.9194 17.576C42.706 17.576 42.5167 17.624 42.3514 17.72C42.1914 17.8107 42.066 17.9413 41.9754 18.112C41.8847 18.2773 41.8394 18.4747 41.8394 18.704V18.896C41.8394 19.1307 41.89 19.3387 41.9914 19.52C42.098 19.696 42.2447 19.832 42.4314 19.928C42.6234 20.0187 42.8474 20.064 43.1034 20.064C43.3327 20.064 43.5327 20.0293 43.7034 19.96C43.8794 19.8907 44.0394 19.7867 44.1834 19.648L44.8474 20.368C44.65 20.592 44.402 20.7653 44.1034 20.888C43.8047 21.0053 43.4607 21.064 43.0714 21.064Z" stroke="black" stroke-width="2" stroke-linejoin="round" mask="url(#path-5-outside-1_1_2)"/>
<path d="M45.9823 21V16.696H47.1743V17.912L47.0063 17.56C47.1343 17.256 47.3396 17.0267 47.6223 16.872C47.9049 16.712 48.2489 16.632 48.6543 16.632V17.784C48.6009 17.7787 48.5529 17.776 48.5103 17.776C48.4676 17.7707 48.4223 17.768 48.3743 17.768C48.0329 17.768 47.7556 17.8667 47.5423 18.064C47.3343 18.256 47.2303 18.5573 47.2303 18.968V21H45.9823Z" stroke="black" stroke-width="2" stroke-linejoin="round" mask="url(#path-5-outside-1_1_2)"/>
<rect x="36.5617" y="15.115" width="7.125" height="3.125" rx="0.8125" transform="rotate(-75.884 36.5617 15.115)" fill="url(#paint6_linear_1_2)" stroke="black" stroke-width="1.125"/>
<mask id="path-7-outside-2_1_2" maskUnits="userSpaceOnUse" x="39.306" y="9.86054" width="10.9175" height="7.28788" fill="black">
<rect fill="white" x="39.306" y="9.86054" width="10.9175" height="7.28788"/>
<path d="M39.7937 12.77L40.0376 11.8001L47.3113 13.6293C47.579 13.6967 47.7415 13.9683 47.6742 14.236C47.6068 14.5039 47.335 14.6664 47.0671 14.599L39.7937 12.77Z"/>
</mask>
<path d="M39.7937 12.77L40.0376 11.8001L47.3113 13.6293C47.579 13.6967 47.7415 13.9683 47.6742 14.236C47.6068 14.5039 47.335 14.6664 47.0671 14.599L39.7937 12.77Z" fill="url(#paint7_linear_1_2)"/>
<path d="M39.7937 12.77L40.0376 11.8001L39.7937 12.77ZM47.5857 12.5383C48.456 12.7572 48.984 13.6401 48.7652 14.5103C48.5463 15.3808 47.6632 15.909 46.7927 15.6901L46.705 13.4769L46.4611 14.4467L47.5857 12.5383ZM48.7652 14.5103C48.5463 15.3808 47.6632 15.909 46.7927 15.6901L39.5194 13.861L40.0376 11.8001L47.3113 13.6293C47.4399 13.6617 47.5503 13.7437 47.6184 13.8575C47.6864 13.9713 47.7065 14.1074 47.6742 14.236L48.7652 14.5103ZM40.312 10.7091L47.5857 12.5383C48.456 12.7572 48.984 13.6401 48.7652 14.5103L47.6742 14.236C47.6418 14.3646 47.5597 14.4751 47.4458 14.5432C47.332 14.6113 47.1957 14.6314 47.0671 14.599L40.2788 12.8919L39.7937 12.77L40.312 10.7091Z" fill="black" mask="url(#path-7-outside-2_1_2)"/>
</g>
</g>
<defs>
<linearGradient id="paint0_linear_1_2" x1="30.5" y1="13" x2="30.5" y2="23" gradientUnits="userSpaceOnUse">
<stop stop-color="#00D1FF"/>
<stop offset="1" stop-color="#001AFF"/>
</linearGradient>
<linearGradient id="paint1_linear_1_2" x1="30.5" y1="13" x2="30.5" y2="23" gradientUnits="userSpaceOnUse">
<stop stop-color="#00D1FF"/>
<stop offset="1" stop-color="#001AFF"/>
</linearGradient>
<linearGradient id="paint2_linear_1_2" x1="30.5" y1="13" x2="30.5" y2="23" gradientUnits="userSpaceOnUse">
<stop stop-color="#00D1FF"/>
<stop offset="1" stop-color="#001AFF"/>
</linearGradient>
<linearGradient id="paint3_linear_1_2" x1="30.5" y1="13" x2="30.5" y2="23" gradientUnits="userSpaceOnUse">
<stop stop-color="#00D1FF"/>
<stop offset="1" stop-color="#001AFF"/>
</linearGradient>
<linearGradient id="paint4_linear_1_2" x1="30.5" y1="13" x2="30.5" y2="23" gradientUnits="userSpaceOnUse">
<stop stop-color="#00D1FF"/>
<stop offset="1" stop-color="#001AFF"/>
</linearGradient>
<linearGradient id="paint5_linear_1_2" x1="30.5" y1="13" x2="30.5" y2="23" gradientUnits="userSpaceOnUse">
<stop stop-color="#00D1FF"/>
<stop offset="1" stop-color="#001AFF"/>
</linearGradient>
<linearGradient id="paint6_linear_1_2" x1="40.2444" y1="14.7067" x2="40.2444" y2="16.7067" gradientUnits="userSpaceOnUse">
<stop stop-color="#C9C9C9"/>
<stop offset="1" stop-color="#9A9A9A"/>
</linearGradient>
<linearGradient id="paint7_linear_1_2" x1="39.9157" y1="12.285" x2="47.6741" y2="14.2361" gradientUnits="userSpaceOnUse">
<stop stop-color="#A45F20"/>
<stop offset="1" stop-color="#7B4717"/>
</linearGradient>
<clipPath id="clip0_1_2">
<rect width="61" height="31" fill="white"/>
</clipPath>
<clipPath id="clip1_1_2">
<rect width="39" height="16" fill="white" transform="translate(11 7)"/>
</clipPath>
</defs>
</svg>
