<svg width="14" height="14" viewBox="0 0 14 14" fill="none" xmlns="http://www.w3.org/2000/svg">
<rect x="3.72524" y="1.40214" width="7.125" height="3.125" rx="0.8125" transform="rotate(3.72526 3.72524 1.40214)" fill="url(#paint0_linear_3_5)" stroke="black" stroke-width="1.125"/>
<mask id="path-2-outside-1_3_5" maskUnits="userSpaceOnUse" x="3.96928" y="4.02826" width="5.63916" height="10.3037" fill="black">
<rect fill="white" x="3.96928" y="4.02826" width="5.63916" height="10.3037"/>
<path d="M6.61478 4.1582L7.61266 4.22318L7.12536 11.7075C7.10742 11.983 6.86958 12.1917 6.59412 12.1738C6.31846 12.1558 6.10955 11.9178 6.1275 11.6422L6.61478 4.1582Z"/>
</mask>
<path d="M6.61478 4.1582L7.61266 4.22318L7.12536 11.7075C7.10742 11.983 6.86958 12.1917 6.59412 12.1738C6.31846 12.1558 6.10955 11.9178 6.1275 11.6422L6.61478 4.1582Z" fill="url(#paint1_linear_3_5)"/>
<path d="M6.61478 4.1582L7.61266 4.22318L6.61478 4.1582ZM8.25297 11.7809C8.19467 12.6764 7.42149 13.355 6.52602 13.2967L6.51604 13.2961C5.62037 13.2378 4.94157 12.4644 4.99988 11.5688L7.16598 11.0836L6.16809 11.0187L8.25297 11.7809ZM6.51604 13.2961C5.62037 13.2378 4.94157 12.4644 4.99988 11.5688L5.48716 4.08478L7.61266 4.22318L7.12536 11.7075C7.11675 11.8398 7.05594 11.9632 6.95631 12.0507C6.85669 12.1381 6.7264 12.1824 6.59412 12.1738L6.51604 13.2961ZM8.74028 4.29659L8.25297 11.7809C8.19467 12.6764 7.42149 13.355 6.52602 13.2967L6.59412 12.1738C6.46175 12.1652 6.33822 12.1043 6.25071 12.0046C6.1632 11.9049 6.11888 11.7746 6.1275 11.6422L6.58228 4.65733L6.61478 4.1582L8.74028 4.29659Z" fill="black" mask="url(#path-2-outside-1_3_5)"/>
<defs>
<linearGradient id="paint0_linear_3_5" x1="7.25" y1="2" x2="7.25" y2="4" gradientUnits="userSpaceOnUse">
<stop stop-color="#C9C9C9"/>
<stop offset="1" stop-color="#9A9A9A"/>
</linearGradient>
<linearGradient id="paint1_linear_3_5" x1="7.11372" y1="4.19069" x2="6.59394" y2="12.1738" gradientUnits="userSpaceOnUse">
<stop stop-color="#A45F20"/>
<stop offset="1" stop-color="#7B4717"/>
</linearGradient>
</defs>
</svg>
