<svg width="39" height="9" viewBox="0 0 39 9" fill="none" xmlns="http://www.w3.org/2000/svg">
<g clip-path="url(#clip0_1_13)">
<mask id="path-1-outside-1_1_13" maskUnits="userSpaceOnUse" x="0.812438" y="0.400002" width="38" height="8" fill="black">
<rect fill="white" x="0.812438" y="0.400002" width="38" height="8"/>
<path d="M5.65244 1.4H6.94844V7H5.65244V1.4ZM3.10844 7H1.81244V1.4H3.10844V7ZM5.74844 4.704H3.01244V3.608H5.74844V4.704Z"/>
<path d="M10.8254 7V6.16L10.7454 5.976V4.472C10.7454 4.20534 10.6627 3.99734 10.4974 3.848C10.3374 3.69867 10.0894 3.624 9.75338 3.624C9.52404 3.624 9.29738 3.66134 9.07338 3.736C8.85471 3.80534 8.66804 3.90134 8.51337 4.024L8.06537 3.152C8.30004 2.98667 8.58271 2.85867 8.91337 2.768C9.24404 2.67734 9.58004 2.632 9.92137 2.632C10.5774 2.632 11.0867 2.78667 11.4494 3.096C11.812 3.40534 11.9934 3.888 11.9934 4.544V7H10.8254ZM9.51337 7.064C9.17737 7.064 8.88937 7.008 8.64937 6.896C8.40937 6.77867 8.22537 6.62134 8.09737 6.424C7.96937 6.22667 7.90538 6.00534 7.90538 5.76C7.90538 5.504 7.96671 5.28 8.08938 5.088C8.21738 4.896 8.41737 4.74667 8.68937 4.64C8.96137 4.528 9.31604 4.472 9.75338 4.472H10.8974V5.2H9.88938C9.59604 5.2 9.39337 5.248 9.28137 5.344C9.17471 5.44 9.12138 5.56 9.12138 5.704C9.12138 5.864 9.18271 5.992 9.30538 6.088C9.43338 6.17867 9.60671 6.224 9.82538 6.224C10.0334 6.224 10.22 6.176 10.3854 6.08C10.5507 5.97867 10.6707 5.832 10.7454 5.64L10.9374 6.216C10.8467 6.49334 10.6814 6.704 10.4414 6.848C10.2014 6.992 9.89204 7.064 9.51337 7.064Z"/>
<path d="M18.6349 2.632C18.9762 2.632 19.2775 2.70134 19.5389 2.84C19.8055 2.97333 20.0135 3.18133 20.1629 3.464C20.3175 3.74134 20.3949 4.09867 20.3949 4.536V7H19.1469V4.728C19.1469 4.38134 19.0749 4.12534 18.9309 3.96C18.7869 3.79467 18.5842 3.712 18.3229 3.712C18.1415 3.712 17.9789 3.75467 17.8349 3.84C17.6909 3.92 17.5789 4.04267 17.4989 4.208C17.4189 4.37334 17.3789 4.584 17.3789 4.84V7H16.1309V4.728C16.1309 4.38134 16.0589 4.12534 15.9149 3.96C15.7762 3.79467 15.5762 3.712 15.3149 3.712C15.1335 3.712 14.9709 3.75467 14.8269 3.84C14.6829 3.92 14.5709 4.04267 14.4909 4.208C14.4109 4.37334 14.3709 4.584 14.3709 4.84V7H13.1229V2.696H14.3149V3.872L14.0909 3.528C14.2402 3.23467 14.4509 3.01334 14.7229 2.864C15.0002 2.70934 15.3149 2.632 15.6669 2.632C16.0615 2.632 16.4055 2.73334 16.6989 2.936C16.9975 3.13334 17.1949 3.43734 17.2909 3.848L16.8509 3.728C16.9949 3.392 17.2242 3.12534 17.5389 2.928C17.8589 2.73067 18.2242 2.632 18.6349 2.632Z"/>
<path d="M27.0255 2.632C27.3668 2.632 27.6682 2.70134 27.9295 2.84C28.1962 2.97333 28.4042 3.18133 28.5535 3.464C28.7082 3.74134 28.7855 4.09867 28.7855 4.536V7H27.5375V4.728C27.5375 4.38134 27.4655 4.12534 27.3215 3.96C27.1775 3.79467 26.9748 3.712 26.7135 3.712C26.5322 3.712 26.3695 3.75467 26.2255 3.84C26.0815 3.92 25.9695 4.04267 25.8895 4.208C25.8095 4.37334 25.7695 4.584 25.7695 4.84V7H24.5215V4.728C24.5215 4.38134 24.4495 4.12534 24.3055 3.96C24.1668 3.79467 23.9668 3.712 23.7055 3.712C23.5242 3.712 23.3615 3.75467 23.2175 3.84C23.0735 3.92 22.9615 4.04267 22.8815 4.208C22.8015 4.37334 22.7615 4.584 22.7615 4.84V7H21.5135V2.696H22.7055V3.872L22.4815 3.528C22.6308 3.23467 22.8415 3.01334 23.1135 2.864C23.3908 2.70934 23.7055 2.632 24.0575 2.632C24.4522 2.632 24.7962 2.73334 25.0895 2.936C25.3882 3.13334 25.5855 3.43734 25.6815 3.848L25.2415 3.728C25.3855 3.392 25.6148 3.12534 25.9295 2.928C26.2495 2.73067 26.6148 2.632 27.0255 2.632Z"/>
<path d="M32.0714 7.064C31.5807 7.064 31.1487 6.968 30.7754 6.776C30.4074 6.584 30.122 6.32267 29.9194 5.992C29.7167 5.656 29.6154 5.27467 29.6154 4.848C29.6154 4.416 29.714 4.03467 29.9114 3.704C30.114 3.368 30.3887 3.10667 30.7354 2.92C31.082 2.728 31.474 2.632 31.9114 2.632C32.3327 2.632 32.7114 2.72267 33.0474 2.904C33.3887 3.08 33.658 3.336 33.8554 3.672C34.0527 4.00267 34.1514 4.4 34.1514 4.864C34.1514 4.912 34.1487 4.968 34.1434 5.032C34.138 5.09067 34.1327 5.14667 34.1274 5.2H30.6314V4.472H33.4714L32.9914 4.688C32.9914 4.464 32.946 4.26934 32.8554 4.104C32.7647 3.93867 32.6394 3.81067 32.4794 3.72C32.3194 3.624 32.1327 3.576 31.9194 3.576C31.706 3.576 31.5167 3.624 31.3514 3.72C31.1914 3.81067 31.066 3.94134 30.9754 4.112C30.8847 4.27734 30.8394 4.47467 30.8394 4.704V4.896C30.8394 5.13067 30.89 5.33867 30.9914 5.52C31.098 5.696 31.2447 5.832 31.4314 5.928C31.6234 6.01867 31.8474 6.064 32.1034 6.064C32.3327 6.064 32.5327 6.02934 32.7034 5.96C32.8794 5.89067 33.0394 5.78667 33.1834 5.648L33.8474 6.368C33.65 6.592 33.402 6.76534 33.1034 6.888C32.8047 7.00534 32.4607 7.064 32.0714 7.064Z"/>
<path d="M34.9822 7V2.696H36.1743V3.912L36.0063 3.56C36.1343 3.256 36.3396 3.02667 36.6223 2.872C36.9049 2.712 37.2489 2.632 37.6542 2.632V3.784C37.6009 3.77867 37.5529 3.776 37.5102 3.776C37.4676 3.77067 37.4223 3.768 37.3743 3.768C37.0329 3.768 36.7556 3.86667 36.5423 4.064C36.3343 4.256 36.2302 4.55734 36.2302 4.968V7H34.9822Z"/>
</mask>
<path d="M5.65244 1.4H6.94844V7H5.65244V1.4ZM3.10844 7H1.81244V1.4H3.10844V7ZM5.74844 4.704H3.01244V3.608H5.74844V4.704Z" fill="url(#paint0_linear_1_13)"/>
<path d="M10.8254 7V6.16L10.7454 5.976V4.472C10.7454 4.20534 10.6627 3.99734 10.4974 3.848C10.3374 3.69867 10.0894 3.624 9.75338 3.624C9.52404 3.624 9.29738 3.66134 9.07338 3.736C8.85471 3.80534 8.66804 3.90134 8.51337 4.024L8.06537 3.152C8.30004 2.98667 8.58271 2.85867 8.91337 2.768C9.24404 2.67734 9.58004 2.632 9.92137 2.632C10.5774 2.632 11.0867 2.78667 11.4494 3.096C11.812 3.40534 11.9934 3.888 11.9934 4.544V7H10.8254ZM9.51337 7.064C9.17737 7.064 8.88937 7.008 8.64937 6.896C8.40937 6.77867 8.22537 6.62134 8.09737 6.424C7.96937 6.22667 7.90538 6.00534 7.90538 5.76C7.90538 5.504 7.96671 5.28 8.08938 5.088C8.21738 4.896 8.41737 4.74667 8.68937 4.64C8.96137 4.528 9.31604 4.472 9.75338 4.472H10.8974V5.2H9.88938C9.59604 5.2 9.39337 5.248 9.28137 5.344C9.17471 5.44 9.12138 5.56 9.12138 5.704C9.12138 5.864 9.18271 5.992 9.30538 6.088C9.43338 6.17867 9.60671 6.224 9.82538 6.224C10.0334 6.224 10.22 6.176 10.3854 6.08C10.5507 5.97867 10.6707 5.832 10.7454 5.64L10.9374 6.216C10.8467 6.49334 10.6814 6.704 10.4414 6.848C10.2014 6.992 9.89204 7.064 9.51337 7.064Z" fill="url(#paint1_linear_1_13)"/>
<path d="M18.6349 2.632C18.9762 2.632 19.2775 2.70134 19.5389 2.84C19.8055 2.97333 20.0135 3.18133 20.1629 3.464C20.3175 3.74134 20.3949 4.09867 20.3949 4.536V7H19.1469V4.728C19.1469 4.38134 19.0749 4.12534 18.9309 3.96C18.7869 3.79467 18.5842 3.712 18.3229 3.712C18.1415 3.712 17.9789 3.75467 17.8349 3.84C17.6909 3.92 17.5789 4.04267 17.4989 4.208C17.4189 4.37334 17.3789 4.584 17.3789 4.84V7H16.1309V4.728C16.1309 4.38134 16.0589 4.12534 15.9149 3.96C15.7762 3.79467 15.5762 3.712 15.3149 3.712C15.1335 3.712 14.9709 3.75467 14.8269 3.84C14.6829 3.92 14.5709 4.04267 14.4909 4.208C14.4109 4.37334 14.3709 4.584 14.3709 4.84V7H13.1229V2.696H14.3149V3.872L14.0909 3.528C14.2402 3.23467 14.4509 3.01334 14.7229 2.864C15.0002 2.70934 15.3149 2.632 15.6669 2.632C16.0615 2.632 16.4055 2.73334 16.6989 2.936C16.9975 3.13334 17.1949 3.43734 17.2909 3.848L16.8509 3.728C16.9949 3.392 17.2242 3.12534 17.5389 2.928C17.8589 2.73067 18.2242 2.632 18.6349 2.632Z" fill="url(#paint2_linear_1_13)"/>
<path d="M27.0255 2.632C27.3668 2.632 27.6682 2.70134 27.9295 2.84C28.1962 2.97333 28.4042 3.18133 28.5535 3.464C28.7082 3.74134 28.7855 4.09867 28.7855 4.536V7H27.5375V4.728C27.5375 4.38134 27.4655 4.12534 27.3215 3.96C27.1775 3.79467 26.9748 3.712 26.7135 3.712C26.5322 3.712 26.3695 3.75467 26.2255 3.84C26.0815 3.92 25.9695 4.04267 25.8895 4.208C25.8095 4.37334 25.7695 4.584 25.7695 4.84V7H24.5215V4.728C24.5215 4.38134 24.4495 4.12534 24.3055 3.96C24.1668 3.79467 23.9668 3.712 23.7055 3.712C23.5242 3.712 23.3615 3.75467 23.2175 3.84C23.0735 3.92 22.9615 4.04267 22.8815 4.208C22.8015 4.37334 22.7615 4.584 22.7615 4.84V7H21.5135V2.696H22.7055V3.872L22.4815 3.528C22.6308 3.23467 22.8415 3.01334 23.1135 2.864C23.3908 2.70934 23.7055 2.632 24.0575 2.632C24.4522 2.632 24.7962 2.73334 25.0895 2.936C25.3882 3.13334 25.5855 3.43734 25.6815 3.848L25.2415 3.728C25.3855 3.392 25.6148 3.12534 25.9295 2.928C26.2495 2.73067 26.6148 2.632 27.0255 2.632Z" fill="url(#paint3_linear_1_13)"/>
<path d="M32.0714 7.064C31.5807 7.064 31.1487 6.968 30.7754 6.776C30.4074 6.584 30.122 6.32267 29.9194 5.992C29.7167 5.656 29.6154 5.27467 29.6154 4.848C29.6154 4.416 29.714 4.03467 29.9114 3.704C30.114 3.368 30.3887 3.10667 30.7354 2.92C31.082 2.728 31.474 2.632 31.9114 2.632C32.3327 2.632 32.7114 2.72267 33.0474 2.904C33.3887 3.08 33.658 3.336 33.8554 3.672C34.0527 4.00267 34.1514 4.4 34.1514 4.864C34.1514 4.912 34.1487 4.968 34.1434 5.032C34.138 5.09067 34.1327 5.14667 34.1274 5.2H30.6314V4.472H33.4714L32.9914 4.688C32.9914 4.464 32.946 4.26934 32.8554 4.104C32.7647 3.93867 32.6394 3.81067 32.4794 3.72C32.3194 3.624 32.1327 3.576 31.9194 3.576C31.706 3.576 31.5167 3.624 31.3514 3.72C31.1914 3.81067 31.066 3.94134 30.9754 4.112C30.8847 4.27734 30.8394 4.47467 30.8394 4.704V4.896C30.8394 5.13067 30.89 5.33867 30.9914 5.52C31.098 5.696 31.2447 5.832 31.4314 5.928C31.6234 6.01867 31.8474 6.064 32.1034 6.064C32.3327 6.064 32.5327 6.02934 32.7034 5.96C32.8794 5.89067 33.0394 5.78667 33.1834 5.648L33.8474 6.368C33.65 6.592 33.402 6.76534 33.1034 6.888C32.8047 7.00534 32.4607 7.064 32.0714 7.064Z" fill="url(#paint4_linear_1_13)"/>
<path d="M34.9822 7V2.696H36.1743V3.912L36.0063 3.56C36.1343 3.256 36.3396 3.02667 36.6223 2.872C36.9049 2.712 37.2489 2.632 37.6542 2.632V3.784C37.6009 3.77867 37.5529 3.776 37.5102 3.776C37.4676 3.77067 37.4223 3.768 37.3743 3.768C37.0329 3.768 36.7556 3.86667 36.5423 4.064C36.3343 4.256 36.2302 4.55734 36.2302 4.968V7H34.9822Z" fill="url(#paint5_linear_1_13)"/>
<path d="M5.65244 1.4H6.94844V7H5.65244V1.4ZM3.10844 7H1.81244V1.4H3.10844V7ZM5.74844 4.704H3.01244V3.608H5.74844V4.704Z" stroke="black" stroke-width="2" stroke-linejoin="round" mask="url(#path-1-outside-1_1_13)"/>
<path d="M10.8254 7V6.16L10.7454 5.976V4.472C10.7454 4.20534 10.6627 3.99734 10.4974 3.848C10.3374 3.69867 10.0894 3.624 9.75338 3.624C9.52404 3.624 9.29738 3.66134 9.07338 3.736C8.85471 3.80534 8.66804 3.90134 8.51337 4.024L8.06537 3.152C8.30004 2.98667 8.58271 2.85867 8.91337 2.768C9.24404 2.67734 9.58004 2.632 9.92137 2.632C10.5774 2.632 11.0867 2.78667 11.4494 3.096C11.812 3.40534 11.9934 3.888 11.9934 4.544V7H10.8254ZM9.51337 7.064C9.17737 7.064 8.88937 7.008 8.64937 6.896C8.40937 6.77867 8.22537 6.62134 8.09737 6.424C7.96937 6.22667 7.90538 6.00534 7.90538 5.76C7.90538 5.504 7.96671 5.28 8.08938 5.088C8.21738 4.896 8.41737 4.74667 8.68937 4.64C8.96137 4.528 9.31604 4.472 9.75338 4.472H10.8974V5.2H9.88938C9.59604 5.2 9.39337 5.248 9.28137 5.344C9.17471 5.44 9.12138 5.56 9.12138 5.704C9.12138 5.864 9.18271 5.992 9.30538 6.088C9.43338 6.17867 9.60671 6.224 9.82538 6.224C10.0334 6.224 10.22 6.176 10.3854 6.08C10.5507 5.97867 10.6707 5.832 10.7454 5.64L10.9374 6.216C10.8467 6.49334 10.6814 6.704 10.4414 6.848C10.2014 6.992 9.89204 7.064 9.51337 7.064Z" stroke="black" stroke-width="2" stroke-linejoin="round" mask="url(#path-1-outside-1_1_13)"/>
<path d="M18.6349 2.632C18.9762 2.632 19.2775 2.70134 19.5389 2.84C19.8055 2.97333 20.0135 3.18133 20.1629 3.464C20.3175 3.74134 20.3949 4.09867 20.3949 4.536V7H19.1469V4.728C19.1469 4.38134 19.0749 4.12534 18.9309 3.96C18.7869 3.79467 18.5842 3.712 18.3229 3.712C18.1415 3.712 17.9789 3.75467 17.8349 3.84C17.6909 3.92 17.5789 4.04267 17.4989 4.208C17.4189 4.37334 17.3789 4.584 17.3789 4.84V7H16.1309V4.728C16.1309 4.38134 16.0589 4.12534 15.9149 3.96C15.7762 3.79467 15.5762 3.712 15.3149 3.712C15.1335 3.712 14.9709 3.75467 14.8269 3.84C14.6829 3.92 14.5709 4.04267 14.4909 4.208C14.4109 4.37334 14.3709 4.584 14.3709 4.84V7H13.1229V2.696H14.3149V3.872L14.0909 3.528C14.2402 3.23467 14.4509 3.01334 14.7229 2.864C15.0002 2.70934 15.3149 2.632 15.6669 2.632C16.0615 2.632 16.4055 2.73334 16.6989 2.936C16.9975 3.13334 17.1949 3.43734 17.2909 3.848L16.8509 3.728C16.9949 3.392 17.2242 3.12534 17.5389 2.928C17.8589 2.73067 18.2242 2.632 18.6349 2.632Z" stroke="black" stroke-width="2" stroke-linejoin="round" mask="url(#path-1-outside-1_1_13)"/>
<path d="M27.0255 2.632C27.3668 2.632 27.6682 2.70134 27.9295 2.84C28.1962 2.97333 28.4042 3.18133 28.5535 3.464C28.7082 3.74134 28.7855 4.09867 28.7855 4.536V7H27.5375V4.728C27.5375 4.38134 27.4655 4.12534 27.3215 3.96C27.1775 3.79467 26.9748 3.712 26.7135 3.712C26.5322 3.712 26.3695 3.75467 26.2255 3.84C26.0815 3.92 25.9695 4.04267 25.8895 4.208C25.8095 4.37334 25.7695 4.584 25.7695 4.84V7H24.5215V4.728C24.5215 4.38134 24.4495 4.12534 24.3055 3.96C24.1668 3.79467 23.9668 3.712 23.7055 3.712C23.5242 3.712 23.3615 3.75467 23.2175 3.84C23.0735 3.92 22.9615 4.04267 22.8815 4.208C22.8015 4.37334 22.7615 4.584 22.7615 4.84V7H21.5135V2.696H22.7055V3.872L22.4815 3.528C22.6308 3.23467 22.8415 3.01334 23.1135 2.864C23.3908 2.70934 23.7055 2.632 24.0575 2.632C24.4522 2.632 24.7962 2.73334 25.0895 2.936C25.3882 3.13334 25.5855 3.43734 25.6815 3.848L25.2415 3.728C25.3855 3.392 25.6148 3.12534 25.9295 2.928C26.2495 2.73067 26.6148 2.632 27.0255 2.632Z" stroke="black" stroke-width="2" stroke-linejoin="round" mask="url(#path-1-outside-1_1_13)"/>
<path d="M32.0714 7.064C31.5807 7.064 31.1487 6.968 30.7754 6.776C30.4074 6.584 30.122 6.32267 29.9194 5.992C29.7167 5.656 29.6154 5.27467 29.6154 4.848C29.6154 4.416 29.714 4.03467 29.9114 3.704C30.114 3.368 30.3887 3.10667 30.7354 2.92C31.082 2.728 31.474 2.632 31.9114 2.632C32.3327 2.632 32.7114 2.72267 33.0474 2.904C33.3887 3.08 33.658 3.336 33.8554 3.672C34.0527 4.00267 34.1514 4.4 34.1514 4.864C34.1514 4.912 34.1487 4.968 34.1434 5.032C34.138 5.09067 34.1327 5.14667 34.1274 5.2H30.6314V4.472H33.4714L32.9914 4.688C32.9914 4.464 32.946 4.26934 32.8554 4.104C32.7647 3.93867 32.6394 3.81067 32.4794 3.72C32.3194 3.624 32.1327 3.576 31.9194 3.576C31.706 3.576 31.5167 3.624 31.3514 3.72C31.1914 3.81067 31.066 3.94134 30.9754 4.112C30.8847 4.27734 30.8394 4.47467 30.8394 4.704V4.896C30.8394 5.13067 30.89 5.33867 30.9914 5.52C31.098 5.696 31.2447 5.832 31.4314 5.928C31.6234 6.01867 31.8474 6.064 32.1034 6.064C32.3327 6.064 32.5327 6.02934 32.7034 5.96C32.8794 5.89067 33.0394 5.78667 33.1834 5.648L33.8474 6.368C33.65 6.592 33.402 6.76534 33.1034 6.888C32.8047 7.00534 32.4607 7.064 32.0714 7.064Z" stroke="black" stroke-width="2" stroke-linejoin="round" mask="url(#path-1-outside-1_1_13)"/>
<path d="M34.9822 7V2.696H36.1743V3.912L36.0063 3.56C36.1343 3.256 36.3396 3.02667 36.6223 2.872C36.9049 2.712 37.2489 2.632 37.6542 2.632V3.784C37.6009 3.77867 37.5529 3.776 37.5102 3.776C37.4676 3.77067 37.4223 3.768 37.3743 3.768C37.0329 3.768 36.7556 3.86667 36.5423 4.064C36.3343 4.256 36.2302 4.55734 36.2302 4.968V7H34.9822Z" stroke="black" stroke-width="2" stroke-linejoin="round" mask="url(#path-1-outside-1_1_13)"/>
</g>
<defs>
<linearGradient id="paint0_linear_1_13" x1="19.5" y1="-1" x2="19.5" y2="9" gradientUnits="userSpaceOnUse">
<stop stop-color="#00D1FF"/>
<stop offset="1" stop-color="#001AFF"/>
</linearGradient>
<linearGradient id="paint1_linear_1_13" x1="19.5" y1="-1" x2="19.5" y2="9" gradientUnits="userSpaceOnUse">
<stop stop-color="#00D1FF"/>
<stop offset="1" stop-color="#001AFF"/>
</linearGradient>
<linearGradient id="paint2_linear_1_13" x1="19.5" y1="-1" x2="19.5" y2="9" gradientUnits="userSpaceOnUse">
<stop stop-color="#00D1FF"/>
<stop offset="1" stop-color="#001AFF"/>
</linearGradient>
<linearGradient id="paint3_linear_1_13" x1="19.5" y1="-1" x2="19.5" y2="9" gradientUnits="userSpaceOnUse">
<stop stop-color="#00D1FF"/>
<stop offset="1" stop-color="#001AFF"/>
</linearGradient>
<linearGradient id="paint4_linear_1_13" x1="19.5" y1="-1" x2="19.5" y2="9" gradientUnits="userSpaceOnUse">
<stop stop-color="#00D1FF"/>
<stop offset="1" stop-color="#001AFF"/>
</linearGradient>
<linearGradient id="paint5_linear_1_13" x1="19.5" y1="-1" x2="19.5" y2="9" gradientUnits="userSpaceOnUse">
<stop stop-color="#00D1FF"/>
<stop offset="1" stop-color="#001AFF"/>
</linearGradient>
<clipPath id="clip0_1_13">
<rect width="39" height="9" fill="white"/>
</clipPath>
</defs>
</svg>
