<svg width="39" height="16" viewBox="0 0 39 16" fill="none" xmlns="http://www.w3.org/2000/svg">
<g clip-path="url(#clip0_1_15)">
<mask id="path-1-outside-1_1_15" maskUnits="userSpaceOnUse" x="0.812439" y="7.4" width="38" height="8" fill="black">
<rect fill="white" x="0.812439" y="7.4" width="38" height="8"/>
<path d="M5.65244 8.4H6.94844V14H5.65244V8.4ZM3.10844 14H1.81244V8.4H3.10844V14ZM5.74844 11.704H3.01244V10.608H5.74844V11.704Z"/>
<path d="M10.8254 14V13.16L10.7454 12.976V11.472C10.7454 11.2053 10.6627 10.9973 10.4974 10.848C10.3374 10.6987 10.0894 10.624 9.75338 10.624C9.52404 10.624 9.29738 10.6613 9.07338 10.736C8.85471 10.8053 8.66804 10.9013 8.51338 11.024L8.06538 10.152C8.30004 9.98667 8.58271 9.85867 8.91338 9.768C9.24404 9.67734 9.58004 9.632 9.92138 9.632C10.5774 9.632 11.0867 9.78667 11.4494 10.096C11.812 10.4053 11.9934 10.888 11.9934 11.544V14H10.8254ZM9.51338 14.064C9.17738 14.064 8.88938 14.008 8.64938 13.896C8.40938 13.7787 8.22538 13.6213 8.09738 13.424C7.96938 13.2267 7.90538 13.0053 7.90538 12.76C7.90538 12.504 7.96671 12.28 8.08938 12.088C8.21738 11.896 8.41738 11.7467 8.68938 11.64C8.96138 11.528 9.31604 11.472 9.75338 11.472H10.8974V12.2H9.88938C9.59604 12.2 9.39338 12.248 9.28138 12.344C9.17471 12.44 9.12138 12.56 9.12138 12.704C9.12138 12.864 9.18271 12.992 9.30538 13.088C9.43338 13.1787 9.60671 13.224 9.82538 13.224C10.0334 13.224 10.22 13.176 10.3854 13.08C10.5507 12.9787 10.6707 12.832 10.7454 12.64L10.9374 13.216C10.8467 13.4933 10.6814 13.704 10.4414 13.848C10.2014 13.992 9.89204 14.064 9.51338 14.064Z"/>
<path d="M18.6349 9.632C18.9762 9.632 19.2775 9.70134 19.5389 9.84C19.8055 9.97333 20.0135 10.1813 20.1629 10.464C20.3175 10.7413 20.3949 11.0987 20.3949 11.536V14H19.1469V11.728C19.1469 11.3813 19.0749 11.1253 18.9309 10.96C18.7869 10.7947 18.5842 10.712 18.3229 10.712C18.1415 10.712 17.9789 10.7547 17.8349 10.84C17.6909 10.92 17.5789 11.0427 17.4989 11.208C17.4189 11.3733 17.3789 11.584 17.3789 11.84V14H16.1309V11.728C16.1309 11.3813 16.0589 11.1253 15.9149 10.96C15.7762 10.7947 15.5762 10.712 15.3149 10.712C15.1335 10.712 14.9709 10.7547 14.8269 10.84C14.6829 10.92 14.5709 11.0427 14.4909 11.208C14.4109 11.3733 14.3709 11.584 14.3709 11.84V14H13.1229V9.696H14.3149V10.872L14.0909 10.528C14.2402 10.2347 14.4509 10.0133 14.7229 9.864C15.0002 9.70934 15.3149 9.632 15.6669 9.632C16.0615 9.632 16.4055 9.73334 16.6989 9.936C16.9975 10.1333 17.1949 10.4373 17.2909 10.848L16.8509 10.728C16.9949 10.392 17.2242 10.1253 17.5389 9.928C17.8589 9.73067 18.2242 9.632 18.6349 9.632Z"/>
<path d="M27.0255 9.632C27.3668 9.632 27.6682 9.70134 27.9295 9.84C28.1962 9.97333 28.4042 10.1813 28.5535 10.464C28.7082 10.7413 28.7855 11.0987 28.7855 11.536V14H27.5375V11.728C27.5375 11.3813 27.4655 11.1253 27.3215 10.96C27.1775 10.7947 26.9748 10.712 26.7135 10.712C26.5322 10.712 26.3695 10.7547 26.2255 10.84C26.0815 10.92 25.9695 11.0427 25.8895 11.208C25.8095 11.3733 25.7695 11.584 25.7695 11.84V14H24.5215V11.728C24.5215 11.3813 24.4495 11.1253 24.3055 10.96C24.1668 10.7947 23.9668 10.712 23.7055 10.712C23.5242 10.712 23.3615 10.7547 23.2175 10.84C23.0735 10.92 22.9615 11.0427 22.8815 11.208C22.8015 11.3733 22.7615 11.584 22.7615 11.84V14H21.5135V9.696H22.7055V10.872L22.4815 10.528C22.6308 10.2347 22.8415 10.0133 23.1135 9.864C23.3908 9.70934 23.7055 9.632 24.0575 9.632C24.4522 9.632 24.7962 9.73334 25.0895 9.936C25.3882 10.1333 25.5855 10.4373 25.6815 10.848L25.2415 10.728C25.3855 10.392 25.6148 10.1253 25.9295 9.928C26.2495 9.73067 26.6148 9.632 27.0255 9.632Z"/>
<path d="M32.0714 14.064C31.5807 14.064 31.1487 13.968 30.7754 13.776C30.4074 13.584 30.122 13.3227 29.9194 12.992C29.7167 12.656 29.6154 12.2747 29.6154 11.848C29.6154 11.416 29.714 11.0347 29.9114 10.704C30.114 10.368 30.3887 10.1067 30.7354 9.92C31.082 9.728 31.474 9.632 31.9114 9.632C32.3327 9.632 32.7114 9.72267 33.0474 9.904C33.3887 10.08 33.658 10.336 33.8554 10.672C34.0527 11.0027 34.1514 11.4 34.1514 11.864C34.1514 11.912 34.1487 11.968 34.1434 12.032C34.138 12.0907 34.1327 12.1467 34.1274 12.2H30.6314V11.472H33.4714L32.9914 11.688C32.9914 11.464 32.946 11.2693 32.8554 11.104C32.7647 10.9387 32.6394 10.8107 32.4794 10.72C32.3194 10.624 32.1327 10.576 31.9194 10.576C31.706 10.576 31.5167 10.624 31.3514 10.72C31.1914 10.8107 31.066 10.9413 30.9754 11.112C30.8847 11.2773 30.8394 11.4747 30.8394 11.704V11.896C30.8394 12.1307 30.89 12.3387 30.9914 12.52C31.098 12.696 31.2447 12.832 31.4314 12.928C31.6234 13.0187 31.8474 13.064 32.1034 13.064C32.3327 13.064 32.5327 13.0293 32.7034 12.96C32.8794 12.8907 33.0394 12.7867 33.1834 12.648L33.8474 13.368C33.65 13.592 33.402 13.7653 33.1034 13.888C32.8047 14.0053 32.4607 14.064 32.0714 14.064Z"/>
<path d="M34.9823 14V9.696H36.1743V10.912L36.0063 10.56C36.1343 10.256 36.3396 10.0267 36.6223 9.872C36.9049 9.712 37.2489 9.632 37.6543 9.632V10.784C37.6009 10.7787 37.5529 10.776 37.5103 10.776C37.4676 10.7707 37.4223 10.768 37.3743 10.768C37.0329 10.768 36.7556 10.8667 36.5423 11.064C36.3343 11.256 36.2303 11.5573 36.2303 11.968V14H34.9823Z"/>
</mask>
<path d="M5.65244 8.4H6.94844V14H5.65244V8.4ZM3.10844 14H1.81244V8.4H3.10844V14ZM5.74844 11.704H3.01244V10.608H5.74844V11.704Z" fill="url(#paint0_linear_1_15)"/>
<path d="M10.8254 14V13.16L10.7454 12.976V11.472C10.7454 11.2053 10.6627 10.9973 10.4974 10.848C10.3374 10.6987 10.0894 10.624 9.75338 10.624C9.52404 10.624 9.29738 10.6613 9.07338 10.736C8.85471 10.8053 8.66804 10.9013 8.51338 11.024L8.06538 10.152C8.30004 9.98667 8.58271 9.85867 8.91338 9.768C9.24404 9.67734 9.58004 9.632 9.92138 9.632C10.5774 9.632 11.0867 9.78667 11.4494 10.096C11.812 10.4053 11.9934 10.888 11.9934 11.544V14H10.8254ZM9.51338 14.064C9.17738 14.064 8.88938 14.008 8.64938 13.896C8.40938 13.7787 8.22538 13.6213 8.09738 13.424C7.96938 13.2267 7.90538 13.0053 7.90538 12.76C7.90538 12.504 7.96671 12.28 8.08938 12.088C8.21738 11.896 8.41738 11.7467 8.68938 11.64C8.96138 11.528 9.31604 11.472 9.75338 11.472H10.8974V12.2H9.88938C9.59604 12.2 9.39338 12.248 9.28138 12.344C9.17471 12.44 9.12138 12.56 9.12138 12.704C9.12138 12.864 9.18271 12.992 9.30538 13.088C9.43338 13.1787 9.60671 13.224 9.82538 13.224C10.0334 13.224 10.22 13.176 10.3854 13.08C10.5507 12.9787 10.6707 12.832 10.7454 12.64L10.9374 13.216C10.8467 13.4933 10.6814 13.704 10.4414 13.848C10.2014 13.992 9.89204 14.064 9.51338 14.064Z" fill="url(#paint1_linear_1_15)"/>
<path d="M18.6349 9.632C18.9762 9.632 19.2775 9.70134 19.5389 9.84C19.8055 9.97333 20.0135 10.1813 20.1629 10.464C20.3175 10.7413 20.3949 11.0987 20.3949 11.536V14H19.1469V11.728C19.1469 11.3813 19.0749 11.1253 18.9309 10.96C18.7869 10.7947 18.5842 10.712 18.3229 10.712C18.1415 10.712 17.9789 10.7547 17.8349 10.84C17.6909 10.92 17.5789 11.0427 17.4989 11.208C17.4189 11.3733 17.3789 11.584 17.3789 11.84V14H16.1309V11.728C16.1309 11.3813 16.0589 11.1253 15.9149 10.96C15.7762 10.7947 15.5762 10.712 15.3149 10.712C15.1335 10.712 14.9709 10.7547 14.8269 10.84C14.6829 10.92 14.5709 11.0427 14.4909 11.208C14.4109 11.3733 14.3709 11.584 14.3709 11.84V14H13.1229V9.696H14.3149V10.872L14.0909 10.528C14.2402 10.2347 14.4509 10.0133 14.7229 9.864C15.0002 9.70934 15.3149 9.632 15.6669 9.632C16.0615 9.632 16.4055 9.73334 16.6989 9.936C16.9975 10.1333 17.1949 10.4373 17.2909 10.848L16.8509 10.728C16.9949 10.392 17.2242 10.1253 17.5389 9.928C17.8589 9.73067 18.2242 9.632 18.6349 9.632Z" fill="url(#paint2_linear_1_15)"/>
<path d="M27.0255 9.632C27.3668 9.632 27.6682 9.70134 27.9295 9.84C28.1962 9.97333 28.4042 10.1813 28.5535 10.464C28.7082 10.7413 28.7855 11.0987 28.7855 11.536V14H27.5375V11.728C27.5375 11.3813 27.4655 11.1253 27.3215 10.96C27.1775 10.7947 26.9748 10.712 26.7135 10.712C26.5322 10.712 26.3695 10.7547 26.2255 10.84C26.0815 10.92 25.9695 11.0427 25.8895 11.208C25.8095 11.3733 25.7695 11.584 25.7695 11.84V14H24.5215V11.728C24.5215 11.3813 24.4495 11.1253 24.3055 10.96C24.1668 10.7947 23.9668 10.712 23.7055 10.712C23.5242 10.712 23.3615 10.7547 23.2175 10.84C23.0735 10.92 22.9615 11.0427 22.8815 11.208C22.8015 11.3733 22.7615 11.584 22.7615 11.84V14H21.5135V9.696H22.7055V10.872L22.4815 10.528C22.6308 10.2347 22.8415 10.0133 23.1135 9.864C23.3908 9.70934 23.7055 9.632 24.0575 9.632C24.4522 9.632 24.7962 9.73334 25.0895 9.936C25.3882 10.1333 25.5855 10.4373 25.6815 10.848L25.2415 10.728C25.3855 10.392 25.6148 10.1253 25.9295 9.928C26.2495 9.73067 26.6148 9.632 27.0255 9.632Z" fill="url(#paint3_linear_1_15)"/>
<path d="M32.0714 14.064C31.5807 14.064 31.1487 13.968 30.7754 13.776C30.4074 13.584 30.122 13.3227 29.9194 12.992C29.7167 12.656 29.6154 12.2747 29.6154 11.848C29.6154 11.416 29.714 11.0347 29.9114 10.704C30.114 10.368 30.3887 10.1067 30.7354 9.92C31.082 9.728 31.474 9.632 31.9114 9.632C32.3327 9.632 32.7114 9.72267 33.0474 9.904C33.3887 10.08 33.658 10.336 33.8554 10.672C34.0527 11.0027 34.1514 11.4 34.1514 11.864C34.1514 11.912 34.1487 11.968 34.1434 12.032C34.138 12.0907 34.1327 12.1467 34.1274 12.2H30.6314V11.472H33.4714L32.9914 11.688C32.9914 11.464 32.946 11.2693 32.8554 11.104C32.7647 10.9387 32.6394 10.8107 32.4794 10.72C32.3194 10.624 32.1327 10.576 31.9194 10.576C31.706 10.576 31.5167 10.624 31.3514 10.72C31.1914 10.8107 31.066 10.9413 30.9754 11.112C30.8847 11.2773 30.8394 11.4747 30.8394 11.704V11.896C30.8394 12.1307 30.89 12.3387 30.9914 12.52C31.098 12.696 31.2447 12.832 31.4314 12.928C31.6234 13.0187 31.8474 13.064 32.1034 13.064C32.3327 13.064 32.5327 13.0293 32.7034 12.96C32.8794 12.8907 33.0394 12.7867 33.1834 12.648L33.8474 13.368C33.65 13.592 33.402 13.7653 33.1034 13.888C32.8047 14.0053 32.4607 14.064 32.0714 14.064Z" fill="url(#paint4_linear_1_15)"/>
<path d="M34.9823 14V9.696H36.1743V10.912L36.0063 10.56C36.1343 10.256 36.3396 10.0267 36.6223 9.872C36.9049 9.712 37.2489 9.632 37.6543 9.632V10.784C37.6009 10.7787 37.5529 10.776 37.5103 10.776C37.4676 10.7707 37.4223 10.768 37.3743 10.768C37.0329 10.768 36.7556 10.8667 36.5423 11.064C36.3343 11.256 36.2303 11.5573 36.2303 11.968V14H34.9823Z" fill="url(#paint5_linear_1_15)"/>
<path d="M5.65244 8.4H6.94844V14H5.65244V8.4ZM3.10844 14H1.81244V8.4H3.10844V14ZM5.74844 11.704H3.01244V10.608H5.74844V11.704Z" stroke="black" stroke-width="2" stroke-linejoin="round" mask="url(#path-1-outside-1_1_15)"/>
<path d="M10.8254 14V13.16L10.7454 12.976V11.472C10.7454 11.2053 10.6627 10.9973 10.4974 10.848C10.3374 10.6987 10.0894 10.624 9.75338 10.624C9.52404 10.624 9.29738 10.6613 9.07338 10.736C8.85471 10.8053 8.66804 10.9013 8.51338 11.024L8.06538 10.152C8.30004 9.98667 8.58271 9.85867 8.91338 9.768C9.24404 9.67734 9.58004 9.632 9.92138 9.632C10.5774 9.632 11.0867 9.78667 11.4494 10.096C11.812 10.4053 11.9934 10.888 11.9934 11.544V14H10.8254ZM9.51338 14.064C9.17738 14.064 8.88938 14.008 8.64938 13.896C8.40938 13.7787 8.22538 13.6213 8.09738 13.424C7.96938 13.2267 7.90538 13.0053 7.90538 12.76C7.90538 12.504 7.96671 12.28 8.08938 12.088C8.21738 11.896 8.41738 11.7467 8.68938 11.64C8.96138 11.528 9.31604 11.472 9.75338 11.472H10.8974V12.2H9.88938C9.59604 12.2 9.39338 12.248 9.28138 12.344C9.17471 12.44 9.12138 12.56 9.12138 12.704C9.12138 12.864 9.18271 12.992 9.30538 13.088C9.43338 13.1787 9.60671 13.224 9.82538 13.224C10.0334 13.224 10.22 13.176 10.3854 13.08C10.5507 12.9787 10.6707 12.832 10.7454 12.64L10.9374 13.216C10.8467 13.4933 10.6814 13.704 10.4414 13.848C10.2014 13.992 9.89204 14.064 9.51338 14.064Z" stroke="black" stroke-width="2" stroke-linejoin="round" mask="url(#path-1-outside-1_1_15)"/>
<path d="M18.6349 9.632C18.9762 9.632 19.2775 9.70134 19.5389 9.84C19.8055 9.97333 20.0135 10.1813 20.1629 10.464C20.3175 10.7413 20.3949 11.0987 20.3949 11.536V14H19.1469V11.728C19.1469 11.3813 19.0749 11.1253 18.9309 10.96C18.7869 10.7947 18.5842 10.712 18.3229 10.712C18.1415 10.712 17.9789 10.7547 17.8349 10.84C17.6909 10.92 17.5789 11.0427 17.4989 11.208C17.4189 11.3733 17.3789 11.584 17.3789 11.84V14H16.1309V11.728C16.1309 11.3813 16.0589 11.1253 15.9149 10.96C15.7762 10.7947 15.5762 10.712 15.3149 10.712C15.1335 10.712 14.9709 10.7547 14.8269 10.84C14.6829 10.92 14.5709 11.0427 14.4909 11.208C14.4109 11.3733 14.3709 11.584 14.3709 11.84V14H13.1229V9.696H14.3149V10.872L14.0909 10.528C14.2402 10.2347 14.4509 10.0133 14.7229 9.864C15.0002 9.70934 15.3149 9.632 15.6669 9.632C16.0615 9.632 16.4055 9.73334 16.6989 9.936C16.9975 10.1333 17.1949 10.4373 17.2909 10.848L16.8509 10.728C16.9949 10.392 17.2242 10.1253 17.5389 9.928C17.8589 9.73067 18.2242 9.632 18.6349 9.632Z" stroke="black" stroke-width="2" stroke-linejoin="round" mask="url(#path-1-outside-1_1_15)"/>
<path d="M27.0255 9.632C27.3668 9.632 27.6682 9.70134 27.9295 9.84C28.1962 9.97333 28.4042 10.1813 28.5535 10.464C28.7082 10.7413 28.7855 11.0987 28.7855 11.536V14H27.5375V11.728C27.5375 11.3813 27.4655 11.1253 27.3215 10.96C27.1775 10.7947 26.9748 10.712 26.7135 10.712C26.5322 10.712 26.3695 10.7547 26.2255 10.84C26.0815 10.92 25.9695 11.0427 25.8895 11.208C25.8095 11.3733 25.7695 11.584 25.7695 11.84V14H24.5215V11.728C24.5215 11.3813 24.4495 11.1253 24.3055 10.96C24.1668 10.7947 23.9668 10.712 23.7055 10.712C23.5242 10.712 23.3615 10.7547 23.2175 10.84C23.0735 10.92 22.9615 11.0427 22.8815 11.208C22.8015 11.3733 22.7615 11.584 22.7615 11.84V14H21.5135V9.696H22.7055V10.872L22.4815 10.528C22.6308 10.2347 22.8415 10.0133 23.1135 9.864C23.3908 9.70934 23.7055 9.632 24.0575 9.632C24.4522 9.632 24.7962 9.73334 25.0895 9.936C25.3882 10.1333 25.5855 10.4373 25.6815 10.848L25.2415 10.728C25.3855 10.392 25.6148 10.1253 25.9295 9.928C26.2495 9.73067 26.6148 9.632 27.0255 9.632Z" stroke="black" stroke-width="2" stroke-linejoin="round" mask="url(#path-1-outside-1_1_15)"/>
<path d="M32.0714 14.064C31.5807 14.064 31.1487 13.968 30.7754 13.776C30.4074 13.584 30.122 13.3227 29.9194 12.992C29.7167 12.656 29.6154 12.2747 29.6154 11.848C29.6154 11.416 29.714 11.0347 29.9114 10.704C30.114 10.368 30.3887 10.1067 30.7354 9.92C31.082 9.728 31.474 9.632 31.9114 9.632C32.3327 9.632 32.7114 9.72267 33.0474 9.904C33.3887 10.08 33.658 10.336 33.8554 10.672C34.0527 11.0027 34.1514 11.4 34.1514 11.864C34.1514 11.912 34.1487 11.968 34.1434 12.032C34.138 12.0907 34.1327 12.1467 34.1274 12.2H30.6314V11.472H33.4714L32.9914 11.688C32.9914 11.464 32.946 11.2693 32.8554 11.104C32.7647 10.9387 32.6394 10.8107 32.4794 10.72C32.3194 10.624 32.1327 10.576 31.9194 10.576C31.706 10.576 31.5167 10.624 31.3514 10.72C31.1914 10.8107 31.066 10.9413 30.9754 11.112C30.8847 11.2773 30.8394 11.4747 30.8394 11.704V11.896C30.8394 12.1307 30.89 12.3387 30.9914 12.52C31.098 12.696 31.2447 12.832 31.4314 12.928C31.6234 13.0187 31.8474 13.064 32.1034 13.064C32.3327 13.064 32.5327 13.0293 32.7034 12.96C32.8794 12.8907 33.0394 12.7867 33.1834 12.648L33.8474 13.368C33.65 13.592 33.402 13.7653 33.1034 13.888C32.8047 14.0053 32.4607 14.064 32.0714 14.064Z" stroke="black" stroke-width="2" stroke-linejoin="round" mask="url(#path-1-outside-1_1_15)"/>
<path d="M34.9823 14V9.696H36.1743V10.912L36.0063 10.56C36.1343 10.256 36.3396 10.0267 36.6223 9.872C36.9049 9.712 37.2489 9.632 37.6543 9.632V10.784C37.6009 10.7787 37.5529 10.776 37.5103 10.776C37.4676 10.7707 37.4223 10.768 37.3743 10.768C37.0329 10.768 36.7556 10.8667 36.5423 11.064C36.3343 11.256 36.2303 11.5573 36.2303 11.968V14H34.9823Z" stroke="black" stroke-width="2" stroke-linejoin="round" mask="url(#path-1-outside-1_1_15)"/>
<rect x="25.5617" y="8.11502" width="7.125" height="3.125" rx="0.8125" transform="rotate(-75.884 25.5617 8.11502)" fill="url(#paint6_linear_1_15)" stroke="black" stroke-width="1.125"/>
<mask id="path-3-outside-2_1_15" maskUnits="userSpaceOnUse" x="28.306" y="2.86054" width="10.9175" height="7.28788" fill="black">
<rect fill="white" x="28.306" y="2.86054" width="10.9175" height="7.28788"/>
<path d="M28.7937 5.76995L29.0376 4.80015L36.3113 6.62933C36.579 6.69666 36.7415 6.96825 36.6742 7.23596C36.6068 7.50386 36.335 7.66642 36.0671 7.59905L28.7937 5.76995Z"/>
</mask>
<path d="M28.7937 5.76995L29.0376 4.80015L36.3113 6.62933C36.579 6.69666 36.7415 6.96825 36.6742 7.23596C36.6068 7.50386 36.335 7.66642 36.0671 7.59905L28.7937 5.76995Z" fill="url(#paint7_linear_1_15)"/>
<path d="M28.7937 5.76995L29.0376 4.80015L28.7937 5.76995ZM36.5857 5.5383C37.456 5.75716 37.984 6.64006 37.7652 7.51033C37.5463 8.38079 36.6632 8.90898 35.7927 8.69008L35.705 6.47686L35.4611 7.44666L36.5857 5.5383ZM37.7652 7.51033C37.5463 8.38079 36.6632 8.90898 35.7927 8.69008L28.5194 6.86098L29.0376 4.80015L36.3113 6.62933C36.4399 6.66166 36.5503 6.74374 36.6184 6.8575C36.6864 6.97126 36.7065 7.1074 36.6742 7.23596L37.7652 7.51033ZM29.312 3.70912L36.5857 5.5383C37.456 5.75716 37.984 6.64006 37.7652 7.51033L36.6742 7.23596C36.6418 7.36461 36.5597 7.47514 36.4458 7.54323C36.332 7.61132 36.1957 7.6314 36.0671 7.59905L29.2788 5.89194L28.7937 5.76995L29.312 3.70912Z" fill="black" mask="url(#path-3-outside-2_1_15)"/>
</g>
<defs>
<linearGradient id="paint0_linear_1_15" x1="19.5" y1="6" x2="19.5" y2="16" gradientUnits="userSpaceOnUse">
<stop stop-color="#00D1FF"/>
<stop offset="1" stop-color="#001AFF"/>
</linearGradient>
<linearGradient id="paint1_linear_1_15" x1="19.5" y1="6" x2="19.5" y2="16" gradientUnits="userSpaceOnUse">
<stop stop-color="#00D1FF"/>
<stop offset="1" stop-color="#001AFF"/>
</linearGradient>
<linearGradient id="paint2_linear_1_15" x1="19.5" y1="6" x2="19.5" y2="16" gradientUnits="userSpaceOnUse">
<stop stop-color="#00D1FF"/>
<stop offset="1" stop-color="#001AFF"/>
</linearGradient>
<linearGradient id="paint3_linear_1_15" x1="19.5" y1="6" x2="19.5" y2="16" gradientUnits="userSpaceOnUse">
<stop stop-color="#00D1FF"/>
<stop offset="1" stop-color="#001AFF"/>
</linearGradient>
<linearGradient id="paint4_linear_1_15" x1="19.5" y1="6" x2="19.5" y2="16" gradientUnits="userSpaceOnUse">
<stop stop-color="#00D1FF"/>
<stop offset="1" stop-color="#001AFF"/>
</linearGradient>
<linearGradient id="paint5_linear_1_15" x1="19.5" y1="6" x2="19.5" y2="16" gradientUnits="userSpaceOnUse">
<stop stop-color="#00D1FF"/>
<stop offset="1" stop-color="#001AFF"/>
</linearGradient>
<linearGradient id="paint6_linear_1_15" x1="29.2444" y1="7.70669" x2="29.2444" y2="9.70669" gradientUnits="userSpaceOnUse">
<stop stop-color="#C9C9C9"/>
<stop offset="1" stop-color="#9A9A9A"/>
</linearGradient>
<linearGradient id="paint7_linear_1_15" x1="28.9157" y1="5.28505" x2="36.6741" y2="7.23613" gradientUnits="userSpaceOnUse">
<stop stop-color="#A45F20"/>
<stop offset="1" stop-color="#7B4717"/>
</linearGradient>
<clipPath id="clip0_1_15">
<rect width="39" height="16" fill="white"/>
</clipPath>
</defs>
</svg>
