<svg width="61" height="30" viewBox="0 0 61 30" fill="none" xmlns="http://www.w3.org/2000/svg">
<g clip-path="url(#clip0_401_109)">
<rect width="60" height="30" transform="translate(0.5)" fill="#FFC3D2"/>
<path d="M43.953 0.677608L45.3192 5.8894L50.165 8.24481L44.9532 9.61104L42.5978 14.4568L41.2315 9.24501L36.3858 6.8896L41.5976 5.52337L43.953 0.677608Z" fill="#FFA450"/>
<path d="M40.2416 17.5098L42.4721 21.6632L47.0769 22.6736L42.9235 24.904L41.9131 29.5089L39.6827 25.3555L35.0778 24.3451L39.2312 22.1146L40.2416 17.5098Z" fill="#FF6F50"/>
<path d="M15.1775 6.9744L16.8604 10.6482L20.7448 11.762L17.071 13.445L15.9572 17.3293L14.2743 13.6556L10.3899 12.5417L14.0637 10.8588L15.1775 6.9744Z" fill="#FF50A4" fill-opacity="0.92"/>
<path d="M23.2642 16.2573C23.0894 16.4529 23.1062 16.7532 23.3018 16.928C23.4974 17.1028 23.7977 17.086 23.9725 16.8904L23.2642 16.2573ZM25.9299 13.275L23.2642 16.2573L23.9725 16.8904L26.6382 13.9081L25.9299 13.275Z" fill="#131313"/>
<path d="M35.8348 13.41C35.8665 13.9748 38.032 14.7033 40.0312 12.4665C41.6972 10.6025 43.9735 13.3078 42.7595 16.9169C41.61 20.3343 38.9359 18.1937 37.1907 18.6456" stroke="#131313" stroke-width="0.8"/>
<path d="M28.6939 13.9575L28.6939 13.9575C28.749 13.9201 28.7994 13.876 28.8438 13.8263L30.238 12.2665C30.6318 12.4068 31.3079 12.656 32.0219 12.9566C32.8937 13.3237 33.7648 13.7443 34.264 14.1179C34.5889 14.361 35.0797 14.3524 35.3834 14.0126L35.8142 13.5306C35.9583 13.3694 36.0324 13.1576 36.0203 12.9418L35.9548 11.7745C35.9388 11.4887 35.774 11.2323 35.5206 11.0989L32.2366 9.3708C32.1429 9.02499 31.9078 8.47175 31.3254 7.95115C30.6354 7.33445 29.955 7.20762 29.6414 7.1848C29.3721 7.16522 29.1476 7.28899 29.007 7.44628L25.7645 11.0741C25.7201 11.1237 25.6819 11.1787 25.6509 11.2377L24.7961 12.8621C24.622 13.193 24.6954 13.6 24.9742 13.8492L26.1743 14.9219C26.4532 15.1711 26.8658 15.1986 27.1752 14.9885L28.6939 13.9575Z" fill="url(#paint0_linear_401_109)" stroke="black" stroke-width="1.13"/>
<path d="M20.039 22C20.039 22.2761 20.2629 22.5 20.539 22.5H23.083C23.7545 22.5 24.3686 22.3731 24.9125 22.1042L24.9126 22.1043L24.9167 22.1022C25.4568 21.829 25.8899 21.4434 26.2024 20.946L26.2039 20.9435C26.3652 20.6835 26.4833 20.4037 26.5604 20.1066V22C26.5604 22.2761 26.7842 22.5 27.0604 22.5H28.3084C28.5845 22.5 28.8084 22.2761 28.8084 22V19.968C28.8084 19.6331 28.893 19.4928 28.9595 19.4314L28.9599 19.431C29.065 19.3339 29.2135 19.268 29.4524 19.268C29.482 19.268 29.5065 19.2697 29.5264 19.2721C29.5469 19.2747 29.5676 19.276 29.5884 19.276C29.6109 19.276 29.6418 19.2774 29.6826 19.2815C29.7877 19.292 29.8923 19.269 29.9823 19.2171V22C29.9823 22.2761 30.2061 22.5 30.4823 22.5H31.7303C32.0064 22.5 32.2303 22.2761 32.2303 22V17.696C32.2303 17.5175 32.1367 17.3608 31.9959 17.2723C32.0016 17.2671 32.0072 17.2618 32.0128 17.2564L32.0131 17.2562C32.2593 17.019 32.3823 16.7137 32.3823 16.376C32.3823 16.0411 32.2527 15.7407 31.9945 15.5188C31.7428 15.297 31.4318 15.204 31.1063 15.204C30.7736 15.204 30.4583 15.304 30.2065 15.5371C29.9597 15.7657 29.8303 16.0643 29.8303 16.4C29.8303 16.7357 29.9597 17.0343 30.2065 17.2629L30.5463 16.896L30.2065 17.2629C30.2099 17.266 30.2133 17.2691 30.2168 17.2722C30.1874 17.2906 30.1602 17.312 30.1353 17.3359C30.0443 17.2123 29.8977 17.132 29.7324 17.132C29.3286 17.132 28.9521 17.2005 28.6169 17.3538C28.5257 17.2567 28.3961 17.196 28.2524 17.196H27.0604C26.7842 17.196 26.5604 17.4199 26.5604 17.696V18.2894C26.4832 17.9918 26.3647 17.7124 26.2024 17.454C25.8896 16.9561 25.4558 16.5727 24.9146 16.3048C24.3702 16.0299 23.7553 15.9 23.083 15.9H20.539C20.2629 15.9 20.039 16.1239 20.039 16.4V22ZM24.1967 19.8653L24.1967 19.8653L24.1929 19.8719C24.0934 20.046 23.9529 20.182 23.7583 20.2834C23.5708 20.3786 23.3298 20.436 23.019 20.436H22.335V17.964H23.019C23.328 17.964 23.5669 18.0234 23.7531 18.1219L23.753 18.122L23.7634 18.1272C23.9553 18.2231 24.0941 18.3551 24.1929 18.5281L24.1928 18.5281L24.199 18.5386C24.2981 18.7026 24.359 18.9159 24.359 19.2C24.359 19.4769 24.2989 19.6927 24.1967 19.8653ZM32.3885 22C32.3885 22.2761 32.6124 22.5 32.8885 22.5H34.1365C34.4126 22.5 34.6365 22.2761 34.6365 22V16.064C34.6365 15.7879 34.4126 15.564 34.1365 15.564H32.8885C32.6124 15.564 32.3885 15.7879 32.3885 16.064V22ZM34.7948 22C34.7948 22.2761 35.0186 22.5 35.2948 22.5H36.5428C36.8189 22.5 37.0428 22.2761 37.0428 22V16.064C37.0428 15.7879 36.8189 15.564 36.5428 15.564H35.2948C35.0186 15.564 34.7948 15.7879 34.7948 16.064V22Z" fill="url(#paint1_linear_401_109)" stroke="black" stroke-linejoin="round"/>
</g>
<defs>
<linearGradient id="paint0_linear_401_109" x1="26.284" y1="13.5915" x2="40.46" y2="7.48494" gradientUnits="userSpaceOnUse">
<stop stop-color="#FF5C00"/>
<stop offset="0.224522" stop-color="#FF00D6"/>
<stop offset="0.479167" stop-color="#868686"/>
</linearGradient>
<linearGradient id="paint1_linear_401_109" x1="28.5" y1="16" x2="28.5" y2="22" gradientUnits="userSpaceOnUse">
<stop stop-color="#FF00D6"/>
<stop offset="1" stop-color="#FF5C00"/>
</linearGradient>
<clipPath id="clip0_401_109">
<rect width="60" height="30" fill="white" transform="translate(0.5)"/>
</clipPath>
</defs>
</svg>
