<svg width="60" height="30" viewBox="0 0 60 30" fill="none" xmlns="http://www.w3.org/2000/svg">
<g clip-path="url(#clip0_401_109)">
<rect width="60" height="30" fill="#FFC3D2"/>
<path d="M43.453 0.677608L44.8192 5.8894L49.665 8.24481L44.4532 9.61104L42.0978 14.4568L40.7315 9.24501L35.8858 6.8896L41.0976 5.52337L43.453 0.677608Z" fill="#FFA450"/>
<path d="M39.7416 17.5098L41.9721 21.6632L46.5769 22.6736L42.4235 24.904L41.4131 29.5089L39.1827 25.3555L34.5778 24.3451L38.7312 22.1146L39.7416 17.5098Z" fill="#FF6F50"/>
<path d="M14.6775 6.9744L16.3604 10.6482L20.2448 11.762L16.571 13.445L15.4572 17.3293L13.7743 13.6556L9.88988 12.5417L13.5637 10.8588L14.6775 6.9744Z" fill="#FF50A4" fill-opacity="0.92"/>
<path d="M22.7642 16.2573C22.5894 16.4529 22.6062 16.7532 22.8018 16.928C22.9974 17.1028 23.2977 17.086 23.4725 16.8904L22.7642 16.2573ZM25.4299 13.275L22.7642 16.2573L23.4725 16.8904L26.1382 13.9081L25.4299 13.275Z" fill="#131313"/>
<path d="M35.3348 13.41C35.3664 13.9748 37.5319 14.7033 39.5312 12.4665C41.1972 10.6025 43.4735 13.3078 42.2595 16.9169C41.11 20.3343 38.4359 18.1937 36.6907 18.6456" stroke="#131313" stroke-width="0.8"/>
<path d="M28.1939 13.9575L28.1939 13.9575C28.249 13.9201 28.2994 13.876 28.3438 13.8263L29.738 12.2665C30.1318 12.4068 30.8079 12.656 31.5219 12.9566C32.3937 13.3237 33.2648 13.7443 33.764 14.1179C34.0889 14.361 34.5797 14.3524 34.8834 14.0126L35.3142 13.5306C35.4583 13.3694 35.5324 13.1576 35.5203 12.9418L35.4548 11.7745C35.4388 11.4887 35.274 11.2323 35.0206 11.0989L31.7366 9.3708C31.6429 9.02499 31.4078 8.47175 30.8254 7.95115C30.1354 7.33445 29.455 7.20762 29.1414 7.1848C28.8721 7.16522 28.6476 7.28899 28.507 7.44628L25.2645 11.0741C25.2201 11.1237 25.1819 11.1787 25.1509 11.2377L24.2961 12.8621C24.122 13.193 24.1954 13.6 24.4742 13.8492L25.6743 14.9219C25.9532 15.1711 26.3658 15.1986 26.6752 14.9885L28.1939 13.9575Z" fill="url(#paint0_linear_401_109)" stroke="black" stroke-width="1.13"/>
<path d="M19.539 22C19.539 22.2761 19.7629 22.5 20.039 22.5H22.583C23.2545 22.5 23.8686 22.3731 24.4125 22.1042L24.4126 22.1043L24.4167 22.1022C24.9568 21.829 25.3899 21.4434 25.7024 20.946L25.7039 20.9435C25.8652 20.6835 25.9833 20.4037 26.0604 20.1066V22C26.0604 22.2761 26.2842 22.5 26.5604 22.5H27.8084C28.0845 22.5 28.3084 22.2761 28.3084 22V19.968C28.3084 19.6331 28.393 19.4928 28.4595 19.4314L28.4599 19.431C28.565 19.3339 28.7135 19.268 28.9524 19.268C28.982 19.268 29.0065 19.2697 29.0264 19.2721C29.0469 19.2747 29.0676 19.276 29.0884 19.276C29.1109 19.276 29.1418 19.2774 29.1826 19.2815C29.2877 19.292 29.3923 19.269 29.4822 19.2171V22C29.4822 22.2761 29.7061 22.5 29.9822 22.5H31.2302C31.5064 22.5 31.7302 22.2761 31.7302 22V17.696C31.7302 17.5175 31.6367 17.3608 31.4959 17.2723C31.5016 17.2671 31.5072 17.2618 31.5128 17.2564L31.5131 17.2562C31.7593 17.019 31.8822 16.7137 31.8822 16.376C31.8822 16.0411 31.7527 15.7407 31.4945 15.5188C31.2428 15.297 30.9318 15.204 30.6062 15.204C30.2736 15.204 29.9583 15.304 29.7065 15.5371C29.4597 15.7657 29.3302 16.0643 29.3302 16.4C29.3302 16.7357 29.4597 17.0343 29.7065 17.2629L30.0462 16.896L29.7065 17.2629C29.7099 17.266 29.7133 17.2691 29.7168 17.2722C29.6874 17.2906 29.6601 17.312 29.6353 17.3359C29.5443 17.2123 29.3977 17.132 29.2324 17.132C28.8286 17.132 28.4521 17.2005 28.1169 17.3538C28.0257 17.2567 27.8961 17.196 27.7524 17.196H26.5604C26.2842 17.196 26.0604 17.4199 26.0604 17.696V18.2894C25.9832 17.9918 25.8647 17.7124 25.7024 17.454C25.3896 16.9562 24.9558 16.5727 24.4146 16.3048C23.8702 16.0299 23.2553 15.9 22.583 15.9H20.039C19.7629 15.9 19.539 16.1239 19.539 16.4V22ZM23.6967 19.8653L23.6967 19.8653L23.6929 19.8719C23.5934 20.046 23.4529 20.182 23.2583 20.2834C23.0708 20.3786 22.8298 20.436 22.519 20.436H21.835V17.964H22.519C22.828 17.964 23.0669 18.0234 23.2531 18.1219L23.253 18.122L23.2634 18.1272C23.4553 18.2231 23.5941 18.3551 23.6929 18.5281L23.6927 18.5281L23.699 18.5386C23.7981 18.7026 23.859 18.9159 23.859 19.2C23.859 19.4769 23.7989 19.6927 23.6967 19.8653ZM31.8885 22C31.8885 22.2761 32.1124 22.5 32.3885 22.5H33.6365C33.9126 22.5 34.1365 22.2761 34.1365 22V16.064C34.1365 15.7879 33.9126 15.564 33.6365 15.564H32.3885C32.1124 15.564 31.8885 15.7879 31.8885 16.064V22ZM34.2947 22C34.2947 22.2761 34.5186 22.5 34.7947 22.5H36.0427C36.3189 22.5 36.5427 22.2761 36.5427 22V16.064C36.5427 15.7879 36.3189 15.564 36.0427 15.564H34.7947C34.5186 15.564 34.2947 15.7879 34.2947 16.064V22Z" fill="url(#paint1_linear_401_109)" stroke="black" stroke-linejoin="round"/>
</g>
<defs>
<linearGradient id="paint0_linear_401_109" x1="25.784" y1="13.5915" x2="39.96" y2="7.48494" gradientUnits="userSpaceOnUse">
<stop stop-color="#FF5C00"/>
<stop offset="0.224522" stop-color="#FF00D6"/>
<stop offset="0.479167" stop-color="#868686"/>
</linearGradient>
<linearGradient id="paint1_linear_401_109" x1="28" y1="16" x2="28" y2="22" gradientUnits="userSpaceOnUse">
<stop stop-color="#FF00D6"/>
<stop offset="1" stop-color="#FF5C00"/>
</linearGradient>
<clipPath id="clip0_401_109">
<rect width="60" height="30" fill="white"/>
</clipPath>
</defs>
</svg>
