<svg width="14" height="12" viewBox="0 0 14 12" fill="none" xmlns="http://www.w3.org/2000/svg">
<path d="M1 3.025C0.737665 3.025 0.525 3.23766 0.525 3.5C0.525 3.76234 0.737665 3.975 1 3.975V3.025ZM5 3.025H1V3.975H5V3.025Z" fill="#131313"/>
<path d="M6.33311 5.54067L6.33311 5.54067C6.39775 5.55683 6.46414 5.565 6.53078 5.565H8.62291C8.78072 5.95209 9.04549 6.62236 9.29711 7.35498C9.6044 8.24966 9.87139 9.17941 9.92547 9.80055C9.96067 10.2048 10.2942 10.565 10.75 10.565H11.3964C11.6126 10.565 11.8199 10.4791 11.9727 10.3263L12.7994 9.4996C13.0019 9.29717 13.0832 9.00338 13.0138 8.72565L12.1137 5.12544C12.3091 4.82512 12.565 4.28121 12.565 3.5C12.565 2.5746 12.2062 1.9828 12.0141 1.73372C11.8493 1.51993 11.6074 1.435 11.3964 1.435H6.53078C6.46414 1.435 6.39776 1.44317 6.33311 1.45933L4.55233 1.90453C4.18952 1.99523 3.935 2.32122 3.935 2.69519V4.30481C3.935 4.67878 4.18952 5.00477 4.55233 5.09547L6.33311 5.54067Z" fill="url(#paint0_linear_401_25)" stroke="black" stroke-width="1.13"/>
<defs>
<linearGradient id="paint0_linear_401_25" x1="5" y1="3.5" x2="19" y2="10" gradientUnits="userSpaceOnUse">
<stop stop-color="#FF5C00"/>
<stop offset="0.224522" stop-color="#FF00D6"/>
<stop offset="0.479167" stop-color="#868686"/>
</linearGradient>
</defs>
</svg>
