<svg width="16" height="16" viewBox="0 0 16 16" fill="none" xmlns="http://www.w3.org/2000/svg">
<g clip-path="url(#clip0_1_17)">
<rect width="16" height="16" fill="#FFC4D2"/>
<path d="M14.2308 0.791522L15.0202 3.80289L17.8201 5.16383L14.8087 5.95324L13.4478 8.75311L12.6584 5.74174L9.85848 4.38079L12.8698 3.59139L14.2308 0.791522Z" fill="#FFA450"/>
<path d="M13.242 10.5171L14.5307 12.9169L17.1914 13.5007L14.7916 14.7895L14.2078 17.4502L12.919 15.0503L10.2583 14.4665L12.6582 13.1778L13.242 10.5171Z" fill="#FF6F50"/>
<path d="M1.64897 4.42979L2.62138 6.55249L4.86577 7.19605L2.74307 8.16846L2.09951 10.4128L1.1271 8.29015L-1.11729 7.64659L1.00541 6.67418L1.64897 4.42979Z" fill="#FF50A4" fill-opacity="0.92"/>
<path d="M2.41603 2.35037C2.17279 2.25209 1.89595 2.36961 1.79768 2.61284C1.6994 2.85607 1.81692 3.13292 2.06015 3.23119L2.41603 2.35037ZM6.12476 3.84879L2.41603 2.35037L2.06015 3.23119L5.76889 4.72962L6.12476 3.84879Z" fill="#131313"/>
<path d="M9.35127 13.2144C8.83056 13.4355 7.8828 14.4888 7.95116 15.3451C8.01049 16.0881 8.77816 17.8363 11.3743 18.8852C13.9704 19.9341 14.301 22.764 14.9754 24.6543" stroke="#131313" stroke-width="0.8"/>
<path d="M6.41842 6.68067L6.41842 6.68067C6.4723 6.71987 6.53079 6.75232 6.59257 6.77728L8.53237 7.56101C8.53368 7.97903 8.52808 8.69967 8.48694 9.47321C8.4367 10.4179 8.33595 11.3799 8.15341 11.9761C8.03461 12.3641 8.20894 12.823 8.63154 12.9937L9.23091 13.2359C9.43132 13.3169 9.65569 13.3149 9.85466 13.2305L10.9308 12.7737C11.1944 12.6618 11.3799 12.4199 11.4195 12.1364L11.9337 8.46114C12.2273 8.25589 12.6683 7.84743 12.961 7.12311C13.3076 6.26509 13.1966 5.58196 13.1119 5.27909C13.0391 5.01912 12.8467 4.84975 12.6511 4.77072L8.1397 2.94801C8.07792 2.92305 8.0133 2.90576 7.94731 2.89653L6.12943 2.64221C5.75906 2.5904 5.40095 2.7973 5.26086 3.14405L4.65789 4.63645C4.51779 4.9832 4.63167 5.38079 4.93408 5.6008L6.41842 6.68067Z" fill="url(#paint0_linear_1_17)" stroke="black" stroke-width="1.13"/>
</g>
<defs>
<linearGradient id="paint0_linear_1_17" x1="5.94682" y1="4.28921" x2="16.4925" y2="15.5604" gradientUnits="userSpaceOnUse">
<stop stop-color="#FF5C00"/>
<stop offset="0.224522" stop-color="#FF00D6"/>
<stop offset="0.479167" stop-color="#868686"/>
</linearGradient>
<clipPath id="clip0_1_17">
<rect width="16" height="16" rx="2" fill="white"/>
</clipPath>
</defs>
</svg>
