<svg width="17" height="16" viewBox="0 0 17 16" fill="none" xmlns="http://www.w3.org/2000/svg">
<g clip-path="url(#clip0_1_17)">
<rect x="0.5" width="16" height="16" fill="#FFC4D2"/>
<path d="M14.7308 0.79152L15.5202 3.80288L18.3201 5.16383L15.3087 5.95323L13.9478 8.75311L13.1584 5.74174L10.3585 4.38079L13.3698 3.59139L14.7308 0.79152Z" fill="#FFA450"/>
<path d="M13.742 10.5171L15.0307 12.9169L17.6914 13.5007L15.2916 14.7895L14.7078 17.4502L13.419 15.0503L10.7583 14.4665L13.1582 13.1778L13.742 10.5171Z" fill="#FF6F50"/>
<path d="M2.14897 4.42979L3.12138 6.55249L5.36577 7.19605L3.24307 8.16846L2.59951 10.4128L1.6271 8.29015L-0.617293 7.64659L1.50541 6.67418L2.14897 4.42979Z" fill="#FF50A4" fill-opacity="0.92"/>
<path d="M2.91603 2.35036C2.67279 2.25209 2.39595 2.3696 2.29768 2.61284C2.1994 2.85607 2.31692 3.13292 2.56015 3.23119L2.91603 2.35036ZM6.62476 3.84879L2.91603 2.35036L2.56015 3.23119L6.26889 4.72961L6.62476 3.84879Z" fill="#131313"/>
<path d="M9.85127 13.2144C9.33056 13.4355 8.3828 14.4888 8.45116 15.3451C8.51049 16.0881 9.27816 17.8363 11.8743 18.8852C14.4704 19.9341 14.801 22.764 15.4754 24.6543" stroke="#131313" stroke-width="0.8"/>
<path d="M6.91842 6.68067L6.91842 6.68067C6.9723 6.71987 7.03079 6.75231 7.09257 6.77728L9.03237 7.561C9.03368 7.97903 9.02808 8.69967 8.98694 9.4732C8.9367 10.4178 8.83595 11.3799 8.65341 11.9761C8.53461 12.3641 8.70894 12.823 9.13154 12.9937L9.73091 13.2359C9.93132 13.3169 10.1557 13.3149 10.3547 13.2305L11.4308 12.7737C11.6944 12.6618 11.8799 12.4199 11.9195 12.1364L12.4337 8.46114C12.7273 8.25588 13.1683 7.84742 13.461 7.1231C13.8076 6.26508 13.6966 5.58195 13.6119 5.27908C13.5391 5.01912 13.3467 4.84974 13.1511 4.77072L8.6397 2.94801C8.57792 2.92304 8.5133 2.90575 8.44731 2.89652L6.62943 2.64221C6.25906 2.59039 5.90095 2.7973 5.76086 3.14404L5.15789 4.63645C5.01779 4.98319 5.13167 5.38079 5.43408 5.6008L6.91842 6.68067Z" fill="url(#paint0_linear_1_17)" stroke="black" stroke-width="1.13"/>
</g>
<defs>
<linearGradient id="paint0_linear_1_17" x1="6.44682" y1="4.2892" x2="16.9925" y2="15.5604" gradientUnits="userSpaceOnUse">
<stop stop-color="#FF5C00"/>
<stop offset="0.224522" stop-color="#FF00D6"/>
<stop offset="0.479167" stop-color="#868686"/>
</linearGradient>
<clipPath id="clip0_1_17">
<rect x="0.5" width="16" height="16" rx="2" fill="white"/>
</clipPath>
</defs>
</svg>
