<svg width="17" height="16" viewBox="0 0 17 16" fill="none" xmlns="http://www.w3.org/2000/svg">
<g clip-path="url(#clip0_401_61)">
<rect x="0.5" width="16" height="16" fill="url(#paint0_linear_401_61)"/>
<path d="M5.5 11.5H8.5V11H5.5V11.5ZM5.875 7H8.125C8.225 7 8.3125 6.9625 8.3875 6.8875C8.4625 6.8125 8.5 6.725 8.5 6.625C8.5 6.525 8.4625 6.4375 8.3875 6.3625C8.3125 6.2875 8.225 6.25 8.125 6.25H5.875C5.775 6.25 5.6875 6.2875 5.6125 6.3625C5.5375 6.4375 5.5 6.525 5.5 6.625C5.5 6.725 5.5375 6.8125 5.6125 6.8875C5.6875 6.9625 5.775 7 5.875 7ZM5.875 5.75H8.125C8.225 5.75 8.3125 5.7125 8.3875 5.6375C8.4625 5.5625 8.5 5.475 8.5 5.375C8.5 5.275 8.4625 5.1875 8.3875 5.1125C8.3125 5.0375 8.225 5 8.125 5H5.875C5.775 5 5.6875 5.0375 5.6125 5.1125C5.5375 5.1875 5.5 5.275 5.5 5.375C5.5 5.475 5.5375 5.5625 5.6125 5.6375C5.6875 5.7125 5.775 5.75 5.875 5.75ZM10.5 7.5V6.5H11.5V5.5H10.5V4.5H11.5C11.775 4.5 12.0104 4.59792 12.2063 4.79375C12.4021 4.98958 12.5 5.225 12.5 5.5H13.5C13.6417 5.5 13.7604 5.54792 13.8563 5.64375C13.9521 5.73958 14 5.85833 14 6C14 6.14167 13.9521 6.26042 13.8563 6.35625C13.7604 6.45208 13.6417 6.5 13.5 6.5H12.5C12.5 6.775 12.4021 7.01042 12.2063 7.20625C12.0104 7.40208 11.775 7.5 11.5 7.5H10.5ZM8.5 10H7.5V7.5H9.5V4.5H5.5C5.225 4.5 4.98958 4.59792 4.79375 4.79375C4.59792 4.98958 4.5 5.225 4.5 5.5V6.5C4.5 6.775 4.59792 7.01042 4.79375 7.20625C4.98958 7.40208 5.225 7.5 5.5 7.5H6.5V10H5.5V8.5C4.95 8.5 4.47917 8.30417 4.0875 7.9125C3.69583 7.52083 3.5 7.05 3.5 6.5V5.5C3.5 4.95 3.69583 4.47917 4.0875 4.0875C4.47917 3.69583 4.95 3.5 5.5 3.5H9.5C9.775 3.5 10.0104 3.59792 10.2063 3.79375C10.4021 3.98958 10.5 4.225 10.5 4.5V7.5C10.5 7.775 10.4021 8.01042 10.2063 8.20625C10.0104 8.40208 9.775 8.5 9.5 8.5H8.5V10ZM5.25 12.5C5.04167 12.5 4.86458 12.4271 4.71875 12.2813C4.57292 12.1354 4.5 11.9583 4.5 11.75V10.75C4.5 10.5417 4.57292 10.3646 4.71875 10.2188C4.86458 10.0729 5.04167 10 5.25 10H8.75C8.95833 10 9.13542 10.0729 9.28125 10.2188C9.42708 10.3646 9.5 10.5417 9.5 10.75V11.75C9.5 11.9583 9.42708 12.1354 9.28125 12.2813C9.13542 12.4271 8.95833 12.5 8.75 12.5H5.25Z" fill="white"/>
</g>
<defs>
<linearGradient id="paint0_linear_401_61" x1="8.5" y1="0" x2="8.5" y2="16" gradientUnits="userSpaceOnUse">
<stop stop-color="#C2579E"/>
<stop offset="1" stop-color="#CD8A75"/>
</linearGradient>
<clipPath id="clip0_401_61">
<rect x="0.5" width="16" height="16" rx="2" fill="white"/>
</clipPath>
</defs>
</svg>
