<svg width="16" height="16" viewBox="0 0 16 16" fill="none" xmlns="http://www.w3.org/2000/svg">
<g clip-path="url(#clip0_401_61)">
<rect width="16" height="16" fill="url(#paint0_linear_401_61)"/>
<path d="M5 11.5H8V11H5V11.5ZM5.375 7H7.625C7.725 7 7.8125 6.9625 7.8875 6.8875C7.9625 6.8125 8 6.725 8 6.625C8 6.525 7.9625 6.4375 7.8875 6.3625C7.8125 6.2875 7.725 6.25 7.625 6.25H5.375C5.275 6.25 5.1875 6.2875 5.1125 6.3625C5.0375 6.4375 5 6.525 5 6.625C5 6.725 5.0375 6.8125 5.1125 6.8875C5.1875 6.9625 5.275 7 5.375 7ZM5.375 5.75H7.625C7.725 5.75 7.8125 5.7125 7.8875 5.6375C7.9625 5.5625 8 5.475 8 5.375C8 5.275 7.9625 5.1875 7.8875 5.1125C7.8125 5.0375 7.725 5 7.625 5H5.375C5.275 5 5.1875 5.0375 5.1125 5.1125C5.0375 5.1875 5 5.275 5 5.375C5 5.475 5.0375 5.5625 5.1125 5.6375C5.1875 5.7125 5.275 5.75 5.375 5.75ZM10 7.5V6.5H11V5.5H10V4.5H11C11.275 4.5 11.5104 4.59792 11.7063 4.79375C11.9021 4.98958 12 5.225 12 5.5H13C13.1417 5.5 13.2604 5.54792 13.3562 5.64375C13.4521 5.73958 13.5 5.85833 13.5 6C13.5 6.14167 13.4521 6.26042 13.3562 6.35625C13.2604 6.45208 13.1417 6.5 13 6.5H12C12 6.775 11.9021 7.01042 11.7063 7.20625C11.5104 7.40208 11.275 7.5 11 7.5H10ZM8 10H7V7.5H9V4.5H5C4.725 4.5 4.48958 4.59792 4.29375 4.79375C4.09792 4.98958 4 5.225 4 5.5V6.5C4 6.775 4.09792 7.01042 4.29375 7.20625C4.48958 7.40208 4.725 7.5 5 7.5H6V10H5V8.5C4.45 8.5 3.97917 8.30417 3.5875 7.9125C3.19583 7.52083 3 7.05 3 6.5V5.5C3 4.95 3.19583 4.47917 3.5875 4.0875C3.97917 3.69583 4.45 3.5 5 3.5H9C9.275 3.5 9.51042 3.59792 9.70625 3.79375C9.90208 3.98958 10 4.225 10 4.5V7.5C10 7.775 9.90208 8.01042 9.70625 8.20625C9.51042 8.40208 9.275 8.5 9 8.5H8V10ZM4.75 12.5C4.54167 12.5 4.36458 12.4271 4.21875 12.2812C4.07292 12.1354 4 11.9583 4 11.75V10.75C4 10.5417 4.07292 10.3646 4.21875 10.2188C4.36458 10.0729 4.54167 10 4.75 10H8.25C8.45833 10 8.63542 10.0729 8.78125 10.2188C8.92708 10.3646 9 10.5417 9 10.75V11.75C9 11.9583 8.92708 12.1354 8.78125 12.2812C8.63542 12.4271 8.45833 12.5 8.25 12.5H4.75Z" fill="white"/>
</g>
<defs>
<linearGradient id="paint0_linear_401_61" x1="8" y1="0" x2="8" y2="16" gradientUnits="userSpaceOnUse">
<stop stop-color="#C2579E"/>
<stop offset="1" stop-color="#CD8A75"/>
</linearGradient>
<clipPath id="clip0_401_61">
<rect width="16" height="16" rx="2" fill="white"/>
</clipPath>
</defs>
</svg>
