<svg width="26" height="18" viewBox="0 0 26 18" fill="none" xmlns="http://www.w3.org/2000/svg">
<path d="M4.76423 10.2573C4.58941 10.4529 4.60624 10.7532 4.80184 10.928C4.99743 11.1029 5.29771 11.086 5.47254 10.8904L4.76423 10.2573ZM7.42986 7.27498L4.76423 10.2573L5.47254 10.8904L8.13817 7.90807L7.42986 7.27498Z" fill="#131313"/>
<path d="M17.3348 7.41005C17.3664 7.97485 19.5319 8.70328 21.5312 6.46652C23.1972 4.60255 25.4735 7.30777 24.2595 10.9169C23.11 14.3343 20.4359 12.1937 18.6907 12.6457" stroke="#131313" stroke-width="0.8"/>
<path d="M10.1939 7.95749L10.1939 7.95749C10.249 7.92006 10.2994 7.87601 10.3438 7.82633L11.738 6.26645C12.1318 6.40676 12.8079 6.65602 13.5219 6.95663C14.3937 7.32375 15.2648 7.74428 15.764 8.11788C16.0889 8.36104 16.5797 8.35239 16.8834 8.01256L17.3142 7.53058C17.4583 7.36942 17.5324 7.15764 17.5203 6.94183L17.4548 5.77455C17.4388 5.48872 17.274 5.23225 17.0206 5.09894L13.7366 3.3708C13.6429 3.02499 13.4078 2.47175 12.8254 1.95115C12.1354 1.33446 11.455 1.20762 11.1414 1.18481C10.8721 1.16523 10.6476 1.28899 10.507 1.44628L7.26449 5.07406C7.22009 5.12375 7.18194 5.17869 7.15091 5.23766L6.29612 6.86206C6.12196 7.19302 6.1954 7.60003 6.47423 7.84925L7.67434 8.9219C7.95317 9.17112 8.36584 9.1986 8.67525 8.98853L10.1939 7.95749Z" fill="url(#paint0_linear_401_35)" stroke="black" stroke-width="1.13"/>
<path d="M1.539 16C1.539 16.2761 1.76286 16.5 2.039 16.5H4.583C5.25448 16.5 5.8686 16.3731 6.41254 16.1042L6.41255 16.1043L6.41666 16.1022C6.95678 15.829 7.38988 15.4434 7.70239 14.946L7.7039 14.9436C7.86521 14.6835 7.98329 14.4037 8.06038 14.1066V16C8.06038 16.2761 8.28423 16.5 8.56038 16.5H9.80837C10.0845 16.5 10.3084 16.2761 10.3084 16V13.968C10.3084 13.6331 10.393 13.4928 10.4595 13.4314L10.4599 13.4311C10.565 13.3339 10.7135 13.268 10.9524 13.268C10.982 13.268 11.0065 13.2697 11.0264 13.2721C11.0469 13.2747 11.0676 13.276 11.0884 13.276C11.1109 13.276 11.1418 13.2774 11.1826 13.2815C11.2877 13.292 11.3923 13.269 11.4822 13.2171V16C11.4822 16.2761 11.7061 16.5 11.9822 16.5H13.2302C13.5064 16.5 13.7302 16.2761 13.7302 16V11.696C13.7302 11.5175 13.6367 11.3608 13.4959 11.2723C13.5016 11.2671 13.5072 11.2618 13.5128 11.2564L13.5131 11.2562C13.7593 11.019 13.8823 10.7137 13.8823 10.376C13.8823 10.0411 13.7527 9.74075 13.4945 9.51881C13.2428 9.297 12.9318 9.204 12.6063 9.204C12.2736 9.204 11.9583 9.30397 11.7065 9.53712C11.4597 9.76568 11.3303 10.0643 11.3303 10.4C11.3303 10.7357 11.4597 11.0343 11.7065 11.2629L12.0462 10.896L11.7065 11.2629C11.7099 11.266 11.7133 11.2691 11.7168 11.2722C11.6874 11.2906 11.6602 11.312 11.6353 11.3359C11.5443 11.2123 11.3977 11.132 11.2324 11.132C10.8286 11.132 10.4521 11.2005 10.1169 11.3538C10.0257 11.2567 9.89613 11.196 9.75238 11.196H8.56038C8.28423 11.196 8.06038 11.4199 8.06038 11.696V12.2894C7.98317 11.9918 7.86471 11.7124 7.70239 11.454C7.38962 10.9562 6.95583 10.5727 6.4146 10.3048C5.87021 10.0299 5.2553 9.9 4.583 9.9H2.039C1.76286 9.9 1.539 10.1239 1.539 10.4V16ZM5.69671 13.8653L5.69666 13.8653L5.69288 13.8719C5.5934 14.046 5.45287 14.182 5.25828 14.2834C5.0708 14.3786 4.82982 14.436 4.519 14.436H3.835V11.964H4.519C4.82799 11.964 5.06695 12.0234 5.25306 12.1219L5.25299 12.122L5.26339 12.1272C5.45526 12.2231 5.59406 12.3551 5.69288 12.5281L5.69275 12.5281L5.69904 12.5386C5.79813 12.7026 5.859 12.9159 5.859 13.2C5.859 13.4769 5.7989 13.6927 5.69671 13.8653ZM13.8885 16C13.8885 16.2761 14.1124 16.5 14.3885 16.5H15.6365C15.9126 16.5 16.1365 16.2761 16.1365 16V10.064C16.1365 9.78786 15.9126 9.564 15.6365 9.564H14.3885C14.1124 9.564 13.8885 9.78786 13.8885 10.064V16ZM16.2947 16C16.2947 16.2761 16.5186 16.5 16.7947 16.5H18.0427C18.3189 16.5 18.5427 16.2761 18.5427 16V10.064C18.5427 9.78786 18.3189 9.564 18.0427 9.564H16.7947C16.5186 9.564 16.2947 9.78786 16.2947 10.064V16Z" fill="url(#paint1_linear_401_35)" stroke="black" stroke-linejoin="round"/>
<defs>
<linearGradient id="paint0_linear_401_35" x1="7.78401" y1="7.59152" x2="21.96" y2="1.48494" gradientUnits="userSpaceOnUse">
<stop stop-color="#FF5C00"/>
<stop offset="0.224522" stop-color="#FF00D6"/>
<stop offset="0.479167" stop-color="#868686"/>
</linearGradient>
<linearGradient id="paint1_linear_401_35" x1="10" y1="10" x2="10" y2="16" gradientUnits="userSpaceOnUse">
<stop stop-color="#FF00D6"/>
<stop offset="1" stop-color="#FF5C00"/>
</linearGradient>
</defs>
</svg>
