<svg width="20" height="10" viewBox="0 0 20 10" fill="none" xmlns="http://www.w3.org/2000/svg">
<path d="M1.539 8C1.539 8.27614 1.76286 8.5 2.039 8.5H4.583C5.25448 8.5 5.8686 8.37308 6.41255 8.10424L6.41255 8.10426L6.41666 8.10218C6.95678 7.82902 7.38988 7.44344 7.70239 6.94597L7.7039 6.94355C7.86521 6.68349 7.98329 6.40369 8.06038 6.1066V8C8.06038 8.27614 8.28423 8.5 8.56038 8.5H9.80838C10.0845 8.5 10.3084 8.27614 10.3084 8V5.968C10.3084 5.6331 10.393 5.49276 10.4595 5.4314L10.4599 5.43105C10.565 5.33385 10.7135 5.268 10.9524 5.268C10.982 5.268 11.0065 5.26965 11.0264 5.27214C11.0469 5.27471 11.0676 5.276 11.0884 5.276C11.1109 5.276 11.1418 5.27744 11.1826 5.28152C11.2877 5.29202 11.3923 5.26896 11.4823 5.21709V8C11.4823 8.27614 11.7061 8.5 11.9823 8.5H13.2303C13.5064 8.5 13.7303 8.27614 13.7303 8V3.696C13.7303 3.51747 13.6367 3.3608 13.4959 3.27234C13.5016 3.2671 13.5072 3.2618 13.5128 3.25642L13.5131 3.25616C13.7593 3.01904 13.8823 2.71371 13.8823 2.376C13.8823 2.04114 13.7527 1.74075 13.4945 1.51881C13.2428 1.297 12.9318 1.204 12.6063 1.204C12.2736 1.204 11.9583 1.30397 11.7065 1.53712C11.4597 1.76568 11.3303 2.06426 11.3303 2.4C11.3303 2.73574 11.4597 3.03432 11.7065 3.26288L12.0463 2.896L11.7065 3.26288C11.7099 3.26602 11.7133 3.26913 11.7168 3.27223C11.6874 3.29064 11.6602 3.31201 11.6353 3.33593C11.5443 3.21225 11.3977 3.132 11.2324 3.132C10.8286 3.132 10.4521 3.2005 10.1169 3.35379C10.0257 3.25666 9.89613 3.196 9.75238 3.196H8.56038C8.28423 3.196 8.06038 3.41986 8.06038 3.696V4.2894C7.98317 3.99178 7.86472 3.71242 7.70239 3.45402C7.38962 2.95615 6.95583 2.57271 6.4146 2.30477C5.87021 2.02991 5.2553 1.9 4.583 1.9H2.039C1.76286 1.9 1.539 2.12386 1.539 2.4V8ZM5.69671 5.86534L5.69666 5.86531L5.69288 5.87193C5.59341 6.04601 5.45288 6.18197 5.25829 6.28337C5.07081 6.37857 4.82983 6.436 4.519 6.436H3.835V3.964H4.519C4.82799 3.964 5.06695 4.02336 5.25306 4.12189L5.25299 4.12201L5.26339 4.12721C5.45526 4.22315 5.59406 4.35514 5.69288 4.52807L5.69275 4.52814L5.69904 4.53856C5.79813 4.70256 5.859 4.91595 5.859 5.2C5.859 5.47686 5.79891 5.69267 5.69671 5.86534ZM13.8885 8C13.8885 8.27614 14.1124 8.5 14.3885 8.5H15.6365C15.9126 8.5 16.1365 8.27614 16.1365 8V2.064C16.1365 1.78786 15.9126 1.564 15.6365 1.564H14.3885C14.1124 1.564 13.8885 1.78786 13.8885 2.064V8ZM16.2948 8C16.2948 8.27614 16.5186 8.5 16.7948 8.5H18.0428C18.3189 8.5 18.5428 8.27614 18.5428 8V2.064C18.5428 1.78786 18.3189 1.564 18.0428 1.564H16.7948C16.5186 1.564 16.2948 1.78786 16.2948 2.064V8Z" fill="url(#paint0_linear_204_183)" stroke="black" stroke-linejoin="round"/>
<defs>
<linearGradient id="paint0_linear_204_183" x1="10" y1="2" x2="10" y2="8" gradientUnits="userSpaceOnUse">
<stop stop-color="#FF00D6"/>
<stop offset="1" stop-color="#FF5C00"/>
</linearGradient>
</defs>
</svg>
