<svg width="61" height="31" viewBox="0 0 61 31" fill="none" xmlns="http://www.w3.org/2000/svg">
<rect width="61" height="31" fill="#CBFFF6"/>
<circle cx="42" cy="24.6316" r="5" fill="#E5FF45"/>
<circle cx="44" cy="8.63158" r="7" fill="#45FF79"/>
<circle cx="17" cy="13.6316" r="6" fill="#FFD18B"/>
<g clip-path="url(#clip0_1_25)">
<rect x="47.5505" y="8.50175" width="3.125" height="7.125" rx="1.5625" transform="rotate(15 47.5505 8.50175)" fill="white" fill-opacity="0.3" stroke="black" stroke-width="1.125"/>
<path d="M47.6458 16.3566L47.7914 15.8132L46.7047 15.5221L46.5591 16.0654L47.6458 16.3566ZM46.0415 17.9972C45.9611 18.2973 46.1392 18.6058 46.4393 18.6862C46.7393 18.7666 47.0478 18.5885 47.1282 18.2884L46.0415 17.9972ZM46.5591 16.0654L46.0415 17.9972L47.1282 18.2884L47.6458 16.3566L46.5591 16.0654Z" fill="black"/>
<path d="M49.4319 7.51764L49.173 8.48356" stroke="black" stroke-width="1.125" stroke-linecap="square"/>
<path d="M51.3637 8.03528L47.5 7" stroke="black" stroke-width="1.125" stroke-linecap="round"/>
<mask id="mask0_1_25" style="mask-type:alpha" maskUnits="userSpaceOnUse" x="46" y="9" width="4" height="7">
<rect x="47.9483" y="9.19067" width="2" height="6" rx="1" transform="rotate(15 47.9483 9.19067)" fill="white"/>
</mask>
<g mask="url(#mask0_1_25)">
<rect x="43.0083" y="11.3302" width="10" height="4" fill="url(#paint0_linear_1_25)"/>
</g>
<mask id="path-10-outside-1_1_25" maskUnits="userSpaceOnUse" x="6.45534" y="14.704" width="48" height="9" fill="black">
<rect fill="white" x="6.45534" y="14.704" width="48" height="9"/>
<path d="M7.45534 22L9.95134 16.4H11.2313L13.7353 22H12.3753L10.3273 17.056H10.8393L8.78334 22H7.45534ZM8.70334 20.8L9.04734 19.816H11.9273L12.2793 20.8H8.70334Z"/>
<path d="M16.0373 22.064C15.6319 22.064 15.2666 21.9733 14.9413 21.792C14.6159 21.6053 14.3573 21.3467 14.1653 21.016C13.9786 20.6853 13.8853 20.296 13.8853 19.848C13.8853 19.3947 13.9786 19.0027 14.1653 18.672C14.3573 18.3413 14.6159 18.0853 14.9413 17.904C15.2666 17.7227 15.6319 17.632 16.0373 17.632C16.3999 17.632 16.7173 17.712 16.9893 17.872C17.2613 18.032 17.4719 18.2747 17.6213 18.6C17.7706 18.9253 17.8453 19.3413 17.8453 19.848C17.8453 20.3493 17.7733 20.7653 17.6293 21.096C17.4853 21.4213 17.2773 21.664 17.0053 21.824C16.7386 21.984 16.4159 22.064 16.0373 22.064ZM16.2533 21.04C16.4559 21.04 16.6399 20.992 16.8053 20.896C16.9706 20.8 17.1013 20.664 17.1973 20.488C17.2986 20.3067 17.3493 20.0933 17.3493 19.848C17.3493 19.5973 17.2986 19.384 17.1973 19.208C17.1013 19.032 16.9706 18.896 16.8053 18.8C16.6399 18.704 16.4559 18.656 16.2533 18.656C16.0453 18.656 15.8586 18.704 15.6933 18.8C15.5279 18.896 15.3946 19.032 15.2933 19.208C15.1973 19.384 15.1493 19.5973 15.1493 19.848C15.1493 20.0933 15.1973 20.3067 15.2933 20.488C15.3946 20.664 15.5279 20.8 15.6933 20.896C15.8586 20.992 16.0453 21.04 16.2533 21.04ZM17.3813 22V21.12L17.4053 19.84L17.3253 18.568V16.064H18.5733V22H17.3813Z"/>
<path d="M19.7283 22V17.696H20.9203V18.912L20.7523 18.56C20.8803 18.256 21.0857 18.0267 21.3683 17.872C21.651 17.712 21.995 17.632 22.4003 17.632V18.784C22.347 18.7787 22.299 18.776 22.2563 18.776C22.2137 18.7707 22.1683 18.768 22.1203 18.768C21.779 18.768 21.5017 18.8667 21.2883 19.064C21.0803 19.256 20.9763 19.5573 20.9763 19.968V22H19.7283Z"/>
<path d="M25.2472 22.064C24.7565 22.064 24.3245 21.968 23.9512 21.776C23.5832 21.584 23.2978 21.3227 23.0951 20.992C22.8925 20.656 22.7912 20.2747 22.7912 19.848C22.7912 19.416 22.8898 19.0347 23.0871 18.704C23.2898 18.368 23.5645 18.1067 23.9111 17.92C24.2578 17.728 24.6498 17.632 25.0872 17.632C25.5085 17.632 25.8872 17.7227 26.2232 17.904C26.5645 18.08 26.8338 18.336 27.0312 18.672C27.2285 19.0027 27.3272 19.4 27.3272 19.864C27.3272 19.912 27.3245 19.968 27.3192 20.032C27.3138 20.0907 27.3085 20.1467 27.3032 20.2H23.8071V19.472H26.6472L26.1672 19.688C26.1672 19.464 26.1218 19.2693 26.0312 19.104C25.9405 18.9387 25.8151 18.8107 25.6551 18.72C25.4951 18.624 25.3085 18.576 25.0951 18.576C24.8818 18.576 24.6925 18.624 24.5271 18.72C24.3671 18.8107 24.2418 18.9413 24.1511 19.112C24.0605 19.2773 24.0152 19.4747 24.0152 19.704V19.896C24.0152 20.1307 24.0658 20.3387 24.1672 20.52C24.2738 20.696 24.4205 20.832 24.6071 20.928C24.7991 21.0187 25.0231 21.064 25.2792 21.064C25.5085 21.064 25.7085 21.0293 25.8792 20.96C26.0552 20.8907 26.2152 20.7867 26.3591 20.648L27.0231 21.368C26.8258 21.592 26.5778 21.7653 26.2792 21.888C25.9805 22.0053 25.6365 22.064 25.2472 22.064Z"/>
<path d="M30.774 17.632C31.1154 17.632 31.4194 17.7013 31.686 17.84C31.958 17.9733 32.1714 18.1813 32.326 18.464C32.4807 18.7413 32.558 19.0987 32.558 19.536V22H31.31V19.728C31.31 19.3813 31.2327 19.1253 31.078 18.96C30.9287 18.7947 30.7154 18.712 30.438 18.712C30.2407 18.712 30.062 18.7547 29.902 18.84C29.7474 18.92 29.6247 19.0453 29.534 19.216C29.4487 19.3867 29.406 19.6053 29.406 19.872V22H28.158V17.696H29.35V18.888L29.126 18.528C29.2807 18.24 29.502 18.0187 29.79 17.864C30.078 17.7093 30.406 17.632 30.774 17.632Z"/>
<path d="M36.3293 22V21.16L36.2493 20.976V19.472C36.2493 19.2053 36.1666 18.9973 36.0013 18.848C35.8413 18.6987 35.5933 18.624 35.2573 18.624C35.0279 18.624 34.8013 18.6613 34.5773 18.736C34.3586 18.8053 34.1719 18.9013 34.0173 19.024L33.5693 18.152C33.8039 17.9867 34.0866 17.8587 34.4173 17.768C34.7479 17.6773 35.0839 17.632 35.4253 17.632C36.0813 17.632 36.5906 17.7867 36.9533 18.096C37.3159 18.4053 37.4973 18.888 37.4973 19.544V22H36.3293ZM35.0173 22.064C34.6813 22.064 34.3933 22.008 34.1533 21.896C33.9133 21.7787 33.7293 21.6213 33.6013 21.424C33.4733 21.2267 33.4093 21.0053 33.4093 20.76C33.4093 20.504 33.4706 20.28 33.5933 20.088C33.7213 19.896 33.9213 19.7467 34.1933 19.64C34.4653 19.528 34.8199 19.472 35.2573 19.472H36.4013V20.2H35.3933C35.0999 20.2 34.8973 20.248 34.7853 20.344C34.6786 20.44 34.6253 20.56 34.6253 20.704C34.6253 20.864 34.6866 20.992 34.8093 21.088C34.9373 21.1787 35.1106 21.224 35.3293 21.224C35.5373 21.224 35.7239 21.176 35.8893 21.08C36.0546 20.9787 36.1746 20.832 36.2493 20.64L36.4413 21.216C36.3506 21.4933 36.1853 21.704 35.9453 21.848C35.7053 21.992 35.3959 22.064 35.0173 22.064Z"/>
<path d="M38.6268 22V16.064H39.8748V22H38.6268Z"/>
<path d="M41.033 22V17.696H42.281V22H41.033ZM41.657 17.096C41.4277 17.096 41.241 17.0293 41.097 16.896C40.953 16.7627 40.881 16.5973 40.881 16.4C40.881 16.2027 40.953 16.0373 41.097 15.904C41.241 15.7707 41.4277 15.704 41.657 15.704C41.8864 15.704 42.073 15.768 42.217 15.896C42.361 16.0187 42.433 16.1787 42.433 16.376C42.433 16.584 42.361 16.7573 42.217 16.896C42.0784 17.0293 41.8917 17.096 41.657 17.096Z"/>
<path d="M46.0553 17.632C46.3966 17.632 46.7006 17.7013 46.9673 17.84C47.2393 17.9733 47.4526 18.1813 47.6073 18.464C47.7619 18.7413 47.8393 19.0987 47.8393 19.536V22H46.5913V19.728C46.5913 19.3813 46.5139 19.1253 46.3593 18.96C46.2099 18.7947 45.9966 18.712 45.7193 18.712C45.5219 18.712 45.3433 18.7547 45.1833 18.84C45.0286 18.92 44.9059 19.0453 44.8153 19.216C44.7299 19.3867 44.6873 19.6053 44.6873 19.872V22H43.4393V17.696H44.6313V18.888L44.4073 18.528C44.5619 18.24 44.7833 18.0187 45.0713 17.864C45.3593 17.7093 45.6873 17.632 46.0553 17.632Z"/>
<path d="M51.1378 22.064C50.6471 22.064 50.2151 21.968 49.8418 21.776C49.4738 21.584 49.1884 21.3227 48.9858 20.992C48.7831 20.656 48.6818 20.2747 48.6818 19.848C48.6818 19.416 48.7804 19.0347 48.9778 18.704C49.1804 18.368 49.4551 18.1067 49.8018 17.92C50.1484 17.728 50.5404 17.632 50.9778 17.632C51.3991 17.632 51.7778 17.7227 52.1138 17.904C52.4551 18.08 52.7244 18.336 52.9218 18.672C53.1191 19.0027 53.2178 19.4 53.2178 19.864C53.2178 19.912 53.2151 19.968 53.2098 20.032C53.2044 20.0907 53.1991 20.1467 53.1938 20.2H49.6978V19.472H52.5378L52.0578 19.688C52.0578 19.464 52.0124 19.2693 51.9218 19.104C51.8311 18.9387 51.7058 18.8107 51.5458 18.72C51.3858 18.624 51.1991 18.576 50.9858 18.576C50.7724 18.576 50.5831 18.624 50.4178 18.72C50.2578 18.8107 50.1324 18.9413 50.0418 19.112C49.9511 19.2773 49.9058 19.4747 49.9058 19.704V19.896C49.9058 20.1307 49.9564 20.3387 50.0578 20.52C50.1644 20.696 50.3111 20.832 50.4978 20.928C50.6898 21.0187 50.9138 21.064 51.1698 21.064C51.3991 21.064 51.5991 21.0293 51.7698 20.96C51.9458 20.8907 52.1058 20.7867 52.2498 20.648L52.9138 21.368C52.7164 21.592 52.4684 21.7653 52.1698 21.888C51.8711 22.0053 51.5271 22.064 51.1378 22.064Z"/>
</mask>
<path d="M7.45534 22L9.95134 16.4H11.2313L13.7353 22H12.3753L10.3273 17.056H10.8393L8.78334 22H7.45534ZM8.70334 20.8L9.04734 19.816H11.9273L12.2793 20.8H8.70334Z" fill="url(#paint1_linear_1_25)"/>
<path d="M16.0373 22.064C15.6319 22.064 15.2666 21.9733 14.9413 21.792C14.6159 21.6053 14.3573 21.3467 14.1653 21.016C13.9786 20.6853 13.8853 20.296 13.8853 19.848C13.8853 19.3947 13.9786 19.0027 14.1653 18.672C14.3573 18.3413 14.6159 18.0853 14.9413 17.904C15.2666 17.7227 15.6319 17.632 16.0373 17.632C16.3999 17.632 16.7173 17.712 16.9893 17.872C17.2613 18.032 17.4719 18.2747 17.6213 18.6C17.7706 18.9253 17.8453 19.3413 17.8453 19.848C17.8453 20.3493 17.7733 20.7653 17.6293 21.096C17.4853 21.4213 17.2773 21.664 17.0053 21.824C16.7386 21.984 16.4159 22.064 16.0373 22.064ZM16.2533 21.04C16.4559 21.04 16.6399 20.992 16.8053 20.896C16.9706 20.8 17.1013 20.664 17.1973 20.488C17.2986 20.3067 17.3493 20.0933 17.3493 19.848C17.3493 19.5973 17.2986 19.384 17.1973 19.208C17.1013 19.032 16.9706 18.896 16.8053 18.8C16.6399 18.704 16.4559 18.656 16.2533 18.656C16.0453 18.656 15.8586 18.704 15.6933 18.8C15.5279 18.896 15.3946 19.032 15.2933 19.208C15.1973 19.384 15.1493 19.5973 15.1493 19.848C15.1493 20.0933 15.1973 20.3067 15.2933 20.488C15.3946 20.664 15.5279 20.8 15.6933 20.896C15.8586 20.992 16.0453 21.04 16.2533 21.04ZM17.3813 22V21.12L17.4053 19.84L17.3253 18.568V16.064H18.5733V22H17.3813Z" fill="url(#paint2_linear_1_25)"/>
<path d="M19.7283 22V17.696H20.9203V18.912L20.7523 18.56C20.8803 18.256 21.0857 18.0267 21.3683 17.872C21.651 17.712 21.995 17.632 22.4003 17.632V18.784C22.347 18.7787 22.299 18.776 22.2563 18.776C22.2137 18.7707 22.1683 18.768 22.1203 18.768C21.779 18.768 21.5017 18.8667 21.2883 19.064C21.0803 19.256 20.9763 19.5573 20.9763 19.968V22H19.7283Z" fill="url(#paint3_linear_1_25)"/>
<path d="M25.2472 22.064C24.7565 22.064 24.3245 21.968 23.9512 21.776C23.5832 21.584 23.2978 21.3227 23.0951 20.992C22.8925 20.656 22.7912 20.2747 22.7912 19.848C22.7912 19.416 22.8898 19.0347 23.0871 18.704C23.2898 18.368 23.5645 18.1067 23.9111 17.92C24.2578 17.728 24.6498 17.632 25.0872 17.632C25.5085 17.632 25.8872 17.7227 26.2232 17.904C26.5645 18.08 26.8338 18.336 27.0312 18.672C27.2285 19.0027 27.3272 19.4 27.3272 19.864C27.3272 19.912 27.3245 19.968 27.3192 20.032C27.3138 20.0907 27.3085 20.1467 27.3032 20.2H23.8071V19.472H26.6472L26.1672 19.688C26.1672 19.464 26.1218 19.2693 26.0312 19.104C25.9405 18.9387 25.8151 18.8107 25.6551 18.72C25.4951 18.624 25.3085 18.576 25.0951 18.576C24.8818 18.576 24.6925 18.624 24.5271 18.72C24.3671 18.8107 24.2418 18.9413 24.1511 19.112C24.0605 19.2773 24.0152 19.4747 24.0152 19.704V19.896C24.0152 20.1307 24.0658 20.3387 24.1672 20.52C24.2738 20.696 24.4205 20.832 24.6071 20.928C24.7991 21.0187 25.0231 21.064 25.2792 21.064C25.5085 21.064 25.7085 21.0293 25.8792 20.96C26.0552 20.8907 26.2152 20.7867 26.3591 20.648L27.0231 21.368C26.8258 21.592 26.5778 21.7653 26.2792 21.888C25.9805 22.0053 25.6365 22.064 25.2472 22.064Z" fill="url(#paint4_linear_1_25)"/>
<path d="M30.774 17.632C31.1154 17.632 31.4194 17.7013 31.686 17.84C31.958 17.9733 32.1714 18.1813 32.326 18.464C32.4807 18.7413 32.558 19.0987 32.558 19.536V22H31.31V19.728C31.31 19.3813 31.2327 19.1253 31.078 18.96C30.9287 18.7947 30.7154 18.712 30.438 18.712C30.2407 18.712 30.062 18.7547 29.902 18.84C29.7474 18.92 29.6247 19.0453 29.534 19.216C29.4487 19.3867 29.406 19.6053 29.406 19.872V22H28.158V17.696H29.35V18.888L29.126 18.528C29.2807 18.24 29.502 18.0187 29.79 17.864C30.078 17.7093 30.406 17.632 30.774 17.632Z" fill="url(#paint5_linear_1_25)"/>
<path d="M36.3293 22V21.16L36.2493 20.976V19.472C36.2493 19.2053 36.1666 18.9973 36.0013 18.848C35.8413 18.6987 35.5933 18.624 35.2573 18.624C35.0279 18.624 34.8013 18.6613 34.5773 18.736C34.3586 18.8053 34.1719 18.9013 34.0173 19.024L33.5693 18.152C33.8039 17.9867 34.0866 17.8587 34.4173 17.768C34.7479 17.6773 35.0839 17.632 35.4253 17.632C36.0813 17.632 36.5906 17.7867 36.9533 18.096C37.3159 18.4053 37.4973 18.888 37.4973 19.544V22H36.3293ZM35.0173 22.064C34.6813 22.064 34.3933 22.008 34.1533 21.896C33.9133 21.7787 33.7293 21.6213 33.6013 21.424C33.4733 21.2267 33.4093 21.0053 33.4093 20.76C33.4093 20.504 33.4706 20.28 33.5933 20.088C33.7213 19.896 33.9213 19.7467 34.1933 19.64C34.4653 19.528 34.8199 19.472 35.2573 19.472H36.4013V20.2H35.3933C35.0999 20.2 34.8973 20.248 34.7853 20.344C34.6786 20.44 34.6253 20.56 34.6253 20.704C34.6253 20.864 34.6866 20.992 34.8093 21.088C34.9373 21.1787 35.1106 21.224 35.3293 21.224C35.5373 21.224 35.7239 21.176 35.8893 21.08C36.0546 20.9787 36.1746 20.832 36.2493 20.64L36.4413 21.216C36.3506 21.4933 36.1853 21.704 35.9453 21.848C35.7053 21.992 35.3959 22.064 35.0173 22.064Z" fill="url(#paint6_linear_1_25)"/>
<path d="M38.6268 22V16.064H39.8748V22H38.6268Z" fill="url(#paint7_linear_1_25)"/>
<path d="M41.033 22V17.696H42.281V22H41.033ZM41.657 17.096C41.4277 17.096 41.241 17.0293 41.097 16.896C40.953 16.7627 40.881 16.5973 40.881 16.4C40.881 16.2027 40.953 16.0373 41.097 15.904C41.241 15.7707 41.4277 15.704 41.657 15.704C41.8864 15.704 42.073 15.768 42.217 15.896C42.361 16.0187 42.433 16.1787 42.433 16.376C42.433 16.584 42.361 16.7573 42.217 16.896C42.0784 17.0293 41.8917 17.096 41.657 17.096Z" fill="url(#paint8_linear_1_25)"/>
<path d="M46.0553 17.632C46.3966 17.632 46.7006 17.7013 46.9673 17.84C47.2393 17.9733 47.4526 18.1813 47.6073 18.464C47.7619 18.7413 47.8393 19.0987 47.8393 19.536V22H46.5913V19.728C46.5913 19.3813 46.5139 19.1253 46.3593 18.96C46.2099 18.7947 45.9966 18.712 45.7193 18.712C45.5219 18.712 45.3433 18.7547 45.1833 18.84C45.0286 18.92 44.9059 19.0453 44.8153 19.216C44.7299 19.3867 44.6873 19.6053 44.6873 19.872V22H43.4393V17.696H44.6313V18.888L44.4073 18.528C44.5619 18.24 44.7833 18.0187 45.0713 17.864C45.3593 17.7093 45.6873 17.632 46.0553 17.632Z" fill="url(#paint9_linear_1_25)"/>
<path d="M51.1378 22.064C50.6471 22.064 50.2151 21.968 49.8418 21.776C49.4738 21.584 49.1884 21.3227 48.9858 20.992C48.7831 20.656 48.6818 20.2747 48.6818 19.848C48.6818 19.416 48.7804 19.0347 48.9778 18.704C49.1804 18.368 49.4551 18.1067 49.8018 17.92C50.1484 17.728 50.5404 17.632 50.9778 17.632C51.3991 17.632 51.7778 17.7227 52.1138 17.904C52.4551 18.08 52.7244 18.336 52.9218 18.672C53.1191 19.0027 53.2178 19.4 53.2178 19.864C53.2178 19.912 53.2151 19.968 53.2098 20.032C53.2044 20.0907 53.1991 20.1467 53.1938 20.2H49.6978V19.472H52.5378L52.0578 19.688C52.0578 19.464 52.0124 19.2693 51.9218 19.104C51.8311 18.9387 51.7058 18.8107 51.5458 18.72C51.3858 18.624 51.1991 18.576 50.9858 18.576C50.7724 18.576 50.5831 18.624 50.4178 18.72C50.2578 18.8107 50.1324 18.9413 50.0418 19.112C49.9511 19.2773 49.9058 19.4747 49.9058 19.704V19.896C49.9058 20.1307 49.9564 20.3387 50.0578 20.52C50.1644 20.696 50.3111 20.832 50.4978 20.928C50.6898 21.0187 50.9138 21.064 51.1698 21.064C51.3991 21.064 51.5991 21.0293 51.7698 20.96C51.9458 20.8907 52.1058 20.7867 52.2498 20.648L52.9138 21.368C52.7164 21.592 52.4684 21.7653 52.1698 21.888C51.8711 22.0053 51.5271 22.064 51.1378 22.064Z" fill="url(#paint10_linear_1_25)"/>
<path d="M7.45534 22L9.95134 16.4H11.2313L13.7353 22H12.3753L10.3273 17.056H10.8393L8.78334 22H7.45534ZM8.70334 20.8L9.04734 19.816H11.9273L12.2793 20.8H8.70334Z" stroke="black" stroke-width="2" stroke-linejoin="round" mask="url(#path-10-outside-1_1_25)"/>
<path d="M16.0373 22.064C15.6319 22.064 15.2666 21.9733 14.9413 21.792C14.6159 21.6053 14.3573 21.3467 14.1653 21.016C13.9786 20.6853 13.8853 20.296 13.8853 19.848C13.8853 19.3947 13.9786 19.0027 14.1653 18.672C14.3573 18.3413 14.6159 18.0853 14.9413 17.904C15.2666 17.7227 15.6319 17.632 16.0373 17.632C16.3999 17.632 16.7173 17.712 16.9893 17.872C17.2613 18.032 17.4719 18.2747 17.6213 18.6C17.7706 18.9253 17.8453 19.3413 17.8453 19.848C17.8453 20.3493 17.7733 20.7653 17.6293 21.096C17.4853 21.4213 17.2773 21.664 17.0053 21.824C16.7386 21.984 16.4159 22.064 16.0373 22.064ZM16.2533 21.04C16.4559 21.04 16.6399 20.992 16.8053 20.896C16.9706 20.8 17.1013 20.664 17.1973 20.488C17.2986 20.3067 17.3493 20.0933 17.3493 19.848C17.3493 19.5973 17.2986 19.384 17.1973 19.208C17.1013 19.032 16.9706 18.896 16.8053 18.8C16.6399 18.704 16.4559 18.656 16.2533 18.656C16.0453 18.656 15.8586 18.704 15.6933 18.8C15.5279 18.896 15.3946 19.032 15.2933 19.208C15.1973 19.384 15.1493 19.5973 15.1493 19.848C15.1493 20.0933 15.1973 20.3067 15.2933 20.488C15.3946 20.664 15.5279 20.8 15.6933 20.896C15.8586 20.992 16.0453 21.04 16.2533 21.04ZM17.3813 22V21.12L17.4053 19.84L17.3253 18.568V16.064H18.5733V22H17.3813Z" stroke="black" stroke-width="2" stroke-linejoin="round" mask="url(#path-10-outside-1_1_25)"/>
<path d="M19.7283 22V17.696H20.9203V18.912L20.7523 18.56C20.8803 18.256 21.0857 18.0267 21.3683 17.872C21.651 17.712 21.995 17.632 22.4003 17.632V18.784C22.347 18.7787 22.299 18.776 22.2563 18.776C22.2137 18.7707 22.1683 18.768 22.1203 18.768C21.779 18.768 21.5017 18.8667 21.2883 19.064C21.0803 19.256 20.9763 19.5573 20.9763 19.968V22H19.7283Z" stroke="black" stroke-width="2" stroke-linejoin="round" mask="url(#path-10-outside-1_1_25)"/>
<path d="M25.2472 22.064C24.7565 22.064 24.3245 21.968 23.9512 21.776C23.5832 21.584 23.2978 21.3227 23.0951 20.992C22.8925 20.656 22.7912 20.2747 22.7912 19.848C22.7912 19.416 22.8898 19.0347 23.0871 18.704C23.2898 18.368 23.5645 18.1067 23.9111 17.92C24.2578 17.728 24.6498 17.632 25.0872 17.632C25.5085 17.632 25.8872 17.7227 26.2232 17.904C26.5645 18.08 26.8338 18.336 27.0312 18.672C27.2285 19.0027 27.3272 19.4 27.3272 19.864C27.3272 19.912 27.3245 19.968 27.3192 20.032C27.3138 20.0907 27.3085 20.1467 27.3032 20.2H23.8071V19.472H26.6472L26.1672 19.688C26.1672 19.464 26.1218 19.2693 26.0312 19.104C25.9405 18.9387 25.8151 18.8107 25.6551 18.72C25.4951 18.624 25.3085 18.576 25.0951 18.576C24.8818 18.576 24.6925 18.624 24.5271 18.72C24.3671 18.8107 24.2418 18.9413 24.1511 19.112C24.0605 19.2773 24.0152 19.4747 24.0152 19.704V19.896C24.0152 20.1307 24.0658 20.3387 24.1672 20.52C24.2738 20.696 24.4205 20.832 24.6071 20.928C24.7991 21.0187 25.0231 21.064 25.2792 21.064C25.5085 21.064 25.7085 21.0293 25.8792 20.96C26.0552 20.8907 26.2152 20.7867 26.3591 20.648L27.0231 21.368C26.8258 21.592 26.5778 21.7653 26.2792 21.888C25.9805 22.0053 25.6365 22.064 25.2472 22.064Z" stroke="black" stroke-width="2" stroke-linejoin="round" mask="url(#path-10-outside-1_1_25)"/>
<path d="M30.774 17.632C31.1154 17.632 31.4194 17.7013 31.686 17.84C31.958 17.9733 32.1714 18.1813 32.326 18.464C32.4807 18.7413 32.558 19.0987 32.558 19.536V22H31.31V19.728C31.31 19.3813 31.2327 19.1253 31.078 18.96C30.9287 18.7947 30.7154 18.712 30.438 18.712C30.2407 18.712 30.062 18.7547 29.902 18.84C29.7474 18.92 29.6247 19.0453 29.534 19.216C29.4487 19.3867 29.406 19.6053 29.406 19.872V22H28.158V17.696H29.35V18.888L29.126 18.528C29.2807 18.24 29.502 18.0187 29.79 17.864C30.078 17.7093 30.406 17.632 30.774 17.632Z" stroke="black" stroke-width="2" stroke-linejoin="round" mask="url(#path-10-outside-1_1_25)"/>
<path d="M36.3293 22V21.16L36.2493 20.976V19.472C36.2493 19.2053 36.1666 18.9973 36.0013 18.848C35.8413 18.6987 35.5933 18.624 35.2573 18.624C35.0279 18.624 34.8013 18.6613 34.5773 18.736C34.3586 18.8053 34.1719 18.9013 34.0173 19.024L33.5693 18.152C33.8039 17.9867 34.0866 17.8587 34.4173 17.768C34.7479 17.6773 35.0839 17.632 35.4253 17.632C36.0813 17.632 36.5906 17.7867 36.9533 18.096C37.3159 18.4053 37.4973 18.888 37.4973 19.544V22H36.3293ZM35.0173 22.064C34.6813 22.064 34.3933 22.008 34.1533 21.896C33.9133 21.7787 33.7293 21.6213 33.6013 21.424C33.4733 21.2267 33.4093 21.0053 33.4093 20.76C33.4093 20.504 33.4706 20.28 33.5933 20.088C33.7213 19.896 33.9213 19.7467 34.1933 19.64C34.4653 19.528 34.8199 19.472 35.2573 19.472H36.4013V20.2H35.3933C35.0999 20.2 34.8973 20.248 34.7853 20.344C34.6786 20.44 34.6253 20.56 34.6253 20.704C34.6253 20.864 34.6866 20.992 34.8093 21.088C34.9373 21.1787 35.1106 21.224 35.3293 21.224C35.5373 21.224 35.7239 21.176 35.8893 21.08C36.0546 20.9787 36.1746 20.832 36.2493 20.64L36.4413 21.216C36.3506 21.4933 36.1853 21.704 35.9453 21.848C35.7053 21.992 35.3959 22.064 35.0173 22.064Z" stroke="black" stroke-width="2" stroke-linejoin="round" mask="url(#path-10-outside-1_1_25)"/>
<path d="M38.6268 22V16.064H39.8748V22H38.6268Z" stroke="black" stroke-width="2" stroke-linejoin="round" mask="url(#path-10-outside-1_1_25)"/>
<path d="M41.033 22V17.696H42.281V22H41.033ZM41.657 17.096C41.4277 17.096 41.241 17.0293 41.097 16.896C40.953 16.7627 40.881 16.5973 40.881 16.4C40.881 16.2027 40.953 16.0373 41.097 15.904C41.241 15.7707 41.4277 15.704 41.657 15.704C41.8864 15.704 42.073 15.768 42.217 15.896C42.361 16.0187 42.433 16.1787 42.433 16.376C42.433 16.584 42.361 16.7573 42.217 16.896C42.0784 17.0293 41.8917 17.096 41.657 17.096Z" stroke="black" stroke-width="2" stroke-linejoin="round" mask="url(#path-10-outside-1_1_25)"/>
<path d="M46.0553 17.632C46.3966 17.632 46.7006 17.7013 46.9673 17.84C47.2393 17.9733 47.4526 18.1813 47.6073 18.464C47.7619 18.7413 47.8393 19.0987 47.8393 19.536V22H46.5913V19.728C46.5913 19.3813 46.5139 19.1253 46.3593 18.96C46.2099 18.7947 45.9966 18.712 45.7193 18.712C45.5219 18.712 45.3433 18.7547 45.1833 18.84C45.0286 18.92 44.9059 19.0453 44.8153 19.216C44.7299 19.3867 44.6873 19.6053 44.6873 19.872V22H43.4393V17.696H44.6313V18.888L44.4073 18.528C44.5619 18.24 44.7833 18.0187 45.0713 17.864C45.3593 17.7093 45.6873 17.632 46.0553 17.632Z" stroke="black" stroke-width="2" stroke-linejoin="round" mask="url(#path-10-outside-1_1_25)"/>
<path d="M51.1378 22.064C50.6471 22.064 50.2151 21.968 49.8418 21.776C49.4738 21.584 49.1884 21.3227 48.9858 20.992C48.7831 20.656 48.6818 20.2747 48.6818 19.848C48.6818 19.416 48.7804 19.0347 48.9778 18.704C49.1804 18.368 49.4551 18.1067 49.8018 17.92C50.1484 17.728 50.5404 17.632 50.9778 17.632C51.3991 17.632 51.7778 17.7227 52.1138 17.904C52.4551 18.08 52.7244 18.336 52.9218 18.672C53.1191 19.0027 53.2178 19.4 53.2178 19.864C53.2178 19.912 53.2151 19.968 53.2098 20.032C53.2044 20.0907 53.1991 20.1467 53.1938 20.2H49.6978V19.472H52.5378L52.0578 19.688C52.0578 19.464 52.0124 19.2693 51.9218 19.104C51.8311 18.9387 51.7058 18.8107 51.5458 18.72C51.3858 18.624 51.1991 18.576 50.9858 18.576C50.7724 18.576 50.5831 18.624 50.4178 18.72C50.2578 18.8107 50.1324 18.9413 50.0418 19.112C49.9511 19.2773 49.9058 19.4747 49.9058 19.704V19.896C49.9058 20.1307 49.9564 20.3387 50.0578 20.52C50.1644 20.696 50.3111 20.832 50.4978 20.928C50.6898 21.0187 50.9138 21.064 51.1698 21.064C51.3991 21.064 51.5991 21.0293 51.7698 20.96C51.9458 20.8907 52.1058 20.7867 52.2498 20.648L52.9138 21.368C52.7164 21.592 52.4684 21.7653 52.1698 21.888C51.8711 22.0053 51.5271 22.064 51.1378 22.064Z" stroke="black" stroke-width="2" stroke-linejoin="round" mask="url(#path-10-outside-1_1_25)"/>
</g>
<defs>
<linearGradient id="paint0_linear_1_25" x1="48.0083" y1="11.3302" x2="48.0083" y2="15.3302" gradientUnits="userSpaceOnUse">
<stop stop-color="#00FF19"/>
<stop offset="0.0001" stop-color="#42FF00"/>
<stop offset="1" stop-color="#CCFF00"/>
</linearGradient>
<linearGradient id="paint1_linear_1_25" x1="30.5" y1="16" x2="30.5" y2="22" gradientUnits="userSpaceOnUse">
<stop stop-color="#00FF19"/>
<stop offset="1" stop-color="#CCFF00"/>
</linearGradient>
<linearGradient id="paint2_linear_1_25" x1="30.5" y1="16" x2="30.5" y2="22" gradientUnits="userSpaceOnUse">
<stop stop-color="#00FF19"/>
<stop offset="1" stop-color="#CCFF00"/>
</linearGradient>
<linearGradient id="paint3_linear_1_25" x1="30.5" y1="16" x2="30.5" y2="22" gradientUnits="userSpaceOnUse">
<stop stop-color="#00FF19"/>
<stop offset="1" stop-color="#CCFF00"/>
</linearGradient>
<linearGradient id="paint4_linear_1_25" x1="30.5" y1="16" x2="30.5" y2="22" gradientUnits="userSpaceOnUse">
<stop stop-color="#00FF19"/>
<stop offset="1" stop-color="#CCFF00"/>
</linearGradient>
<linearGradient id="paint5_linear_1_25" x1="30.5" y1="16" x2="30.5" y2="22" gradientUnits="userSpaceOnUse">
<stop stop-color="#00FF19"/>
<stop offset="1" stop-color="#CCFF00"/>
</linearGradient>
<linearGradient id="paint6_linear_1_25" x1="30.5" y1="16" x2="30.5" y2="22" gradientUnits="userSpaceOnUse">
<stop stop-color="#00FF19"/>
<stop offset="1" stop-color="#CCFF00"/>
</linearGradient>
<linearGradient id="paint7_linear_1_25" x1="30.5" y1="16" x2="30.5" y2="22" gradientUnits="userSpaceOnUse">
<stop stop-color="#00FF19"/>
<stop offset="1" stop-color="#CCFF00"/>
</linearGradient>
<linearGradient id="paint8_linear_1_25" x1="30.5" y1="16" x2="30.5" y2="22" gradientUnits="userSpaceOnUse">
<stop stop-color="#00FF19"/>
<stop offset="1" stop-color="#CCFF00"/>
</linearGradient>
<linearGradient id="paint9_linear_1_25" x1="30.5" y1="16" x2="30.5" y2="22" gradientUnits="userSpaceOnUse">
<stop stop-color="#00FF19"/>
<stop offset="1" stop-color="#CCFF00"/>
</linearGradient>
<linearGradient id="paint10_linear_1_25" x1="30.5" y1="16" x2="30.5" y2="22" gradientUnits="userSpaceOnUse">
<stop stop-color="#00FF19"/>
<stop offset="1" stop-color="#CCFF00"/>
</linearGradient>
<clipPath id="clip0_1_25">
<rect width="49" height="18" fill="white" transform="translate(5.5 6)"/>
</clipPath>
</defs>
</svg>
