<svg width="49" height="18" viewBox="0 0 49 18" fill="none" xmlns="http://www.w3.org/2000/svg">
<g clip-path="url(#clip0_1_4)">
<rect x="42.0505" y="2.50175" width="3.125" height="7.125" rx="1.5625" transform="rotate(15 42.0505 2.50175)" fill="white" fill-opacity="0.3" stroke="black" stroke-width="1.125"/>
<path d="M42.1458 10.3566L42.2914 9.81322L41.2047 9.52205L41.0591 10.0654L42.1458 10.3566ZM40.5415 11.9972C40.4611 12.2973 40.6392 12.6058 40.9393 12.6862C41.2393 12.7666 41.5478 12.5885 41.6282 12.2884L40.5415 11.9972ZM41.0591 10.0654L40.5415 11.9972L41.6282 12.2884L42.1458 10.3566L41.0591 10.0654Z" fill="black"/>
<path d="M43.9319 1.51764L43.673 2.48356" stroke="black" stroke-width="1.125" stroke-linecap="square"/>
<path d="M45.8637 2.03528L42 1" stroke="black" stroke-width="1.125" stroke-linecap="round"/>
<mask id="mask0_1_4" style="mask-type:alpha" maskUnits="userSpaceOnUse" x="41" y="3" width="4" height="7">
<rect x="42.4483" y="3.19067" width="2" height="6" rx="1" transform="rotate(15 42.4483 3.19067)" fill="white"/>
</mask>
<g mask="url(#mask0_1_4)">
<rect x="37.5084" y="5.33023" width="10" height="4" fill="url(#paint0_linear_1_4)"/>
</g>
<mask id="path-7-outside-1_1_4" maskUnits="userSpaceOnUse" x="0.955343" y="8.704" width="48" height="9" fill="black">
<rect fill="white" x="0.955343" y="8.704" width="48" height="9"/>
<path d="M1.95534 16L4.45134 10.4H5.73134L8.23534 16H6.87534L4.82734 11.056H5.33934L3.28334 16H1.95534ZM3.20334 14.8L3.54734 13.816H6.42734L6.77934 14.8H3.20334Z"/>
<path d="M10.5373 16.064C10.1319 16.064 9.76661 15.9733 9.44128 15.792C9.11595 15.6053 8.85728 15.3467 8.66528 15.016C8.47861 14.6853 8.38528 14.296 8.38528 13.848C8.38528 13.3947 8.47861 13.0027 8.66528 12.672C8.85728 12.3413 9.11595 12.0853 9.44128 11.904C9.76661 11.7227 10.1319 11.632 10.5373 11.632C10.8999 11.632 11.2173 11.712 11.4893 11.872C11.7613 12.032 11.9719 12.2747 12.1213 12.6C12.2706 12.9253 12.3453 13.3413 12.3453 13.848C12.3453 14.3493 12.2733 14.7653 12.1293 15.096C11.9853 15.4213 11.7773 15.664 11.5053 15.824C11.2386 15.984 10.9159 16.064 10.5373 16.064ZM10.7533 15.04C10.9559 15.04 11.1399 14.992 11.3053 14.896C11.4706 14.8 11.6013 14.664 11.6973 14.488C11.7986 14.3067 11.8493 14.0933 11.8493 13.848C11.8493 13.5973 11.7986 13.384 11.6973 13.208C11.6013 13.032 11.4706 12.896 11.3053 12.8C11.1399 12.704 10.9559 12.656 10.7533 12.656C10.5453 12.656 10.3586 12.704 10.1933 12.8C10.0279 12.896 9.89461 13.032 9.79328 13.208C9.69728 13.384 9.64928 13.5973 9.64928 13.848C9.64928 14.0933 9.69728 14.3067 9.79328 14.488C9.89461 14.664 10.0279 14.8 10.1933 14.896C10.3586 14.992 10.5453 15.04 10.7533 15.04ZM11.8813 16V15.12L11.9053 13.84L11.8253 12.568V10.064H13.0733V16H11.8813Z"/>
<path d="M14.2283 16V11.696H15.4203V12.912L15.2523 12.56C15.3803 12.256 15.5857 12.0267 15.8683 11.872C16.151 11.712 16.495 11.632 16.9003 11.632V12.784C16.847 12.7787 16.799 12.776 16.7563 12.776C16.7137 12.7707 16.6683 12.768 16.6203 12.768C16.279 12.768 16.0017 12.8667 15.7883 13.064C15.5803 13.256 15.4763 13.5573 15.4763 13.968V16H14.2283Z"/>
<path d="M19.7472 16.064C19.2565 16.064 18.8245 15.968 18.4512 15.776C18.0832 15.584 17.7978 15.3227 17.5952 14.992C17.3925 14.656 17.2912 14.2747 17.2912 13.848C17.2912 13.416 17.3898 13.0347 17.5872 12.704C17.7898 12.368 18.0645 12.1067 18.4112 11.92C18.7578 11.728 19.1498 11.632 19.5872 11.632C20.0085 11.632 20.3872 11.7227 20.7232 11.904C21.0645 12.08 21.3338 12.336 21.5312 12.672C21.7285 13.0027 21.8272 13.4 21.8272 13.864C21.8272 13.912 21.8245 13.968 21.8192 14.032C21.8138 14.0907 21.8085 14.1467 21.8032 14.2H18.3072V13.472H21.1472L20.6672 13.688C20.6672 13.464 20.6218 13.2693 20.5312 13.104C20.4405 12.9387 20.3152 12.8107 20.1552 12.72C19.9952 12.624 19.8085 12.576 19.5952 12.576C19.3818 12.576 19.1925 12.624 19.0272 12.72C18.8672 12.8107 18.7418 12.9413 18.6512 13.112C18.5605 13.2773 18.5152 13.4747 18.5152 13.704V13.896C18.5152 14.1307 18.5658 14.3387 18.6672 14.52C18.7738 14.696 18.9205 14.832 19.1072 14.928C19.2992 15.0187 19.5232 15.064 19.7792 15.064C20.0085 15.064 20.2085 15.0293 20.3792 14.96C20.5552 14.8907 20.7152 14.7867 20.8592 14.648L21.5232 15.368C21.3258 15.592 21.0778 15.7653 20.7792 15.888C20.4805 16.0053 20.1365 16.064 19.7472 16.064Z"/>
<path d="M25.274 11.632C25.6154 11.632 25.9194 11.7013 26.186 11.84C26.458 11.9733 26.6714 12.1813 26.826 12.464C26.9807 12.7413 27.058 13.0987 27.058 13.536V16H25.81V13.728C25.81 13.3813 25.7327 13.1253 25.578 12.96C25.4287 12.7947 25.2154 12.712 24.938 12.712C24.7407 12.712 24.562 12.7547 24.402 12.84C24.2474 12.92 24.1247 13.0453 24.034 13.216C23.9487 13.3867 23.906 13.6053 23.906 13.872V16H22.658V11.696H23.85V12.888L23.626 12.528C23.7807 12.24 24.002 12.0187 24.29 11.864C24.578 11.7093 24.906 11.632 25.274 11.632Z"/>
<path d="M30.8293 16V15.16L30.7493 14.976V13.472C30.7493 13.2053 30.6666 12.9973 30.5013 12.848C30.3413 12.6987 30.0933 12.624 29.7573 12.624C29.5279 12.624 29.3013 12.6613 29.0773 12.736C28.8586 12.8053 28.6719 12.9013 28.5173 13.024L28.0693 12.152C28.3039 11.9867 28.5866 11.8587 28.9173 11.768C29.2479 11.6773 29.5839 11.632 29.9253 11.632C30.5813 11.632 31.0906 11.7867 31.4533 12.096C31.8159 12.4053 31.9973 12.888 31.9973 13.544V16H30.8293ZM29.5173 16.064C29.1813 16.064 28.8933 16.008 28.6533 15.896C28.4133 15.7787 28.2293 15.6213 28.1013 15.424C27.9733 15.2267 27.9093 15.0053 27.9093 14.76C27.9093 14.504 27.9706 14.28 28.0933 14.088C28.2213 13.896 28.4213 13.7467 28.6933 13.64C28.9653 13.528 29.3199 13.472 29.7573 13.472H30.9013V14.2H29.8933C29.5999 14.2 29.3973 14.248 29.2853 14.344C29.1786 14.44 29.1253 14.56 29.1253 14.704C29.1253 14.864 29.1866 14.992 29.3093 15.088C29.4373 15.1787 29.6106 15.224 29.8293 15.224C30.0373 15.224 30.2239 15.176 30.3893 15.08C30.5546 14.9787 30.6746 14.832 30.7493 14.64L30.9413 15.216C30.8506 15.4933 30.6853 15.704 30.4453 15.848C30.2053 15.992 29.8959 16.064 29.5173 16.064Z"/>
<path d="M33.1268 16V10.064H34.3748V16H33.1268Z"/>
<path d="M35.533 16V11.696H36.781V16H35.533ZM36.157 11.096C35.9277 11.096 35.741 11.0293 35.597 10.896C35.453 10.7627 35.381 10.5973 35.381 10.4C35.381 10.2027 35.453 10.0373 35.597 9.904C35.741 9.77067 35.9277 9.704 36.157 9.704C36.3864 9.704 36.573 9.768 36.717 9.896C36.861 10.0187 36.933 10.1787 36.933 10.376C36.933 10.584 36.861 10.7573 36.717 10.896C36.5784 11.0293 36.3917 11.096 36.157 11.096Z"/>
<path d="M40.5553 11.632C40.8966 11.632 41.2006 11.7013 41.4673 11.84C41.7393 11.9733 41.9526 12.1813 42.1073 12.464C42.2619 12.7413 42.3393 13.0987 42.3393 13.536V16H41.0913V13.728C41.0913 13.3813 41.0139 13.1253 40.8593 12.96C40.7099 12.7947 40.4966 12.712 40.2193 12.712C40.0219 12.712 39.8433 12.7547 39.6833 12.84C39.5286 12.92 39.4059 13.0453 39.3153 13.216C39.2299 13.3867 39.1873 13.6053 39.1873 13.872V16H37.9393V11.696H39.1313V12.888L38.9073 12.528C39.0619 12.24 39.2833 12.0187 39.5713 11.864C39.8593 11.7093 40.1873 11.632 40.5553 11.632Z"/>
<path d="M45.6378 16.064C45.1471 16.064 44.7151 15.968 44.3418 15.776C43.9738 15.584 43.6884 15.3227 43.4858 14.992C43.2831 14.656 43.1818 14.2747 43.1818 13.848C43.1818 13.416 43.2804 13.0347 43.4778 12.704C43.6804 12.368 43.9551 12.1067 44.3018 11.92C44.6484 11.728 45.0404 11.632 45.4778 11.632C45.8991 11.632 46.2778 11.7227 46.6138 11.904C46.9551 12.08 47.2244 12.336 47.4218 12.672C47.6191 13.0027 47.7178 13.4 47.7178 13.864C47.7178 13.912 47.7151 13.968 47.7098 14.032C47.7044 14.0907 47.6991 14.1467 47.6938 14.2H44.1978V13.472H47.0378L46.5578 13.688C46.5578 13.464 46.5124 13.2693 46.4218 13.104C46.3311 12.9387 46.2058 12.8107 46.0458 12.72C45.8858 12.624 45.6991 12.576 45.4858 12.576C45.2724 12.576 45.0831 12.624 44.9178 12.72C44.7578 12.8107 44.6324 12.9413 44.5418 13.112C44.4511 13.2773 44.4058 13.4747 44.4058 13.704V13.896C44.4058 14.1307 44.4564 14.3387 44.5578 14.52C44.6644 14.696 44.8111 14.832 44.9978 14.928C45.1898 15.0187 45.4138 15.064 45.6698 15.064C45.8991 15.064 46.0991 15.0293 46.2698 14.96C46.4458 14.8907 46.6058 14.7867 46.7498 14.648L47.4138 15.368C47.2164 15.592 46.9684 15.7653 46.6698 15.888C46.3711 16.0053 46.0271 16.064 45.6378 16.064Z"/>
</mask>
<path d="M1.95534 16L4.45134 10.4H5.73134L8.23534 16H6.87534L4.82734 11.056H5.33934L3.28334 16H1.95534ZM3.20334 14.8L3.54734 13.816H6.42734L6.77934 14.8H3.20334Z" fill="url(#paint1_linear_1_4)"/>
<path d="M10.5373 16.064C10.1319 16.064 9.76661 15.9733 9.44128 15.792C9.11595 15.6053 8.85728 15.3467 8.66528 15.016C8.47861 14.6853 8.38528 14.296 8.38528 13.848C8.38528 13.3947 8.47861 13.0027 8.66528 12.672C8.85728 12.3413 9.11595 12.0853 9.44128 11.904C9.76661 11.7227 10.1319 11.632 10.5373 11.632C10.8999 11.632 11.2173 11.712 11.4893 11.872C11.7613 12.032 11.9719 12.2747 12.1213 12.6C12.2706 12.9253 12.3453 13.3413 12.3453 13.848C12.3453 14.3493 12.2733 14.7653 12.1293 15.096C11.9853 15.4213 11.7773 15.664 11.5053 15.824C11.2386 15.984 10.9159 16.064 10.5373 16.064ZM10.7533 15.04C10.9559 15.04 11.1399 14.992 11.3053 14.896C11.4706 14.8 11.6013 14.664 11.6973 14.488C11.7986 14.3067 11.8493 14.0933 11.8493 13.848C11.8493 13.5973 11.7986 13.384 11.6973 13.208C11.6013 13.032 11.4706 12.896 11.3053 12.8C11.1399 12.704 10.9559 12.656 10.7533 12.656C10.5453 12.656 10.3586 12.704 10.1933 12.8C10.0279 12.896 9.89461 13.032 9.79328 13.208C9.69728 13.384 9.64928 13.5973 9.64928 13.848C9.64928 14.0933 9.69728 14.3067 9.79328 14.488C9.89461 14.664 10.0279 14.8 10.1933 14.896C10.3586 14.992 10.5453 15.04 10.7533 15.04ZM11.8813 16V15.12L11.9053 13.84L11.8253 12.568V10.064H13.0733V16H11.8813Z" fill="url(#paint2_linear_1_4)"/>
<path d="M14.2283 16V11.696H15.4203V12.912L15.2523 12.56C15.3803 12.256 15.5857 12.0267 15.8683 11.872C16.151 11.712 16.495 11.632 16.9003 11.632V12.784C16.847 12.7787 16.799 12.776 16.7563 12.776C16.7137 12.7707 16.6683 12.768 16.6203 12.768C16.279 12.768 16.0017 12.8667 15.7883 13.064C15.5803 13.256 15.4763 13.5573 15.4763 13.968V16H14.2283Z" fill="url(#paint3_linear_1_4)"/>
<path d="M19.7472 16.064C19.2565 16.064 18.8245 15.968 18.4512 15.776C18.0832 15.584 17.7978 15.3227 17.5952 14.992C17.3925 14.656 17.2912 14.2747 17.2912 13.848C17.2912 13.416 17.3898 13.0347 17.5872 12.704C17.7898 12.368 18.0645 12.1067 18.4112 11.92C18.7578 11.728 19.1498 11.632 19.5872 11.632C20.0085 11.632 20.3872 11.7227 20.7232 11.904C21.0645 12.08 21.3338 12.336 21.5312 12.672C21.7285 13.0027 21.8272 13.4 21.8272 13.864C21.8272 13.912 21.8245 13.968 21.8192 14.032C21.8138 14.0907 21.8085 14.1467 21.8032 14.2H18.3072V13.472H21.1472L20.6672 13.688C20.6672 13.464 20.6218 13.2693 20.5312 13.104C20.4405 12.9387 20.3152 12.8107 20.1552 12.72C19.9952 12.624 19.8085 12.576 19.5952 12.576C19.3818 12.576 19.1925 12.624 19.0272 12.72C18.8672 12.8107 18.7418 12.9413 18.6512 13.112C18.5605 13.2773 18.5152 13.4747 18.5152 13.704V13.896C18.5152 14.1307 18.5658 14.3387 18.6672 14.52C18.7738 14.696 18.9205 14.832 19.1072 14.928C19.2992 15.0187 19.5232 15.064 19.7792 15.064C20.0085 15.064 20.2085 15.0293 20.3792 14.96C20.5552 14.8907 20.7152 14.7867 20.8592 14.648L21.5232 15.368C21.3258 15.592 21.0778 15.7653 20.7792 15.888C20.4805 16.0053 20.1365 16.064 19.7472 16.064Z" fill="url(#paint4_linear_1_4)"/>
<path d="M25.274 11.632C25.6154 11.632 25.9194 11.7013 26.186 11.84C26.458 11.9733 26.6714 12.1813 26.826 12.464C26.9807 12.7413 27.058 13.0987 27.058 13.536V16H25.81V13.728C25.81 13.3813 25.7327 13.1253 25.578 12.96C25.4287 12.7947 25.2154 12.712 24.938 12.712C24.7407 12.712 24.562 12.7547 24.402 12.84C24.2474 12.92 24.1247 13.0453 24.034 13.216C23.9487 13.3867 23.906 13.6053 23.906 13.872V16H22.658V11.696H23.85V12.888L23.626 12.528C23.7807 12.24 24.002 12.0187 24.29 11.864C24.578 11.7093 24.906 11.632 25.274 11.632Z" fill="url(#paint5_linear_1_4)"/>
<path d="M30.8293 16V15.16L30.7493 14.976V13.472C30.7493 13.2053 30.6666 12.9973 30.5013 12.848C30.3413 12.6987 30.0933 12.624 29.7573 12.624C29.5279 12.624 29.3013 12.6613 29.0773 12.736C28.8586 12.8053 28.6719 12.9013 28.5173 13.024L28.0693 12.152C28.3039 11.9867 28.5866 11.8587 28.9173 11.768C29.2479 11.6773 29.5839 11.632 29.9253 11.632C30.5813 11.632 31.0906 11.7867 31.4533 12.096C31.8159 12.4053 31.9973 12.888 31.9973 13.544V16H30.8293ZM29.5173 16.064C29.1813 16.064 28.8933 16.008 28.6533 15.896C28.4133 15.7787 28.2293 15.6213 28.1013 15.424C27.9733 15.2267 27.9093 15.0053 27.9093 14.76C27.9093 14.504 27.9706 14.28 28.0933 14.088C28.2213 13.896 28.4213 13.7467 28.6933 13.64C28.9653 13.528 29.3199 13.472 29.7573 13.472H30.9013V14.2H29.8933C29.5999 14.2 29.3973 14.248 29.2853 14.344C29.1786 14.44 29.1253 14.56 29.1253 14.704C29.1253 14.864 29.1866 14.992 29.3093 15.088C29.4373 15.1787 29.6106 15.224 29.8293 15.224C30.0373 15.224 30.2239 15.176 30.3893 15.08C30.5546 14.9787 30.6746 14.832 30.7493 14.64L30.9413 15.216C30.8506 15.4933 30.6853 15.704 30.4453 15.848C30.2053 15.992 29.8959 16.064 29.5173 16.064Z" fill="url(#paint6_linear_1_4)"/>
<path d="M33.1268 16V10.064H34.3748V16H33.1268Z" fill="url(#paint7_linear_1_4)"/>
<path d="M35.533 16V11.696H36.781V16H35.533ZM36.157 11.096C35.9277 11.096 35.741 11.0293 35.597 10.896C35.453 10.7627 35.381 10.5973 35.381 10.4C35.381 10.2027 35.453 10.0373 35.597 9.904C35.741 9.77067 35.9277 9.704 36.157 9.704C36.3864 9.704 36.573 9.768 36.717 9.896C36.861 10.0187 36.933 10.1787 36.933 10.376C36.933 10.584 36.861 10.7573 36.717 10.896C36.5784 11.0293 36.3917 11.096 36.157 11.096Z" fill="url(#paint8_linear_1_4)"/>
<path d="M40.5553 11.632C40.8966 11.632 41.2006 11.7013 41.4673 11.84C41.7393 11.9733 41.9526 12.1813 42.1073 12.464C42.2619 12.7413 42.3393 13.0987 42.3393 13.536V16H41.0913V13.728C41.0913 13.3813 41.0139 13.1253 40.8593 12.96C40.7099 12.7947 40.4966 12.712 40.2193 12.712C40.0219 12.712 39.8433 12.7547 39.6833 12.84C39.5286 12.92 39.4059 13.0453 39.3153 13.216C39.2299 13.3867 39.1873 13.6053 39.1873 13.872V16H37.9393V11.696H39.1313V12.888L38.9073 12.528C39.0619 12.24 39.2833 12.0187 39.5713 11.864C39.8593 11.7093 40.1873 11.632 40.5553 11.632Z" fill="url(#paint9_linear_1_4)"/>
<path d="M45.6378 16.064C45.1471 16.064 44.7151 15.968 44.3418 15.776C43.9738 15.584 43.6884 15.3227 43.4858 14.992C43.2831 14.656 43.1818 14.2747 43.1818 13.848C43.1818 13.416 43.2804 13.0347 43.4778 12.704C43.6804 12.368 43.9551 12.1067 44.3018 11.92C44.6484 11.728 45.0404 11.632 45.4778 11.632C45.8991 11.632 46.2778 11.7227 46.6138 11.904C46.9551 12.08 47.2244 12.336 47.4218 12.672C47.6191 13.0027 47.7178 13.4 47.7178 13.864C47.7178 13.912 47.7151 13.968 47.7098 14.032C47.7044 14.0907 47.6991 14.1467 47.6938 14.2H44.1978V13.472H47.0378L46.5578 13.688C46.5578 13.464 46.5124 13.2693 46.4218 13.104C46.3311 12.9387 46.2058 12.8107 46.0458 12.72C45.8858 12.624 45.6991 12.576 45.4858 12.576C45.2724 12.576 45.0831 12.624 44.9178 12.72C44.7578 12.8107 44.6324 12.9413 44.5418 13.112C44.4511 13.2773 44.4058 13.4747 44.4058 13.704V13.896C44.4058 14.1307 44.4564 14.3387 44.5578 14.52C44.6644 14.696 44.8111 14.832 44.9978 14.928C45.1898 15.0187 45.4138 15.064 45.6698 15.064C45.8991 15.064 46.0991 15.0293 46.2698 14.96C46.4458 14.8907 46.6058 14.7867 46.7498 14.648L47.4138 15.368C47.2164 15.592 46.9684 15.7653 46.6698 15.888C46.3711 16.0053 46.0271 16.064 45.6378 16.064Z" fill="url(#paint10_linear_1_4)"/>
<path d="M1.95534 16L4.45134 10.4H5.73134L8.23534 16H6.87534L4.82734 11.056H5.33934L3.28334 16H1.95534ZM3.20334 14.8L3.54734 13.816H6.42734L6.77934 14.8H3.20334Z" stroke="black" stroke-width="2" stroke-linejoin="round" mask="url(#path-7-outside-1_1_4)"/>
<path d="M10.5373 16.064C10.1319 16.064 9.76661 15.9733 9.44128 15.792C9.11595 15.6053 8.85728 15.3467 8.66528 15.016C8.47861 14.6853 8.38528 14.296 8.38528 13.848C8.38528 13.3947 8.47861 13.0027 8.66528 12.672C8.85728 12.3413 9.11595 12.0853 9.44128 11.904C9.76661 11.7227 10.1319 11.632 10.5373 11.632C10.8999 11.632 11.2173 11.712 11.4893 11.872C11.7613 12.032 11.9719 12.2747 12.1213 12.6C12.2706 12.9253 12.3453 13.3413 12.3453 13.848C12.3453 14.3493 12.2733 14.7653 12.1293 15.096C11.9853 15.4213 11.7773 15.664 11.5053 15.824C11.2386 15.984 10.9159 16.064 10.5373 16.064ZM10.7533 15.04C10.9559 15.04 11.1399 14.992 11.3053 14.896C11.4706 14.8 11.6013 14.664 11.6973 14.488C11.7986 14.3067 11.8493 14.0933 11.8493 13.848C11.8493 13.5973 11.7986 13.384 11.6973 13.208C11.6013 13.032 11.4706 12.896 11.3053 12.8C11.1399 12.704 10.9559 12.656 10.7533 12.656C10.5453 12.656 10.3586 12.704 10.1933 12.8C10.0279 12.896 9.89461 13.032 9.79328 13.208C9.69728 13.384 9.64928 13.5973 9.64928 13.848C9.64928 14.0933 9.69728 14.3067 9.79328 14.488C9.89461 14.664 10.0279 14.8 10.1933 14.896C10.3586 14.992 10.5453 15.04 10.7533 15.04ZM11.8813 16V15.12L11.9053 13.84L11.8253 12.568V10.064H13.0733V16H11.8813Z" stroke="black" stroke-width="2" stroke-linejoin="round" mask="url(#path-7-outside-1_1_4)"/>
<path d="M14.2283 16V11.696H15.4203V12.912L15.2523 12.56C15.3803 12.256 15.5857 12.0267 15.8683 11.872C16.151 11.712 16.495 11.632 16.9003 11.632V12.784C16.847 12.7787 16.799 12.776 16.7563 12.776C16.7137 12.7707 16.6683 12.768 16.6203 12.768C16.279 12.768 16.0017 12.8667 15.7883 13.064C15.5803 13.256 15.4763 13.5573 15.4763 13.968V16H14.2283Z" stroke="black" stroke-width="2" stroke-linejoin="round" mask="url(#path-7-outside-1_1_4)"/>
<path d="M19.7472 16.064C19.2565 16.064 18.8245 15.968 18.4512 15.776C18.0832 15.584 17.7978 15.3227 17.5952 14.992C17.3925 14.656 17.2912 14.2747 17.2912 13.848C17.2912 13.416 17.3898 13.0347 17.5872 12.704C17.7898 12.368 18.0645 12.1067 18.4112 11.92C18.7578 11.728 19.1498 11.632 19.5872 11.632C20.0085 11.632 20.3872 11.7227 20.7232 11.904C21.0645 12.08 21.3338 12.336 21.5312 12.672C21.7285 13.0027 21.8272 13.4 21.8272 13.864C21.8272 13.912 21.8245 13.968 21.8192 14.032C21.8138 14.0907 21.8085 14.1467 21.8032 14.2H18.3072V13.472H21.1472L20.6672 13.688C20.6672 13.464 20.6218 13.2693 20.5312 13.104C20.4405 12.9387 20.3152 12.8107 20.1552 12.72C19.9952 12.624 19.8085 12.576 19.5952 12.576C19.3818 12.576 19.1925 12.624 19.0272 12.72C18.8672 12.8107 18.7418 12.9413 18.6512 13.112C18.5605 13.2773 18.5152 13.4747 18.5152 13.704V13.896C18.5152 14.1307 18.5658 14.3387 18.6672 14.52C18.7738 14.696 18.9205 14.832 19.1072 14.928C19.2992 15.0187 19.5232 15.064 19.7792 15.064C20.0085 15.064 20.2085 15.0293 20.3792 14.96C20.5552 14.8907 20.7152 14.7867 20.8592 14.648L21.5232 15.368C21.3258 15.592 21.0778 15.7653 20.7792 15.888C20.4805 16.0053 20.1365 16.064 19.7472 16.064Z" stroke="black" stroke-width="2" stroke-linejoin="round" mask="url(#path-7-outside-1_1_4)"/>
<path d="M25.274 11.632C25.6154 11.632 25.9194 11.7013 26.186 11.84C26.458 11.9733 26.6714 12.1813 26.826 12.464C26.9807 12.7413 27.058 13.0987 27.058 13.536V16H25.81V13.728C25.81 13.3813 25.7327 13.1253 25.578 12.96C25.4287 12.7947 25.2154 12.712 24.938 12.712C24.7407 12.712 24.562 12.7547 24.402 12.84C24.2474 12.92 24.1247 13.0453 24.034 13.216C23.9487 13.3867 23.906 13.6053 23.906 13.872V16H22.658V11.696H23.85V12.888L23.626 12.528C23.7807 12.24 24.002 12.0187 24.29 11.864C24.578 11.7093 24.906 11.632 25.274 11.632Z" stroke="black" stroke-width="2" stroke-linejoin="round" mask="url(#path-7-outside-1_1_4)"/>
<path d="M30.8293 16V15.16L30.7493 14.976V13.472C30.7493 13.2053 30.6666 12.9973 30.5013 12.848C30.3413 12.6987 30.0933 12.624 29.7573 12.624C29.5279 12.624 29.3013 12.6613 29.0773 12.736C28.8586 12.8053 28.6719 12.9013 28.5173 13.024L28.0693 12.152C28.3039 11.9867 28.5866 11.8587 28.9173 11.768C29.2479 11.6773 29.5839 11.632 29.9253 11.632C30.5813 11.632 31.0906 11.7867 31.4533 12.096C31.8159 12.4053 31.9973 12.888 31.9973 13.544V16H30.8293ZM29.5173 16.064C29.1813 16.064 28.8933 16.008 28.6533 15.896C28.4133 15.7787 28.2293 15.6213 28.1013 15.424C27.9733 15.2267 27.9093 15.0053 27.9093 14.76C27.9093 14.504 27.9706 14.28 28.0933 14.088C28.2213 13.896 28.4213 13.7467 28.6933 13.64C28.9653 13.528 29.3199 13.472 29.7573 13.472H30.9013V14.2H29.8933C29.5999 14.2 29.3973 14.248 29.2853 14.344C29.1786 14.44 29.1253 14.56 29.1253 14.704C29.1253 14.864 29.1866 14.992 29.3093 15.088C29.4373 15.1787 29.6106 15.224 29.8293 15.224C30.0373 15.224 30.2239 15.176 30.3893 15.08C30.5546 14.9787 30.6746 14.832 30.7493 14.64L30.9413 15.216C30.8506 15.4933 30.6853 15.704 30.4453 15.848C30.2053 15.992 29.8959 16.064 29.5173 16.064Z" stroke="black" stroke-width="2" stroke-linejoin="round" mask="url(#path-7-outside-1_1_4)"/>
<path d="M33.1268 16V10.064H34.3748V16H33.1268Z" stroke="black" stroke-width="2" stroke-linejoin="round" mask="url(#path-7-outside-1_1_4)"/>
<path d="M35.533 16V11.696H36.781V16H35.533ZM36.157 11.096C35.9277 11.096 35.741 11.0293 35.597 10.896C35.453 10.7627 35.381 10.5973 35.381 10.4C35.381 10.2027 35.453 10.0373 35.597 9.904C35.741 9.77067 35.9277 9.704 36.157 9.704C36.3864 9.704 36.573 9.768 36.717 9.896C36.861 10.0187 36.933 10.1787 36.933 10.376C36.933 10.584 36.861 10.7573 36.717 10.896C36.5784 11.0293 36.3917 11.096 36.157 11.096Z" stroke="black" stroke-width="2" stroke-linejoin="round" mask="url(#path-7-outside-1_1_4)"/>
<path d="M40.5553 11.632C40.8966 11.632 41.2006 11.7013 41.4673 11.84C41.7393 11.9733 41.9526 12.1813 42.1073 12.464C42.2619 12.7413 42.3393 13.0987 42.3393 13.536V16H41.0913V13.728C41.0913 13.3813 41.0139 13.1253 40.8593 12.96C40.7099 12.7947 40.4966 12.712 40.2193 12.712C40.0219 12.712 39.8433 12.7547 39.6833 12.84C39.5286 12.92 39.4059 13.0453 39.3153 13.216C39.2299 13.3867 39.1873 13.6053 39.1873 13.872V16H37.9393V11.696H39.1313V12.888L38.9073 12.528C39.0619 12.24 39.2833 12.0187 39.5713 11.864C39.8593 11.7093 40.1873 11.632 40.5553 11.632Z" stroke="black" stroke-width="2" stroke-linejoin="round" mask="url(#path-7-outside-1_1_4)"/>
<path d="M45.6378 16.064C45.1471 16.064 44.7151 15.968 44.3418 15.776C43.9738 15.584 43.6884 15.3227 43.4858 14.992C43.2831 14.656 43.1818 14.2747 43.1818 13.848C43.1818 13.416 43.2804 13.0347 43.4778 12.704C43.6804 12.368 43.9551 12.1067 44.3018 11.92C44.6484 11.728 45.0404 11.632 45.4778 11.632C45.8991 11.632 46.2778 11.7227 46.6138 11.904C46.9551 12.08 47.2244 12.336 47.4218 12.672C47.6191 13.0027 47.7178 13.4 47.7178 13.864C47.7178 13.912 47.7151 13.968 47.7098 14.032C47.7044 14.0907 47.6991 14.1467 47.6938 14.2H44.1978V13.472H47.0378L46.5578 13.688C46.5578 13.464 46.5124 13.2693 46.4218 13.104C46.3311 12.9387 46.2058 12.8107 46.0458 12.72C45.8858 12.624 45.6991 12.576 45.4858 12.576C45.2724 12.576 45.0831 12.624 44.9178 12.72C44.7578 12.8107 44.6324 12.9413 44.5418 13.112C44.4511 13.2773 44.4058 13.4747 44.4058 13.704V13.896C44.4058 14.1307 44.4564 14.3387 44.5578 14.52C44.6644 14.696 44.8111 14.832 44.9978 14.928C45.1898 15.0187 45.4138 15.064 45.6698 15.064C45.8991 15.064 46.0991 15.0293 46.2698 14.96C46.4458 14.8907 46.6058 14.7867 46.7498 14.648L47.4138 15.368C47.2164 15.592 46.9684 15.7653 46.6698 15.888C46.3711 16.0053 46.0271 16.064 45.6378 16.064Z" stroke="black" stroke-width="2" stroke-linejoin="round" mask="url(#path-7-outside-1_1_4)"/>
</g>
<defs>
<linearGradient id="paint0_linear_1_4" x1="42.5084" y1="5.33023" x2="42.5084" y2="9.33023" gradientUnits="userSpaceOnUse">
<stop stop-color="#00FF19"/>
<stop offset="0.0001" stop-color="#42FF00"/>
<stop offset="1" stop-color="#CCFF00"/>
</linearGradient>
<linearGradient id="paint1_linear_1_4" x1="25" y1="10" x2="25" y2="16" gradientUnits="userSpaceOnUse">
<stop stop-color="#00FF19"/>
<stop offset="1" stop-color="#CCFF00"/>
</linearGradient>
<linearGradient id="paint2_linear_1_4" x1="25" y1="10" x2="25" y2="16" gradientUnits="userSpaceOnUse">
<stop stop-color="#00FF19"/>
<stop offset="1" stop-color="#CCFF00"/>
</linearGradient>
<linearGradient id="paint3_linear_1_4" x1="25" y1="10" x2="25" y2="16" gradientUnits="userSpaceOnUse">
<stop stop-color="#00FF19"/>
<stop offset="1" stop-color="#CCFF00"/>
</linearGradient>
<linearGradient id="paint4_linear_1_4" x1="25" y1="10" x2="25" y2="16" gradientUnits="userSpaceOnUse">
<stop stop-color="#00FF19"/>
<stop offset="1" stop-color="#CCFF00"/>
</linearGradient>
<linearGradient id="paint5_linear_1_4" x1="25" y1="10" x2="25" y2="16" gradientUnits="userSpaceOnUse">
<stop stop-color="#00FF19"/>
<stop offset="1" stop-color="#CCFF00"/>
</linearGradient>
<linearGradient id="paint6_linear_1_4" x1="25" y1="10" x2="25" y2="16" gradientUnits="userSpaceOnUse">
<stop stop-color="#00FF19"/>
<stop offset="1" stop-color="#CCFF00"/>
</linearGradient>
<linearGradient id="paint7_linear_1_4" x1="25" y1="10" x2="25" y2="16" gradientUnits="userSpaceOnUse">
<stop stop-color="#00FF19"/>
<stop offset="1" stop-color="#CCFF00"/>
</linearGradient>
<linearGradient id="paint8_linear_1_4" x1="25" y1="10" x2="25" y2="16" gradientUnits="userSpaceOnUse">
<stop stop-color="#00FF19"/>
<stop offset="1" stop-color="#CCFF00"/>
</linearGradient>
<linearGradient id="paint9_linear_1_4" x1="25" y1="10" x2="25" y2="16" gradientUnits="userSpaceOnUse">
<stop stop-color="#00FF19"/>
<stop offset="1" stop-color="#CCFF00"/>
</linearGradient>
<linearGradient id="paint10_linear_1_4" x1="25" y1="10" x2="25" y2="16" gradientUnits="userSpaceOnUse">
<stop stop-color="#00FF19"/>
<stop offset="1" stop-color="#CCFF00"/>
</linearGradient>
<clipPath id="clip0_1_4">
<rect width="49" height="18" fill="white"/>
</clipPath>
</defs>
</svg>
