<svg width="49" height="10" viewBox="0 0 49 10" fill="none" xmlns="http://www.w3.org/2000/svg">
<g clip-path="url(#clip0_1_2)">
<mask id="path-1-outside-1_1_2" maskUnits="userSpaceOnUse" x="0.955345" y="0.703999" width="48" height="9" fill="black">
<rect fill="white" x="0.955345" y="0.703999" width="48" height="9"/>
<path d="M1.95535 8L4.45135 2.4H5.73135L8.23535 8H6.87535L4.82735 3.056H5.33935L3.28335 8H1.95535ZM3.20335 6.8L3.54735 5.816H6.42735L6.77935 6.8H3.20335Z"/>
<path d="M10.5373 8.064C10.1319 8.064 9.76662 7.97333 9.44128 7.792C9.11595 7.60533 8.85728 7.34667 8.66528 7.016C8.47862 6.68533 8.38528 6.296 8.38528 5.848C8.38528 5.39467 8.47862 5.00267 8.66528 4.672C8.85728 4.34133 9.11595 4.08533 9.44128 3.904C9.76662 3.72267 10.1319 3.632 10.5373 3.632C10.8999 3.632 11.2173 3.712 11.4893 3.872C11.7613 4.032 11.9719 4.27467 12.1213 4.6C12.2706 4.92533 12.3453 5.34133 12.3453 5.848C12.3453 6.34933 12.2733 6.76533 12.1293 7.096C11.9853 7.42133 11.7773 7.664 11.5053 7.824C11.2386 7.984 10.9159 8.064 10.5373 8.064ZM10.7533 7.04C10.9559 7.04 11.1399 6.992 11.3053 6.896C11.4706 6.8 11.6013 6.664 11.6973 6.488C11.7986 6.30667 11.8493 6.09333 11.8493 5.848C11.8493 5.59733 11.7986 5.384 11.6973 5.208C11.6013 5.032 11.4706 4.896 11.3053 4.8C11.1399 4.704 10.9559 4.656 10.7533 4.656C10.5453 4.656 10.3586 4.704 10.1933 4.8C10.0279 4.896 9.89462 5.032 9.79328 5.208C9.69728 5.384 9.64928 5.59733 9.64928 5.848C9.64928 6.09333 9.69728 6.30667 9.79328 6.488C9.89462 6.664 10.0279 6.8 10.1933 6.896C10.3586 6.992 10.5453 7.04 10.7533 7.04ZM11.8813 8V7.12L11.9053 5.84L11.8253 4.568V2.064H13.0733V8H11.8813Z"/>
<path d="M14.2283 8V3.696H15.4203V4.912L15.2523 4.56C15.3803 4.256 15.5857 4.02667 15.8683 3.872C16.151 3.712 16.495 3.632 16.9003 3.632V4.784C16.847 4.77867 16.799 4.776 16.7563 4.776C16.7137 4.77067 16.6683 4.768 16.6203 4.768C16.279 4.768 16.0017 4.86667 15.7883 5.064C15.5803 5.256 15.4763 5.55733 15.4763 5.968V8H14.2283Z"/>
<path d="M19.7472 8.064C19.2565 8.064 18.8245 7.968 18.4512 7.776C18.0832 7.584 17.7978 7.32267 17.5952 6.992C17.3925 6.656 17.2912 6.27467 17.2912 5.848C17.2912 5.416 17.3898 5.03467 17.5872 4.704C17.7898 4.368 18.0645 4.10667 18.4112 3.92C18.7578 3.728 19.1498 3.632 19.5872 3.632C20.0085 3.632 20.3872 3.72267 20.7232 3.904C21.0645 4.08 21.3338 4.336 21.5312 4.672C21.7285 5.00267 21.8272 5.4 21.8272 5.864C21.8272 5.912 21.8245 5.968 21.8192 6.032C21.8138 6.09067 21.8085 6.14667 21.8032 6.2H18.3072V5.472H21.1472L20.6672 5.688C20.6672 5.464 20.6218 5.26933 20.5312 5.104C20.4405 4.93867 20.3152 4.81067 20.1552 4.72C19.9952 4.624 19.8085 4.576 19.5952 4.576C19.3818 4.576 19.1925 4.624 19.0272 4.72C18.8672 4.81067 18.7418 4.94133 18.6512 5.112C18.5605 5.27733 18.5152 5.47467 18.5152 5.704V5.896C18.5152 6.13067 18.5658 6.33867 18.6672 6.52C18.7738 6.696 18.9205 6.832 19.1072 6.928C19.2992 7.01867 19.5232 7.064 19.7792 7.064C20.0085 7.064 20.2085 7.02933 20.3792 6.96C20.5552 6.89067 20.7152 6.78667 20.8592 6.648L21.5232 7.368C21.3258 7.592 21.0778 7.76533 20.7792 7.888C20.4805 8.00533 20.1365 8.064 19.7472 8.064Z"/>
<path d="M25.274 3.632C25.6154 3.632 25.9194 3.70133 26.186 3.84C26.458 3.97333 26.6714 4.18133 26.826 4.464C26.9807 4.74133 27.058 5.09867 27.058 5.536V8H25.81V5.728C25.81 5.38133 25.7327 5.12533 25.578 4.96C25.4287 4.79467 25.2154 4.712 24.938 4.712C24.7407 4.712 24.562 4.75467 24.402 4.84C24.2474 4.92 24.1247 5.04533 24.034 5.216C23.9487 5.38667 23.906 5.60533 23.906 5.872V8H22.658V3.696H23.85V4.888L23.626 4.528C23.7807 4.24 24.002 4.01867 24.29 3.864C24.578 3.70933 24.906 3.632 25.274 3.632Z"/>
<path d="M30.8293 8V7.16L30.7493 6.976V5.472C30.7493 5.20533 30.6666 4.99733 30.5013 4.848C30.3413 4.69867 30.0933 4.624 29.7573 4.624C29.5279 4.624 29.3013 4.66133 29.0773 4.736C28.8586 4.80533 28.6719 4.90133 28.5173 5.024L28.0693 4.152C28.3039 3.98667 28.5866 3.85867 28.9173 3.768C29.2479 3.67733 29.584 3.632 29.9253 3.632C30.5813 3.632 31.0906 3.78667 31.4533 4.096C31.816 4.40533 31.9973 4.888 31.9973 5.544V8H30.8293ZM29.5173 8.064C29.1813 8.064 28.8933 8.008 28.6533 7.896C28.4133 7.77867 28.2293 7.62133 28.1013 7.424C27.9733 7.22667 27.9093 7.00533 27.9093 6.76C27.9093 6.504 27.9706 6.28 28.0933 6.088C28.2213 5.896 28.4213 5.74667 28.6933 5.64C28.9653 5.528 29.3199 5.472 29.7573 5.472H30.9013V6.2H29.8933C29.5999 6.2 29.3973 6.248 29.2853 6.344C29.1786 6.44 29.1253 6.56 29.1253 6.704C29.1253 6.864 29.1866 6.992 29.3093 7.088C29.4373 7.17867 29.6106 7.224 29.8293 7.224C30.0373 7.224 30.2239 7.176 30.3893 7.08C30.5546 6.97867 30.6746 6.832 30.7493 6.64L30.9413 7.216C30.8506 7.49333 30.6853 7.704 30.4453 7.848C30.2053 7.992 29.8959 8.064 29.5173 8.064Z"/>
<path d="M33.1268 8V2.064H34.3748V8H33.1268Z"/>
<path d="M35.533 8V3.696H36.781V8H35.533ZM36.157 3.096C35.9277 3.096 35.741 3.02933 35.597 2.896C35.453 2.76267 35.381 2.59733 35.381 2.4C35.381 2.20267 35.453 2.03733 35.597 1.904C35.741 1.77067 35.9277 1.704 36.157 1.704C36.3864 1.704 36.573 1.768 36.717 1.896C36.861 2.01867 36.933 2.17867 36.933 2.376C36.933 2.584 36.861 2.75733 36.717 2.896C36.5784 3.02933 36.3917 3.096 36.157 3.096Z"/>
<path d="M40.5553 3.632C40.8966 3.632 41.2006 3.70133 41.4673 3.84C41.7393 3.97333 41.9526 4.18133 42.1073 4.464C42.262 4.74133 42.3393 5.09867 42.3393 5.536V8H41.0913V5.728C41.0913 5.38133 41.014 5.12533 40.8593 4.96C40.71 4.79467 40.4966 4.712 40.2193 4.712C40.022 4.712 39.8433 4.75467 39.6833 4.84C39.5286 4.92 39.4059 5.04533 39.3153 5.216C39.2299 5.38667 39.1873 5.60533 39.1873 5.872V8H37.9393V3.696H39.1313V4.888L38.9073 4.528C39.062 4.24 39.2833 4.01867 39.5713 3.864C39.8593 3.70933 40.1873 3.632 40.5553 3.632Z"/>
<path d="M45.6378 8.064C45.1471 8.064 44.7151 7.968 44.3418 7.776C43.9738 7.584 43.6884 7.32267 43.4858 6.992C43.2831 6.656 43.1818 6.27467 43.1818 5.848C43.1818 5.416 43.2804 5.03467 43.4778 4.704C43.6804 4.368 43.9551 4.10667 44.3018 3.92C44.6485 3.728 45.0404 3.632 45.4778 3.632C45.8991 3.632 46.2778 3.72267 46.6138 3.904C46.9551 4.08 47.2245 4.336 47.4218 4.672C47.6191 5.00267 47.7178 5.4 47.7178 5.864C47.7178 5.912 47.7151 5.968 47.7098 6.032C47.7044 6.09067 47.6991 6.14667 47.6938 6.2H44.1978V5.472H47.0378L46.5578 5.688C46.5578 5.464 46.5125 5.26933 46.4218 5.104C46.3311 4.93867 46.2058 4.81067 46.0458 4.72C45.8858 4.624 45.6991 4.576 45.4858 4.576C45.2724 4.576 45.0831 4.624 44.9178 4.72C44.7578 4.81067 44.6324 4.94133 44.5418 5.112C44.4511 5.27733 44.4058 5.47467 44.4058 5.704V5.896C44.4058 6.13067 44.4564 6.33867 44.5578 6.52C44.6644 6.696 44.8111 6.832 44.9978 6.928C45.1898 7.01867 45.4138 7.064 45.6698 7.064C45.8991 7.064 46.0991 7.02933 46.2698 6.96C46.4458 6.89067 46.6058 6.78667 46.7498 6.648L47.4138 7.368C47.2165 7.592 46.9685 7.76533 46.6698 7.888C46.3711 8.00533 46.0271 8.064 45.6378 8.064Z"/>
</mask>
<path d="M1.95535 8L4.45135 2.4H5.73135L8.23535 8H6.87535L4.82735 3.056H5.33935L3.28335 8H1.95535ZM3.20335 6.8L3.54735 5.816H6.42735L6.77935 6.8H3.20335Z" fill="url(#paint0_linear_1_2)"/>
<path d="M10.5373 8.064C10.1319 8.064 9.76662 7.97333 9.44128 7.792C9.11595 7.60533 8.85728 7.34667 8.66528 7.016C8.47862 6.68533 8.38528 6.296 8.38528 5.848C8.38528 5.39467 8.47862 5.00267 8.66528 4.672C8.85728 4.34133 9.11595 4.08533 9.44128 3.904C9.76662 3.72267 10.1319 3.632 10.5373 3.632C10.8999 3.632 11.2173 3.712 11.4893 3.872C11.7613 4.032 11.9719 4.27467 12.1213 4.6C12.2706 4.92533 12.3453 5.34133 12.3453 5.848C12.3453 6.34933 12.2733 6.76533 12.1293 7.096C11.9853 7.42133 11.7773 7.664 11.5053 7.824C11.2386 7.984 10.9159 8.064 10.5373 8.064ZM10.7533 7.04C10.9559 7.04 11.1399 6.992 11.3053 6.896C11.4706 6.8 11.6013 6.664 11.6973 6.488C11.7986 6.30667 11.8493 6.09333 11.8493 5.848C11.8493 5.59733 11.7986 5.384 11.6973 5.208C11.6013 5.032 11.4706 4.896 11.3053 4.8C11.1399 4.704 10.9559 4.656 10.7533 4.656C10.5453 4.656 10.3586 4.704 10.1933 4.8C10.0279 4.896 9.89462 5.032 9.79328 5.208C9.69728 5.384 9.64928 5.59733 9.64928 5.848C9.64928 6.09333 9.69728 6.30667 9.79328 6.488C9.89462 6.664 10.0279 6.8 10.1933 6.896C10.3586 6.992 10.5453 7.04 10.7533 7.04ZM11.8813 8V7.12L11.9053 5.84L11.8253 4.568V2.064H13.0733V8H11.8813Z" fill="url(#paint1_linear_1_2)"/>
<path d="M14.2283 8V3.696H15.4203V4.912L15.2523 4.56C15.3803 4.256 15.5857 4.02667 15.8683 3.872C16.151 3.712 16.495 3.632 16.9003 3.632V4.784C16.847 4.77867 16.799 4.776 16.7563 4.776C16.7137 4.77067 16.6683 4.768 16.6203 4.768C16.279 4.768 16.0017 4.86667 15.7883 5.064C15.5803 5.256 15.4763 5.55733 15.4763 5.968V8H14.2283Z" fill="url(#paint2_linear_1_2)"/>
<path d="M19.7472 8.064C19.2565 8.064 18.8245 7.968 18.4512 7.776C18.0832 7.584 17.7978 7.32267 17.5952 6.992C17.3925 6.656 17.2912 6.27467 17.2912 5.848C17.2912 5.416 17.3898 5.03467 17.5872 4.704C17.7898 4.368 18.0645 4.10667 18.4112 3.92C18.7578 3.728 19.1498 3.632 19.5872 3.632C20.0085 3.632 20.3872 3.72267 20.7232 3.904C21.0645 4.08 21.3338 4.336 21.5312 4.672C21.7285 5.00267 21.8272 5.4 21.8272 5.864C21.8272 5.912 21.8245 5.968 21.8192 6.032C21.8138 6.09067 21.8085 6.14667 21.8032 6.2H18.3072V5.472H21.1472L20.6672 5.688C20.6672 5.464 20.6218 5.26933 20.5312 5.104C20.4405 4.93867 20.3152 4.81067 20.1552 4.72C19.9952 4.624 19.8085 4.576 19.5952 4.576C19.3818 4.576 19.1925 4.624 19.0272 4.72C18.8672 4.81067 18.7418 4.94133 18.6512 5.112C18.5605 5.27733 18.5152 5.47467 18.5152 5.704V5.896C18.5152 6.13067 18.5658 6.33867 18.6672 6.52C18.7738 6.696 18.9205 6.832 19.1072 6.928C19.2992 7.01867 19.5232 7.064 19.7792 7.064C20.0085 7.064 20.2085 7.02933 20.3792 6.96C20.5552 6.89067 20.7152 6.78667 20.8592 6.648L21.5232 7.368C21.3258 7.592 21.0778 7.76533 20.7792 7.888C20.4805 8.00533 20.1365 8.064 19.7472 8.064Z" fill="url(#paint3_linear_1_2)"/>
<path d="M25.274 3.632C25.6154 3.632 25.9194 3.70133 26.186 3.84C26.458 3.97333 26.6714 4.18133 26.826 4.464C26.9807 4.74133 27.058 5.09867 27.058 5.536V8H25.81V5.728C25.81 5.38133 25.7327 5.12533 25.578 4.96C25.4287 4.79467 25.2154 4.712 24.938 4.712C24.7407 4.712 24.562 4.75467 24.402 4.84C24.2474 4.92 24.1247 5.04533 24.034 5.216C23.9487 5.38667 23.906 5.60533 23.906 5.872V8H22.658V3.696H23.85V4.888L23.626 4.528C23.7807 4.24 24.002 4.01867 24.29 3.864C24.578 3.70933 24.906 3.632 25.274 3.632Z" fill="url(#paint4_linear_1_2)"/>
<path d="M30.8293 8V7.16L30.7493 6.976V5.472C30.7493 5.20533 30.6666 4.99733 30.5013 4.848C30.3413 4.69867 30.0933 4.624 29.7573 4.624C29.5279 4.624 29.3013 4.66133 29.0773 4.736C28.8586 4.80533 28.6719 4.90133 28.5173 5.024L28.0693 4.152C28.3039 3.98667 28.5866 3.85867 28.9173 3.768C29.2479 3.67733 29.584 3.632 29.9253 3.632C30.5813 3.632 31.0906 3.78667 31.4533 4.096C31.816 4.40533 31.9973 4.888 31.9973 5.544V8H30.8293ZM29.5173 8.064C29.1813 8.064 28.8933 8.008 28.6533 7.896C28.4133 7.77867 28.2293 7.62133 28.1013 7.424C27.9733 7.22667 27.9093 7.00533 27.9093 6.76C27.9093 6.504 27.9706 6.28 28.0933 6.088C28.2213 5.896 28.4213 5.74667 28.6933 5.64C28.9653 5.528 29.3199 5.472 29.7573 5.472H30.9013V6.2H29.8933C29.5999 6.2 29.3973 6.248 29.2853 6.344C29.1786 6.44 29.1253 6.56 29.1253 6.704C29.1253 6.864 29.1866 6.992 29.3093 7.088C29.4373 7.17867 29.6106 7.224 29.8293 7.224C30.0373 7.224 30.2239 7.176 30.3893 7.08C30.5546 6.97867 30.6746 6.832 30.7493 6.64L30.9413 7.216C30.8506 7.49333 30.6853 7.704 30.4453 7.848C30.2053 7.992 29.8959 8.064 29.5173 8.064Z" fill="url(#paint5_linear_1_2)"/>
<path d="M33.1268 8V2.064H34.3748V8H33.1268Z" fill="url(#paint6_linear_1_2)"/>
<path d="M35.533 8V3.696H36.781V8H35.533ZM36.157 3.096C35.9277 3.096 35.741 3.02933 35.597 2.896C35.453 2.76267 35.381 2.59733 35.381 2.4C35.381 2.20267 35.453 2.03733 35.597 1.904C35.741 1.77067 35.9277 1.704 36.157 1.704C36.3864 1.704 36.573 1.768 36.717 1.896C36.861 2.01867 36.933 2.17867 36.933 2.376C36.933 2.584 36.861 2.75733 36.717 2.896C36.5784 3.02933 36.3917 3.096 36.157 3.096Z" fill="url(#paint7_linear_1_2)"/>
<path d="M40.5553 3.632C40.8966 3.632 41.2006 3.70133 41.4673 3.84C41.7393 3.97333 41.9526 4.18133 42.1073 4.464C42.262 4.74133 42.3393 5.09867 42.3393 5.536V8H41.0913V5.728C41.0913 5.38133 41.014 5.12533 40.8593 4.96C40.71 4.79467 40.4966 4.712 40.2193 4.712C40.022 4.712 39.8433 4.75467 39.6833 4.84C39.5286 4.92 39.4059 5.04533 39.3153 5.216C39.2299 5.38667 39.1873 5.60533 39.1873 5.872V8H37.9393V3.696H39.1313V4.888L38.9073 4.528C39.062 4.24 39.2833 4.01867 39.5713 3.864C39.8593 3.70933 40.1873 3.632 40.5553 3.632Z" fill="url(#paint8_linear_1_2)"/>
<path d="M45.6378 8.064C45.1471 8.064 44.7151 7.968 44.3418 7.776C43.9738 7.584 43.6884 7.32267 43.4858 6.992C43.2831 6.656 43.1818 6.27467 43.1818 5.848C43.1818 5.416 43.2804 5.03467 43.4778 4.704C43.6804 4.368 43.9551 4.10667 44.3018 3.92C44.6485 3.728 45.0404 3.632 45.4778 3.632C45.8991 3.632 46.2778 3.72267 46.6138 3.904C46.9551 4.08 47.2245 4.336 47.4218 4.672C47.6191 5.00267 47.7178 5.4 47.7178 5.864C47.7178 5.912 47.7151 5.968 47.7098 6.032C47.7044 6.09067 47.6991 6.14667 47.6938 6.2H44.1978V5.472H47.0378L46.5578 5.688C46.5578 5.464 46.5125 5.26933 46.4218 5.104C46.3311 4.93867 46.2058 4.81067 46.0458 4.72C45.8858 4.624 45.6991 4.576 45.4858 4.576C45.2724 4.576 45.0831 4.624 44.9178 4.72C44.7578 4.81067 44.6324 4.94133 44.5418 5.112C44.4511 5.27733 44.4058 5.47467 44.4058 5.704V5.896C44.4058 6.13067 44.4564 6.33867 44.5578 6.52C44.6644 6.696 44.8111 6.832 44.9978 6.928C45.1898 7.01867 45.4138 7.064 45.6698 7.064C45.8991 7.064 46.0991 7.02933 46.2698 6.96C46.4458 6.89067 46.6058 6.78667 46.7498 6.648L47.4138 7.368C47.2165 7.592 46.9685 7.76533 46.6698 7.888C46.3711 8.00533 46.0271 8.064 45.6378 8.064Z" fill="url(#paint9_linear_1_2)"/>
<path d="M1.95535 8L4.45135 2.4H5.73135L8.23535 8H6.87535L4.82735 3.056H5.33935L3.28335 8H1.95535ZM3.20335 6.8L3.54735 5.816H6.42735L6.77935 6.8H3.20335Z" stroke="black" stroke-width="2" stroke-linejoin="round" mask="url(#path-1-outside-1_1_2)"/>
<path d="M10.5373 8.064C10.1319 8.064 9.76662 7.97333 9.44128 7.792C9.11595 7.60533 8.85728 7.34667 8.66528 7.016C8.47862 6.68533 8.38528 6.296 8.38528 5.848C8.38528 5.39467 8.47862 5.00267 8.66528 4.672C8.85728 4.34133 9.11595 4.08533 9.44128 3.904C9.76662 3.72267 10.1319 3.632 10.5373 3.632C10.8999 3.632 11.2173 3.712 11.4893 3.872C11.7613 4.032 11.9719 4.27467 12.1213 4.6C12.2706 4.92533 12.3453 5.34133 12.3453 5.848C12.3453 6.34933 12.2733 6.76533 12.1293 7.096C11.9853 7.42133 11.7773 7.664 11.5053 7.824C11.2386 7.984 10.9159 8.064 10.5373 8.064ZM10.7533 7.04C10.9559 7.04 11.1399 6.992 11.3053 6.896C11.4706 6.8 11.6013 6.664 11.6973 6.488C11.7986 6.30667 11.8493 6.09333 11.8493 5.848C11.8493 5.59733 11.7986 5.384 11.6973 5.208C11.6013 5.032 11.4706 4.896 11.3053 4.8C11.1399 4.704 10.9559 4.656 10.7533 4.656C10.5453 4.656 10.3586 4.704 10.1933 4.8C10.0279 4.896 9.89462 5.032 9.79328 5.208C9.69728 5.384 9.64928 5.59733 9.64928 5.848C9.64928 6.09333 9.69728 6.30667 9.79328 6.488C9.89462 6.664 10.0279 6.8 10.1933 6.896C10.3586 6.992 10.5453 7.04 10.7533 7.04ZM11.8813 8V7.12L11.9053 5.84L11.8253 4.568V2.064H13.0733V8H11.8813Z" stroke="black" stroke-width="2" stroke-linejoin="round" mask="url(#path-1-outside-1_1_2)"/>
<path d="M14.2283 8V3.696H15.4203V4.912L15.2523 4.56C15.3803 4.256 15.5857 4.02667 15.8683 3.872C16.151 3.712 16.495 3.632 16.9003 3.632V4.784C16.847 4.77867 16.799 4.776 16.7563 4.776C16.7137 4.77067 16.6683 4.768 16.6203 4.768C16.279 4.768 16.0017 4.86667 15.7883 5.064C15.5803 5.256 15.4763 5.55733 15.4763 5.968V8H14.2283Z" stroke="black" stroke-width="2" stroke-linejoin="round" mask="url(#path-1-outside-1_1_2)"/>
<path d="M19.7472 8.064C19.2565 8.064 18.8245 7.968 18.4512 7.776C18.0832 7.584 17.7978 7.32267 17.5952 6.992C17.3925 6.656 17.2912 6.27467 17.2912 5.848C17.2912 5.416 17.3898 5.03467 17.5872 4.704C17.7898 4.368 18.0645 4.10667 18.4112 3.92C18.7578 3.728 19.1498 3.632 19.5872 3.632C20.0085 3.632 20.3872 3.72267 20.7232 3.904C21.0645 4.08 21.3338 4.336 21.5312 4.672C21.7285 5.00267 21.8272 5.4 21.8272 5.864C21.8272 5.912 21.8245 5.968 21.8192 6.032C21.8138 6.09067 21.8085 6.14667 21.8032 6.2H18.3072V5.472H21.1472L20.6672 5.688C20.6672 5.464 20.6218 5.26933 20.5312 5.104C20.4405 4.93867 20.3152 4.81067 20.1552 4.72C19.9952 4.624 19.8085 4.576 19.5952 4.576C19.3818 4.576 19.1925 4.624 19.0272 4.72C18.8672 4.81067 18.7418 4.94133 18.6512 5.112C18.5605 5.27733 18.5152 5.47467 18.5152 5.704V5.896C18.5152 6.13067 18.5658 6.33867 18.6672 6.52C18.7738 6.696 18.9205 6.832 19.1072 6.928C19.2992 7.01867 19.5232 7.064 19.7792 7.064C20.0085 7.064 20.2085 7.02933 20.3792 6.96C20.5552 6.89067 20.7152 6.78667 20.8592 6.648L21.5232 7.368C21.3258 7.592 21.0778 7.76533 20.7792 7.888C20.4805 8.00533 20.1365 8.064 19.7472 8.064Z" stroke="black" stroke-width="2" stroke-linejoin="round" mask="url(#path-1-outside-1_1_2)"/>
<path d="M25.274 3.632C25.6154 3.632 25.9194 3.70133 26.186 3.84C26.458 3.97333 26.6714 4.18133 26.826 4.464C26.9807 4.74133 27.058 5.09867 27.058 5.536V8H25.81V5.728C25.81 5.38133 25.7327 5.12533 25.578 4.96C25.4287 4.79467 25.2154 4.712 24.938 4.712C24.7407 4.712 24.562 4.75467 24.402 4.84C24.2474 4.92 24.1247 5.04533 24.034 5.216C23.9487 5.38667 23.906 5.60533 23.906 5.872V8H22.658V3.696H23.85V4.888L23.626 4.528C23.7807 4.24 24.002 4.01867 24.29 3.864C24.578 3.70933 24.906 3.632 25.274 3.632Z" stroke="black" stroke-width="2" stroke-linejoin="round" mask="url(#path-1-outside-1_1_2)"/>
<path d="M30.8293 8V7.16L30.7493 6.976V5.472C30.7493 5.20533 30.6666 4.99733 30.5013 4.848C30.3413 4.69867 30.0933 4.624 29.7573 4.624C29.5279 4.624 29.3013 4.66133 29.0773 4.736C28.8586 4.80533 28.6719 4.90133 28.5173 5.024L28.0693 4.152C28.3039 3.98667 28.5866 3.85867 28.9173 3.768C29.2479 3.67733 29.584 3.632 29.9253 3.632C30.5813 3.632 31.0906 3.78667 31.4533 4.096C31.816 4.40533 31.9973 4.888 31.9973 5.544V8H30.8293ZM29.5173 8.064C29.1813 8.064 28.8933 8.008 28.6533 7.896C28.4133 7.77867 28.2293 7.62133 28.1013 7.424C27.9733 7.22667 27.9093 7.00533 27.9093 6.76C27.9093 6.504 27.9706 6.28 28.0933 6.088C28.2213 5.896 28.4213 5.74667 28.6933 5.64C28.9653 5.528 29.3199 5.472 29.7573 5.472H30.9013V6.2H29.8933C29.5999 6.2 29.3973 6.248 29.2853 6.344C29.1786 6.44 29.1253 6.56 29.1253 6.704C29.1253 6.864 29.1866 6.992 29.3093 7.088C29.4373 7.17867 29.6106 7.224 29.8293 7.224C30.0373 7.224 30.2239 7.176 30.3893 7.08C30.5546 6.97867 30.6746 6.832 30.7493 6.64L30.9413 7.216C30.8506 7.49333 30.6853 7.704 30.4453 7.848C30.2053 7.992 29.8959 8.064 29.5173 8.064Z" stroke="black" stroke-width="2" stroke-linejoin="round" mask="url(#path-1-outside-1_1_2)"/>
<path d="M33.1268 8V2.064H34.3748V8H33.1268Z" stroke="black" stroke-width="2" stroke-linejoin="round" mask="url(#path-1-outside-1_1_2)"/>
<path d="M35.533 8V3.696H36.781V8H35.533ZM36.157 3.096C35.9277 3.096 35.741 3.02933 35.597 2.896C35.453 2.76267 35.381 2.59733 35.381 2.4C35.381 2.20267 35.453 2.03733 35.597 1.904C35.741 1.77067 35.9277 1.704 36.157 1.704C36.3864 1.704 36.573 1.768 36.717 1.896C36.861 2.01867 36.933 2.17867 36.933 2.376C36.933 2.584 36.861 2.75733 36.717 2.896C36.5784 3.02933 36.3917 3.096 36.157 3.096Z" stroke="black" stroke-width="2" stroke-linejoin="round" mask="url(#path-1-outside-1_1_2)"/>
<path d="M40.5553 3.632C40.8966 3.632 41.2006 3.70133 41.4673 3.84C41.7393 3.97333 41.9526 4.18133 42.1073 4.464C42.262 4.74133 42.3393 5.09867 42.3393 5.536V8H41.0913V5.728C41.0913 5.38133 41.014 5.12533 40.8593 4.96C40.71 4.79467 40.4966 4.712 40.2193 4.712C40.022 4.712 39.8433 4.75467 39.6833 4.84C39.5286 4.92 39.4059 5.04533 39.3153 5.216C39.2299 5.38667 39.1873 5.60533 39.1873 5.872V8H37.9393V3.696H39.1313V4.888L38.9073 4.528C39.062 4.24 39.2833 4.01867 39.5713 3.864C39.8593 3.70933 40.1873 3.632 40.5553 3.632Z" stroke="black" stroke-width="2" stroke-linejoin="round" mask="url(#path-1-outside-1_1_2)"/>
<path d="M45.6378 8.064C45.1471 8.064 44.7151 7.968 44.3418 7.776C43.9738 7.584 43.6884 7.32267 43.4858 6.992C43.2831 6.656 43.1818 6.27467 43.1818 5.848C43.1818 5.416 43.2804 5.03467 43.4778 4.704C43.6804 4.368 43.9551 4.10667 44.3018 3.92C44.6485 3.728 45.0404 3.632 45.4778 3.632C45.8991 3.632 46.2778 3.72267 46.6138 3.904C46.9551 4.08 47.2245 4.336 47.4218 4.672C47.6191 5.00267 47.7178 5.4 47.7178 5.864C47.7178 5.912 47.7151 5.968 47.7098 6.032C47.7044 6.09067 47.6991 6.14667 47.6938 6.2H44.1978V5.472H47.0378L46.5578 5.688C46.5578 5.464 46.5125 5.26933 46.4218 5.104C46.3311 4.93867 46.2058 4.81067 46.0458 4.72C45.8858 4.624 45.6991 4.576 45.4858 4.576C45.2724 4.576 45.0831 4.624 44.9178 4.72C44.7578 4.81067 44.6324 4.94133 44.5418 5.112C44.4511 5.27733 44.4058 5.47467 44.4058 5.704V5.896C44.4058 6.13067 44.4564 6.33867 44.5578 6.52C44.6644 6.696 44.8111 6.832 44.9978 6.928C45.1898 7.01867 45.4138 7.064 45.6698 7.064C45.8991 7.064 46.0991 7.02933 46.2698 6.96C46.4458 6.89067 46.6058 6.78667 46.7498 6.648L47.4138 7.368C47.2165 7.592 46.9685 7.76533 46.6698 7.888C46.3711 8.00533 46.0271 8.064 45.6378 8.064Z" stroke="black" stroke-width="2" stroke-linejoin="round" mask="url(#path-1-outside-1_1_2)"/>
</g>
<defs>
<linearGradient id="paint0_linear_1_2" x1="25" y1="2" x2="25" y2="8" gradientUnits="userSpaceOnUse">
<stop stop-color="#00FF19"/>
<stop offset="1" stop-color="#CCFF00"/>
</linearGradient>
<linearGradient id="paint1_linear_1_2" x1="25" y1="2" x2="25" y2="8" gradientUnits="userSpaceOnUse">
<stop stop-color="#00FF19"/>
<stop offset="1" stop-color="#CCFF00"/>
</linearGradient>
<linearGradient id="paint2_linear_1_2" x1="25" y1="2" x2="25" y2="8" gradientUnits="userSpaceOnUse">
<stop stop-color="#00FF19"/>
<stop offset="1" stop-color="#CCFF00"/>
</linearGradient>
<linearGradient id="paint3_linear_1_2" x1="25" y1="2" x2="25" y2="8" gradientUnits="userSpaceOnUse">
<stop stop-color="#00FF19"/>
<stop offset="1" stop-color="#CCFF00"/>
</linearGradient>
<linearGradient id="paint4_linear_1_2" x1="25" y1="2" x2="25" y2="8" gradientUnits="userSpaceOnUse">
<stop stop-color="#00FF19"/>
<stop offset="1" stop-color="#CCFF00"/>
</linearGradient>
<linearGradient id="paint5_linear_1_2" x1="25" y1="2" x2="25" y2="8" gradientUnits="userSpaceOnUse">
<stop stop-color="#00FF19"/>
<stop offset="1" stop-color="#CCFF00"/>
</linearGradient>
<linearGradient id="paint6_linear_1_2" x1="25" y1="2" x2="25" y2="8" gradientUnits="userSpaceOnUse">
<stop stop-color="#00FF19"/>
<stop offset="1" stop-color="#CCFF00"/>
</linearGradient>
<linearGradient id="paint7_linear_1_2" x1="25" y1="2" x2="25" y2="8" gradientUnits="userSpaceOnUse">
<stop stop-color="#00FF19"/>
<stop offset="1" stop-color="#CCFF00"/>
</linearGradient>
<linearGradient id="paint8_linear_1_2" x1="25" y1="2" x2="25" y2="8" gradientUnits="userSpaceOnUse">
<stop stop-color="#00FF19"/>
<stop offset="1" stop-color="#CCFF00"/>
</linearGradient>
<linearGradient id="paint9_linear_1_2" x1="25" y1="2" x2="25" y2="8" gradientUnits="userSpaceOnUse">
<stop stop-color="#00FF19"/>
<stop offset="1" stop-color="#CCFF00"/>
</linearGradient>
<clipPath id="clip0_1_2">
<rect width="49" height="10" fill="white"/>
</clipPath>
</defs>
</svg>
