<svg width="48" height="48" viewBox="0 0 48 48" fill="none" xmlns="http://www.w3.org/2000/svg">
<rect width="48" height="48" fill="url(#paint0_linear_1_2)"/>
<rect x="4.5" y="12.5" width="32" height="32" rx="8" transform="rotate(-15 4.5 12.5)" fill="url(#paint1_linear_1_2)" fill-opacity="0.15"/>
<rect x="4.95928" y="12.7652" width="31.25" height="31.25" rx="7.625" transform="rotate(-15 4.95928 12.7652)" stroke="white" stroke-opacity="0.1" stroke-width="0.75"/>
<g filter="url(#filter0_d_1_2)">
<mask id="path-4-outside-1_1_2" maskUnits="userSpaceOnUse" x="5.22945" y="13.58" width="38" height="22" fill="black">
<rect fill="white" x="5.22945" y="13.58" width="38" height="22"/>
<path d="M8.46945 22V16.32H6.22945V15H12.3295V16.32H10.0895V22H8.46945Z"/>
<path d="M16.3611 16.54C16.7878 16.54 17.1678 16.6267 17.5011 16.8C17.8411 16.9667 18.1078 17.2267 18.3011 17.58C18.4944 17.9267 18.5911 18.3733 18.5911 18.92V22H17.0311V19.16C17.0311 18.7267 16.9344 18.4067 16.7411 18.2C16.5544 17.9933 16.2878 17.89 15.9411 17.89C15.6944 17.89 15.4711 17.9433 15.2711 18.05C15.0778 18.15 14.9244 18.3067 14.8111 18.52C14.7044 18.7333 14.6511 19.0067 14.6511 19.34V22H13.0911V14.58H14.6511V18.11L14.3011 17.66C14.4944 17.3 14.7711 17.0233 15.1311 16.83C15.4911 16.6367 15.9011 16.54 16.3611 16.54Z"/>
<path d="M20.0052 22V16.62H21.4952V18.14L21.2852 17.7C21.4452 17.32 21.7018 17.0333 22.0552 16.84C22.4085 16.64 22.8385 16.54 23.3452 16.54V17.98C23.2785 17.9733 23.2185 17.97 23.1652 17.97C23.1118 17.9633 23.0552 17.96 22.9952 17.96C22.5685 17.96 22.2218 18.0833 21.9552 18.33C21.6952 18.57 21.5652 18.9467 21.5652 19.46V22H20.0052Z"/>
<path d="M26.9037 22.08C26.2903 22.08 25.7503 21.96 25.2837 21.72C24.8237 21.48 24.467 21.1533 24.2137 20.74C23.9603 20.32 23.8337 19.8433 23.8337 19.31C23.8337 18.77 23.957 18.2933 24.2037 17.88C24.457 17.46 24.8003 17.1333 25.2337 16.9C25.667 16.66 26.157 16.54 26.7037 16.54C27.2303 16.54 27.7037 16.6533 28.1237 16.88C28.5503 17.1 28.887 17.42 29.1337 17.84C29.3803 18.2533 29.5037 18.75 29.5037 19.33C29.5037 19.39 29.5003 19.46 29.4937 19.54C29.487 19.6133 29.4803 19.6833 29.4737 19.75H25.1037V18.84H28.6537L28.0537 19.11C28.0537 18.83 27.997 18.5867 27.8837 18.38C27.7703 18.1733 27.6137 18.0133 27.4137 17.9C27.2137 17.78 26.9803 17.72 26.7137 17.72C26.447 17.72 26.2103 17.78 26.0037 17.9C25.8037 18.0133 25.647 18.1767 25.5337 18.39C25.4203 18.5967 25.3637 18.8433 25.3637 19.13V19.37C25.3637 19.6633 25.427 19.9233 25.5537 20.15C25.687 20.37 25.8703 20.54 26.1037 20.66C26.3437 20.7733 26.6237 20.83 26.9437 20.83C27.2303 20.83 27.4803 20.7867 27.6937 20.7C27.9137 20.6133 28.1137 20.4833 28.2937 20.31L29.1237 21.21C28.877 21.49 28.567 21.7067 28.1937 21.86C27.8203 22.0067 27.3903 22.08 26.9037 22.08Z"/>
<path d="M33.6958 22V20.95L33.5958 20.72V18.84C33.5958 18.5067 33.4924 18.2467 33.2858 18.06C33.0858 17.8733 32.7758 17.78 32.3558 17.78C32.0691 17.78 31.7858 17.8267 31.5058 17.92C31.2324 18.0067 30.9991 18.1267 30.8058 18.28L30.2458 17.19C30.5391 16.9833 30.8924 16.8233 31.3058 16.71C31.7191 16.5967 32.1391 16.54 32.5658 16.54C33.3858 16.54 34.0224 16.7333 34.4758 17.12C34.9291 17.5067 35.1558 18.11 35.1558 18.93V22H33.6958ZM32.0558 22.08C31.6358 22.08 31.2758 22.01 30.9758 21.87C30.6758 21.7233 30.4458 21.5267 30.2858 21.28C30.1258 21.0333 30.0458 20.7567 30.0458 20.45C30.0458 20.13 30.1224 19.85 30.2758 19.61C30.4358 19.37 30.6858 19.1833 31.0258 19.05C31.3658 18.91 31.8091 18.84 32.3558 18.84H33.7858V19.75H32.5258C32.1591 19.75 31.9058 19.81 31.7658 19.93C31.6324 20.05 31.5658 20.2 31.5658 20.38C31.5658 20.58 31.6424 20.74 31.7958 20.86C31.9558 20.9733 32.1724 21.03 32.4458 21.03C32.7058 21.03 32.9391 20.97 33.1458 20.85C33.3524 20.7233 33.5024 20.54 33.5958 20.3L33.8358 21.02C33.7224 21.3667 33.5158 21.63 33.2158 21.81C32.9158 21.99 32.5291 22.08 32.0558 22.08Z"/>
<path d="M38.9167 22.08C38.4101 22.08 37.9534 21.9667 37.5467 21.74C37.1401 21.5067 36.8167 21.1833 36.5767 20.77C36.3434 20.3567 36.2267 19.87 36.2267 19.31C36.2267 18.7433 36.3434 18.2533 36.5767 17.84C36.8167 17.4267 37.1401 17.1067 37.5467 16.88C37.9534 16.6533 38.4101 16.54 38.9167 16.54C39.3701 16.54 39.7667 16.64 40.1067 16.84C40.4467 17.04 40.7101 17.3433 40.8967 17.75C41.0834 18.1567 41.1767 18.6767 41.1767 19.31C41.1767 19.9367 41.0867 20.4567 40.9067 20.87C40.7267 21.2767 40.4667 21.58 40.1267 21.78C39.7934 21.98 39.3901 22.08 38.9167 22.08ZM39.1867 20.8C39.4401 20.8 39.6701 20.74 39.8767 20.62C40.0834 20.5 40.2467 20.33 40.3667 20.11C40.4934 19.8833 40.5567 19.6167 40.5567 19.31C40.5567 18.9967 40.4934 18.73 40.3667 18.51C40.2467 18.29 40.0834 18.12 39.8767 18C39.6701 17.88 39.4401 17.82 39.1867 17.82C38.9267 17.82 38.6934 17.88 38.4867 18C38.2801 18.12 38.1134 18.29 37.9867 18.51C37.8667 18.73 37.8067 18.9967 37.8067 19.31C37.8067 19.6167 37.8667 19.8833 37.9867 20.11C38.1134 20.33 38.2801 20.5 38.4867 20.62C38.6934 20.74 38.9267 20.8 39.1867 20.8ZM40.5967 22V20.9L40.6267 19.3L40.5267 17.71V14.58H42.0867V22H40.5967Z"/>
<path d="M9.77316 34V28.32H7.53316V27H13.6332V28.32H11.3932V34H9.77316Z"/>
<path d="M15.3025 34L13.3625 28.62H14.8325L16.4425 33.25H15.7425L17.4225 28.62H18.7425L20.3725 33.25H19.6725L21.3325 28.62H22.7125L20.7625 34H19.2525L17.8225 30.03H18.2825L16.8025 34H15.3025Z"/>
<path d="M25.9613 34.08C25.348 34.08 24.808 33.96 24.3413 33.72C23.8813 33.48 23.5246 33.1533 23.2713 32.74C23.018 32.32 22.8913 31.8433 22.8913 31.31C22.8913 30.77 23.0146 30.2933 23.2613 29.88C23.5146 29.46 23.858 29.1333 24.2913 28.9C24.7246 28.66 25.2146 28.54 25.7613 28.54C26.288 28.54 26.7613 28.6533 27.1813 28.88C27.608 29.1 27.9446 29.42 28.1913 29.84C28.438 30.2533 28.5613 30.75 28.5613 31.33C28.5613 31.39 28.558 31.46 28.5513 31.54C28.5446 31.6133 28.538 31.6833 28.5313 31.75H24.1613V30.84H27.7113L27.1113 31.11C27.1113 30.83 27.0546 30.5867 26.9413 30.38C26.828 30.1733 26.6713 30.0133 26.4713 29.9C26.2713 29.78 26.038 29.72 25.7713 29.72C25.5046 29.72 25.268 29.78 25.0613 29.9C24.8613 30.0133 24.7046 30.1767 24.5913 30.39C24.478 30.5967 24.4213 30.8433 24.4213 31.13V31.37C24.4213 31.6633 24.4846 31.9233 24.6113 32.15C24.7446 32.37 24.928 32.54 25.1613 32.66C25.4013 32.7733 25.6813 32.83 26.0013 32.83C26.288 32.83 26.538 32.7867 26.7513 32.7C26.9713 32.6133 27.1713 32.4833 27.3513 32.31L28.1813 33.21C27.9346 33.49 27.6246 33.7067 27.2513 33.86C26.878 34.0067 26.448 34.08 25.9613 34.08Z"/>
<path d="M32.7534 34V32.95L32.6534 32.72V30.84C32.6534 30.5067 32.5501 30.2467 32.3434 30.06C32.1434 29.8733 31.8334 29.78 31.4134 29.78C31.1267 29.78 30.8434 29.8267 30.5634 29.92C30.2901 30.0067 30.0567 30.1267 29.8634 30.28L29.3034 29.19C29.5967 28.9833 29.9501 28.8233 30.3634 28.71C30.7767 28.5967 31.1967 28.54 31.6234 28.54C32.4434 28.54 33.0801 28.7333 33.5334 29.12C33.9867 29.5067 34.2134 30.11 34.2134 30.93V34H32.7534ZM31.1134 34.08C30.6934 34.08 30.3334 34.01 30.0334 33.87C29.7334 33.7233 29.5034 33.5267 29.3434 33.28C29.1834 33.0333 29.1034 32.7567 29.1034 32.45C29.1034 32.13 29.1801 31.85 29.3334 31.61C29.4934 31.37 29.7434 31.1833 30.0834 31.05C30.4234 30.91 30.8667 30.84 31.4134 30.84H32.8434V31.75H31.5834C31.2167 31.75 30.9634 31.81 30.8234 31.93C30.6901 32.05 30.6234 32.2 30.6234 32.38C30.6234 32.58 30.7001 32.74 30.8534 32.86C31.0134 32.9733 31.2301 33.03 31.5034 33.03C31.7634 33.03 31.9967 32.97 32.2034 32.85C32.4101 32.7233 32.5601 32.54 32.6534 32.3L32.8934 33.02C32.7801 33.3667 32.5734 33.63 32.2734 33.81C31.9734 33.99 31.5867 34.08 31.1134 34.08Z"/>
<path d="M36.9153 32.9L36.9553 31L39.4653 28.62H41.3253L38.9153 31.07L38.1053 31.73L36.9153 32.9ZM35.6253 34V26.58H37.1853V34H35.6253ZM39.6353 34L37.8153 31.74L38.7953 30.53L41.5253 34H39.6353Z"/>
</mask>
<path d="M8.46945 22V16.32H6.22945V15H12.3295V16.32H10.0895V22H8.46945Z" fill="#FFA5CB"/>
<path d="M16.3611 16.54C16.7878 16.54 17.1678 16.6267 17.5011 16.8C17.8411 16.9667 18.1078 17.2267 18.3011 17.58C18.4944 17.9267 18.5911 18.3733 18.5911 18.92V22H17.0311V19.16C17.0311 18.7267 16.9344 18.4067 16.7411 18.2C16.5544 17.9933 16.2878 17.89 15.9411 17.89C15.6944 17.89 15.4711 17.9433 15.2711 18.05C15.0778 18.15 14.9244 18.3067 14.8111 18.52C14.7044 18.7333 14.6511 19.0067 14.6511 19.34V22H13.0911V14.58H14.6511V18.11L14.3011 17.66C14.4944 17.3 14.7711 17.0233 15.1311 16.83C15.4911 16.6367 15.9011 16.54 16.3611 16.54Z" fill="#FFA5CB"/>
<path d="M20.0052 22V16.62H21.4952V18.14L21.2852 17.7C21.4452 17.32 21.7018 17.0333 22.0552 16.84C22.4085 16.64 22.8385 16.54 23.3452 16.54V17.98C23.2785 17.9733 23.2185 17.97 23.1652 17.97C23.1118 17.9633 23.0552 17.96 22.9952 17.96C22.5685 17.96 22.2218 18.0833 21.9552 18.33C21.6952 18.57 21.5652 18.9467 21.5652 19.46V22H20.0052Z" fill="#FFA5CB"/>
<path d="M26.9037 22.08C26.2903 22.08 25.7503 21.96 25.2837 21.72C24.8237 21.48 24.467 21.1533 24.2137 20.74C23.9603 20.32 23.8337 19.8433 23.8337 19.31C23.8337 18.77 23.957 18.2933 24.2037 17.88C24.457 17.46 24.8003 17.1333 25.2337 16.9C25.667 16.66 26.157 16.54 26.7037 16.54C27.2303 16.54 27.7037 16.6533 28.1237 16.88C28.5503 17.1 28.887 17.42 29.1337 17.84C29.3803 18.2533 29.5037 18.75 29.5037 19.33C29.5037 19.39 29.5003 19.46 29.4937 19.54C29.487 19.6133 29.4803 19.6833 29.4737 19.75H25.1037V18.84H28.6537L28.0537 19.11C28.0537 18.83 27.997 18.5867 27.8837 18.38C27.7703 18.1733 27.6137 18.0133 27.4137 17.9C27.2137 17.78 26.9803 17.72 26.7137 17.72C26.447 17.72 26.2103 17.78 26.0037 17.9C25.8037 18.0133 25.647 18.1767 25.5337 18.39C25.4203 18.5967 25.3637 18.8433 25.3637 19.13V19.37C25.3637 19.6633 25.427 19.9233 25.5537 20.15C25.687 20.37 25.8703 20.54 26.1037 20.66C26.3437 20.7733 26.6237 20.83 26.9437 20.83C27.2303 20.83 27.4803 20.7867 27.6937 20.7C27.9137 20.6133 28.1137 20.4833 28.2937 20.31L29.1237 21.21C28.877 21.49 28.567 21.7067 28.1937 21.86C27.8203 22.0067 27.3903 22.08 26.9037 22.08Z" fill="#FFA5CB"/>
<path d="M33.6958 22V20.95L33.5958 20.72V18.84C33.5958 18.5067 33.4924 18.2467 33.2858 18.06C33.0858 17.8733 32.7758 17.78 32.3558 17.78C32.0691 17.78 31.7858 17.8267 31.5058 17.92C31.2324 18.0067 30.9991 18.1267 30.8058 18.28L30.2458 17.19C30.5391 16.9833 30.8924 16.8233 31.3058 16.71C31.7191 16.5967 32.1391 16.54 32.5658 16.54C33.3858 16.54 34.0224 16.7333 34.4758 17.12C34.9291 17.5067 35.1558 18.11 35.1558 18.93V22H33.6958ZM32.0558 22.08C31.6358 22.08 31.2758 22.01 30.9758 21.87C30.6758 21.7233 30.4458 21.5267 30.2858 21.28C30.1258 21.0333 30.0458 20.7567 30.0458 20.45C30.0458 20.13 30.1224 19.85 30.2758 19.61C30.4358 19.37 30.6858 19.1833 31.0258 19.05C31.3658 18.91 31.8091 18.84 32.3558 18.84H33.7858V19.75H32.5258C32.1591 19.75 31.9058 19.81 31.7658 19.93C31.6324 20.05 31.5658 20.2 31.5658 20.38C31.5658 20.58 31.6424 20.74 31.7958 20.86C31.9558 20.9733 32.1724 21.03 32.4458 21.03C32.7058 21.03 32.9391 20.97 33.1458 20.85C33.3524 20.7233 33.5024 20.54 33.5958 20.3L33.8358 21.02C33.7224 21.3667 33.5158 21.63 33.2158 21.81C32.9158 21.99 32.5291 22.08 32.0558 22.08Z" fill="#FFA5CB"/>
<path d="M38.9167 22.08C38.4101 22.08 37.9534 21.9667 37.5467 21.74C37.1401 21.5067 36.8167 21.1833 36.5767 20.77C36.3434 20.3567 36.2267 19.87 36.2267 19.31C36.2267 18.7433 36.3434 18.2533 36.5767 17.84C36.8167 17.4267 37.1401 17.1067 37.5467 16.88C37.9534 16.6533 38.4101 16.54 38.9167 16.54C39.3701 16.54 39.7667 16.64 40.1067 16.84C40.4467 17.04 40.7101 17.3433 40.8967 17.75C41.0834 18.1567 41.1767 18.6767 41.1767 19.31C41.1767 19.9367 41.0867 20.4567 40.9067 20.87C40.7267 21.2767 40.4667 21.58 40.1267 21.78C39.7934 21.98 39.3901 22.08 38.9167 22.08ZM39.1867 20.8C39.4401 20.8 39.6701 20.74 39.8767 20.62C40.0834 20.5 40.2467 20.33 40.3667 20.11C40.4934 19.8833 40.5567 19.6167 40.5567 19.31C40.5567 18.9967 40.4934 18.73 40.3667 18.51C40.2467 18.29 40.0834 18.12 39.8767 18C39.6701 17.88 39.4401 17.82 39.1867 17.82C38.9267 17.82 38.6934 17.88 38.4867 18C38.2801 18.12 38.1134 18.29 37.9867 18.51C37.8667 18.73 37.8067 18.9967 37.8067 19.31C37.8067 19.6167 37.8667 19.8833 37.9867 20.11C38.1134 20.33 38.2801 20.5 38.4867 20.62C38.6934 20.74 38.9267 20.8 39.1867 20.8ZM40.5967 22V20.9L40.6267 19.3L40.5267 17.71V14.58H42.0867V22H40.5967Z" fill="#FFA5CB"/>
<path d="M9.77316 34V28.32H7.53316V27H13.6332V28.32H11.3932V34H9.77316Z" fill="#FFA5CB"/>
<path d="M15.3025 34L13.3625 28.62H14.8325L16.4425 33.25H15.7425L17.4225 28.62H18.7425L20.3725 33.25H19.6725L21.3325 28.62H22.7125L20.7625 34H19.2525L17.8225 30.03H18.2825L16.8025 34H15.3025Z" fill="#FFA5CB"/>
<path d="M25.9613 34.08C25.348 34.08 24.808 33.96 24.3413 33.72C23.8813 33.48 23.5246 33.1533 23.2713 32.74C23.018 32.32 22.8913 31.8433 22.8913 31.31C22.8913 30.77 23.0146 30.2933 23.2613 29.88C23.5146 29.46 23.858 29.1333 24.2913 28.9C24.7246 28.66 25.2146 28.54 25.7613 28.54C26.288 28.54 26.7613 28.6533 27.1813 28.88C27.608 29.1 27.9446 29.42 28.1913 29.84C28.438 30.2533 28.5613 30.75 28.5613 31.33C28.5613 31.39 28.558 31.46 28.5513 31.54C28.5446 31.6133 28.538 31.6833 28.5313 31.75H24.1613V30.84H27.7113L27.1113 31.11C27.1113 30.83 27.0546 30.5867 26.9413 30.38C26.828 30.1733 26.6713 30.0133 26.4713 29.9C26.2713 29.78 26.038 29.72 25.7713 29.72C25.5046 29.72 25.268 29.78 25.0613 29.9C24.8613 30.0133 24.7046 30.1767 24.5913 30.39C24.478 30.5967 24.4213 30.8433 24.4213 31.13V31.37C24.4213 31.6633 24.4846 31.9233 24.6113 32.15C24.7446 32.37 24.928 32.54 25.1613 32.66C25.4013 32.7733 25.6813 32.83 26.0013 32.83C26.288 32.83 26.538 32.7867 26.7513 32.7C26.9713 32.6133 27.1713 32.4833 27.3513 32.31L28.1813 33.21C27.9346 33.49 27.6246 33.7067 27.2513 33.86C26.878 34.0067 26.448 34.08 25.9613 34.08Z" fill="#FFA5CB"/>
<path d="M32.7534 34V32.95L32.6534 32.72V30.84C32.6534 30.5067 32.5501 30.2467 32.3434 30.06C32.1434 29.8733 31.8334 29.78 31.4134 29.78C31.1267 29.78 30.8434 29.8267 30.5634 29.92C30.2901 30.0067 30.0567 30.1267 29.8634 30.28L29.3034 29.19C29.5967 28.9833 29.9501 28.8233 30.3634 28.71C30.7767 28.5967 31.1967 28.54 31.6234 28.54C32.4434 28.54 33.0801 28.7333 33.5334 29.12C33.9867 29.5067 34.2134 30.11 34.2134 30.93V34H32.7534ZM31.1134 34.08C30.6934 34.08 30.3334 34.01 30.0334 33.87C29.7334 33.7233 29.5034 33.5267 29.3434 33.28C29.1834 33.0333 29.1034 32.7567 29.1034 32.45C29.1034 32.13 29.1801 31.85 29.3334 31.61C29.4934 31.37 29.7434 31.1833 30.0834 31.05C30.4234 30.91 30.8667 30.84 31.4134 30.84H32.8434V31.75H31.5834C31.2167 31.75 30.9634 31.81 30.8234 31.93C30.6901 32.05 30.6234 32.2 30.6234 32.38C30.6234 32.58 30.7001 32.74 30.8534 32.86C31.0134 32.9733 31.2301 33.03 31.5034 33.03C31.7634 33.03 31.9967 32.97 32.2034 32.85C32.4101 32.7233 32.5601 32.54 32.6534 32.3L32.8934 33.02C32.7801 33.3667 32.5734 33.63 32.2734 33.81C31.9734 33.99 31.5867 34.08 31.1134 34.08Z" fill="#FFA5CB"/>
<path d="M36.9153 32.9L36.9553 31L39.4653 28.62H41.3253L38.9153 31.07L38.1053 31.73L36.9153 32.9ZM35.6253 34V26.58H37.1853V34H35.6253ZM39.6353 34L37.8153 31.74L38.7953 30.53L41.5253 34H39.6353Z" fill="#FFA5CB"/>
<path d="M8.46945 22V16.32H6.22945V15H12.3295V16.32H10.0895V22H8.46945Z" stroke="#493D45" stroke-width="1.5" stroke-linejoin="round" mask="url(#path-4-outside-1_1_2)"/>
<path d="M16.3611 16.54C16.7878 16.54 17.1678 16.6267 17.5011 16.8C17.8411 16.9667 18.1078 17.2267 18.3011 17.58C18.4944 17.9267 18.5911 18.3733 18.5911 18.92V22H17.0311V19.16C17.0311 18.7267 16.9344 18.4067 16.7411 18.2C16.5544 17.9933 16.2878 17.89 15.9411 17.89C15.6944 17.89 15.4711 17.9433 15.2711 18.05C15.0778 18.15 14.9244 18.3067 14.8111 18.52C14.7044 18.7333 14.6511 19.0067 14.6511 19.34V22H13.0911V14.58H14.6511V18.11L14.3011 17.66C14.4944 17.3 14.7711 17.0233 15.1311 16.83C15.4911 16.6367 15.9011 16.54 16.3611 16.54Z" stroke="#493D45" stroke-width="1.5" stroke-linejoin="round" mask="url(#path-4-outside-1_1_2)"/>
<path d="M20.0052 22V16.62H21.4952V18.14L21.2852 17.7C21.4452 17.32 21.7018 17.0333 22.0552 16.84C22.4085 16.64 22.8385 16.54 23.3452 16.54V17.98C23.2785 17.9733 23.2185 17.97 23.1652 17.97C23.1118 17.9633 23.0552 17.96 22.9952 17.96C22.5685 17.96 22.2218 18.0833 21.9552 18.33C21.6952 18.57 21.5652 18.9467 21.5652 19.46V22H20.0052Z" stroke="#493D45" stroke-width="1.5" stroke-linejoin="round" mask="url(#path-4-outside-1_1_2)"/>
<path d="M26.9037 22.08C26.2903 22.08 25.7503 21.96 25.2837 21.72C24.8237 21.48 24.467 21.1533 24.2137 20.74C23.9603 20.32 23.8337 19.8433 23.8337 19.31C23.8337 18.77 23.957 18.2933 24.2037 17.88C24.457 17.46 24.8003 17.1333 25.2337 16.9C25.667 16.66 26.157 16.54 26.7037 16.54C27.2303 16.54 27.7037 16.6533 28.1237 16.88C28.5503 17.1 28.887 17.42 29.1337 17.84C29.3803 18.2533 29.5037 18.75 29.5037 19.33C29.5037 19.39 29.5003 19.46 29.4937 19.54C29.487 19.6133 29.4803 19.6833 29.4737 19.75H25.1037V18.84H28.6537L28.0537 19.11C28.0537 18.83 27.997 18.5867 27.8837 18.38C27.7703 18.1733 27.6137 18.0133 27.4137 17.9C27.2137 17.78 26.9803 17.72 26.7137 17.72C26.447 17.72 26.2103 17.78 26.0037 17.9C25.8037 18.0133 25.647 18.1767 25.5337 18.39C25.4203 18.5967 25.3637 18.8433 25.3637 19.13V19.37C25.3637 19.6633 25.427 19.9233 25.5537 20.15C25.687 20.37 25.8703 20.54 26.1037 20.66C26.3437 20.7733 26.6237 20.83 26.9437 20.83C27.2303 20.83 27.4803 20.7867 27.6937 20.7C27.9137 20.6133 28.1137 20.4833 28.2937 20.31L29.1237 21.21C28.877 21.49 28.567 21.7067 28.1937 21.86C27.8203 22.0067 27.3903 22.08 26.9037 22.08Z" stroke="#493D45" stroke-width="1.5" stroke-linejoin="round" mask="url(#path-4-outside-1_1_2)"/>
<path d="M33.6958 22V20.95L33.5958 20.72V18.84C33.5958 18.5067 33.4924 18.2467 33.2858 18.06C33.0858 17.8733 32.7758 17.78 32.3558 17.78C32.0691 17.78 31.7858 17.8267 31.5058 17.92C31.2324 18.0067 30.9991 18.1267 30.8058 18.28L30.2458 17.19C30.5391 16.9833 30.8924 16.8233 31.3058 16.71C31.7191 16.5967 32.1391 16.54 32.5658 16.54C33.3858 16.54 34.0224 16.7333 34.4758 17.12C34.9291 17.5067 35.1558 18.11 35.1558 18.93V22H33.6958ZM32.0558 22.08C31.6358 22.08 31.2758 22.01 30.9758 21.87C30.6758 21.7233 30.4458 21.5267 30.2858 21.28C30.1258 21.0333 30.0458 20.7567 30.0458 20.45C30.0458 20.13 30.1224 19.85 30.2758 19.61C30.4358 19.37 30.6858 19.1833 31.0258 19.05C31.3658 18.91 31.8091 18.84 32.3558 18.84H33.7858V19.75H32.5258C32.1591 19.75 31.9058 19.81 31.7658 19.93C31.6324 20.05 31.5658 20.2 31.5658 20.38C31.5658 20.58 31.6424 20.74 31.7958 20.86C31.9558 20.9733 32.1724 21.03 32.4458 21.03C32.7058 21.03 32.9391 20.97 33.1458 20.85C33.3524 20.7233 33.5024 20.54 33.5958 20.3L33.8358 21.02C33.7224 21.3667 33.5158 21.63 33.2158 21.81C32.9158 21.99 32.5291 22.08 32.0558 22.08Z" stroke="#493D45" stroke-width="1.5" stroke-linejoin="round" mask="url(#path-4-outside-1_1_2)"/>
<path d="M38.9167 22.08C38.4101 22.08 37.9534 21.9667 37.5467 21.74C37.1401 21.5067 36.8167 21.1833 36.5767 20.77C36.3434 20.3567 36.2267 19.87 36.2267 19.31C36.2267 18.7433 36.3434 18.2533 36.5767 17.84C36.8167 17.4267 37.1401 17.1067 37.5467 16.88C37.9534 16.6533 38.4101 16.54 38.9167 16.54C39.3701 16.54 39.7667 16.64 40.1067 16.84C40.4467 17.04 40.7101 17.3433 40.8967 17.75C41.0834 18.1567 41.1767 18.6767 41.1767 19.31C41.1767 19.9367 41.0867 20.4567 40.9067 20.87C40.7267 21.2767 40.4667 21.58 40.1267 21.78C39.7934 21.98 39.3901 22.08 38.9167 22.08ZM39.1867 20.8C39.4401 20.8 39.6701 20.74 39.8767 20.62C40.0834 20.5 40.2467 20.33 40.3667 20.11C40.4934 19.8833 40.5567 19.6167 40.5567 19.31C40.5567 18.9967 40.4934 18.73 40.3667 18.51C40.2467 18.29 40.0834 18.12 39.8767 18C39.6701 17.88 39.4401 17.82 39.1867 17.82C38.9267 17.82 38.6934 17.88 38.4867 18C38.2801 18.12 38.1134 18.29 37.9867 18.51C37.8667 18.73 37.8067 18.9967 37.8067 19.31C37.8067 19.6167 37.8667 19.8833 37.9867 20.11C38.1134 20.33 38.2801 20.5 38.4867 20.62C38.6934 20.74 38.9267 20.8 39.1867 20.8ZM40.5967 22V20.9L40.6267 19.3L40.5267 17.71V14.58H42.0867V22H40.5967Z" stroke="#493D45" stroke-width="1.5" stroke-linejoin="round" mask="url(#path-4-outside-1_1_2)"/>
<path d="M9.77316 34V28.32H7.53316V27H13.6332V28.32H11.3932V34H9.77316Z" stroke="#493D45" stroke-width="1.5" stroke-linejoin="round" mask="url(#path-4-outside-1_1_2)"/>
<path d="M15.3025 34L13.3625 28.62H14.8325L16.4425 33.25H15.7425L17.4225 28.62H18.7425L20.3725 33.25H19.6725L21.3325 28.62H22.7125L20.7625 34H19.2525L17.8225 30.03H18.2825L16.8025 34H15.3025Z" stroke="#493D45" stroke-width="1.5" stroke-linejoin="round" mask="url(#path-4-outside-1_1_2)"/>
<path d="M25.9613 34.08C25.348 34.08 24.808 33.96 24.3413 33.72C23.8813 33.48 23.5246 33.1533 23.2713 32.74C23.018 32.32 22.8913 31.8433 22.8913 31.31C22.8913 30.77 23.0146 30.2933 23.2613 29.88C23.5146 29.46 23.858 29.1333 24.2913 28.9C24.7246 28.66 25.2146 28.54 25.7613 28.54C26.288 28.54 26.7613 28.6533 27.1813 28.88C27.608 29.1 27.9446 29.42 28.1913 29.84C28.438 30.2533 28.5613 30.75 28.5613 31.33C28.5613 31.39 28.558 31.46 28.5513 31.54C28.5446 31.6133 28.538 31.6833 28.5313 31.75H24.1613V30.84H27.7113L27.1113 31.11C27.1113 30.83 27.0546 30.5867 26.9413 30.38C26.828 30.1733 26.6713 30.0133 26.4713 29.9C26.2713 29.78 26.038 29.72 25.7713 29.72C25.5046 29.72 25.268 29.78 25.0613 29.9C24.8613 30.0133 24.7046 30.1767 24.5913 30.39C24.478 30.5967 24.4213 30.8433 24.4213 31.13V31.37C24.4213 31.6633 24.4846 31.9233 24.6113 32.15C24.7446 32.37 24.928 32.54 25.1613 32.66C25.4013 32.7733 25.6813 32.83 26.0013 32.83C26.288 32.83 26.538 32.7867 26.7513 32.7C26.9713 32.6133 27.1713 32.4833 27.3513 32.31L28.1813 33.21C27.9346 33.49 27.6246 33.7067 27.2513 33.86C26.878 34.0067 26.448 34.08 25.9613 34.08Z" stroke="#493D45" stroke-width="1.5" stroke-linejoin="round" mask="url(#path-4-outside-1_1_2)"/>
<path d="M32.7534 34V32.95L32.6534 32.72V30.84C32.6534 30.5067 32.5501 30.2467 32.3434 30.06C32.1434 29.8733 31.8334 29.78 31.4134 29.78C31.1267 29.78 30.8434 29.8267 30.5634 29.92C30.2901 30.0067 30.0567 30.1267 29.8634 30.28L29.3034 29.19C29.5967 28.9833 29.9501 28.8233 30.3634 28.71C30.7767 28.5967 31.1967 28.54 31.6234 28.54C32.4434 28.54 33.0801 28.7333 33.5334 29.12C33.9867 29.5067 34.2134 30.11 34.2134 30.93V34H32.7534ZM31.1134 34.08C30.6934 34.08 30.3334 34.01 30.0334 33.87C29.7334 33.7233 29.5034 33.5267 29.3434 33.28C29.1834 33.0333 29.1034 32.7567 29.1034 32.45C29.1034 32.13 29.1801 31.85 29.3334 31.61C29.4934 31.37 29.7434 31.1833 30.0834 31.05C30.4234 30.91 30.8667 30.84 31.4134 30.84H32.8434V31.75H31.5834C31.2167 31.75 30.9634 31.81 30.8234 31.93C30.6901 32.05 30.6234 32.2 30.6234 32.38C30.6234 32.58 30.7001 32.74 30.8534 32.86C31.0134 32.9733 31.2301 33.03 31.5034 33.03C31.7634 33.03 31.9967 32.97 32.2034 32.85C32.4101 32.7233 32.5601 32.54 32.6534 32.3L32.8934 33.02C32.7801 33.3667 32.5734 33.63 32.2734 33.81C31.9734 33.99 31.5867 34.08 31.1134 34.08Z" stroke="#493D45" stroke-width="1.5" stroke-linejoin="round" mask="url(#path-4-outside-1_1_2)"/>
<path d="M36.9153 32.9L36.9553 31L39.4653 28.62H41.3253L38.9153 31.07L38.1053 31.73L36.9153 32.9ZM35.6253 34V26.58H37.1853V34H35.6253ZM39.6353 34L37.8153 31.74L38.7953 30.53L41.5253 34H39.6353Z" stroke="#493D45" stroke-width="1.5" stroke-linejoin="round" mask="url(#path-4-outside-1_1_2)"/>
</g>
<defs>
<filter id="filter0_d_1_2" x="3.47945" y="12.83" width="41.3573" height="25" filterUnits="userSpaceOnUse" color-interpolation-filters="sRGB">
<feFlood flood-opacity="0" result="BackgroundImageFix"/>
<feColorMatrix in="SourceAlpha" type="matrix" values="0 0 0 0 0 0 0 0 0 0 0 0 0 0 0 0 0 0 127 0" result="hardAlpha"/>
<feOffset dy="1"/>
<feGaussianBlur stdDeviation="1"/>
<feComposite in2="hardAlpha" operator="out"/>
<feColorMatrix type="matrix" values="0 0 0 0 0 0 0 0 0 0 0 0 0 0 0 0 0 0 0.2 0"/>
<feBlend mode="normal" in2="BackgroundImageFix" result="effect1_dropShadow_1_2"/>
<feBlend mode="normal" in="SourceGraphic" in2="effect1_dropShadow_1_2" result="shape"/>
</filter>
<linearGradient id="paint0_linear_1_2" x1="24" y1="0" x2="24" y2="48" gradientUnits="userSpaceOnUse">
<stop stop-color="#8499CD"/>
<stop offset="1" stop-color="#718FDE"/>
</linearGradient>
<linearGradient id="paint1_linear_1_2" x1="21.1105" y1="10.2215" x2="11.9225" y2="44.5118" gradientUnits="userSpaceOnUse">
<stop stop-color="white" stop-opacity="0"/>
<stop offset="0.5" stop-color="white"/>
<stop offset="1" stop-color="white" stop-opacity="0"/>
</linearGradient>
</defs>
</svg>
